<svg xmlns="http://www.w3.org/2000/svg" width="1415" height="812" fill="none"><path fill="#000" fill-rule="evenodd" d="M118.2 1.5a36 36 0 0 0-26.7 22l-2 5.5h-8c-10.5.2-12.8.6-19.3 3.7A31.3 31.3 0 0 0 43.3 59c-.1 4.7-.4 5.5-2 5.3a74 74 0 0 0-17.3.2c-6 1.8-12 8.6-12 13.4 0 3 1.5 2.6 4.6-1.5 1.5-2 4.5-4.4 6.7-5.5 4.1-2.2 9-2.2 21.4-.1l5.1.8-.3-8.5C49 53 50 50 56 43.7a32 32 0 0 1 31.9-8.1c2.8 1 5.3 1.5 5.7 1.1.4-.3 1-2.8 1.5-5.4A30.8 30.8 0 0 1 105.3 13c14.2-10.4 34-9.4 44.2 2.2a30.4 30.4 0 0 1 7.5 17.5c0 4 2.1 4.3 7.5 1.2 16-9.5 34.8 8.5 27.9 26.5-.8 2.1 3.3 2.2 5.6 0 1.2-1 4-1.5 10-1.5 7.7 0 8.5.1 11.9 2.9 2 1.6 4.7 5 6 7.5 2 4 2.2 5 1.1 8.1-1.3 4-.7 5.6 2 5.6 2.6 0 3.4-2.2 3.4-8.5 0-5.9-2.2-10.5-7.4-15.6-4.9-4.8-9.5-6.2-18.5-5.6l-7.3.5-.4-4.8a31 31 0 0 0-7.1-15.8c-6-6.5-14-8.8-23.6-6.8-5.6 1.2-6.3 1.1-6.8-.3-4.2-14-12.8-22.1-26.2-25-6.4-1.4-9-1.3-16.9.4ZM1256.3 25c-5.3 1.1-11.3 4.2-16 8.2a38.8 38.8 0 0 0-9.3 17c0 1.6-.7 1.7-5 1.2-6.4-.8-14 1-19 4.2a37 37 0 0 0-11.5 15.7c-.7 2.7-.8 2.7-7.6 2-4.3-.3-8.5-.1-11.3.7-8.9 2.5-15.7 11-16 20 0 4.2 0 4.5 2.4 4.5 2 0 2.4-.5 2.6-3.7.4-5.2 2.8-9.4 7.6-12.8 3.4-2.5 5-3 10-3 3.4 0 7.2.7 9 1.6 5 2.6 7.2 1.6 8-3.9a23.6 23.6 0 0 1 14.4-18.8c4.4-1.6 13.9-1.3 16.9.7 3.3 2.2 5.9.4 5-3.6-.9-4 2.9-13 7.2-17.2 8.2-8 23-10.6 32.3-5.9 9.9 5 14.8 12.7 15.7 24.4.3 3.7 1 7 1.5 7.3.5.3 2.1-.3 3.6-1.3a28 28 0 0 1 13.8-5c6.1-.7 10.3.9 14.6 5.4 3.6 3.8 4.9 7.5 4.7 14-.1 2.9 0 5.6.5 6 .3.4 2-.4 3.8-1.7 3.4-2.5 6-2.9 12.8-1.8 6.4 1.1 10.3 3.5 13 8 2.7 4.2 3.2 4.5 5 2.3 1-1.2 1-2.1 0-4.5-3-7-13-12-24.3-12h-5.5l-.7-4c-.8-5-4.8-11-9.3-14-4.6-3.2-15.6-4-22.6-1.6l-5 1.6c-.2 0-.6-1.8-.9-4a40.8 40.8 0 0 0-8.5-17.3c-7-7.5-20-11-31.9-8.7ZM117.5 85.1c-40.6.7-63.6 1.5-66.7 2.5-2.2.7-2.3 3-.3 3.8.9.3 11.6.3 23.8 0a6087 6087 0 0 1 109-1.4c22.4 0 25.8-.2 26.4-1.6.3-.8.1-2-.4-2.5-1.2-1.2-41.6-1.6-91.8-.8Zm164.9 8c-.4.8-1.1 7.2-1.5 14.4a140 140 0 0 1-8.4 40l-6.5 21c-4.7 16-4.5 15.3-6.5 18.2-1.5 2-1.5 2.3.6 4.2 2.2 2 2.3 3 2.3 15.3 0 8.7-.3 13.2-1 13.5-.6.2-2 1-3 1.7-1.8 1.4-1.8 1.5 0 3.5s1.8 2.5.7 5.9a157.6 157.6 0 0 1-15.7 25.3c-2 1.7-1.7 5 .6 5.6 2 .5 2 1.4 2 37.2.1 178 0 273.4-.4 273.8-.2.3-1.8.2-3.5-.2-2-.4-2.8-1-2.4-2 1-2.6-.7-8.3-3.2-11.4a24.5 24.5 0 0 0-18-7.3c-9.7-.2-16 4.5-17 12.6-.3 2.4-1.8 5.3-4 7.9-2.1 2.4-3.8 5.7-4.1 7.9-.5 3-1.2 3.9-3.9 4.8-2.9 1-3.7.7-8.3-2.2-5-3.2-5-3.5-5.1-8-.1-4.9.5-5.5 4.8-4.8 3 .4 6.4-2.7 8.7-7.7 1.3-2.8 2.4-5.6 2.4-6.2 0-.5 1-2.2 2.4-3.8 3.4-4 5.6-9.9 5.6-15 0-4 .6-5.3 5.5-11.2 3-3.6 7.4-8.9 10-11.6 6-6.8 12-18.2 10.2-20-1.9-1.8-54.4-5.7-80-5.8-3.1 0-5.7-.4-5.7-.7 0-.7 14.8-14.6 26-24.5 5.2-4.7 6.3-7 3.7-8.7a168.7 168.7 0 0 1-20.5 0l-62.2-.2-44.5.1-8 2.7c-4.4 1.5-12.2 4.7-17.4 7.2-7.2 3.4-9.2 4.7-8.7 6l.6 2c0 1 3.1 0 9.7-3.1 8.5-4.1 16.3-6.9 17-6 .4.2.7 8 .7 17l.1 16.7-7 2.2c-5.3 1.7-21.6 8.8-23.2 10-.2.2-.6 1.7-1 3.5l-.6 3.3 4.8-2.7c8.6-4.8 19.5-8.8 35-13 4.8-1.2 23.4-4.4 29.3-5 17.6-1.6 26.9-2 51.7-2a750.6 750.6 0 0 1 80.3 3.6c11 1 13.2 1.4 13.2 2.8 0 2.3-9.1 13.5-10 12.2-.3-.6-6.6-1.6-14-2.2a1286 1286 0 0 1-18-1.4c-9.1-1-87.7-1.4-94-.5a664 664 0 0 1-11.5 1.4 136.8 136.8 0 0 0-20.2 3c-.3.3-.3 1.3.1 2.2.6 1.5 1.6 1.6 7.9 1 30.9-3.3 34.4-3.4 73.2-3 22 .3 41.8.6 44 .8 7 .7 27 2 28.8 1.8 1 0 1.7.2 1.7.6 0 .4-2.8 3.8-6.3 7.6l-6.2 6.8-11-1c-19.8-2.1-21.7-2.2-52-2.8a412.4 412.4 0 0 0-74.5 3.5 253 253 0 0 0-17.5 2.6 225 225 0 0 1-11.1 1.8 112 112 0 0 0-19.1 5c-1.3.6-2.3 1.9-2.3 3 0 1.6.5 1.8 3.8 1.4 2-.3 7-1.4 11.2-2.5a132.6 132.6 0 0 1 17-3.7c1-.6 11.2-1.9 37-4.7 12.2-1.3 76-1.7 90-.5 11.7 1 18.2 1.6 23.8 2.3l4.3.5-.2 4.2a16 16 0 0 1-2 6.8c-1.7 2.5-2 2.5-7.6 1.8a466.3 466.3 0 0 0-58.8-2.5c-36.7-.3-56.2.5-72.5 3l-7.5 1c-16.9 2-30.9 4.9-33.2 6.8-2.2 1.8-1.6 4.1 1 3.4a557.1 557.1 0 0 1 71.2-9.2 880 880 0 0 1 99.7 2.4l3.7.7-1.8 4c-3.6 8 1 7.4-56.3 6.9-42-.4-54.2-.2-67.3 1-8.8 1-17.8 1.8-20 2-3.8.4-10.2 1.3-24.5 3.7-10.7 1.7-11 1.8-11 3.8 0 2.7 1 2.8 11.4 1.5l9.3-1s.3 4.9.4 10.6l.2 10.5-10.8.7c-10.7.6-12.4 1.3-12.5 4.6 0 1.3 2.2 1.2 24-.3 2.5-.2 17.6-.6 33.6-1 21.5-.6 29.3-.5 29.8.4 1.2 2 3.4 1.2 4.8-1.6 1.8-3.9 7.2-6 16.3-6.8 9.6-.7 14.5.6 19.6 5.2 5 4.6 11.2 5.5 13 2a38.7 38.7 0 0 1 12.5-13.3c8.8-5.6 17.7-4.3 23.5 3.5 2.6 3.5 3.5 3.8 6 1.4 1-.9 3.6-1.9 5.7-2.2 3.6-.6 3.7-.8 4.2-5.4a12 12 0 0 1 3.8-8c2.2-2.3 3.5-4.8 4.2-8.6 1.2-6.6 1.5-7 5.6-8.7 4.3-1.8 9-1.8 14.6.2 5.7 1.9 7.8 5.7 7.8 14 0 5.2.1 5.6 2.1 5 1.2-.2 4.9 0 8.3.6 12.6 2.1 17.6 12.4 12 24.5-1 1.8-1.4 3.7-1.2 4.3.2.8 20 1.2 68.3 1.5 104.3.7 199 .6 200.8 0 1-.4 1.7-1.3 1.7-2 0-2.2-10.8-2.5-107.6-2.6-51.7-.2-94.7-.5-95.5-.8-1.7-.7-2.2-2.6-1.4-5.2.6-1.9 3.6-1.9 117-1.9 64 0 117-.3 118-.6.8-.3 1.5-1.5 1.5-2.5 0-2-2.2-2.4-9.3-2l-2.7.3V576c0-17-1-20.6-7.4-25.5-6.2-4.7-16.7-3.4-22.2 2.7-3.3 3.5-4.2 8-4.7 22.6-.3 7.4-.8 13.6-1 14-.4.2-2.7.6-5.2.8l-4.6.2.4-12.4c.2-6.8.1-14.2-.3-16.4-2.8-15.4-22.4-20-31-7.3-2 3-2.5 5-2.7 11.4l-.6 16-.4 8.4-5.2.2c-4.1 0-5.1-.2-5.1-1.5-.2-27-.5-32.1-2.6-34.8-3.6-4.9-7.1-6.8-13.6-7.4-5.5-.5-6.4-.4-9.9 2.2-6.3 4.5-7 7.1-7.6 24.7-.2 10.7-.8 15.8-1.6 16.3-.7.4-2.8.7-4.8.6l-3.7-.1-.7-14.6c-.9-17.5-.8-17.3-3.6-21.8-5-8-17.4-9.4-24.9-2.7-5.1 4.7-6.1 9-5.8 25.4l.3 13.5-8.2.6-.6-15.4c-.6-16.7-1.6-21-6.2-24.5-10-7.9-22.5-3.4-25.6 9-.7 3-1.3 11-1.4 17.8v12.5l-5.6.2c-3 0-6-.2-6.7-.6-.8-.5-1.2-18.2-1.2-66.1v-70.5l244.5.3-.8 118 2.7-.5c2.5-.5 2.6-.8 2.7-7.2l.2-32.1c.1-16.1.6-25.5 1.2-25.6l4.6-.8c5.7-1.2 10.4 1.3 13.1 7 3.7 7.9 7.8 5.1 4.5-2.9-3.3-7.8-13.5-11.8-20.2-7.9L571 504l.5-25c.4-23.3.6-25 2.5-27.7 1.6-2.2 2-4 1.8-7.8-.3-4.7-.4-5-3.5-5.2-2.5-.3-4.5-1.8-9-7C551.5 418 551 416.8 551 407c0-9.4-.7-11.5-3.6-11-1.6.4-2 1.6-2.4 8.4l-.5 8-12.5.6v-6c0-8.4-1.3-11.3-4.7-11-1.9.3-2.9 1-3.1 2.4-.6 3.1-1.7 3.7-5.5 3-2.6-.5-3.7-1.3-4.2-3.2-.4-1.8-1.1-2.4-2.8-2.1-2 .3-2.2 1-2.5 8l-.3 7.6-4.3.4c-7.3.5-7.9.2-7.2-4.5.3-2.3.2-5.8-.2-7.7-.7-3.2-1.1-3.5-4.2-3.5-3 0-3.6.4-4 2.5-.4 1.8-1.1 2.5-3 2.5-1.7 0-2.6-.7-3-2.5-.6-2.7-3.5-3.7-6-2.1-1.2.8-1.6 8.7-.7 13.4.1.8-2 1.3-6 1.5l-6.2.3-.3-7.8c-.3-7.7-.3-7.8-3-8.1-2.4-.3-3 0-3.4 2.6-.4 2-1.4 3.2-2.8 3.6-3.3.9-3.5.8-3.8-2.6-.3-2.8-.8-3.4-3.1-3.6-4.6-.6-5.4.9-4.6 8.5.4 3.7.6 7 .4 7.3-.2.3-3 .4-6.2.2l-5.8-.4v-5.1c-.2-7.4-1.1-10.4-3.6-11-3-.8-4.8.2-5.5 3-.5 2-1.2 2.4-3.8 2.1-2.3-.2-3.2-.9-3.4-2.5a3.8 3.8 0 0 0-2.3-2.8c-3.5-1.1-4.8 1.2-5.1 8.8l-.3 7.2-11.5.6v-7.5c0-6.6-.3-7.7-2-8.6-3-1.6-6-.3-6 2.6 0 1.7-.6 2.4-2 2.5l-3.2.3c-.7 0-1.5-1-1.8-2.3-.8-3.3-3.5-5-5.8-3.5-1.3.9-1.8 2.8-2 8.3l-.3 7.1-4.2.1c-5 .2-8-.1-8.7-.8-.3-.2-.4-3.3-.3-6.8.2-7-1-8.9-4.9-8.3a4.7 4.7 0 0 0-3.3 2.5c-.8 2-3.2 3.3-6.1 3.3-.7 0-1.5-1-1.8-2.4-.6-2.6-2.8-3.9-5.1-3-1.4.6-1.8 3.2-2 12.6v2.8H321V263l2.4-1.2c1.4-.6 2.7-1.6 3-2.3.2-.7-2.7-6.1-6.6-12-3.9-6-8-12.8-9.1-15.2-1.2-2.4-2.6-4.3-3.1-4.3-.6 0 0-.6 1.4-1.3 3.8-2 3.8-4.6 0-5.4l-3.2-.6.7-14c.6-12.8 1-14.4 2.8-15.9l2.2-1.7-2.2-3.8c-1.1-2-3.7-9.2-5.8-15.8-2-6.6-4.2-13.8-5-16-.8-2.2-2.4-7.4-3.6-11.5l-4.5-15a52 52 0 0 1-2.5-16c-.1-12.5-1-18.4-3-18.8-1-.2-2 .3-2.5 1Zm913 7.6c-2.5.5-3.9 2.9-2.3 3.9.8.4 134.2.8 155.7.4.6 0 1.2-.8 1.2-1.9 0-1.5-1-2-5.8-2.4-6.5-.6-145.5-.6-148.9 0ZM285 127.2l.3 2.3c.4 2.2 7 23.8 13.7 44a40 40 0 0 1 2.5 11c-.5 1.3-3.1 1.5-17.3 1l-17-.9c-.1-.1.6-2.9 1.7-6.2 4-12.5 9-29 9-30.1 0-.7 1.2-4.7 2.6-9a59 59 0 0 0 2.6-10.6c.1-2.7 1.7-3.9 2-1.4Zm619.8 5.6c-8 2.7-16.5 8.6-19.3 13.6-2 3.4-4.8 10.9-6.2 16.3-.2 1-1 1-3.4.1-1.8-.6-6.2-.8-9.9-.6-10 .7-17.2 5.8-22 15.5-2.1 4-2.3 4.1-5.2 3.1a23.6 23.6 0 0 0-17.2 2.2c-6.3 4.3-11.7 15.1-8.6 17.1 2.6 1.6 3.7 1 4.3-2.6 1-4.9 7-11.1 11.9-12 5-1 10 0 12.2 2.5 1.7 1.9 2 2 3.7.4 1-1 1.8-2.6 1.8-3.6 0-3 3.6-9.3 7.4-12.6a20.8 20.8 0 0 1 22.5-3.1c2.5 1 5 1.8 5.7 1.5.6-.2 1.5-2.6 1.9-5.3 1.7-11.5 5.6-18.3 13.3-23.1 7.9-5 15.3-6.4 24-4.8 13.3 2.6 22 13 23.6 28.1l.5 5.3s1 .2 2.2.2c1.2 0 2.3-.8 2.6-1.9.7-2.8 7.4-6 14-6.7a18 18 0 0 1 11.1 1.6 25 25 0 0 1 7.8 5.3c2.2 2.7 2.5 3.8 2.3 10.1-.3 8.1 1 9.3 5.8 5.7a20.2 20.2 0 0 1 16.2-3.3c8.2 2.5 13.3 9.2 12.4 16.4-.5 3.4-.3 3.8 1.5 3.8 4.8 0 5.4-9.1 1-15.6a26 26 0 0 0-19.3-10.4c-1.8 0-5 .6-7.3 1.4l-4 1.5-.7-3.7a25.5 25.5 0 0 0-9.7-14.8c-6.6-3.5-13-4.3-21-2.8-4 .7-7.6 1.8-8.2 2.4-1.7 1.7-2.3 1.1-3.5-3.7a33 33 0 0 0-20.2-22.7c-7.8-2.7-17.2-3-24-.8Zm-427.4.8a33 33 0 0 0-21.6 16c-2.8 4.9-3.3 5.3-5.2 4.3-2.9-1.6-12.6-.5-17.3 1.9-5.4 2.8-7.2 5-10 12.7-2.8 7.6-2.4 11.8 1 11.3 1.7-.2 2.2-1.2 2.8-5 1.2-9 7-15.3 15-16.4 3.4-.4 5.3 0 9.2 2 5.6 3 7.6 2.3 7.6-2.9 0-3.7 4.2-10 9.2-13.8a27 27 0 0 1 17.5-4.9 25 25 0 0 1 18 7 26.6 26.6 0 0 1 6.3 15c0 3 2.2 3.8 6.1 2.2a15 15 0 0 1 20.9 14c0 5.2 1.9 6 7.1 3 5.2-2.9 12-3.6 15.8-1.5 3.8 2 5.1 4.3 5.1 9.3 0 4.6 2 6 4.5 3.2 2.3-2.6 1.5-8.7-1.6-12.9-4-5.5-14.2-7.5-23.5-4.6-1.8.6-2.2.2-2.8-2.8-1.6-8.5-12-15.5-21.5-14.4-4.7.6-5 .5-5.6-2.1a45 45 0 0 0-8.4-14 32 32 0 0 0-19.1-6.8c-4.1-.2-8.4 0-9.5.2Zm714.2 16c-.4.4-.7 3-.7 5.6 0 3.4-.5 5-1.5 5.4-.8.4-1.5 1.2-1.5 1.9s.7 1.8 1.5 2.5c1 .9 1.5 3.1 1.5 7.3 0 5-.5 6.8-3 10.6-4 6.4-5.6 12.7-4 16.6 2.7 6.4.6 25-3 27.5-2.4 1.7-3 6-3 20.9 0 15.5 0 16-2.5 18.9-4 4.7-4.3 6.8-4 24.2.3 20.6-1 30-5.6 37.3-3.6 5.7-4 10-1.9 16.7 1.2 3.8 1.2 4-2.4 8.1-2 2.3-3.7 4.7-3.8 5.3-1 6.6 0 10.6 2.7 10.6 1.2 0 1.5 2.3 1.5 12.8 0 7-.3 15.5-.6 18.9-.6 6.4-1 6.9-7.4 7.8-2.7.3-4.3 5.9-2 6.7.8.2 1.1 8 1 23.2 0 23.7-.2 25.2-4 24.1-.8-.2-7.4-.7-14.6-1-11.3-.6-13.2-.5-14.6.9-2.3 2.3-3.2 2-6.1-1.6-9-11.3-8.2-10.8-22.9-13-7.3-1-13.9-2.4-14.5-3-.8-.7-1.3-3.8-1.3-8.9v-7.8l-4.3-.5c-15.8-2-15.3-2.1-15.6 7.3 0 4-.5 5-2 5.4-1.2.3-2.7-.3-3.9-1.7-3-3.3-17.4-22.4-22-29.4-4.8-7-7-8.2-14.3-8.2h-4.9v-5.4c0-6.6-2-8.6-9-8.6-2.5 0-6.4-.5-8.7-.9-5.4-1-6.3 0-6.3 6.7v5.4l-3.3-.5c-1.7-.3-8.6-.9-15.2-1.2-18-1-29.7-2.3-30.9-3.5-.5-.5-2-1-3.2-1-1.8 0-4 2.6-10 11.5l-7.7 11.6-21.2-.6-.2-6.4c-.2-3.5-.7-6.9-1.3-7.5-.5-.7-4-1.3-8.4-1.4-8.2-.2-8.3-.1-8.8 6.5-.3 4-2.4 4.9-12.3 5.2-3.8.1-7.2.4-7.5.6-.3.1-4.7.6-9.8 1l-9.2.6-.1-4.3v-5c0-.4-1-1.4-2.2-2.2-2.5-1.7-13.2-1.5-15 .2-.5.6-1 3.6-1 6.9l-.2 5.8-11.5 1.2c-6.3.7-16 1.5-21.4 2l-9.9.6-4.5 4.6c-2.4 2.5-7 8-10 12.3-2.9 4.3-5.8 8-6.3 8.4-1.2.7-3.4-1.8-5.4-6.1-2.7-5.7-5.2-7.7-9.5-7.8-4.4-.1-7.1 1.8-9 6.4-.7 1.6-1.7 2.9-2.2 2.9-1.9 0-9 8.1-20.7 23.5a632 632 0 0 1-15.4 19.8c-3.2 3.7-3.3 3.7-5.3 1.9-1.5-1.4-2-3.4-2.2-7.3-.4-8.7-2.7-14.3-8-18.9-2.4-2.2-4.8-4-5.2-4-.5 0-1.3-1.2-1.9-2.8a87.5 87.5 0 0 0-9.4-15.7c-3.4-5-5-8.8-5.8-13-2.6-13.6-3.9-16.8-8.5-21.1-9.1-8.6-25.7-9.8-35.1-2.7a19.8 19.8 0 0 0-8.3 13c-.8 4.2-.7 5 1 6.5 1.7 1.4 2 2.8 1.9 8.4-.2 6.4 0 6.9 2.9 9.5 1.8 1.7 3.4 4.2 3.7 6.3 1 5.5 5.5 9.4 9.8 8.7 1.9-.3 6.9 3.2 7.7 5.5 1.4 3.6 1.4 3.7-2.6 5.9-2 1-4.7 3.5-6 5.5-2.4 3.7-2.7 4.7-7 28.5a89.9 89.9 0 0 1-8 26.9c-3 6.6-6.3 15-7.4 18.7-1.7 5.6-2.6 7.1-5.4 8.8a30.9 30.9 0 0 0-12 18.1c-.4 1.5-2.5 3.8-5.6 5.9-7.4 5-9.3 8.6-9.4 18.4l-.1 8.2-8.8 2.9c-15.1 5-23.4 12.6-28.3 26.1-4.5 12.3-2.8 23.8 5.9 41.5 7.6 15.3 16.2 25.7 23.3 28 1.8.6 5.4 3.7 8.5 7.2l6.7 7.5c.8.8 1.3 1.5 1 1.6l-5.1 2.5a64.4 64.4 0 0 0-19.6 17.7c-5.1 7-16.1 25-16.1 26.5 0 2-10.3.4-21.1-3.1-10.2-3.4-15.3-3.4-14.7-.2.2 1.2 2.1 2 6.3 3 3.3.6 8.5 2.2 11.5 3.4 4.6 1.9 7.4 2.3 16.5 2.3 9.6 0 12-.3 19.1-2.9l8.2-2.9 8.1 3.2a54.8 54.8 0 0 0 27.4 4.7c12.1-.6 14.3-1 22.7-3.9l7.1-2.5 6.5 3a54 54 0 0 0 21.6 5.5c9.9.8 22-1 33-4.6 5.5-1.8 9.5-2.7 10.2-2.2a98.5 98.5 0 0 0 22.1 7.1c8 1.3 17.6.8 31.8-1.8 6.6-1.1 15.5-2.1 19.9-2.1 8 0 16.8 1.6 16.8 3s6.1 2.3 7.3 1.1c3.5-3.5-10.6-9.2-21.4-8.6l-6.6.4-5.4-4.7a130.8 130.8 0 0 0-20.8-15.3c-5.4-2.8-5.8-3.6-1.9-4.4a48.6 48.6 0 0 0 22.5-9.8c2.4-2.2 4.3-4.8 4.3-5.7 0-.9.4-2 .9-2.5 1.4-1.6 3.1-10 3.1-15.7 0-20.8-6.7-41.3-20.5-62.3a233.2 233.2 0 0 1-15.6-25.4 73.8 73.8 0 0 0-25-28.6c-3-1.8-8.4-4.1-12-5l-7.7-2c-.9-.4-.6-1.6 1.2-4.4 5.3-8.3 7.1-29.7 4-47.1-.7-4.7-2.1-12.5-3-17.5-.8-5-1.8-12.3-2-16.4-.6-6.5-.4-7.5 1.2-8.5 2.4-1.3 38.6-2.7 39.8-1.5.5.5 1.3 40.5 2 98.4.1 14.7.2 15 2.4 15.3 1.3.2 2.2-.2 2.3-1 .2-3-.2-64.3-.6-86.8-.3-13.5-.1-25 .3-25.6.4-.7 6-1.4 13.7-1.9l19.5-1c3.6-.3 20.3-.7 37.3-1l30.7-.7v4.3c.9 40.3 1.2 143 .6 143.7-.7.6-16.2 1-53.4 1.4-32.4.3-34.3.5-32.8 4.4.5 1.4 5 1.5 46.4.9A5037.8 5037.8 0 0 1 925 637c65.5-.1 77.8-.4 79.5-1.6a15 15 0 0 0 3.8-5.8c1.8-4.8 7.2-8.7 12-8.7 5.5 0 11.3 4.7 14 11.2 1.7 4 5 5.6 10.6 5.1 5.1-.4 5.7-.8 6.5-4.3.4-1.8 2.4-4.9 4.5-7 6.5-6.5 17-6.3 22.9.5 3.6 4.1 6.3 9 5.4 9.9-1.4 1.4 3 1.7 7.9.6 6.7-1.7 10.4-1.5 13.4.5 1.5 1 4 1.5 6.2 1.3 3.3-.3 3.8-.7 5-4.3 2.8-8.3 5.3-12.2 8.8-13.8 4.3-2 6.7-2.1 10.4-.2 4 2 7.3 7.1 8 12 .5 4.3 3.5 6.1 5.2 3.1 1.3-2.2 6.4-4.7 10-4.8 1.5 0 5.2 1.1 8.2 2.6 4.3 2.2 5.8 2.5 8 1.7 1.4-.6 2.6-1.5 2.6-2s2-1.7 4.5-2.6c4.3-1.7 4.5-1.7 8 .4 4.9 2.8 6.4 2.7 7.7-1 1.2-3.5 6-6.3 9.3-5.5 3.7 1 8.3 5.3 9.5 9.1 1.3 3.8 3 4.3 7 2a18.1 18.1 0 0 1 13.9 0c1.5.7 4 3.3 5.5 5.6l2.8 4.2 8.6-.7c11.7-1 12.8-1.3 14.2-4.7 1.7-4 6.5-6.7 11.7-6.4 4.5.3 9.2 3 13.2 7.8 3.4 4 6 4.8 9.5 3 2.5-1.3 6.3-1.5 23.8-.9 11.4.4 21.4 1 22.3 1.2 1.5.6 6.5-4 6.5-6 0-1.8 4.8-6.6 6.5-6.6a9 9 0 0 1 3.8 1.5c4.4 2.8 9.8 2.4 9.7-.9 0-.6-2.4-2.3-5.2-3.7-8.6-4.3-10.9-11.5-6.7-20.5 3-6.5 7.5-10.7 10-9.4 1 .6 2.7 1 3.8 1 1.9 0 2.1-.6 2.1-5.8 0-10.4 5.8-21.2 11.4-21.2 4.8 0 9 7.2 9 15.4.1 5.5.3 6 2.5 6.1 7 .5 9.3 15.2 2.8 18-3.2 1.4-3.2 3.7 0 7 2 2 2.8 3.7 2.8 6.6 0 4.7-1 5.7-7.7 8-3.8 1.3-5.3 2.3-5.3 3.6 0 2.7 7.7 2.1 12-.9 6.1-4 7.8-10.3 5-17.3-1.5-3.5-1.5-4 .6-9.1 2.2-5.3 2.2-5.5.6-10.7-1-3-3-6.6-4.7-8.2-2.3-2.2-3-3.7-3-6.7 0-7.4-6.4-16.2-12.6-17.4-5.6-1-13.3 5.5-15.8 13.4-1.9 5.8-2.6 1-2.6-16.8 0-16.4.2-19 1.5-19 3.2 0 2.7-3.1-1.3-8.8a390.3 390.3 0 0 1-19.2-31.5c-2.2-3.7-2.2-3.8-.4-5.3 4.8-3.8 6.4-4.4 11-4.5 6.2 0 10.7 1.3 15 4.6 4.9 3.7 6.6 8.5 6.2 17.4l-.3 7.3 4.8 1.3c2.6.6 5.7 2 6.8 3.1 2.6 2.3 4.9 7.4 4.9 10.9 0 1.8.5 2.5 2 2.5 2.7 0 3.5-4 2-9.6-1.4-5-6.5-10-11.5-11.2-3-.8-3-1-3.5-8.8-.7-8.5-2.2-12.3-6.7-16.6-8.2-7.9-25-8.9-32.5-2l-2.7 2.5-2.8-4.6-3.8-6.2c-1-1.6-1.7-1.6-6.5-.6-3 .6-7.7 1.4-10.5 1.7-2.7.2-8.2.9-12 1.4-3.8.5-10.6 1.2-15 1.5a120.1 120.1 0 0 0-27.2 3.5 846.5 846.5 0 0 0-16.6-21l-5.9-7.1-5.1.6c-2.9.3-6.7 1-8.5 1.5-3.8 1-3.4 3.8-3.8-26.5-.2-12.5.1-21.8.8-24.8 1.4-5.7.6-6.8-5.4-7.6-4.2-.6-4.3-.7-5-5.1-.3-2.5-.7-11.6-.7-20.3-.1-15.1 0-15.7 2-15.7 2.5 0 3.5-2.4 2.2-5.3l-2.9-6.7c-1-2.5-2.3-5.2-3-6-.6-.8-2.1-3.5-3.3-6-2-4-2.1-6-2-20 .1-22.3.3-21-3.7-24.6l-3.5-3.3.2-19.8c.2-18.5 0-20-2-24-1.7-3.4-2.1-6.1-2.3-15.5-.1-9.5-.5-12-2.4-16-1.9-3.7-2.3-5.9-2-11.5.2-3.8.8-7.8 1.4-9 2.2-4 1.4-9.2-2.3-15.7-4.2-7.6-4.9-15.2-1.5-17.4 2.6-1.6 2.5-3.4 0-5.8-1.5-1.3-2-2.8-1.9-5.4.2-2 0-4.1-.5-4.8-.8-1.3-2.9-1.6-4-.5Zm4.7 40.2c1.6 3.5 1.6 4.4.4 6.8-2.4 5.2-7.8 4-7.8-1.9 0-3.1 3.7-10 5-9.3.3.3 1.5 2.3 2.4 4.4ZM539 187.7c-.8.1-21.2.4-45.4.6-46 .3-50.4.8-47.4 4.4 1.2 1.3 7 1.4 50.6.9 27.1-.4 50-1 50.8-1.2.8-.4 1.5-1.4 1.5-2.4 0-1.4-1-1.9-4.3-2.1-2.4-.2-5-.3-5.8-.2Zm-238.4 4.4c.5.5.5 6.1.2 24.6 0 3.8-1.3 4-13.2 3.2-4.4-.3-7.2-.6-6.3-.7 1.6-.2 1.8-1.3 1.5-10.2-.1-7.9-.6-10.3-2-11.7-3.2-3.2-4.2-.3-4.1 11.8V220h-8.2l-.2-11.7c0-6.4-.4-12.4-.7-13.5-1.2-3.7.2-4 16.6-3.6 8.7.2 16 .6 16.4 1Zm-208 3.4c-5.8 2.2-9.8 5.8-12.6 11-2.2 4.1-2.7 4.5-4.9 3.8-1.4-.4-5.4-.8-9-.8-12 .1-19 6.8-19 18.2v5.1l-6.7.7c-6.7.7-12.9 3-15 5.7-1 1.3-1.6 4.5-1.4 8 .1 2.6 2 2.2 3.2-.6.6-1.3 2.5-3.4 4.3-4.7 2.7-2.1 4.2-2.4 12.1-2.4h9l.2-8.4c.3-12.3 3.8-16.4 14-16.3 4.3 0 6.3.6 9.1 2.6 3.8 2.7 6.2 2.2 6.2-1.4 0-4.9 5.2-12 10.8-15a21 21 0 0 1 16.8 0c6.3 2.7 10.1 8 11.6 16 .9 5.2 1.3 6 3.2 6 1.2 0 2.7-.5 3.3-1.1 1.8-1.8 11.8-1.3 15 .6 4.7 2.8 6.7 6.3 6.8 12.2.2 6.4 1.6 8.3 4.5 6.5a17.6 17.6 0 0 1 15.3-.4c5 2.3 7 5 6.9 10-.1 2.8.2 3.2 2.3 3.2 2 0 2.5-.6 3-3.5.6-2.7.2-4.4-1.9-7.8-3.3-5.8-7.7-7.9-17.2-8-4-.1-7.4-.4-7.5-.7l-.4-3.3c-.4-3.3-3.4-8.3-6.8-11.5-2.6-2.5-12.4-4.7-17.3-3.9-2.9.5-3.2.3-4.8-4.2a26.4 26.4 0 0 0-12-14.3 32 32 0 0 0-21-1.3Zm198 1.9c-1.6 1.2-2 2.8-2.2 10.5-.2 8 0 9.2 1.6 10 3 1.6 3.9-.5 4.6-10 .5-6.3.3-8.8-.7-10.2-1.2-1.6-1.6-1.6-3.3-.3Zm555.6 6.5c-3.1.8-3.8 2.7-1.3 3.5 3.2 1 157.6 1 159.5 0 1.1-.7 1.3-1.4.7-2.4-.8-1.3-11.1-1.5-78.7-1.7-42.8 0-78.9.2-80.2.6ZM1195 208c0 .6-.9 1-2 1s-2-.4-2-1 .9-1 2-1 2 .4 2 1Zm0 7.5c0 .8-.9 1.5-2 1.5s-2-.7-2-1.5.9-1.5 2-1.5 2 .7 2 1.5Zm119.3 4.3c-7.1 2.3-14 8.3-17 14.7l-2.3 5.3-6.3-.5c-11-1-20.8 5-24.2 14.6-1.9 5.4-2 7.7 0 8.4 1.7.7 2.9-.8 4.4-5.5 1.9-5.7 9-11.5 15.1-12.3 4.1-.6 5.7-.3 8.7 1.5 4 2.3 6.3 2 6.3-.9 0-3.1 3.9-11.4 6.8-14.4 6.7-7 19.4-9.1 26.6-4.3 4 2.6 7.6 11.5 8.5 20.8.1 1.3 2.6 1 6-.8a17.7 17.7 0 0 1 16.3.7c5.5 4 6 4.8 5.4 12.2-.4 5.4-.2 7 1 7.4.8.3 2.1 0 3-.7 2-1.7 10-.7 12.4 1.5 1 1 2 2.9 2.2 4.4.2 1.8.9 2.6 2.3 2.6 4.7 0 1.9-10.3-3.4-12.4-1.4-.6-4.7-1.5-7.2-2.1-4.4-1.1-4.6-1.3-4.7-4.8-.2-4.8-4.7-11.2-9.5-13.5a26 26 0 0 0-15.5-1.2c-2.3.5-3.3.3-3.6-.7-3.5-12-8.3-17.7-16.8-20.3-6.3-1.9-8-1.8-14.5.3Zm-116.3 3.8c1.3 2.2 1.2 2.7 0 3.4-1 .5-4.2 3-7.5 5.4a38 38 0 0 1-6.7 4.6c-3.3 0 4.3-13.1 8-13.6.8-.2 2-.7 2.5-1.3 1.6-1.6 2.2-1.4 3.8 1.5Zm-897.5 2.8c.6.2 3 4.2 5.4 9 2.5 4.7 4.8 8.6 5.3 8.6.4 0 .8.5.8 1a28 28 0 0 0 4 6.4l3.9 5.3-34-.3c-18.8-.1-34.3-.5-34.6-.7-.2-.3 2.3-4.8 5.6-10a73.4 73.4 0 0 0 7.3-14.3c.7-2.6 2-5 3-5.3a293 293 0 0 1 33.3.3Zm400 2.6c-9.5 2-17.3 7-21.6 14l-3 4.8-7.2-.5c-6.3-.5-8-.2-13.1 2.1-9 4-15.6 12.5-15.6 20.2 0 3.3-.2 3.6-2.3 3-11.9-3.4-20.5-.6-26.3 8.6-2.9 4.5-3 11-.3 11.6 1.2.2 1.8-.7 2.2-3.3 1-5.8 5-10.2 11.1-12.1 5-1.6 5.7-1.6 10.4 0 8.3 2.7 8.9 2.4 9.7-4.1 1.3-10.8 7.3-18.2 16.2-20.1 5.6-1.2 12-.9 13.6.7.6.6 2.1 1.1 3.4 1.1 1.7 0 2.5-.9 3.4-4.1.7-2.3 3.2-6.2 5.5-8.9a26.6 26.6 0 0 1 38.4 0c3.7 4 7 12.3 7 17.7 0 4 2.2 4.8 5.4 1.8 1.4-1.3 5-2.9 7.8-3.5 7-1.6 12.3-.2 16.8 4.5 3 3 3.4 4.3 3.8 9.7.5 7 1.4 8.2 5.1 6.4 7.2-3.6 16-2.4 21.6 2.9 3 2.8 3.5 3.9 3.5 7.9s.3 4.6 2 4.6c4.3 0 3.8-9.4-.7-15-4.6-5.5-9.4-7.3-18.5-6.8-4.8.2-7.8 0-7.9-.7-.4-6.9-2.7-11.5-7.1-14.8-6.3-4.7-13.1-5.6-23.9-3.1-2.3.5-2.7 0-5.3-5.9a30.6 30.6 0 0 0-34.1-18.7ZM1199 238c0 2.6.3 6.8.6 9.3.5 3.7.3 4.6-1.1 5.2-1 .4-2.1.2-2.5-.3-.8-1.3 0-17 .9-18.8 0-.2.5-.3 1.1-.3.5 0 1 2.2 1 4.9Zm-9.5 10.2c0 7.7-.3 9.2-1.9 10.4-2.9 2.2-3.6 1-3.6-5.8 0-5 .5-7 2.5-10l2.8-3.7c.1 0 .2 4 .2 9Zm-1056.8 8.5-40 .7c-32.8.5-40 .8-41.8 2l-2 1.5 2.2 1.3c1.7.9 10 1 34.8.6 18-.4 41-.7 51.3-.7H156v-2.5c0-1.4-.6-2.6-1.3-2.7-1.5-.2-21.8-.3-22-.2Zm1070.8 3.5c.7 4.2-.2 5.8-3.2 5.9-2 0-13.7 6.8-19.5 11.3l-3.8 2.9v-3.9c0-2 .4-4.4.9-5.1.8-1.3 23-15.1 24.3-15.2.3 0 1 1.9 1.3 4.1ZM316 427.8c.3 91.1.4 167.8.2 170.4l-.3 4.8h-21.4l-.2-11.9c-.1-10.1-.5-12.5-2.5-16.7-2.8-6-7.8-8.5-12.6-6.5-5.3 2.2-6.2 5.4-6.2 21V603h-4.8c-2.7 0-5-.2-5.4-.5-.2-.3 0-2.9.5-5.7.6-3.7.6-6.6-.2-9.6-1.3-4.6-7-11.7-10.2-12.7-1.8-.6-1.9-3.8-1.9-156.5 0-144.1.2-155.9 1.7-156.2.9-.2 15.4-.2 32.2 0l30.6.2.5 165.8ZM1203.5 286c.4 8 .9 14.8 1.1 15.2.4.6-4.6 3.8-6 3.8-.3 0-.6-2.2-.6-4.9 0-8.2-1-11.2-3.4-10.9-2 .3-2.1 1-2.1 8.9 0 8.7-1.1 11.9-4.1 11.9-1 0-1.4-1.8-1.4-7.3 0-7.8-1-10.3-3.3-9.4-2 .7-3 7.8-2.5 15.7.3 3.6 0 6-.6 6-.5 0-1.8.8-2.9 1.7-1.8 1.7-1.9 1.7-1.3-1.7.3-2 .7-9.1.8-16l.3-12.5 3.1-2.7a15 15 0 0 1 3.9-2.8c.4 0 2-1 3.6-2 3-2.2 14.2-8 14.5-7.7l.9 14.7Zm71.5-12.6c0 1.4.6 2.6 1.3 2.6l37.2.6c61.4 1.2 58 1.3 58.3-1.4.3-2.1 0-2.2-7-2.3a1109.5 1109.5 0 0 0-50.6-1.5l-39.2-.5v2.5Zm-1008.3.8c-1.7.9-2.4 4.7-1 5 4.2.6 5.8.1 6-1.7.4-2.6-2.7-4.6-5-3.3Zm16 .5c-1 1-.8 4.1.3 4.8.5.3 2 .3 3.4 0 1.8-.5 2.3-1.2 1.9-2.3-1-2.8-4-4.1-5.6-2.5Zm17 0c-1.3 1.2-.7 5.3.7 5.3 2.7 0 4.6-1.2 4.6-3 0-2.3-3.7-4-5.3-2.3Zm758.4 2c-5.5 1-14 8.4-16 13.7-.9 2.1-1.4 2.6-2.4 1.7-2.2-1.7-11.8-2.4-16.5-1.2-5.8 1.6-12 8-12.8 13.3-.4 2-1 4-1.4 4.3-.5.3-3.6.7-7 1-7 .5-11 2.5-11 5.6 0 2.7 2.7 3.5 5 1.4 1.5-1.3 4.2-2 10-2.3l8-.5.5-3.6c1.5-8.8 4.5-12.4 11.6-14 5-1.1 9.3-.4 13 2.3 1.3.9 3.4 1.6 4.6 1.6 2 0 2.3-.5 2.3-3.3 0-7.7 9.2-15 19-15 10.6-.2 16.9 5.8 17.4 16.6.2 4 .7 5.3 2 5.5 2.8.6 3.7-1.8 3-7.8-1.8-15.2-12.7-22.4-29.3-19.3Zm-777.6 11a18 18 0 0 0-9.6 8c-1.5 4-1.3 10.6.4 13.9 5.2 10 19.6 10.5 25.2 1 4.3-7.3 2.9-16-3.2-20.4-2.9-2-9.2-3.2-12.8-2.4Zm10.6 7.2c2.3 2.4 2.9 3.8 2.9 7.3 0 6.5-3.6 9.8-10.3 9.8-5 0-8.7-3.8-8.7-9 0-5 1.2-7.5 4.8-9.4 4.3-2.4 8-2 11.3 1.3ZM657 293c-9.6.3-18 .9-18.8 1.3a3 3 0 0 0-1.2 2.3c0 1.6 1.9 1.8 18 1.6l67.7-.2c49.2-.1 57.3-.3 58.4-1.6 3-3.7.7-3.9-53.9-3.9-29 0-60.6.2-70.2.5Zm553.5 16.2c-.4 3.4-1.3 4.1-9 7.3a93 93 0 0 0-26.5 17.2 80 80 0 0 1-6.8 6.3c-1.3 0 1.3-6.8 4-10.7 4.6-6.4 17.4-14.5 34.8-22 3.7-1.7 4-1.6 3.5 1.9Zm.7 31.8c.2.8.9 2.4 1.5 3.5 1 2 .8 2-20.7 2-24.7 0-23.7.5-15.2-8 5.3-5.4 6.6-6.3 22.2-14.6l10.5-5.6.7 10.6c.4 5.8.8 11.3 1 12.1Zm-942.5-13.3c-.4.3-.7 5-.7 10.5v9.8h6v-9.9c0-8-.3-10-1.6-10.5-2-.8-3-.8-3.7 0Zm12.9 2.5c-.3 1.3-.4 5.7-.3 9.8.2 7.3.3 7.5 2.7 7.5 2.5 0 2.5 0 2.5-9.5 0-9-.1-9.5-2.2-9.8-1.7-.2-2.4.3-2.7 2Zm13.2-1a58 58 0 0 0-.3 16c.5 2.3 1.2 2.8 2.8 2.6 2-.3 2.2-1 2.5-10 .3-9.8.3-9.8-2.2-9.8-1.3 0-2.6.6-2.8 1.3ZM1213 353c2.4.5 4.2 1.8 5.8 4 2.8 4.3 1.8 5-5.2 4.2-7.5-.9-38.3-.7-44.3.3l-5.2.8 1-3.3c.4-1.8 1.3-3.7 2-4.3 2.6-2.7 35.2-4 46-1.7Zm-1187.5 1c-8.2 2-18.5 6.7-18.5 8.4 0 3.6 1.7 3.8 7.6.9 11.9-5.9 24.2-6.7 32.3-2.1 5 2.8 7 6.7 6.5 12.8-.2 2.5-.1 5.4.2 6.4.6 2 3.7 2.2 5.3.3.7-.8 3.4-2 6.1-2.6 4.4-1 5.4-1 8.2.7 5 2.9 7.4 7.2 7.7 13.4.1 3 .7 5.8 1.2 6.4.5.5 4.4.9 8.5.7l7.5-.3 4.6 4.5c2.5 2.5 5 4.3 5.5 4 2.7-1.7-1.5-10.4-6-12.3-1.5-.6-5.2-1.3-8.2-1.5l-6.2-.5c-.4 0-1-1.8-1.3-3.9-1.3-7.8-3.6-11.3-10-15.3-3.3-2-9.8-2.5-14-1-1.9.8-2.7.8-3-.2l-1.4-5.4c-3.2-11.8-16.7-17.3-32.6-13.4Zm1187 12.7c2.5.3 4.7 1 5 1.4.2.4.5 9.2.5 19.5.2 20.2 0 20.9-5 19.7-1.3-.3-12.4-.6-24.5-.5h-22l.3-19c.2-10.6.6-19.4.8-19.6 2.3-2.4 32.3-3.4 44.9-1.6Zm-938 1.7c-.4.8-.5 4.5-.3 8.3.3 6.6.4 6.9 2.7 6.9 1.8 0 2.6-.7 3.2-2.8.8-2.8.3-11.2-.7-12.8-.8-1.4-4.4-1-5 .4Zm14.2.3c-.4.4-.7 4.3-.7 8.6 0 7.6 0 7.8 2.5 7.8 2.8 0 3.8-3.4 3.3-11.5-.2-4.1-.6-5-2.3-5.3-1.2-.2-2.4 0-2.8.4Zm891.5 9.6c-1.3 1.3-1.6 11.7-.6 15.6.7 2.5 3.9 3 4.8.6.3-.9.6-4.7.6-8.4 0-5.7-.3-7.1-1.8-8-1.3-.6-2.3-.5-3 .2Zm16 0c-.7.7-1.2 4.7-1.2 9.6v8.3l2.6-.3c2.5-.3 2.7-.6 3-6.8.3-3.6.2-7.5 0-8.6-.7-2.6-3-3.7-4.5-2.1Zm-199.5 13.9 6.3 1.1v11.5l-6.2-1.3c-3.4-.7-6.5-1.1-6.9-.9-.9.6-1.9-7-1.2-9.5.6-2.4 0-2.3 8-.9Zm-361 9.7c2 1.1 4.6 2.8 5.5 3.8a31 31 0 0 1 5.8 15.5c0 5 3.5 12.8 9.8 21.3 2.9 3.9 5 7.1 4.9 7.3a68 68 0 0 1-17.4-7.9c-1.2-1.1-3-4.4-3.9-7.2-2.2-6.6-4.5-9.1-10.2-10.7-2.6-.7-9-3.5-14.4-6.2-9.2-4.7-9.6-5-8.7-7.4 2.2-6 4.6-8 11.9-10.4 3.8-1.3 12.3-.3 16.6 2Zm299 .5c4.5 5.2 10.6 14 23.6 34 6.7 10.2 14 21.2 16.2 24.3l4 5.6-.3 46.1-.2 82.8v36.6l-14 .2v-15.8c0-14.7-.2-16-2.2-18.6-1.9-2.4-2.6-2.7-6.2-2.2-7.1 1-7.7 2.5-7.4 20.6l.3 15.6-8.5.6v-16.5c0-15.3-.2-16.8-2-18.6-2.5-2.5-6-2.6-9.1 0-2.3 1.7-2.4 2.5-2.9 18.2l-.5 16.3h-7l-.6-15.5a81 81 0 0 0-1.8-17.8c-1.7-3.2-9-3.5-12.3-.5-1.6 1.4-1.8 3.5-1.8 18V632h-10v-24.3l-.3-85.2-.2-61 3-5c1.5-2.8 4.7-8 7-11.5 2.4-3.6 7.4-11.5 11.2-17.7 3.7-6.1 9.2-14.6 12-18.8a57 57 0 0 0 5.3-8.6c0-1.8 1.8-.8 4.6 2.4Zm28.3-.8c17.5 1.3 19.6 1.7 21 3.5 1.2 1.6 3.7 2.4 11 3.5 12.5 2 12.9 1.9 14-1 .8-2.2 1.2-2.4 3.6-1.5 1.5.6 3.6 1 4.8.8 1.5-.2 2.9 1 5.3 4.7 4 6.3 11.6 17 16.9 23.8 18.7 24 25.4 33 25.4 34 0 .9-23.7.3-35.5-.8a602 602 0 0 0-15-1c-5.4-.3-10.1-.8-10.4-1a73 73 0 0 0-9-.9c-8.3-.5-8.5-.6-12.8-4.8-3.8-3.7-11.4-14.8-34.2-49.8-3-4.7-5.9-8.6-6.3-8.8-1.3-.6-1-2.2.5-2.2l20.7 1.5Zm402 1.4c-9.9 3.8-16.7 9.8-19.7 17.3-1.2 3-2 3.8-3.2 3.3-.9-.4-3.8-.9-6.6-1.2-10-1-17.7 5.9-17.9 15.7l-.1 4.8-5.3.5a22 22 0 0 0-7.8 2.2c-6.8 4.4-11.4 16.5-6.3 16.5 1.6 0 2-.4 1.5-1.7-.9-2.1 3.7-8.6 7.2-10.3 1.5-.7 5.6-1.6 9-1.9l6.5-.6.1-6.6c.2-8 2-11 7.5-12.7 4.5-1.4 7.9-.9 13.4 2.2 3.3 1.8 3.9 2 4.7.6.5-.8 1-2.5 1-3.8 0-1.2.6-3.7 1.3-5.5 6-14.4 26.7-19.5 38.6-9.6 3 2.5 3.8 2.7 5 1.5 2.2-2.3-.2-5.2-7.2-8.5-7.9-3.8-15.5-4.6-21.7-2.2Zm-1010.4 6.7c0 2.5.6 5 1.1 5.5.6.6 5.7.8 11.4.7l10.4-.3.6-10.2 13-.2-.2 4.8c-.1 2.6 0 5.2.4 5.8a68 68 0 0 0 21 .7c1.3-.4 1.7-1.7 1.7-6v-5.5l6 .2c6.5.2 7.3 1.2 6.3 7.3-.3 1.9 0 3.6.5 4 .5.3 5.4.6 10.8.7 8 0 10-.2 11-1.6 1-1.2 1.2-5 .4-5-.1 0-.3-1-.4-2.2-.2-2 .3-2.2 5-2.5l5.3-.3.6 11h22l-.4-11.4 10.9.4V417l4.3.2c19 .8 19.4.6 18.3-6.6l-.7-4.4 13.3-.7-.6 5.7c-.7 6.7-.6 6.8 10.2 6.8 4.5 0 8.4.6 9.3 1.3.8.7 5 5.6 9.3 11l7.8 9.9-102.3-.7-120.9-.8-18.5-.2v-22l20-1 .3-5.1c.2-4.3.6-5.1 2-4.8 1 .3 3.5 0 5.7-.4 2.2-.5 4.2-.7 4.4-.6.2.2.5 2.4.7 5Zm532.4-1c0 3.8-.3 4.4-2 4.4-1.2 0-3 .4-3.9 1-1.5.7-1.7.2-1.9-4.5l-.2-5.4 8 .1v4.4Zm-605.9-1.3c-1.8 2.2-2.2 16.5-.5 18.2 1.7 1.7 4.4 1 4.5-1.4 1.2-15.1-.3-21.2-4-16.8Zm548 2.2c-.2 2.9-.8 3.5-2.7 3.6l-3.6.3c-.8 0-1.4-1.4-1.5-3.6l-.3-3.8h8.6l-.4 3.5Zm369.7 40.3c0 30.3-.2 36-1.4 37.7-1.5 2-1.6 1.9-5-2-14.2-16.3-17-19.4-18.2-19.4-.6 0-1.2-.5-1.2-1 0-.4-3.2-1.2-7-1.8-4-.6-7.3-1.3-7.6-1.5-.5-.6-.7-11.9-.5-31.3.1-15.9.1-16 2.5-17.1 1.4-.7 9.3-1.2 18.7-1.3 9-.1 16.6-.5 16.9-.7.2-.3 1 .2 1.6 1 .8 1.2 1.2 12 1.2 37.4Zm19.7-36.3 7.3.5h2.2v57.1l-3 3.9c-2 2.3-3.8 6.4-4.9 10.6l-1.7 6.9-8.3.3c-7.7.3-8.3.1-7.5-1.5.4-1 1-19.3 1.2-40.6l.4-38.9 4.6.7 9.7 1Zm-341.8 3.3 2.2 1.7-14.2 21c-22.8 34-26.4 37.9-35.8 38.9-3 .3-19 .8-35.8 1.1a579 579 0 0 0-31 1c-1.3.7-30.1 1.8-30.1 1 0-.9 11.2-17 17-24.5l12-15.5c3.7-5 8.7-11.1 11.1-13.7l4.4-4.6 10.5-.7c12.3-.8 14.1-1 32.5-3a509 509 0 0 1 24.5-2c15.3-.7 27.4-1.7 28-2.1.8-.8 2.6-.3 4.7 1.4Zm33.3 4c0 .4-2.5 4.5-5.5 9.2l-9.6 15.5a215.3 215.3 0 0 1-15.2 23.2 24 24 0 0 1-3.6 4.8c-1 .6-29.1 2.8-29.6 2.3-.2-.2 3.6-5.7 8.3-12.3 4.8-6.7 13.2-19 18.7-27.7l10-15.5 13.2-.2c7.3 0 13.3.2 13.3.6Zm-293.7 3.9c1.8.9 6 2.7 9.6 3.9 6.8 2.4 6.3 1.8 12.2 13.9 2.6 5.3 1.4 4.6 20.4 12 10.1 3.9 15.9 8.4 17.4 13.7 2.6 8.6 2.3 22-.9 36.8-4.2 19.5-6.5 26.5-10.6 31-3.5 3.8-8.3 5.9-36.9 15.5a532 532 0 0 0-37.3 15.5c-4 1.9-4.2 1.9-4.2.1 0-2.6 5.5-9.8 9.3-12.2 1.8-1 6.4-2.9 10.2-4a220 220 0 0 0 43.2-21.7 22 22 0 0 0 5.2-10c2.5-8.9 5.2-24.3 5.4-31.2.2-5.2 0-5.5-2.4-5.8-2.2-.3-2.8.2-3.3 2.3-.4 1.5-.4 3.6 0 4.7 1 3.1-.5 8.7-2.6 9.8-3.4 1.8-14.1 2-18.3.3-4.3-1.7-4.5-3-2.3-13 1-5.3 1-6.5 0-7.4-2.2-1.8-4 .5-5.3 6.8-1.4 7-1.4 12.8-.1 15.3.5 1 2.3 2.3 4 2.9l3 1-19.3 38-6 2c-5.4 1.9-5.8 1.9-5.2.3l1.5-4.7c.5-1.6 2.9-7.5 5.4-13 5.9-13 9.8-28.6 12.2-48.5.8-6 4-10.4 9.3-13.2 2.4-1.2 4.6-2.8 4.9-3.6.6-1.7-3.5-10.6-6.5-13.8-1.6-1.8-3.3-2.4-6.2-2.4-4.8 0-7.1-2-7.1-6.4 0-2.3-.9-4.1-3-6.2-2-2-3-4-3-6 0-4.9 1.8-5.6 7.3-2.7Zm314.5-1c-4 .6-5 2.6-5 10 0 7.9 1.2 9.3 7.8 9.1 4.4 0 4.4 0 4.5-3.7 0-2 .3-5.7.5-8.3.4-4 .2-4.8-1.8-6.2-1.2-.9-2.5-1.5-2.8-1.5l-3.2.6Zm247.2 3.8c-1.5 1.8-.8 14 .8 15.7.6.6 1.8.8 2.6.5 1.3-.5 1.6-2.2 1.6-8 0-8.7-2-11.9-5-8.2Zm35.5 2.7c-.3 1.8-.5 5.8-.3 8.8.3 5.1.5 5.5 2.8 5.5 2.5 0 2.5-.1 2.5-8.5 0-8-.1-8.5-2.2-8.8-1.8-.3-2.3.3-2.8 3ZM934 432.9c0 7.7-3 7.9-3.6.3-.4-4 .1-5.2 2.2-5.2 1 0 1.4 1.3 1.4 5Zm43.8-3.9c-3 1.9-2 4.7 5.2 14.8 6.8 9.5 7.2 9.8 11.1 10 6.2.4 7-.8 6.3-9.2-.8-10.7-1-11.4-5.2-13.5-4.5-2.3-15-3.5-17.5-2Zm41.2 3.7c-2.5.3-5.3 1.1-6.2 2-1.5 1.4-1.4 1.8 1.3 6.5l7 11 4 5.8h5.4c3 0 5.5-.3 5.6-.8.4-4.2.5-13.4.1-16a13 13 0 0 0-3.5-6.2c-3.2-3.1-3.5-3.1-13.7-2.3Zm51.5 12.3h-4.7c-2.6 0-5-.4-5.3-1-1-1.6-.8-10.2.3-10.9.6-.3 2.9-.7 5-.7l4-.1.7 12.7Zm-80.8-10.3c4.7.6 5.3 1.7 5.3 9.6 0 5.7-1.9 6.3-4.9 1.4-1.1-1.9-3.4-5-5-7.2-3.5-4.3-4-6-1.4-5 1 .4 3.7 1 6 1.2ZM741.5 438c.8 1.6 3 4.3 5 5.9l3.7 3-6.4 8.4-10.8 14.7c-9 12.8-7.3 11.8-21.5 12.6-11.8.7-15.3.3-13-1.3.6-.4 7-8.7 14.3-18.4 7.3-9.8 13.8-17.9 14.5-18l2.2-.2c2-.3 3.5-1.8 3.5-3.7 0-6.1 5.8-8.1 8.5-3Zm283 .5c5 .5 6.7 2.8 6.3 9.1-.3 4.4-.5 5-2.3 4.7-1.1-.2-2.1-.8-2.3-1.2l-4.3-7c-4.3-6.7-4.5-7.1-2.6-6.5.6.3 3 .6 5.1.9Zm-454.8 7c.4.4 0 1.4-1.2 2.2-1.6 1.2-19.9 1.4-124.2 1.4-70.7 0-122.4-.4-122.8-1-.3-.4-.2-1.6.1-2.5.6-1.6 9.4-1.6 124-1.3 67.9.2 123.7.8 124.1 1.2Zm245.9 3.2c-1.3 1.2-1.6 3.8-1.5 12.5l.1 10.9h14.5l3.2-5.2c3.5-5.6 5.3-12.7 3.9-15.2-2.4-4.4-16.7-6.5-20.2-3Zm-26.1.8c-6.2 2.8-7.5 5-7.5 13 0 10.2 1.2 11.6 10 11.6h6.8l2.8-4.8c6.2-10.7 6.3-11.1 5.2-14.4-.7-2-2.3-3.6-5.2-4.9-4.8-2.2-8-2.3-12.1-.5Zm-28.2 1.7c-5.2 1.5-6.5 4.5-6 13.6l.6 9c0 .9 2 1.3 6 1.3 5.8 0 6 0 9.9-4.8 6.9-8.3 7.9-12.3 4-16-4.3-4-8.5-4.8-14.5-3Zm321.2 1 10.9 1.4c3.2.3 6.6 1 7.5 1.4a47 47 0 0 1 9.4 10c.9 1.4 5.4 6.5 9.9 11.4s11.7 13.1 16 18.3c4.4 5.2 10.2 11.7 13 14.5l5.3 5.1-10-.6-14-1c-2.2-.3-7.6-.8-12-1.1l-11.5-1c-8.2-1.1-19.9-2.5-25-3-6.8-.8-9.7-2.1-10.3-4.9-.3-1.1-.6-7.3-.7-13.8 0-9.2.3-12 1.5-13.1.8-.9 1.5-1.8 1.5-2.2a183.8 183.8 0 0 0-16-23.1c0-.8 17.8.4 24.5 1.6Zm-254 1c3.3 1.6 3.2 4-.5 9.5-2.3 3.2-3.8 4.4-5.5 4.4-2 0-2.5-.5-2.5-2.9 0-1.5-.3-5-.6-7.5l-.7-4.6h3.6c2 0 4.8.5 6.2 1.2Zm-27.7 2.5c2.1 1.4 2.2 1.5.5 4.2-4 6.4-6.5 9-8.1 8.7-1-.2-2.5-.4-3.4-.4-1.7-.1-2.1-1-3.3-6.8-.6-2.8-.2-3.4 3.1-5.7 4-2.7 6.8-2.7 11.2 0Zm-520.8-.1c-2.6 3.2 1.3 8 4.8 5.9 3.4-2.2 2.2-7.4-1.8-7.4-1 0-2.3.7-3 1.5Zm491.3 1.8c1.6 1.1 1.4 1.6-1.9 6.5-5.5 8.2-7.9 8.2-9 0-.5-3.2-.3-5.3.6-6.3 1.5-1.8 8-2 10.3-.3Zm-610.6 3c.3.4-6.1 6.8-13.2 13.3l-9.7 9-5.8 5.4-18.7.2c-10.4 0-19.5.2-20.3.3l-9.5.9c-10.5 1-40.3 5.4-41.5 6.1-.6.4-1-6-1-17 0-9.6.1-17.6.3-17.6 2.3-1.2 118.2-1.8 119.4-.6Zm791.3.4a5 5 0 0 0-2.1 1.5c-.9 1.4-.1 17 1 18 .4.5 3 .8 5.7.6l4.9-.3.3-8.2c.3-10-.6-12.3-5-12.2-1.9 0-4 .3-4.8.6Zm-616 1.8c-1 1.2-1 1.6.5 2.1 2.3 1 4-1 2.2-2.5-1.1-.9-1.7-.8-2.7.4Zm23.7.7c-.4 1.3-.1 2.6.6 3 1.6 1 4.1-1.7 3.4-3.6-1-2.3-3.4-2-4 .6Zm32.7-.7c-.8 2 .3 4.7 1.9 4.3.6-.3 1.3-1.4 1.5-2.5.4-2.4-2.6-4-3.4-1.8Zm24.9-.8c-2.2.8-1.5 4.3.7 4.3 1.3 0 2-.7 2-2 0-2.1-1-3-2.8-2.3Zm20.7.8c-1 1.1-1 1.9-.3 2.6 1.7 1.7 4.8.6 4.8-1.6 0-2.5-2.8-3.1-4.5-1Zm20.7-.2c-.6 1.7.3 3.2 2.5 4 1 .4 1.8 0 2-1.3 1-3.2-3.4-5.7-4.5-2.7Zm23.4.1c-1.6 1.9-.8 4.6 1.3 4.6 2 0 3-3.1 1.3-4.7-1.2-1.2-1.6-1.2-2.6.1Zm21.5-.7c-1 1-.7 4.1.4 4.8 1.5 1 4-1.4 3.4-3-.6-1.6-3-2.6-3.8-1.8Zm424.4.2c-2.4.6-2.5 1.1-2.8 8.5-.4 9.7.4 10.8 7.2 10.4l5.1-.3.3-8.3c.2-5.3-.1-9-.9-9.8-1.2-1.5-4.7-1.7-8.9-.5Zm-402.4 1c-1.1 1.8.6 4.2 2.8 3.9 2.9-.4 2.9-4.2 0-4.6-1.2-.2-2.5.1-2.8.7Zm21.8.6c-.8 2 .4 3.5 2.6 3.5 2.3 0 3.2-1.3 2.4-3.4-.8-2-4.3-2.1-5-.1Zm356.6 0c-1.6 1.9-1.8 16-.3 17.6 1.2 1.2 9.6 1.4 11.4.3a42 42 0 0 0-.3-17.6c-1.1-2.3-9-2.5-10.8-.3Zm53.7 7.3c-.2 4.3-.6 5.7-1.7 5.7-2 0-2.8-10.4-.9-11.6 2.2-1.3 2.8 0 2.6 5.9Zm-46.6-1c0 2 .2 4.7.5 6 .2 1.4-.1 2.2-1 2.2-2.1 0-2.8-1.5-3.2-7-.3-4.4 0-5 1.6-5s2 .7 2 3.8Zm22-1.6c0 1.3.2 4 .5 6 .6 3.3.5 3.6-1.4 3.1-1.6-.4-2-1.5-2.4-5.5a19 19 0 0 1 .1-5.4c1.2-1.2 3.1-.1 3.1 1.9Zm212.4-.7c24.6 1.4 25.1 1.6 31 8.2l12.7 13.7c9.3 10 28.8 32.8 28.8 33.9 0 .4-1.7.5-3.8.2-9.6-1.4-21.9-2.2-34.7-2.4-9.1-.1-14.1-.6-14.4-1.3-.5-1.5-10.3-13-17.7-20.8a535 535 0 0 1-27.4-31.2c0-1.2 3.3-1.6 10-1.2l15.5 1Zm-258.8 69.6.7 71.4c0 2.8 0 9.2-.2 14.3l-.2 9.2h-45.5l-.2-32.8c-.6-80.5-.5-115.4.5-116.4 1.2-1.2 5-1.6 22.5-2.4l13.7-.7 3.6-4.9c2-2.7 3.8-4.7 4-4.5.3.2.7 30.3 1.1 66.8Zm122.8-64.7c5 .6 10.3.9 40.8 2.2l15.7.7-.4 61-.5 70.4-.1 9.1-4.8 1.6c-5.3 1.8-9 5.1-11.7 10.6-2.2 4.3-3 4.8-6.1 4.2-1.7-.3-3.2-1.8-4.6-4.6-4-8-11-12.1-18.8-11.2-5.2.6-10.3 4.4-14.2 10.7l-3 5-18.3-.6.2-79.4c.1-43.7.4-80 .6-80.5.5-1.1 12.5-.7 25.2.8Zm245.2 6c6.5 8 9.1 11.2 11.2 13.3 1.3 1.3-1 1.4-19.5.9l-20.9-.6.1-3.4c.1-4.2 6-14 9.4-15.6 1.3-.6 4.5-1.4 7-1.7a24 24 0 0 0 4.9-.9c.7-.7 2.1.8 7.8 8Zm-918.2-4.5c-.5.9-.7 8-.3 12.3.1 2 3.1 3.3 4.8 2.3.5-.3 1-3.7 1-7.5 0-5.3-.4-7-1.6-7.4-2.2-.8-3.2-.8-3.9.3Zm18.8.8c-.4 1-.7 4.4-.7 7.8 0 6 0 6 3 6h2.9l-.3-7c-.4-6.3-1.2-8.4-3.5-8.5-.4 0-1 .8-1.4 1.7Zm57.7 6.2c0 8.3.6 9.7 4 8.6 1.7-.6 2-1.5 2-7.5 0-7-.6-8.1-4.3-8.7-1.5-.3-1.7.7-1.7 7.6Zm18.2-6.7c-1.4 1.4-1.6 12.6-.3 14.6 1 1.7 5.6 1.2 5.5-.6l-.3-7.2c0-4.6-.5-6.1-2-7-1.2-.6-2.2-.5-3 .2Zm-55 7c.3 7 .4 7.3 2.8 7.3s2.5-.2 2.5-7c0-7 0-7-2.8-7.3l-2.8-.3.3 7.3Zm18 0c.3 7.2.4 7.3 3.1 7.6l2.8.3-.3-7.3c-.3-7.2-.4-7.3-3.1-7.6l-2.8-.3.3 7.3Zm57.4-6c-.2.7-.3 4-.3 7.3.2 5.8.3 6 3 6.3l2.8.3-.3-7.3c-.3-6.7-.5-7.3-2.6-7.6-1.2-.2-2.4.3-2.6 1Zm21.8 0c-.3.9-.4 4.4-.2 8 .3 6 .4 6.3 2.8 6.3s2.5-.2 2.5-7.5c0-7-.1-7.5-2.3-7.8-1.2-.2-2.4.3-2.8 1Zm20.8.6c-.7 1.5-.9 6.9-.4 12.4.1 1.2 1 1.8 2.6 1.8 2.3 0 2.4-.4 2.8-6 .1-3.4 0-7-.4-8-1-2.5-3.5-2.6-4.6-.3Zm22.5-1c-.2.4-.3 3.6-.2 7 0 5 .5 6.6 1.9 7.4 1 .6 2.2.6 2.7.1 1-1 1.9-12 1.1-14-.4-1.4-4.8-1.8-5.5-.6Zm22 0c-1 1.3-1 11.8-.3 13 .4.7 1.5 1.2 2.5 1.2 1.6 0 2-1 2.3-6.3.3-3.4 0-6.8-.5-7.4-1-1.5-3.3-1.7-4-.5Zm455.1 5c-1.3 1.6-2 19.3-.8 21.2.9 1.4 11.7 2.3 12.5 1 1.1-1.8.8-21-.4-22.4-1.7-2-9.6-1.9-11.3.1Zm25.7 2.4c-1.1 1.7-1.5 4.9-1.5 12.4 0 11.5-.1 11.4 9.3 11.4h4.7l.1-3.8c.2-8.7-.3-19.7-.9-20.3a19 19 0 0 0-5.4-1.2c-4.1-.6-5-.4-6.3 1.5Zm69.9.1c-9.5 5.4-10 9-2.6 18.2 2.8 3.4 10.3 5.8 13.9 4.4 2-.7 2.2-1.5 2.2-8.5 0-6.1-.4-8.3-2-10.5-2.7-3.9-8-5.5-11.5-3.6Zm-43.3 1c-2.5 1.2-2.7 2.9-2.1 14.2l.5 9 5.2.9c7.6 1.3 8 .6 8.2-11.2.1-6.7-.3-10.3-1.2-11.6-1.5-2-7.4-2.7-10.6-1.2Zm-44.4 7.4c-.2 6-.4 6.8-2.2 6.8-1.8 0-2-.7-2-6 0-7.2.1-7.5 2.5-7.5 1.6 0 1.8.8 1.7 6.8Zm108-6c-2 3.4-1.7 7.5 1.2 13.7 3.5 7.5 5.4 8.8 12.5 9l5.1.1.3-6.5c.4-8.7-.4-12.5-3-14.3-2.6-1.6-15.3-3.3-16-2ZM1027 493c0 6.2-.2 6.9-2 6.9s-2-.7-2-7.4c0-7 .1-7.4 2-6.9 1.8.5 2 1.4 2 7.4Zm24.9-4.3c1 2 .8 12.8-.2 13.9-1.4 1.4-2.2-1.1-2.5-8.3-.4-7.4.6-9.5 2.7-5.6Zm45.6.5c.4 1.3.5 4.1.3 6.3-.4 4.8-2.8 5.6-6.5 2.2-4.3-4-4.8-5.7-2.2-8.4 3-3.2 7.6-3.3 8.5 0Zm24.2 3c1 1 2.7 9.7 1.9 9.7l-3-1.4c-3-1.5-6-5.1-7-8.5-.8-2.3-.7-2.3 3-1.7 2.2.4 4.4 1.3 5 2Zm214 3-8.9 15.7c-11.2 19.7-12.8 22-14.8 21-1-.5-5.5-5-10.1-10l-15.7-16.6c-4-4.1-7-7.8-6.8-8.3.3-.5 5-1.2 10.3-1.5 5.4-.4 17.5-1.6 26.8-2.6l19.3-1.9 2.4-.1-2.5 4.3Zm-482.4-1.7c-.3 1-.6 4.9-.6 8.8 0 12.2 0 11.8 3 11.4 2.8-.3 2.8-.3 2.9-8.3 0-4.4-.4-9.2-.9-10.8-1-3-3.4-3.6-4.4-1Zm-571.7.3c-1.2 1.8-1.6 12-.5 12.7.5.3 2 .3 3.4 0 2.1-.5 2.3-1 2.1-6.8 0-5.6-.3-6.3-2.3-6.6-1.1-.2-2.4.1-2.7.7Zm586.8.4c-1 2.9.3 16.9 1.7 17.8 2.8 1.8 3.4.1 3.4-9.2 0-9-.1-9.4-2.3-9.7-1.2-.2-2.4.3-2.8 1.1Zm295.2.2a3 3 0 0 0 .4 2.8c2.6 3 9 12.1 9 12.8 0 1.5 6 3 10.6 2.7l4.9-.3-.3-6c-.4-7.4-.9-10.6-2-11.6-.4-.4-5.5-1-11.3-1.4-9.2-.5-10.7-.4-11.3 1Zm185.4 8.6a1372.5 1372.5 0 0 1 14.8 24.8l6.4 10.6-.3 55-3 2.4a33.5 33.5 0 0 0-6.5 9.5c-3.8 7.8-4.4 14.4-2 19.1 1.4 2.6 1.3 3-.8 4.6-1.2 1-3 3.3-4 5.2-3.1 5.7-5 6.2-17.8 4.8-6.2-.6-13.3-1.3-15.7-1.4l-4.4-.2-.2-47c0-35 .2-47.8 1.1-50.5.7-2 3.9-8 7-13.5 3.3-5.5 8.8-15 12.3-21.3a86 86 0 0 1 7-11.2c.4 0 3.1 4 6.1 9Zm-556.3-7.3c-2.4.5-3 4-2.4 15l.6 10c0 .2 3 .2 6.4 0l6.2-.3.3-11.4c.2-6.7-.1-11.8-.7-12.4-1-1-7.1-1.5-10.4-.9Zm25 0-3.7.3v11.3c0 8.4.4 11.7 1.4 12.5 1.5 1.3 10.4 1.2 11.2-.1.3-.5.6-5.9.6-12 0-11.3-.5-13-4.2-12.6l-5.3.5Zm-49 2.5c-1.7 1.7-1.8 3-1.3 12 .3 6 1 10.3 1.7 10.8 1.4.8 7.6 1 10.1.3 1.6-.5 1.8-1.8 1.7-9.7 0-5-.4-10.6-.8-12.2-.6-2.8-1-3-5-3-3.1 0-5.1.5-6.4 1.8ZM750 498l-4.5.6-.3 11.1c-.2 8.1 0 11.4 1 12.1.7.6 3.8.8 7.1.5l5.8-.5-.3-11c-.4-12.7-1.1-13.7-8.8-12.8Zm509 .5 14.7.8 9.9 11c5.4 6 13.6 15 18.2 19.7 4.5 4.8 8.2 9.4 8.2 10.3 0 1.6-3.2 1.7-25 1l-4.5-.2v-7.3c0-6.7-.3-7.7-4-13.7-5.8-9.2-7-9-12.8 1.9-3.6 6.9-4.7 10-4.7 13.5 0 3.7-.3 4.6-1.8 4.6-1.4 0-1.7-.7-1.4-4.3.5-6.1-1.2-11.5-5.6-17.8-4.7-6.8-7-7.3-9.4-2.2-1 2.1-3 6.3-4.8 9.3-3 5.4-4 11.3-2 12.5 1.6 1 1.1 2.5-.6 1.8-.9-.3-2.8-.7-4.3-.8l-4.8-.3c-2-.2-2.3-.8-2.3-4.6 0-2.6.6-4.8 1.5-5.6.8-.7 1.5-2.2 1.5-3.3 0-2-6.9-11-15.8-20.7-2.9-3-5.2-5.7-5.2-6 0-.8 38.8-.5 55 .4Zm-77.3 2.4c.7.9 1.3 2.6 1.3 3.9 0 3.7-4.1 3-8.4-1.4-2-2-3.6-4-3.6-4.5 0-1.4 9.5.4 10.8 2ZM799 508.5c0 8.4-1 10.4-3 6.6-1.3-2.5-1-13.4.4-14.3 2.3-1.5 2.6-.6 2.6 7.7Zm24-.5c0 7.3-.2 8-2 8s-2-.7-2-8 .2-8 2-8 2 .7 2 8Zm-47 1c0 6.4-.3 8-1.5 8-1.7 0-1.8-1-1.6-9 .2-4.5 1.2-6.9 2.9-7 0 0 .2 3.6.2 8Zm-73-4.3c-1.4 3.4-.3 19 1.3 20 1.7 1 9 .3 10.5-1 1.1-.9 1.3-3.2.9-10.4-.3-5.1-.9-9.7-1.2-10.3-.3-.5-2.9-1-5.6-1-4.5 0-5 .3-6 2.7Zm50.9 6.2c.2 7.2 0 8-1.6 7.7-1.5-.2-1.8-1.4-2-8-.4-6.8-.2-7.6 1.5-7.6 1.6 0 1.8 1 2 8Zm197.9-7.1c-1.6.3-1.8 1.7-1.8 11.2 0 6 .4 11.1.8 11.4.5.3 3 .2 5.8-.2l4.9-.7v-22h-4c-2.2-.1-4.8 0-5.8.3Zm-47.7 1.8c-1.9 1.4-2 2.2-1.7 10 .5 9.4 1.5 11.4 5.8 11.4 6.1 0 6.8-1.1 6.8-11.4 0-6.3-.4-9.7-1.3-10.3-1.8-1.5-7.2-1.3-9.6.3Zm22-.7c-1 .7-1.2 3-.9 10.5.3 5.3.8 10 1.2 10.3.8.8 9.3.6 10.7-.2 1.4-1 1.1-18.9-.3-20.3-1.4-1.4-8.6-1.6-10.7-.3Zm-274.5 1.9L650 513c-1.6 6-5 12.5-6 11.4-1-1.2-4.7-11.4-5.1-14.4-.4-2.2.1-2.6 4.6-3.6 7.4-1.8 8.7-1.7 8.1.4Zm32.2 11.7c2.9 15.4 3.7 23.6 3.4 34.5-.3 10-1.6 17.8-3.7 22-3.8 7.5-13.4 11.6-25.1 10.7-6.2-.4-33.5-4-39.2-5.2-1.3-.2-3.5 0-5 .6-4.5 1.7-.7 3.7 9.3 4.9 5 .5 10.4 1.4 12 1.9 1.8.5 6 1.2 9.6 1.6 3.5.4 7.5 1.5 8.9 2.4 1.4 1 5.9 3.5 10 5.6a117 117 0 0 1 44 39c3.3 5.7 3.4 8 .3 5.2a660 660 0 0 0-42.3-22.4c-8-3.4-33.5-9.9-56.4-14.3-16.6-3.2-21.8-6.7-22-14.8 0-5.4 7.5-19.2 10.6-19.2.5 0 2.4-1.1 4.2-2.5 4.9-3.7 14.5-7.8 33.2-14 26.7-9 30.3-10.8 34.9-17.7 3-4.5 6.7-15.5 8.5-25.2.8-4.2 1.6-6.3 2-5.5.4.8 1.7 6.4 2.8 12.4Zm-307.3-11.3c-.3.7-.4 5.3-.3 10.3l.3 9h6l-.3-9.4c-.1-5.1-.5-9.7-.8-10.2-.8-1.3-4.4-1-5 .4Zm18.2-.6c-.4.4-.7 4.9-.7 10 0 9.7 1 11.6 4.4 9 1.4-1 1.6-2.7 1.4-10.1-.3-8.2-.5-9-2.3-9.3-1.2-.2-2.4 0-2.8.4Zm19 .2a92 92 0 0 0 0 18.5c.5 1.8 3.2 2 4.5.2.4-.5.8-4.9.8-9.6 0-7-.3-8.8-1.6-9.3-2-.8-3.2-.8-3.8.2Zm17.7.4c-1.2 1.8-.8 17.8.4 19 .5.5 2 .7 3.1.3 2-.6 2.2-1.3 2-8.8 0-4.5-.6-9-1-10-1.1-2-3.4-2.3-4.5-.5Zm19.8.6c-.5 1-.7 5.4-.4 10 .5 8.7 1.7 10.7 4.7 8.2 2.2-1.9 2.1-18.5 0-19.4-2.6-1-3.4-.7-4.3 1.1Zm-113.5-.1c-.4.3-.7 4.8-.7 9.9 0 9.6.5 10.6 4.3 9.6 1.7-.4 1.8-1.3 1.3-9l-.6-10c0-1.3-3.2-1.7-4.3-.5Zm17.3 8.6c0 10.6.8 12.6 4.1 11 2.2-1 2.3-1.4 2-9.9-.1-4.9-.5-9.2-.8-9.6-.2-.5-1.5-.8-2.9-.8-2.4 0-2.4.1-2.4 9.3Zm118.9-7.6c-.3 4.5.2 15.6.7 16.4.8 1.4 4.4 1 5-.5.3-.8.2-5-.3-9.3-.7-7-1-7.8-3-8.1-1.6-.2-2.3.2-2.4 1.5Zm19.8-1c-.3.4-.4 4.5-.3 9 .1 8.5 1.2 11 4 10 1.4-.6 1.6-2.2 1.4-10-.3-8.6-.4-9.2-2.5-9.5-1.1-.2-2.3 0-2.6.5Zm23.3 8.8c0 8.3.2 9.5 2 10.5 3.6 2 4.7-2.8 3.3-15.3-.4-4.2-.8-4.7-2.9-4.7-2.4 0-2.4.1-2.4 9.5Zm21.4-8.4c-.7 1.2-.6 19 .1 19.7.2.3 1.5.2 2.9-.2 2.4-.6 2.5-.8 2.2-9.5-.2-4.8-.6-9.3-1-10-1-1.4-3.3-1.4-4.2 0Zm172.4 5.7c0 5.3-.3 6.9-1.4 6.9-1 0-1.4-1.6-1.4-6.9 0-5 .3-6.8 1.4-6.8 1 0 1.3 1.8 1.4 6.8Zm222.4 2c.3 5.4 0 6.2-1.5 6.2-1.4 0-1.7-1-1.7-6.3 0-10.4 2.6-10.3 3.2 0Zm24.3-.7c0 5-.3 6.4-1.5 6.4-1.1 0-1.5-1.4-1.5-6-.1-6.7.2-7.8 1.8-7.2.8.2 1.2 2.8 1.2 6.8Zm-46.7.6c-.2 4.4-.7 5.8-1.8 5.8s-1.6-1.4-1.8-5.8c-.3-5.2-.1-5.7 1.8-5.7 2 0 2 .5 1.8 5.8Zm174.2-2.3c10.2 1 25.9 2.5 33 3 19.5 1.7 30.9 2.7 34 3.2l3.6.5-.4 52.7c-.2 29-.7 53-1 53.4-.4.4-1.8.9-3.2 1.2-2.1.5-3-.1-5.5-4.2a19.8 19.8 0 0 0-16.1-9.2c-6.5 0-12.1 4.8-15.3 12.9l-2.5 6.3-3.5-.9c-4.5-1-13.8-1-17.3 0-2.2.6-2.8.3-3.3-1.4-2-6-10.4-13.9-14.8-13.9-1.6 0-1.7-4.3-1.7-51 0-28 .3-51.5.6-52.4.4-1 1.6-1.4 3.7-1.2l9.7 1Zm-447.8 12c1 3.5 1 4-1.3 5.7a41.1 41.1 0 0 1-13.5 6.6 37 37 0 0 1 4-9.4c2.5-4.8 5-10.1 5.6-11.8l1.2-3 1.5 4c.8 2.2 2 5.7 2.5 7.9Zm704.2-6c-1.1 2.9 0 9 1.8 9.4 2.3.4 3.6-2.6 3-7-.3-3-.9-3.8-2.3-3.8-1.1 0-2.2.6-2.5 1.4Zm-91.3 10.6c.4 5.5.3 9-.3 9l-5.9-1.1-5.1-1.1.5-3.8c.2-2 1.7-5.6 3.3-8l2.8-4.1 2.3 3.8c1.3 2 2.3 4.5 2.4 5.3Zm23-3.8c2.4 5.5 2.7 14.3.3 13.4-.9-.3-3-.6-4.9-.6-5.4 0-5.3-4.8.3-14.8.7-1.2 1.5-2.2 1.8-2.2.3 0 1.4 2 2.4 4.3Zm-279.4.5c-.4.3-.7 5.7-.7 12 0 12.5-.7 11.3 7.5 12.7 5.4.9 6-.2 6.4-12.7.3-11.3.3-11.4-2-12-3.2-.9-10.4-.9-11.2 0Zm25.4 2.7a58 58 0 0 0 1 21c.9 1 11 2.7 11.8 2 .9-.8 1-22.9 0-24.6-.8-1.4-2.2-1.8-6.4-1.8-5.3 0-5.4 0-6.4 3.4ZM1206 528l10.7 1v47.3l-.2 47.4-2.6-2c-5.5-4-14.5-3-18 2.2-1.3 1.7-2 1.7-7.6.8-5.3-.8-6.6-.7-8.5.7-7.3 5.2-6.4 5-11.5 2.7a132 132 0 0 1-6.3-3c-1.4-.7-1.5-15.2-1-94.5v-4.9l17.3.7c9.4.3 22 1 27.7 1.6Zm-157.8.8c-4.8.4-4.6-.4-4.2 13.7 0 5 .5 9.3.8 9.7 1.2 1.2 11.2 1.5 12 .4.4-.6.7-6 .7-12 0-10.8 0-11-2.5-11.5-1.4-.3-4.4-.5-6.8-.3Zm32.5.3c-1.4.8-1.7 2.6-1.7 11.4 0 10 .1 10.5 2.4 12 1.4 1 3.5 1.5 4.8 1.3 2.2-.3 2.3-.7 2.6-11.7.2-7.5-.1-11.8-.9-12.7-1.3-1.6-4.7-1.8-7.2-.3Zm18.8 1.5c-2.3 2.4-1.5 21.2 1 23 2 1.6 7.1 1.9 7.9.6.3-.5.5-4.7.5-9.3v-11.1c.1-4.4-6-6.5-9.4-3.2Zm-99 0c1.2.5 1.5 2.2 1.5 8 0 6.7-.2 7.4-2 7.4-1.2 0-2-.7-2-1.8-.2-3.5-.2-11.7-.1-13 .1-1.4.3-1.4 2.5-.6Zm118.7.5c-2 .8-2.2 1.5-2.2 11.8 0 12 .5 13.1 6.3 13.1 4.2 0 4.8-2 4.5-13.6l-.3-10.8-3-.6c-1.8-.4-4.1-.3-5.3.1Zm-92.2 1.6.3 8.4c.2 6.3.1 6.5-2 6.1-2.1-.4-2.3-1-2.3-7.1 0-6.2 1-9.1 3.2-9.1.4 0 .8.8.8 1.8Zm-745.7 0c-2 1.3-2 10.4-.2 11.6 3.1 2 4.9.1 4.9-5 0-6-1.8-8.4-4.7-6.5Zm854.8.2c-1.8 1.2-1 21 1 22.2 2 1.3 6.3 1 7.7-.3 1.5-1.5 1.6-18.1.2-20.9-1.1-2-6.3-2.6-8.9-1ZM869 536.3c-.2 1.2-.3 5.6 0 9.9.2 6.4.5 7.7 2 8 1.1.4 2.4 0 3-.5 1.2-1.2 1.5-15.4.5-18.1-1-2.5-5.1-2-5.5.6Zm183.1 5.2c0 4.1-.4 7.5-.9 7.5-2 0-3-2.9-2.9-8.8 0-5.4.3-6.2 2-6.2 1.6 0 1.8.9 1.8 7.5Zm33.4-.3c.1 8.1-1.9 7.5-2.2-.7-.2-5.5 0-6.7 1-5.8.6.7 1.2 3.6 1.2 6.5Zm-231.7-3.4c-1.7 4.1-1 16.9 1 17.6 3.4 1.3 4.4-1.3 4-10.8-.2-7.7-.5-9.1-2-9.4-1.1-.2-2.1.6-3 2.6ZM1105 542c0 4-.4 7-1 7s-1-3-1-7 .4-7 1-7 1 3 1 7Zm19 .5c0 8.8-1.6 10-2.2 1.8-.4-5.2.4-9.3 1.7-9.3.3 0 .5 3.4.5 7.5Zm16.9 1.5c-.1 3.8-.6 6.7-1 6.4-1.3-.8-1.1-13.4.1-13.4.7 0 1 2.7.9 7ZM769 542c-.6 1.2-1 7-.8 14.2l.3 12.3h12l.3-13.6c.3-13.5.2-13.7-2-14.3-4.7-1.2-8.7-.7-9.8 1.4Zm45.6-.7c-1.4 1-1.8 3.2-2 13-.2 9 0 12 1 12.8 1.4 1.2 10.9.8 12.1-.5.4-.4.7-6 .7-12.7 0-9.6-.2-12.2-1.4-13-2.2-1.3-8.3-1.1-10.4.4Zm356.6 0c-.5.6-1 5.4-1.1 10.5-.2 9.2-.2 9.2 2.3 9.2 2.2 0 2.6-.6 3.1-4.4.5-3.3.3-13-.5-16.4-.1-.7-3 0-3.8 1Zm-424.5 1.5c-1.4 1.5-1.7 3.9-1.7 12.4 0 5.9.3 11.3.6 12.2.8 2 13 2.3 13.6.4.2-.7 0-7-.2-13.8l-.5-12.5-5-.3c-4-.2-5.5.1-6.8 1.6Zm45-.5c-1.5 1-1.7 2.8-1.5 13.2l.3 12h14l.2-10.5c.2-6-.2-11.7-.8-13.3-1-2.4-1.7-2.7-5.8-2.7-2.6 0-5.5.6-6.4 1.3Zm395-.6c-.9.8-.9 16 0 19.1.4 1.8 1.2 2.2 3.2 2 2.6-.3 2.6-.3 2.6-9.3 0-5-.3-9.8-.7-10.8-.9-1.7-3.8-2.3-5.1-1Zm-476.2 1.1c-2.2.2-4.3.9-4.7 1.5a62 62 0 0 0-.8 12.4c0 11 0 11.3 2.3 11.8 2.4.6 7 .1 8.7-1 1.5-1 1.3-23-.3-24.1-.6-.5-3-.8-5.2-.6Zm491.8.5c-.4.6-.8 5.4-1 10.4 0 9.6.8 12 4 10.7 1.4-.5 1.7-2.2 1.7-10 0-5-.3-10-.6-10.8-.7-2-3-2-4-.4Zm50.7 1.2c4.7.2 13 .8 18.5 1.2 5.5.4 16.4.8 24.3.8h14.2v24c.2 51.6 0 66-.7 66.6-.5.4-3 1.1-5.5 1.7-4.6 1-4.7.9-8.5-3-6.4-6.7-12.8-8.7-20.8-6.7-4.4 1.1-5 1.6-10.3 8.9-.2.2-3 .7-6.5 1-6.1.7-6.3.7-11-3.2-6.2-5.1-10.8-7-17-6.8-8.6.3-8.3.4-8-4.3l.2-43 .1-38.8 11.3.5 19.7 1Zm101.1.8c-1 2.7-.2 13.5 1 14.3.6.3 1.6 0 2.4-.6 2.2-1.8 2-14.6 0-15.4-2.4-.9-2.5-.8-3.4 1.6Zm-27.5.5a38 38 0 0 0-.4 7.5c.2 6.2 1.5 8 4.3 5.7 1.8-1.5 2-12 .3-13.8-1.7-1.7-3.6-1.5-4.2.5Zm14.6.2a26 26 0 0 0-.2 7.7c.4 5 .8 5.8 2.7 6.1 2.8.4 3.5-2.2 2.9-9.3l-.5-5.8c-.2-1.6-4.2-.6-4.9 1.3ZM776 555c0 7.7-.3 10-1.3 9.8-.8-.3-1.3-3.2-1.5-8.8-.3-8.7 0-11 1.8-11 .6 0 1 3.8 1 10Zm45.8-.8c.3 8.3.2 8.6-1.7 8.1-2-.5-2.1-1.3-2.1-9 0-7.5.2-8.4 1.8-8.1 1.4.3 1.7 1.7 2 9Zm-67.8 1.4c0 8.6-.2 9.5-1.8 9.2-1.4-.3-1.7-1.6-2-8.2-.3-8.9 0-10.6 2.3-10.6 1.2 0 1.5 1.6 1.5 9.6Zm45-9.4.7 8.5c.5 6.8.3 8.3-.9 8.3-2.7 0-3.3-2-3-9.4.3-5.8.7-7.6 1.8-7.6.8 0 1.4.1 1.4.3Zm155.5 1.5c-5.2.8-5.5 1.6-5.2 12.7.2 5.6.7 10.8 1 11.4.5.7 3.1 1.2 6.3 1.2h5.4v-12.5c0-7-.4-12.5-1-12.5l-2.2-.3a15 15 0 0 0-4.3 0ZM712 556.2c0 5-.4 7.8-1 7.3-1.6-1.8-1.7-15.5 0-15.5.6 0 1 3.4 1 8.2Zm195-7.4a9 9 0 0 0-3.6 1.3 72 72 0 0 0 0 22.7c.8 1.4 10.4 1.6 12.4.4 1-.7 1.2-3.6.8-12.1-.2-6.2-.7-11.6-1.1-12-.7-.7-4.7-.8-8.5-.3Zm20.5.1-3 .6.4 10c.1 5.4.7 10.7 1.2 11.7 1.3 2.4 10.4 2.6 11.3.2 1.2-3 .7-20.1-.6-21.1-1.9-1.5-6-2-9.3-1.4Zm-572.1 4a14 14 0 0 1 5 4.8c2.4 3.5 2.6 5 3 18.4l.6 14.6-23.5-.2v-12c.1-14 1.5-19.8 5.7-23.7 3.2-3 5.2-3.4 9.2-1.8Zm44.7.6c4.8 2.5 5.7 6.4 6.2 26.3.4 12.1 1.2 11.4-13.3 11l-9.5-.3V575c0-17.5.8-20.2 6.8-21.9 4.7-1.4 6.5-1.3 9.8.4Zm46.2 1.3c4 3.6 4.7 6.6 4.8 20.6 0 7.5-.2 14-.5 14.5s-5.8.9-12.2.9h-11.6l.6-16c.7-16.9 1.2-18.9 5.8-21.5 3-1.7 10.5-.9 13 1.5Zm45.4.3c3.5 3 4.3 6.7 4.4 20.5 0 7.5-.2 13.8-.5 14-.2.3-5.7.7-12.1 1l-11.7.4.4-16c.4-15.7.5-16.1 3-18.6 4.2-4.2 12.2-4.8 16.5-1.3ZM537 557c3.8 4 3.8 4 4 13.7.3 5.4.2 12-.1 14.8l-.5 5-24.3.1.5-13.5c.2-7.5.9-15 1.4-16.8 1.5-4.7 5.3-7.3 10.7-7.3 4 0 5 .5 8.3 4Zm374.7 4.3c.3 7.2.2 7.7-1.7 7.7-1.6 0-2.1-.7-2.2-2.8l-.5-6.7c-.4-5.2.2-6.7 2.3-6.3 1.5.3 1.9 1.6 2.1 8Zm22-.2c.1 7.1 0 8-1.6 7.7-1.4-.3-1.8-1.7-2-8-.3-7 0-7.8 1.5-7.8 1.6 0 1.8 1 2 8Zm23.7 0c0 6-.3 7.4-1.5 7.4s-1.6-1.7-1.8-7.8c-.3-7-.1-7.8 1.5-7.5 1.5.3 1.7 1.5 1.8 7.8Zm276.6-4.8c-.6.7-1.1 5.5-1.1 11.4 0 10 0 10.3 2.3 10.3 1.2 0 3.9.3 6 .6l3.8.7-.6-23.8-4.7-.1c-2.6 0-5.1.4-5.7 1Zm20 .1c-1.4 1.7-.7 20.4.8 21.9.4.5 3 .7 5.7.5l4.9-.3v-23l-5-.3c-3.7-.2-5.5.1-6.5 1.2Zm20.7-.3c-1.5.8-1.8 2.4-1.8 8.2 0 4 .3 8.8.6 10.9.6 3.4.9 3.6 4.8 4 6.6.7 6.6.8 6.6-11.7 0-9.4-.3-11.4-1.6-11.9-2.4-.9-6.7-.7-8.7.5Zm17.3 1.3a50.9 50.9 0 0 0 .3 20.4c1.9 1.6 7.6 2 8.7.6.5-.7.9-5.5.7-11.5l-.3-10.4h-4.3c-2.3-.1-4.6.3-5.1 1Zm-30.4 9.4c.2 5.6 0 7.2-1 7.2-1.6 0-3.4-12-2.2-14 1.7-2.7 3 0 3.2 6.8Zm-21.7-.3c0 7-1.5 8.9-2.2 2.9-.5-4.5.2-9.4 1.3-9.4.5 0 .9 3 .9 6.5Zm40.8.8c-.3 8.5-2.2 9.3-2.6 1-.3-6 .1-8.3 1.8-8.3.7 0 1 2.6.8 7.3Zm16.8.6c.2 3.6 0 6.1-.6 6.1s-1-3-1-6.7c0-8.1 1-7.8 1.5.6ZM124 588h-8.1c-9.4 0-15 1.4-19.6 4.7-2.7 2-4.4 2.3-11.2 2.3H77v-25.8l14.7-.1c8-.1 14.8-.3 15-.4l8.7.1 8.6.3V588Zm43.8-18c3.1 0 3.2.1 3.2 4.5 0 4.5 0 4.5-3.5 4.5-8.4 0-18.4 6.4-23.8 15.3-2 3.2-4 3.4-6.4.8-1-1-3.3-2.8-5.1-3.9l-3.3-2-.4-20.1 18 .4 21.3.5ZM72 582c0 6.5-.3 12-.7 12.3-.5.3-9.2.8-19.5 1.2l-18.8.7v-22.9l15.3-1.5c8.3-.8 17.1-1.6 19.5-1.6l4.2-.2v12Zm1007.4-9.9c-.3.6-.6 5.6-.6 11.2.1 11.1.4 11.7 6.4 11.7 3.4 0 3.8-.3 4.3-3.3 1-5.5 0-18.8-1.6-19.8-2-1.2-7.7-1.1-8.5.2Zm19.1 2.2c-1.7 4.2-1.9 19.1-.2 20.5 2.3 1.8 8.3 2.3 9.6.9 1.7-2.1 1.9-20 .2-22.5-.4-.8-2.5-1.5-4.5-1.7-3.4-.3-3.9 0-5.1 2.8Zm-811.5 2c2 2.7 2.3 4.2 2.4 13.6a54 54 0 0 1-.7 11.9c-.5.6-2.8 1.2-5.1 1.2-5.3 0-5.4-.2-5-12.5 0-5 .2-10.9.3-13.2 0-3 .5-4.3 1.9-4.5 2.6-.6 3.7 0 6.2 3.4Zm829.7-2.6c-1.3 1.2-.8 21.8.5 23.1.7.7 3 1.2 5 1.2 3 0 3.8-.4 3.9-1.8l.3-8.2c.3-6-.6-12.5-1.7-13.6-.8-.9-7.4-1.4-8-.7ZM586 578a54.6 54.6 0 0 0-3.4 9.3c-1.6 6.1-.9 8.7 3.7 13.6l3.2 3.3-6.1-.5c-9.1-.9-13-3-14.4-8.2-.7-2.4-1-5.1-.6-6.1 1.5-4.7 14.5-15.3 18.9-15.4.4 0-.2 1.8-1.3 4Zm408.5-3c-.3.5-.6 5.3-.6 10.7 0 11.5.7 12.6 8.6 12l4.9-.2-.1-10.7c0-6-.4-11.2-.8-11.8-.8-1.3-11.2-1.3-12 0Zm24 0c-.4.6-.7 5.8-.7 11.6 0 8 .3 10.8 1.3 11.5.8.5 4 .9 7 .9 5 0 5.7-.3 6.2-2.2.6-2.2 0-19.2-.8-21.5-.5-1.6-12-1.8-13-.3Zm25.6.4c-.6.7-1.2 5.8-1.3 12.1-.1 12.4.3 13.2 7.7 13.3 3.3.1 4.7-.3 5.4-1.6.5-1 1-6.4 1-12 .2-9 0-10.6-1.6-11.8-2.3-1.7-9.7-1.8-11.2 0Zm91.8-.4c-1.3.7-1.5 2.7-1.3 11.2l.3 11c.1 1.2 8.9 1 9.6-.2 1.2-1.9.9-18.5-.3-20.8-1.3-2.3-5.3-3-8.3-1.2Zm206.3-.3c-.8.3-1.2 2.8-1.2 7.6 0 8.3 1 10.8 3.7 9 2.7-1.5 3.1-14.8.6-16.1-1-.5-2.4-.7-3-.5Zm13 .6c-.7.6-1.2 4.3-1.2 8.4 0 7.1 0 7.3 2.5 7.3s2.5-.1 2.5-7.9c0-5.8-.4-8-1.4-8.4-.7-.3-1.9 0-2.5.6Zm-28.5 2.9c-.8 4.4 0 11.8 1.2 13 .7.8 1.5.7 2.6-.2 1.2-1 1.5-2.9 1.3-8.4-.3-6.4-.5-7.1-2.4-7.4-1.8-.2-2.3.3-2.7 3Zm-240.7 4.3c0 6.2-1 8.4-2.4 5-.8-2.2-.8-10 0-10.8 1.8-1.7 2.4-.2 2.4 5.8Zm19.2-3.9c.6 3.1-.4 13.4-1.3 13.4-.5 0-.9-3.4-.9-7.5s.4-7.5 1-7.5c.4 0 1 .7 1.2 1.6Zm-251 .6c-1.4 1.4-1.5 4.7-.6 13.7.7 6 .8 6.2 3.3 5.9l2.6-.3-.3-9.5c-.1-6.1-.7-9.7-1.5-10.2-1.6-1-2.1-1-3.5.4Zm14.8 8.7c0 10.3 1 13 4.5 11.7 1.3-.5 1.4-2 1-9.8-.8-11.3-.9-11.8-3.5-11.8-1.9 0-2 .6-2 9.9Zm253.8-2c.3 5.8.1 7.2-1 6.9-.9-.3-1.4-2.7-1.6-7.7-.2-5.4 0-7.2 1-6.9.7.3 1.3 3.2 1.6 7.7Zm-120.8.1c0 6.3-.2 7-2 7s-2-.7-2-5.4c0-6.4.7-8.6 2.6-8.6 1 0 1.4 1.7 1.4 7Zm25 .4c0 7-.7 8.6-3.6 8.6-.7 0-.4-14.6.3-15.3.3-.4 1.2-.7 2-.7 1 0 1.3 1.9 1.3 7.4Zm24 1.2c0 6-.3 7.4-1.5 7.4-1.6 0-2-2.2-1.5-10 .2-5 .7-6.3 2-5.5.6.4 1 4 1 8Zm90-.9c-.1 5.3-.4 7.2-1 5.8-1.6-3.8-1.1-13.5.7-13.5.1 0 .3 3.5.2 7.8Zm28.7-4c-.2.5-.3 4.8-.3 9.8.1 8.7.2 9 2.5 9.3 1.3.2 2.7-.2 3.1-.8.8-1.3.4-16.6-.5-18-.7-1.2-4.2-1.3-4.8-.3Zm16.5.5c-1.6 1.6-1.6 18 0 19.6.7.7 2 1.2 3 1.2 1.6 0 1.8-1 1.5-10.7-.2-8.7-.5-10.8-1.7-11-.9-.2-2 .2-2.8.9Zm15 1a46 46 0 0 0-.6 18.2c.3.9 1.7 1.6 3 1.6 2.6 0 2.4 1 2.6-13.9 0-6.7-1.9-9-5-5.9Zm-502.4 9a63.3 63.3 0 0 1 26.5 27c3.1 5.7 9 15.5 13.2 21.8a165 165 0 0 1 20 40.2 58.2 58.2 0 0 1 2.2 21.8c-.2 12-.5 14.1-2.6 18.9-2 4.5-3.1 5.6-7 7.3-16 6.8-38.1 9.5-52.1 6.4-8.6-2-16.2-5.2-27.5-11.7a217 217 0 0 0-43.5-19 346.5 346.5 0 0 0-21.5-1.4 256 256 0 0 1-16.5-1c-17.5-2.7-34.6-9.2-40.1-15.2a114 114 0 0 1-18-34.9 44.8 44.8 0 0 1 1-23 39.1 39.1 0 0 1 20-19.8c5.5-2.6 7.8-3 13.6-3 16.8.1 30.7 1.3 39.5 3.3 5.2 1.2 12.6 2.6 16.5 3.1 3.9.5 10.1 1.6 14 2.5 3.9 1 9 2 11.5 2.5 2.5.4 6.8 1.7 9.5 2.8a426 426 0 0 1 41.8 21.4c7.5 4.6 10.5 5.9 13 5.6 3-.3 3.2-.6 3.5-4.1.6-7.4-6.5-18.7-20.3-32a151.6 151.6 0 0 0-25-19l-5-2.5 5.5-1c9.6-1.9 20.2-.7 27.8 3Zm50.4-2.7c-1.6.7-3.1 2.1-3.4 3.1-.2 1-.2 7.5.1 14.4.6 11.6.7 12.5 2.6 12.5 1.9 0 2-.7 2.1-11 .2-14.4.2-14.5 1.9-14.5 2 0 2.4 2.4 2.7 15 .3 9.7.5 10.5 2.3 10.5 1.9 0 2-.8 2.3-12.9.2-10 0-13.4-1.2-15.1-1.8-2.8-5.5-3.6-9.4-2Zm21 .6c-2.5 2.6-3 5.9-3.2 17.5 0 12.4-.1 12.4 7.5 12.4 3.5 0 6.6-.4 6.9-.8.2-.4.6-6.8.7-14.2.2-12.8.1-13.4-2-15.2-3-2.4-7.6-2.3-10 .3Zm23.2-.8c-3.2 1.7-3.4 2.7-3.4 15.8 0 9.7.3 13 1.4 13.8 1.7 1.4 11.3 1.8 12.5.5.5-.5 1-5.6 1.1-11.4.3-13.6.2-14.3-1.3-16.4-1.6-2.2-7.9-3.6-10.3-2.3Zm23-.3c-2.7 1-3.3 2.8-3.4 10-.4 15 0 20 1.6 20.7 3 1.1 3.7-1.4 3.5-13-.1-11.8.6-14.4 3.4-11.6 1 1 1.5 4.7 1.6 12.5.2 10.8.3 11.1 2.5 11.1 3 0 3.2-1.1 2.8-14.7-.3-11-.4-11.6-3-13.8-2.6-2.3-5.4-2.7-9-1.2Zm418 2.8c-1.1 1-1.4 4-1.2 11.6l.3 10.1 4.7.5c2.5.3 5 .4 5.7.2 1.5-.5 1.5-21.8 0-22.7-2-1.3-8.2-1-9.6.3Zm19.8.5c-.5.6-.9 5.7-.8 11.2l.2 10 4.9.8c2.6.4 5.4.6 6.2.3 1.8-.7 1.9-20.6.1-22.4-1.6-1.6-9.3-1.5-10.6 0Zm19.2 0c-.3.7-.3 6-.2 11.8l.3 10.4 4.9.3c3.2.2 5.2-.1 5.7-1 1-1.6.7-20-.4-21.5-1.1-1.7-9.6-1.7-10.3 0Zm18.3 0c-.3.8-.5 6-.5 11.6 0 8.8.2 10.2 1.8 11.1 2.4 1.3 7.7 1.3 8.5 0 .8-1.4 1-21.4.1-22.8-1-1.7-9.3-1.5-10 .2Zm-514.8 13.4V617h-5l.7-10.3c.6-10.1 1.9-14.2 3.5-11.5.5.7.8 5.9.8 11.5Zm22.7-.4c0 9.6-.1 10.7-1.7 10.7-1.5 0-1.8-1.2-2-8.8-.5-11.3-.2-13.4 2-13 1.4.3 1.6 1.9 1.7 11Zm440 3.9c-1.8 1.2-2.3 0-2.5-6.3-.1-4.2.2-6.5 1-7 1.1-.7 1.5.7 1.9 5.9.3 3.7 0 7-.5 7.4Zm40.4-6.2c0 4-.4 7-1 7s-1-3-1-7 .4-7 1-7 1 3 1 7Zm18 .5c0 4.3-.4 7.5-1 7.5s-1-3.2-1-7.5.4-7.5 1-7.5 1 3.2 1 7.5Zm-36 0c0 5.8-.2 6.6-1.8 6.3-1.4-.3-1.7-1.5-1.8-6.6 0-5.4.2-6.2 1.8-6.2s1.8.9 1.8 6.6Zm-303.2 11c.1 8.1-.1 15.2-.6 15.7s-1.6.6-2.5.2c-1.5-.5-1.7-2.5-1.7-15.3 0-8.1.3-15 .7-15.5.4-.4 1.4-.5 2.3-.4 1.3.3 1.5 2.7 1.8 15.2ZM911.5 602c.3.5.8 7.4 1 15.5l.6 14.5h-2.5c-2 0-2.5-.6-3-4.5-.8-4.7-.7-24.5 0-25.8.7-1 3.2-.9 3.9.3Zm23.3 15c.2 14 .1 15.1-1.5 14.8-1.6-.3-1.8-1.8-2.1-12.3-.3-13.4.3-18.8 2.1-18.2.8.2 1.3 4.9 1.5 15.6Zm393.4-11c-.8.3-1.5 3.1-1.8 6.1-.5 6.1 1 9.4 3.9 8.3 1.4-.5 1.7-1.9 1.7-6.9 0-6.4-1.4-9.1-3.8-7.6Zm13.1.3c-1.4 2-.4 13.7 1.3 14.4 2.8 1 4.3-1.7 4.2-7.5-.1-5.8-1-8.2-3.3-8.2-.7 0-1.7.6-2.2 1.3ZM199 618.6c-2 4.7-20.6 42.3-25 50.3-4.6 8.4-11.7 20.6-22.7 38.8-4.1 7-7.1 13-6.8 13.8.5 1.3 3.7 1.5 19.8 1.4h40.4l-.8 8.2-28.7-.6c-16-.3-29.2-.2-30 .3-2.2 1.4-2.6 10.2-.6 14 2 4 1 5.6-4.4 7a31.5 31.5 0 0 1-17.5-.5c-5.7-2-8-.8-4.6 2.4 5.2 4.8 19.6 5.5 28 1.2l4.3-2.2 4.1 2.4c3.5 2 5.4 2.3 13.6 2.3a38 38 0 0 0 14.2-1.9c4.3-1.7 4.9-1.7 7.9-.2 6.9 3.4 19.4 3.6 30.1.5 8.8-2.6 10-2.6 15.8-.4 5.6 2.2 19.5 3.9 32 4 8.2 0 10-.4 13.3-2.4 6.3-3.9 3.6-6.7-3.6-3.5a32.8 32.8 0 0 1-18 .8l-2.8-.6 4-4.3c2.9-3.1 4.2-5.7 5.2-10 2-9.2 3-9-29.6-8.6l-27.5.3V723h4.3c40.6-.4 42.2-.5 42.5-2 .1-1-.7-2.7-1.9-4-4-4.7-12.8-19.9-21.3-36.7-12.6-25-20-42.9-23.6-56.8-1.7-7-1.8-7-5.4-7.3-3.1-.3-3.7 0-4.7 2.5Zm-53.9 1.7a28 28 0 0 0-13.1 6.4c-3 2.7-4 3-10.8 3-6.2 0-7.8-.3-10.5-2.3-8.2-6.1-20.8-6.9-28.2-1.7-3.7 2.6-4.3 2.8-6.5 1.6-3.7-2-10.4-2.7-14.2-1.5-1.9.6-5.2 2.7-7.3 4.5l-3.9 3.3-24.3-.2c-19 0-24.5.2-25.4 1.2-.8 1-.7 1.7.3 2.9 1 1.3 3.7 1.5 17.3 1.3h25.3l9.2.3 4.7-4c5.8-5.2 9.7-5.7 18.2-2.6 4.3 1.6 4.4 1.6 7-.9 3.5-3.2 5.9-4.3 10.3-4.6 4-.3 12 2.6 17.9 6.5 3.5 2.3 4.4 2.5 7.8 1.7a12 12 0 0 1 6.2-.1c3.2 1.2 5.8.1 9.2-3.8 4-4.5 12.7-7.7 19-7 5.1.5 9.2 3 14.8 8.7 3 3 4.4 3.7 9.3 4.4 3.2.3 6 .5 6.3.2.3-.2 0-1.6-.5-3-.9-2.3-1.7-2.7-4.9-2.7-2.9 0-4.5-.7-6.3-2.6-3.6-3.9-10.5-8.4-12.8-8.4-1 0-2.3-.5-2.6-1-.8-1.3-6-1.2-11.5.4Zm59.1 27.3v47.5L204 718h-26c-14.3 0-26-.2-26-.5a492 492 0 0 1 15.5-26.4c1.3-2 4-6.6 6-10.5l6.1-11c1.3-2.2 7.2-13.8 13.1-25.7 6-12 11-21.5 11.1-21.3.2.2.4 11.5.3 25.2Zm15.3-14.6c-.3.6 0 1.8.9 2.6 1.4 1.4 17.8 1.6 148.2 1.5 103.4 0 147-.3 147.7-1 .8-.8.8-1.6-.1-2.6-1.2-1.4-18-1.6-148.6-1.6-106 0-147.6.3-148 1Zm-5.4 20.4c6.4 15 23.1 48.3 27.9 55.3 6.8 10 8 9.2-13.8 9.2H209v-37.7c0-20.7.2-37.4.4-37.2.2.2 2.3 4.9 4.6 10.4Zm27.2 6.5c-7.7.4-10.5.9-11.2 2-.7 1.1-.4 1.7 1.3 2.1 1.2.4 66.2.7 144.3.8 126.9 0 142.3 0 143.4-1.4.9-1 1-2 .3-2.6-1-1-258.2-1.9-278-.9Zm-237.4.7c-2.2.5-2.2 1-.3 3 1.3 1.2 12 1.4 83 1.4 45 0 82-.3 82.6-.6 1.5-1 1-3.2-.7-4-1.8-.6-161.8-.5-164.6.2Zm768.5 0c-2.4.5-3.3 4.2-1 4.4 8.6.6 629.4-.5 630-1.1.6-.5.7-1.6.4-2.5-.6-1.5-26.8-1.6-314-1.3-172.2 0-314.2.4-315.5.6Zm-451.7 23.1a41.6 41.6 0 0 1-27.7 1.5c-10.8-3.7-11.4.7-.6 4.6 8.6 3.1 19.7 3 28.3-.6l6.7-2.6 4.1 2.1c7 3.7 12.6 5.2 19 5.2 6.6 0 16.8-2 20.3-3.8 1.7-1 3-.8 6.8 1 6.8 3 16.2 3.2 23 .7 5.2-2 5.6-2 10.2-.4a47 47 0 0 0 22.8 2.5c10.1-1.6 14-3.2 14.3-5.8.4-2.7-1-2.8-6.4-.6a49 49 0 0 1-28.2-.6c-7.1-2.3-7.3-2.3-11-.5-6.5 3.1-18.1 2.4-26-1.7-1.8-1-3-1-5.5.1a46 46 0 0 1-20.3 3.8 27 27 0 0 1-15.5-4c-4-2-7.8-3.6-8.4-3.6-.6.1-3.2 1.3-6 2.7ZM55 686.6c-7 3-16 3.2-23.1.4-2.9-1-5.6-1.7-6-1.4-2.2 1.3-.5 3.7 3.9 5.7 6.3 2.9 19.5 3 26.5.3 4.7-1.8 4.9-1.8 9.5.2a34.2 34.2 0 0 0 21.3 3.2c8-1.5 11.9-3.5 11.9-6 0-2.4-.7-2.5-7.1-.4a36.8 36.8 0 0 1-25-2c-5.9-3-4.9-3-11.9 0Zm817.8-.6a42 42 0 0 1-22.3 4c-13.3-1.2-16.5-.1-9.5 3.2 7 3.3 21.7 2.7 30.9-1.2 4.6-2 5-2 8-.5 7.4 3.8 21.8 4 30.8.3 3.4-1.4 6.5-2.2 7-1.8 2 1.8 12.1 4.3 18.9 4.6 7.6.3 16.7-1.6 19.2-4 1-1 1-1.5-.3-2.6-1.4-1.1-2.2-1.1-5.3 0-8.5 3-20.8 2.1-29.6-2.3-3.7-1.8-4.2-1.8-7-.4-5.6 2.8-11 4-18.3 4-5.9 0-8.1-.5-12.3-2.6-6-3.2-5.5-3.1-10.2-.7Zm334 0c-10.1 5.4-23.5 6.2-31.7 2-3.2-1.6-4.6-1.9-5.4-1-1.7 1.6.3 4.1 4.9 6.5a41 41 0 0 0 27.9-.4c11.4-4.8 10-4.6 14.2-2 3.4 2 5.1 2.3 15.3 2.3 9.3 0 12.4-.3 15.8-1.8 4.1-1.9 4.3-1.9 8.4 0 8.7 3.9 28.8 1.6 28.8-3.3 0-1.3-.7-1.4-3.8-.7-2 .5-7.6.8-12.3.8-7.3-.1-9.2-.5-11.8-2.4l-3.2-2.2-5.1 2.2c-3.6 1.6-8 2.4-14.9 2.7-9.2.6-10 .4-14.3-2-5.3-3.2-7.8-3.3-12.8-.6Zm-131.6 4.5a33.5 33.5 0 0 1-21.6 2.6 34 34 0 0 1-7.7-2.4c-1.5-1-3-.5-8.8 2.6a34.3 34.3 0 0 1-26.4 3.3c-8.6-2-8.7-2-8.7.4 0 3.6 4 5.1 15.4 5.5 5.8.3 10.6.1 10.6-.3s1.4-.8 3.1-1c1.8 0 5.2-1.4 7.6-3l4.5-3 5.1 2a40.7 40.7 0 0 0 26.4-1.2l5.3-2.2 5.5 2.2c4.8 2 6.8 2.2 14.5 1.8 6-.4 9.8-1.1 11.5-2.2 2.4-1.6 3-1.6 7.3-.2 5.4 1.9 11.1 2 18.2.5 4-.8 5-1.5 5-3 0-1.9-.4-2-4.8-1.4-6.5 1-11.4.7-16.3-1-5.5-2-7.2-1.9-11.9.5-5.8 3-15.9 2.7-22.8-.5a36 36 0 0 0-6-2.4c-.4 0-2.6 1.1-5 2.4Zm-591 4.3c.7 4 15.2 7.5 24.2 5.8 2.7-.5 3.6-1.2 3.6-2.6 0-2.2.1-2.2-9-2-3.6 0-9-.6-12-1.5-7-1.9-7.2-1.9-6.8.3Zm857.3 4.6c-1.1.7-4.4 2-7.3 2.7a18.7 18.7 0 0 1-11 0c-8.2-2-10.6-1.9-11 .1-.3 1.3 1.2 2.2 6.8 3.9 8.7 2.6 16 2.2 22.2-1.3l4.2-2.3 5.9 3a29.7 29.7 0 0 0 23 1c4.6-1.6 5-1.6 10.7.5 4.3 1.6 7.3 2 11.3 1.7 6.3-.5 8-1.3 7.5-3.5-.3-1.4-1.6-1.7-6.8-1.7-4.5 0-8.2-.7-12.2-2.4l-5.7-2.3-4.6 2.2a26 26 0 0 1-21.9-.4c-6.7-3-8.4-3.1-11.1-1.2ZM585 707.5a67.7 67.7 0 0 0 21.5 2.7c6 0 14 .4 17.5 1 5.8.8 28.1 8.9 30.4 10.9.5.4-2.4 1.7-6.4 3-7.6 2.3-14.1 2.2-30-.2-7.1-1.1-23.5-5.4-26.2-7-1-.5-3.4-.9-5.3-.9-2 0-4.8-.6-6.4-1.4a45.5 45.5 0 0 1-11.1-11.2c0-.8 3.3-.2 16 3.1Zm240.5 8.9A41.4 41.4 0 0 1 808 721c-2.5 0-7-.9-9.8-1.9-5.7-2-6.3-1.8-6.3 1.1 0 5.3 17.7 7.6 29.1 3.8 3.5-1.2 6.8-2.5 7.3-3s3 .2 6 1.7c10.2 5.2 36.2 4 32.7-1.5-.9-1.4-.7-1.4-13.2-.6-7.9.5-9.1.4-16.5-2.5-9-3.5-9.3-3.6-12-1.7Zm344 2.8a52 52 0 0 1-32.2 3.3c-6.5-2.7-9 1-3 4.2 2.5 1.4 5.5 1.8 14.2 1.7 9.4 0 12-.4 17.8-2.6l6.9-2.6 5.6 2.6c5 2.4 7 2.7 16.2 2.7 9.4 0 11.2-.3 16-2.7 5.1-2.6 5.5-2.6 8.4-1 6 3.1 12.5 4 20.8 2.6 8.5-1.4 9.8-1.9 9.8-3.9 0-1.9-2-2.4-5-1.3-2.9 1-13.5 1.2-17.7.2-1.5-.4-4-1.3-5.6-2.1-4.5-2.3-6.6-2.3-10-.3-1.6 1-6.1 2.4-10 3.1a37 37 0 0 1-22.9-3c-4.4-2.4-6.4-2.5-9.3-.9Zm-829.3 3.9a29 29 0 0 1-23.2 2c-6.5-1.6-7.5-1.7-7.8-.4-.5 2.2 1.6 3.9 7 5.7a37.5 37.5 0 0 0 28-3c3.1-2 3.2-2 8.2.6 7 3.4 16.6 3.3 26-.5l6.6-2.6 3.5 2.1a35 35 0 0 0 18.8 4.5c5-.3 6.6-.8 14.5-4.2 3-1.3 3.6-1.2 6.5.6a43 43 0 0 0 15.7 4.6l6-.8c4.5-.5 12.7-3.3 14.4-4.8.5-.5.4-1.4-.3-2.2-1-1.3-2-1.2-7.2.4-10.1 3.2-22.8 2-27.8-2.5-2.4-2.2-4.6-2-10 .6-3.8 1.9-6.3 2.3-14.1 2.3-8.6 0-10-.3-14-2.8-5.7-3.3-6-3.3-13.5-.2a31 31 0 0 1-24.9 0c-5.6-3-5.7-3-12.4.6Zm242.7-1.5c1.4.2 7.1 1.7 12.6 3.4 17.3 5.4 23.6 6.7 30.3 6.2 7.5-.5 8.8.4 15.7 10.8a126 126 0 0 1 12.5 24.7c0 3-12.5.4-23.2-4.6l-6.4-3-10.4 3a62 62 0 0 1-23 3.2c-11.4 0-13.1-.2-19.5-2.7-13-5.2-13.9-5.3-20.8-2.9a96.5 96.5 0 0 1-9.6 2.8l-3.4.7 3.3-5.8c4-7.1 12.3-19.8 15.8-23.9 4-4.9 11-9.7 16.5-11.5 2.8-1 5.6-1.5 6-1.2.6.3 2.2.6 3.6.8Zm-527.3 3.3c-7 4.7-22 6.2-32.3 3.2-2.4-.7-3.5-.6-4.3.4-1.7 2 2.5 4.4 10 5.6 8.6 1.4 20.3-.3 27.4-3.8 2.6-1.4 3.5-1.3 10 .9 9.2 3 21.1 3 28 0 4.6-2 6-4.5 3.2-5.5-.8-.3-3 .1-4.7 1-1.7.9-6.2 1.8-9.8 2-5.5.5-8 0-14.1-2.2a352 352 0 0 0-9-3.1c-.8-.2-2.8.4-4.4 1.5Zm889.3 1.6c-7.4 3.9-15.5 4.9-23.8 3-7.1-1.8-8.8-1.8-9.4-.2-1 2.6 1 3.6 9.4 5.1 7.6 1.3 9.3 1.3 16 0 4.2-1 8.5-2.5 10.2-3.8l3-2.3 4 2.2a47 47 0 0 0 35.4 1.5c4-1.7 4.8-1.8 7.1-.6a66.2 66.2 0 0 0 37 1.4c4.2-1.6 4-4.4-.3-4-1.7.2-8.6.4-15.5.5-11 0-13-.2-17.5-2.1l-5-2.3-8.3 2.7c-10 3.2-18 3-27.7-.6-8.6-3.2-9.5-3.2-14.6-.5Zm-277.6 2.7c5.3 3.8 21.3 10.6 29.9 12.7a61.7 61.7 0 0 0 18.6 2l10-.3 8.1 5c9.6 5.8 21.1 14.2 21.1 15.4 0 1.7-9.8 3.2-24 3.6-13.5.5-15 .4-22.8-2a67.2 67.2 0 0 1-11.8-4.7l-3.5-2.1-5.8 2.6c-5.8 2.6-15 5-23.1 6.1l-4.6.6-1.8-5.8c-2-6.2-8-18.9-10-20.8a48 48 0 0 1-3.6-4.8c-1.4-2-2.8-3.7-3.3-3.7-.4 0-.7-.5-.7-1s1.5-1 3.3-1c1.7 0 6.4-1.2 10.2-2.4 7.5-2.5 9.4-2.4 13.8.6Zm-406.3 8c0 2.9-2.8 8.3-5.9 11.2-4.2 4-11.4 4.6-19.1 1.7-6-2.3-9-2.6-10.6-1.2a45.5 45.5 0 0 1-33 2l-6.4-2.2-5.1 2.2a32 32 0 0 1-22.8.1c-6.4-3.2-11.3-10.5-9.8-14.4.5-1.1 9.6-1.4 56.6-1.2 51.1 0 56.1.2 56.1 1.7Zm1058.6 1.1c-5.6 3-6.6 3.2-16.5 3.2-6.8 0-11.8-.5-14-1.4-2.5-1-3.5-1.1-4.4-.2-3.2 3.2 11.3 8.2 21.4 7.4 6.3-.4 11-1.8 16-4.5 3.5-2 3.5-2 10 .3 8.8 3 16 3.2 22.5.8 4.9-1.9 5.6-1.9 8.6-.5 7.1 3.3 19.2 4 23.9 1.5 2.3-1.2 2.1-4.7-.2-4-4 1.4-14.8.2-21-2.2l-6.6-2.5-3.4 2.2c-5.2 3.2-16.5 3-24-.7a61.4 61.4 0 0 0-6-2.6c-.3 0-3 1.5-6.3 3.2ZM1063 754.5a38.3 38.3 0 0 1-17.9 6.5c-2 0-6.1-.7-9-1.6-5.7-1.7-8.1-1.4-8.1 1 0 2.1 2.6 3.3 10.3 4.7 8 1.5 14.6.3 23.4-4.1l5.7-2.9 2.8 2c7.5 5.4 21.9 6 31.2 1.4l5-2.4 5 2.7c4.3 2.2 6.4 2.6 13.6 2.6 9.4 0 15.5-1.6 17-4.4 1.5-2.9-.3-3.3-6.6-1.4a32.1 32.1 0 0 1-23-2l-5.3-2.7-4.8 2c-7.7 3.3-12.9 4-19.6 3-6.4-1-10.5-2.8-12.6-5.3-1.8-2.2-3.2-2-7.1.9Zm-202.6 5.3c-6.3 3.3-19.6 6.9-26.4 7.1a28 28 0 0 1-14.5-3c-12.1-5-14.8-1.8-3.2 4 11.6 5.6 25.9 5.1 40.8-1.5l5.6-2.5 3.4 2a36 36 0 0 0 18.2 5.2c6.2 0 15.7-2.3 19.5-4.7 2-1.4 2.8-1.3 8 1.2 8 4 20.3 4.5 28.1 1.2 9.7-4.1 9.8-8.5.1-5a34 34 0 0 1-13.7 1.9c-6.8-.2-8.8-.7-14.6-3.6l-6.7-3.4-2.3 2c-7.8 7-25 7-35.6 0-3.5-2.3-3.9-2.4-6.7-1Zm-496 5.5C359 769 347 770 337 767.7c-3-.8-6.4-1-7.4-.7-1.6.6-1.5.8 1 2.8 6.6 5.2 27.4 5.5 35 .5 1.6-1 2.4-1 5 .6 4.3 2.7 14.3 5.1 21.3 5.1 6 0 18-3.5 20.5-5.9.6-.6 2.6-.3 6 1 2.7 1 7.5 2.2 10.7 2.6 6.4.6 18.3-1.1 21.2-3.1 1.6-1.2 1.7-1.5.3-2.6-1-.9-2.2-1-4.4-.2-5.3 1.9-21 .9-26.7-1.7l-5.1-2.2-5.4 2.4a36.4 36.4 0 0 1-36-.2c-4-2.4-5.7-2.6-8.4-.8Zm852.7 1.1c-.7.8-3.3 2.4-5.9 3.6-5 2.4-12.5 2.4-18.7 0-2.3-.9-3.2-.8-4.3.4-1.3 1.3-1 1.7 1.8 3.5a30.9 30.9 0 0 0 17.7 2.6c2.1-.3 5.7-1.7 8-3l4.4-2.4 4.7 2c7 3 19 3 26.1-.2 5.3-2.2 5.5-2.2 8.5-.5a37.3 37.3 0 0 0 17.3 4.6c10.9 0 21.6-4 18.6-7.1-1-1-2.1-1-5.5.2-6.2 2-20.3 1.7-24.8-.6-2-1-4.3-2.4-5.2-3.2-1.5-1.3-2.4-1.2-8.1 1.1a37.4 37.4 0 0 1-29.9-.8c-3-1.3-3.8-1.3-4.8-.2ZM83 773c-.8.5-4 2-7 3.1a51.2 51.2 0 0 1-26.9.5c-2.4-.8-5.3-1.1-6.8-.7-2.4.6-2.5.8-.9 2.4 2.7 2.7 12.1 5 20.5 4.9 7.2-.1 20-3 22.7-5.3.8-.6 2.4-.3 4.5 1 9.1 5.3 23 6.4 31.4 2.6 2.2-1 4.5-1.7 5-1.5l6.5 2.2c4.2 1.5 7.3 1.8 13 1.5 9-.5 18-3.9 18-6.8 0-2.5-2.6-2.4-8.7.2a33.6 33.6 0 0 1-24-1l-5.2-2.3-5.3 2.6c-7.8 3.9-19.4 3-28.6-2-4.7-2.6-6-2.8-8.2-1.4Zm435 21a45.3 45.3 0 0 1-37.3 1.3c-4.3-2-6-2.3-7-1.5-1.7 1.8 1.7 4.8 8.2 7.3 4.4 1.8 7.9 2.2 16.6 2.3 10.4 0 11.4 0 17.7-3l6.7-3.3 4.4 2.3c2.4 1.3 7.4 3.1 11.1 4a26 26 0 0 0 13.5.6c7.8-1.3 14-4.5 12.2-6.3-.8-.8-2.3-.8-5.8.1a40.7 40.7 0 0 1-29.5-3.4c-5.6-2.8-6.2-2.9-10.8-.4Zm237 7.2c-12.6 5.7-21.8 6.2-32.7 1.7l-7.5-3.2-4.1 2a50 50 0 0 1-32.2 3.8c-3.3-.9-6.8-2.3-8-3-2.3-1.7-3.4-1.8-5.5-.5-1.2.7-1 1.3 1.5 3.4 8.5 7.4 27.1 8.6 41.2 2.8l7.1-3 6.8 3a29 29 0 0 0 13.9 2.9c7.4 0 14.6-1.8 19-4.7 2.5-1.7 3-1.6 9.3.6 9.3 3.2 21 3.7 28.6 1.3 6.1-1.9 9-4.4 7-6.3-.7-.7-2.1-.6-4.7.5-6.7 2.8-16.3 3-25.2.6a50.6 50.6 0 0 1-9-3.1c-.6-.5-2.8 0-5.5 1.2Z" clip-rule="evenodd"/></svg>