<svg xmlns="http://www.w3.org/2000/svg" width="1423" height="815" fill="none"><path fill="#000" fill-rule="evenodd" d="M122.5 1.5c-5.6 1.6-6.7 2-14.5 5.8-8.3 4-12.3 7.8-16.3 15.5a33 33 0 0 0-4.3 14c-.6 6-1 7-2 6-.8-.6-4.5-1.3-8.3-1.6a19 19 0 0 0-12.2 2C56 47.5 51 53.5 50.9 59.8c0 4.3-.9 5-7.7 5.6-4.6.5-7.4 1.5-10.6 3.6-6.4 4.5-10 14-5.4 14.9 1.2.2 2.3-1.1 3.9-4.8 3.2-7.5 9.4-10.1 18-7.5 6.9 2 7.9 1.1 7.2-6.4-.8-8.2 2.7-13.3 11.6-17.4 6.6-3 13.9-1.7 21.3 3.5 1.4 1 2 1 3.5-.4 1.4-1.5 1.5-2.2.4-5.9-2-6.6.8-17.1 6.5-24.7a48.1 48.1 0 0 1 31.5-14.5c10.4 0 24.4 8.5 29.1 17.7 2.9 5.6 4 16.2 2.2 20-1.8 3.8-1.8 7.5.1 8.2.9.4 3-.7 5.2-2.6 8.9-7.8 18.3-7.8 26.7 0l4.1 3.9V61c0 5.5.4 8.4 1.2 8.6.7.3 3.2-.9 5.5-2.5 5.3-3.6 8-4.5 13.5-4.4 9.2.2 18.3 8.1 18.3 15.9 0 1.5-.4 3.4-.9 4.2-1.3 2-.1 5.2 1.8 4.9 2.3-.5 4-4.6 4-9.6.1-12.2-12.5-22-26.7-21-3.1.3-6.7.9-8 1.3-1.8.6-2.2.4-2.2-1.4 0-1.2-.4-3-.9-3.9l-2.1-4.4a24.8 24.8 0 0 0-28.3-9.4c-2.2.9-4.2 1.6-4.6 1.6-.3 0-.7-3.2-.9-7.2-.1-5-.9-8.4-2.5-11.6-7.6-15.3-27.8-25-43.2-20.7Zm1152 25.6c-12.3 2-26 9-31.5 16a35.7 35.7 0 0 0-7.7 20.7c.2 5.2.1 5.3-2.3 4.8-10.8-2.5-16.3-1.6-23.6 3.6a19 19 0 0 0-8.4 14.5v4l-5-.5c-3.3-.3-6.5.1-9.5 1.2-4.8 1.9-11 8.1-12 12-1 3.8-.2 8 1.6 8.4 1.3.2 1.8-.8 2.3-4.1.7-4.8 3.7-8.2 9.5-11.2 3.2-1.6 5.8-1.7 16.1-.3 2.5.3 2.5.2 2.6-7 .2-6.2.5-7.7 2.5-9.9 5.9-6.4 17-8.3 25.2-4.4 5 2.5 7 2 6.6-1.5-1.1-12.7.9-20.7 7-27.6 9.6-11 29.3-16.8 41.3-12.1a34 34 0 0 1 18 15.8c3 6.5 3.4 10 1.6 15.1-1 2.6-.9 3.6.2 4.8 1.8 2.3 2.5 2 7.2-2.8 3.2-3.2 5.4-4.5 8.5-5 13.6-2.3 24.3 9.7 20 22.4-2.2 6-1 7 5 4.6 10.1-4 19.9-3 25.6 2.7 5 4.9 6.3 9 4.8 14.6-1.9 6.6-1.8 7.6.3 7.6 3.2 0 5.8-4.7 5.8-10.4 0-15.1-15.8-25.9-32-21.8l-3.2.9v-4c0-7.5-1.2-10.5-6-15.3-5.1-5.1-9.7-7-18-7.1-2.9 0-5.6.5-7 1.5-3.7 2.6-4.4 2.1-5.8-3.5a36 36 0 0 0-39.7-26.7ZM107.6 85.7c0 .1-13.3.3-29.4.4-23 0-29.4.4-30.3 1.5-.6.7-.8 1.8-.4 2.4.5.8 23.5 1 80.8.9 89-.3 91-.4 90.5-2.7-.2-.8-1.7-2-3.3-2.4-2.4-.7-107.2-.8-107.9-.1Zm1094 28.1c-1.1.3-1.6 1.1-1.4 2.5l.3 2.2h53.5c29.4 0 64.8-.2 78.5-.5l25-.5.7-4.7-77.4.4c-42.6.2-78.2.5-79.2.6Zm-894.4 4.4c-.7.7-1.2 2.6-1.2 4.4 0 3.3-1.8 4.8-4.5 3.8-2.1-.9-4.4 1.3-3.8 3.6.4 1.4 1.6 2 4.6 2.2l4 .3-.2 7c-.2 6.3-.5 7.3-3.3 10.2-2.7 2.8-3 3.7-2.5 7.2.3 2.2 1.2 4.8 2.1 5.6 2 2.1 2 2.8-.5 5-1.5 1.5-2 2.9-1.7 5.9.3 3.9.3 4-4.7 5.6-20.2 7-36.5 28.2-36.5 47.7 0 3.6-.4 4.4-3 6-1.7 1-3 2.6-3.2 3.8a1565.5 1565.5 0 0 1-.6 10.8c-.2 3-.7 4-2.7 4.9-3.6 1.6-3.2 5.4 1 11.4 2 2.8 3.3 5.6 3 6.6-.3.9-.1 2 .5 2.3.6.4 1 12.5 1 35.7v35l-3 2.8c-3.3 3-3.7 5.9-1.9 12 .7 2.3.9 6 .5 9.4l-.8 5.7-15.3-.6-.3-8c-.3-7.9-1.8-11.5-4.7-11.5-.8 0-1.4-2.3-1.8-6a15 15 0 0 0-4.5-10.8 45.3 45.3 0 0 0-9.5-8c-5.2-3.2-5.5-3.5-4.6-6 .5-1.4.7-3.8.4-5.4-.6-2.4-.3-3 2-3.8 3.2-1.2 3.3-3 0-3-1.8 0-2.4-.6-2.7-2.8-.4-3.4-4.1-3.9-4.6-.5a3.7 3.7 0 0 1-2.3 2.8c-2.5.8-2.5 3.5.1 4.2 1.7.5 2 1.4 2 5.9 0 5.8 0 5.7-7.5 10.8-11 7.3-13.3 14-14.2 39.4-.4 13.5-.6 14.4-3 16.7-1.9 2-2.2 2.9-1.3 4.4.5 1.1 1.5 2.3 2 2.6.6.4 1 8 1 19.4v18.7l-10.8 3.3-13.2 4.2-32.8 10c-2.3.7-4.2 1.6-4.2 2 0 .5-.4.9-.8.9s-1.5-3.2-2.5-7.1c-2-8.7-4-11.9-7.2-11.9-4.1 0-6.8 6.6-7.3 18l-.5 9.5-5.3 4.3c-7 5.6-8.1 7.6-5.4 10 3.4 2.8 6.3 8 5.3 9.5-.5.6-1.5 2.7-2.3 4.5-1 2.8-1 3.5.3 5S96 498.6 96 513c.1 12.1-.2 17.5-1 17.4l-2-.3c-.5 0-1-1.8-1-3.9 0-7.8-7.2-17.6-13.8-18.8a42 42 0 0 0-14.8 1.2c-2 .5-2.3 0-3.4-6-1-5.8-1.7-7-5-9.6a21 21 0 0 0-29.3 3.4c-4.7 6-7.6 17.2-5.8 22 .9 2 .7 2.6-1 3.1-3 1-9.6 9.2-11.3 14.2-2.3 6.7-2.1 14 .3 15.2 2.4 1.3 3.1-.2 3.1-6.5 0-6.4 2.6-11.8 7.5-15.9 5.4-4.4 10-4.7 14.3-1 1.7 1.4 3.5 2.5 4.1 2.5 2 0 2.3-2.7.7-5.3-1.4-2-3.4-3-11.5-5.3-1-.3-1.2-2.1-1-7.3.7-10.6 5.6-16.3 16-18.5 3.6-.8 11 3.2 13.1 7 1 1.7 2 5.5 2.3 8.4.3 3 .9 5.8 1.4 6.3.4.4 3.1-.1 6-1.3 10.6-4.2 18-1.8 21.5 7 1.3 3.4 1.4 5 .6 8.1-1.4 5.2-.3 6.6 5.1 6.7 2.3 0 4.3.3 4.5.5.3.2.5 10.2.5 22.2 0 12.2.5 22.7 1 23.7 1.1 2 3.9 2.4 4 .5l-.3-76.5c0-3.5.1-6.5.3-6.7.2-.2 1.9-.5 3.6-.6l3.3-.4.6 87.5h-2.1c-3.6 0-8.5 2-8.5 3.6s-2 1.5 29.3 1.9c13 .1 24 .5 24.3.7.2.3 0 1.7-.5 3.2-1.2 2.9 1 2.6-24.1 3.2-17 .3-15.6.2-14.2 1.6.8.8 6.5 1.4 17.5 1.6 8.9.2 16.3.6 16.5.7.2.2-.4 1.7-1.3 3.4-1.4 2.8-2 3.1-6.3 3.1l-14.3.3c-9.5.2-9.7.1-11.1-2.4a32 32 0 0 0-14.2-8.9c-1 0-1.6-.8-1.6-2.3a21 21 0 0 0-7.5-13.3 11.9 11.9 0 0 0-8.6-2.8c-2.7 0-5.5.6-6.1 1.2-2 2-2.8 1.4-2.8-2.2 0-6.5-7-16-13-17.6a21.4 21.4 0 0 0-27.2 15.2c-1 3.7-1.3 3.8-5.7 3.8-9.2 0-16.6 5.5-20 14.6-2.8 7.3-2.7 9.6 0 9.2 1.6-.2 2.5-1.3 3.1-3.7 2.3-8.9 9.6-15.6 15.8-14.6 8.2 1.3 8 1.4 10.3-4.5 4.2-11.3 7.3-14.7 14.8-16 3.4-.6 5.1-.4 8 1 6.7 3.5 8.8 7.6 9.3 18.3.3 6.7 1.4 7.3 6.7 3.7 5.2-3.5 8.6-3.8 12.3-1 5.1 4.1 7.4 12.3 4.1 15-1.7 1.4-2 3.6-.5 4.5.6.4 2.4 0 4.2-1 1.7-.8 4.1-1.5 5.3-1.5 4.5 0 10.5 7 10.5 12.1a30 30 0 0 1-6.3 12c-1.4 1 0 3.9 1.7 3.9.9 0 2.5-1.4 3.8-3l2.2-3h23.5l-3.6 6.8-8.5 16.4c-4.5 8.7-5.2 9.6-7.1 9-1.2-.5-16.6-1-34.2-1-17.5-.2-32.2-.5-32.5-.7-1-.6 0-10 1-10.3.6-.2 1-1 1-1.6 0-1.2 8-10.1 11.5-12.6 1.1-.8 2.8-2.7 3.8-4.3 1.6-2.5 1.6-2.8.1-3.4-1-.4-2 0-2.6 1-.5 1-1.4 1.7-2 1.7-.5 0-3.7 2.7-7 6a31.2 31.2 0 0 1-6.6 5.6c-.2-.3-.5-6-.6-12.8-.3-14.1-1-18-3.5-17.6-1.4.3-1.6 1.8-1.3 11.6.2 6.1 0 11.2-.2 11.2-1.2 0-12.6-9.2-12.6-10.1 0-1.5-4.3-.7-4.8.8-.2.7 1 2.5 2.5 4l7.5 7c5.7 5.4 7.4 9 8.3 17.5l.6 6.8H25.6c-18 0-19.6.1-20.5 1.9-.6 1-.7 2.1-.4 2.5.3.3 25.8.6 56.5.6s55.8.3 55.8.8c0 .4-2 4.5-4.4 9.2-2.9 5.6-4.9 8.3-5.7 8-1.9-.6-105 0-106 .6-.5.3-.4 1.4.1 2.4 1 1.9 2.7 2 49.7 1.7 26.7-.2 50 0 52 .1 3 .4 3.2.6 2.1 2.6-1.6 3.2-10 16-11.5 17.4-4.8 5 0 5.7 48.2 7.8a388.1 388.1 0 0 1 23 1.3l4 .1.3 5.4c.1 3-.2 5.7-.6 6-.5.3-11.8.7-25.3 1-50.8 1-62.9 2-62.9 5 0 2.4 3 7.2 7.6 12l4.6 5 13 .8c7 .4 14.7 1 16.9 1.3 2.3.4 6.2 0 9.7-1 5.3-1.5 6.5-1.5 14.7 0 11.5 2 18 2 26-.1 6-1.5 7-1.5 12.3 0 8.5 2.3 15.1 2 22.2-1.3a7 7 0 0 1 4 0 48 48 0 0 0 18-.1 86 86 0 0 0 15-20.1c0-3.4-3.2-4.8-10-4.4-27.9 1.6-59.6 2.3-60.6 1.2a17 17 0 0 1 .2-5.6c.5-3.8 1-5 2-4.7.8.3 12 .9 25 1.2l23.5.7-.7-2.9c-.4-1.6-1-3.4-1.4-3.9-.9-1.3-6-14.2-11-28-2-6-5.4-14.8-7.4-19.5-1.9-4.7-3.3-8.6-3.2-8.8.6-.5 230.5-.2 232 .4 1.2.4 1.3 1.1.5 3.2-.5 1.4-.8 3.1-.5 3.9.4 1-18.5 1.3-108.2 1.5-108 .3-108.7.3-108.7 2.3 0 2 .7 2 73 2.2 77.4.2 147.2.4 149.2.3.9 0 1.2-2 1-6.4 0-4.1.4-7 1.3-8 1.5-2 0-4-2.8-4-1.1-.1-2-1.4-2.7-4.1-.6-2.2-1.6-5-2.3-6.2-1.5-2.6-1.5-7.5-.2-12.4 1.4-5 7.4-11.7 10.7-12 3.8-.5 4.7-5.2 2-11-1.6-3.6-1.9-5.6-1.3-11.8.7-8.6 3.5-14 8.8-16.7 4-2 15.1-2.5 17-.6.6.6 1.9 1.2 2.7 1.2.8 0 3 1.4 4.7 3l3.2 3.2 4.6-1.6c6.9-2.4 8.4-2 13.1 2.7 6.7 6.6 8.1 15.2 3.5 20.2-1 1.1-2 2.9-2.2 4-.3 1.8.2 2 5.8 1.7 5.8-.2 6.2-.1 10.8 3.9 8.2 7.3 9.8 12.6 5.5 19.4-1.6 2.5-3.3 4.5-3.8 4.5s-1.3 1-1.6 2c-.8 2.4 1.2 5.3 3 4.6.7-.2 2.6.9 4.1 2.5 2.5 2.6 2.9 3.9 2.9 8.4 0 6-2.3 9.5-6.2 9.5-1.8 0-2.3.5-2.3 2.5s.5 2.5 2.5 2.5c6.9 0 11.5-6 11.5-14.7 0-4.9-3-11.7-6-13.5-2.6-1.7-2.6-1.9 1.6-6.2 3.3-3.4 3.5-3.9 2.8-8.4a23 23 0 0 0-6-13.1c-1.3-1.4-2.4-3.5-2.4-4.6 0-3.6 5.3-8.2 11.3-10 5-1.4 5.9-1.5 9.2 0 7.2 3 11 1.3 9.9-4.3-.5-2.6 0-3.7 3.3-7.3 3.4-3.6 4.6-4.2 9-4.6 4.2-.4 5.6-.1 8.1 1.7 3.6 2.6 6.2 2 6.2-1.3 0-3.4 3.9-8.7 8-10.8 8.3-4.5 16.7-.3 19.6 9.8a23 23 0 0 1 1 8.8c-1 5.3-.2 6 5.7 5.7 13.2-.8 20.2 8.5 14.2 19.1-3.4 6.1-2.7 8.7 2.1 8.7 4 0 7.5 3 10.7 8.9 2.7 5 5.8 2.6 4.3-3.5-.8-2.9-8.2-10.4-10.3-10.4-.8 0-1.2-.6-1-1.3 2.5-6 3-8.9 1.9-12.5-2.8-9-8.7-14-17.4-14.5l-4.3-.3-.6-5c-.4-2.8-1.2-6.7-1.8-8.7a24.5 24.5 0 0 0-13.6-12.3 22 22 0 0 0-20.3 8.6l-2.7 4h-7.3c-8.2 0-10.1.7-15.5 5.8a13 13 0 0 0-4.4 7.5c-.5 3-.9 3.7-2.2 3-3-1.4-14.4-.7-17.8 1-3.6 1.9-9 7.3-9.8 9.8-.5 1.4-1.1 1.5-4.5.5-3-.8-3.9-1.4-3.4-2.6 3-6.8.3-16-6.6-22.4-5.5-5.2-8-6-15-5.3-4.5.5-6 .1-12.3-3.1-5.8-3-8.3-3.7-13-3.7H456v-5l-.6-33.8-.6-28.8 25.7.6.5 33.5c.5 33.6.5 33.8 3.8 33.1.4 0 .6-15.2.5-33.6L485 499h20v38c0 20.8.3 38.5.6 39.4.3.9 1.6 1.6 2.9 1.6h2.3l-.3-78.5h11l.3 43.4c.2 43.8.4 45.8 3.7 44.8.6-.2.9-16 .7-44L526 500l2.5-.1 3.8-.3c1 0 1.2 9 1.2 42.6 0 42.7.3 46.3 3.4 44.4.8-.5 1.1-10.5 1.1-31.7 0-28.4.1-31 1.7-31.6 2.1-.8 22-1 22.7-.2.3.3.7 10.1.8 21.8.2 22.5.8 26 4.3 23.1 1.5-1.2 1.6-3.2 1.1-17.2l-.5-15.9 20.7.5 26.4.5 5.6.1-.4 24c-.5 21.6-.4 24 1.1 24.6.9.4 2 .2 2.6-.3.9-.9 1.4-13 1.8-41.6l.1-6.8 20.3.6c54.6 1.4 101.4 3.1 139.7 5.1 4.7.3 42.3.7 83.5 1l75 .6.5 24.3c.4 17.6.8 24.8 1.8 25.7 2.7 2.7 3.1-1.2 3.2-28l.1-27.2 3.7-.1c2 0 5-.3 6.5-.5l2.7-.3V563c0 14.2.3 26 .6 26.4.4.3 1.5.2 2.5-.4 1.7-.9 1.9-2.8 2.1-26.2l.3-25.2 5.8-.3c5.3-.3 5.7-.2 5.8 2v43.5l-.1 9.1-7.7 1.4c-7.7 1.4-10.4 3.1-6 4a40843 40843 0 0 1 262.8 0c12 .2 13.9-.4 13.9-4.5 0-5.3 3.8-8.2 10.7-8.2 4.5 0 5.8-.4 6.7-2 3-5.3 5.9-8.5 7.8-8.5 3.1 0 10.2 4.4 11.8 7.4 1.5 3 2.7 3.2 6.6 1.1 1.6-.8 4-1.5 5.5-1.5 3 0 6.6 3.5 7 7 .5 3.4 5.7 3.8 6.9.6l2-5.5c3.1-8 10.6-13.1 18.4-12.5 7 .5 11.3 3.6 14.1 10 1.3 3 2.8 5.4 3.3 5.4s2.6-1.4 4.7-3c2.2-1.7 5-3 6.6-3 3.8 0 8.9 5.2 8.9 9 0 1.9.7 3.3 2 4 1.2.7 10.9 1 27.1.8 23.1-.3 25.2-.4 25.5-2 .1-1-.2-2-.8-2.4-.5-.3-10-.6-21.1-.6-25.2 0-26.2-.2-27.8-4-.6-1.6-3-4.4-5.2-6.3-3.4-2.9-4.9-3.5-8.7-3.5a14 14 0 0 0-7 1.6c-2.1 1.6-2.3 1.6-3.3-.2A23 23 0 0 0 1325 565c-8.6 0-17.1 5.5-20.3 13.3l-1.6 3.7-2.9-3c-3.7-3.6-9-4.7-13-2.6-2.8 1.4-3 1.4-4.8-.5-2.7-3-7.5-5.7-12.1-6.7-5.2-1.2-9.3 1-12.1 6.4-1.8 3.5-2.3 3.8-6.4 3.9-6 0-12.6 4.3-13.5 8.5-.8 4.3-2.2 5-8.6 4.3l-5.7-.6v-28.2l4.6-.2a14 14 0 0 0 5.9-1.3c.7-.6 1.3-4 1.3-9 .2-8.8 1.3-11.8 6.3-17.4 5.3-6 9.3-8 15-7.2 5.7.8 7.9-.3 7.9-3.9 0-1.2 1.1-3.4 2.5-4.9 4.7-5.1 15.9-2.4 19.3 4.7.8 1.5 1.5 5 1.8 7.8a25 25 0 0 0 1 6c1.1 1.8 3.5.8 7-3 2-2.2 5.7-5.4 8.2-7.1 4-2.6 5.4-3 8.7-2.6 5.8.7 17 6.1 19.2 9.2l4 5.2c2 2.5 2.1 2.6 4.6.9 1.9-1.2 4.7-1.7 9.6-1.7h7l4.6 4.8c4.5 4.6 8.5 13 8.5 17.5 0 1.3.6 3.2 1.4 4.2 1.4 1.9 1.4 1.9 4.9 0 3.8-2 3.4-2.1 10.3 3 1 .6 2.5-.4 5.7-3.8 3.9-4.2 4.8-4.7 8.7-4.7 3.8 0 4.8.5 8.7 4.5 2.3 2.5 4.7 4.5 5.3 4.5 2 0 1-4.2-1.6-7.4-3.8-4.5-6.2-5.5-12.5-5.6-4.6 0-6.4.5-9.9 2.9-4.1 2.8-4.4 2.8-7.8 1.4-2-.8-4.6-1.3-5.9-1-1.5.3-2.3 0-2.3-.9 0-3.4-3.6-11.4-7.2-16.1-4-5.1-4-5.5-3.6-11.8.3-4.4 1-7.3 2.4-9.2 4.5-6 11.7-8.9 14.7-5.9 2.4 2.4 5.6 2 7-1 3.5-7.9 19.4-6.8 23.7 1.6 2.2 4.2 6.2 7.3 8.5 6.4 2-.8 1.9-2-.6-4.3-1.1-1-2.8-3.4-3.7-5.2-1-2.2-3.6-4.4-6.7-6.2-4.3-2.4-5.9-2.7-11.8-2.4-3.8.1-7.1.7-7.5 1.3-2 2.7-6.4 4.5-9.8 3.8-5-1-11.5 1.9-15.9 6.7-4.3 4.8-5.7 8-5.7 13.8v4.3l-4.5-.6-6-.6c-1.3 0-1.5-3.4-1-25.3l.7-27.3c0-1.2 1-2.5 2.5-3.2 1.4-.6 2.5-1.7 2.5-2.4 0-1.3-9-7.2-18.3-11.9l-4.7-2.4v-14.1c0-11.7.3-14.3 1.5-14.8 2.2-.8 1.8-4.3-.5-5.6-1.1-.6-2.7-2-3.4-3.3-1.9-2.8-5.6-21.4-5.6-27.9 0-5.4-1.3-8.8-3.5-8.8-1 0-1.5 1.8-1.8 6.3-.7 9.2-4.3 23.3-7.8 30.5l-3.1 6.4-3.4-5.4c-1.9-2.9-4.8-8.2-6.5-11.6-2.8-6-2.9-6.5-1.3-7.7 1.6-1.1 1.6-1.4-.3-4.1-3.9-5.7-4.5-8.6-2.7-12.3 2-4 1.3-9.5-1.6-12.6-2.1-2.2-3-10.5-1-10.5 1.4 0 1.2-3.8-.2-4.2-.8-.3-1.1-2.1-1-5.2.3-4.5.2-4.7-2-4.4-1.8.2-2.4 1-2.6 3.8a7.6 7.6 0 0 1-2.5 5.2c-1.9 1.5-2 2-1 3.7 2.2 3.5 1.5 7.8-1.6 11.3-1.6 1.9-3 4-3.1 4.8-.6 3.8.2 6.3 2.6 8.5l2.6 2.4-4.1 5c-3.4 4-5.3 5.3-9.5 6.5-7.3 2.1-11.9 2-14-.3-4-4.4-5.7-22.4-3.8-40.6.5-4.4.7-10.7.6-14-.4-5.3-.8-6.3-4.4-10a44.9 44.9 0 0 1-7.6-12.5 121 121 0 0 0-6-12.2 10 10 0 0 1-1.8-8c.7-5.3-1.3-10.3-5.6-14.2-3.4-3-6.9-9.8-9.4-18.4-1.3-4.5-1.3-5.2 0-5.2 2.3 0 1.8-5-.6-5.7-3-.8-3.5-4-1-6.5 3.4-3.5 2.3-11.3-2.5-18-5.6-7.8-7.5-13-7.5-20.8 0-6.4.2-6.9 2.3-7.2 3.3-.5 3-4.2-.4-4.6-2.5-.3-2.6-.5-2.1-5.2.4-4 .1-5-1.3-5.6-2.3-1-3.5 1.2-3.5 6.3 0 3.8-.2 4.2-2.8 4.5-4 .4-3.8 4.2.2 4.6l2.9.4-.6 6.6c-1.2 12.8-2.7 16.8-8 21.3-4 3.5-4.9 10.8-1.8 17.2 2.3 4.8 2.7 8.3 1 8.9-.6.2-1.5 2.8-2 5.8a48 48 0 0 1-11.1 23.3c-4 4.4-5.6 9.5-4.2 12.8 1.4 3-12.7 31.6-16 32.9-4.3 1.6-5 4.3-4 16 1 12.2.8 35.1-.4 40.5-.7 3.4-1.3 4-5.9 5.7-5.3 2-7.4 4.4-4.7 5.5 1 .3 3 0 4.9-.5 4-1.5 4.5-1.5 4 0l-1.5 5.6c-.6 2.4-1.5 4-2 3.6-.6-.3-1.7-.1-2.3.5-3.2 2.6-16.7-15.4-16.7-22.1 0-1.3-.5-2.9-1-3.5-.9-.8-.9-1.7 0-3.1 1.5-3 1.2-5.6-1-8.5-2.8-3.5-4.2-11.3-2.4-12.8 1.8-1.4 1.8-2.4 0-4.1-.7-.8-1.7-3.6-2.2-6.3-.7-4-1.3-5-3-5-1.6 0-2 .8-2.2 4.7-.2 3.7-.7 4.8-2.3 5.3-2.9 1-2.1 4.9 1 5.3 2.1.3 2.3.7 1.7 4.5-.4 2.3-2 6.1-3.6 8.5-3.2 4.6-3.9 9.2-1.6 11.1 1.8 1.5.8 4.3-6.9 17.5a109 109 0 0 0-6.9 12.9c-1.2 1.5-1.7.8-4.4-6.6-4.1-10.7-5.1-17.6-2.9-18.9 2.4-1.3 2.2-4.8-.3-4.8-1.7 0-2-.7-2-4 0-4.3-2.5-7.9-4.3-6.1-.6.6-1 3-1.1 5.3 0 3.7-.4 4.3-2.3 4.6-2.9.4-3 3.8-.3 4.5 1.1.3 2 .1 2-.4s.5-.9 1.1-.9c2.3 0-.2 8.4-5.3 18-9.7 18.3-9.3 17.1-7.7 18 .8.6 1.7 1 2.1 1.2.4.2.8 7.4.8 16l.2 15.7-12 11v11c0 6.1-.4 13.5-.7 16.6l-.7 5.5h-16.3l.3-42.5c.3-48.7 1.6-43.3-10.9-46-14.6-3.1-36.8-7.6-61.4-12.5-13.8-2.7-29.2-6-34.4-7.1-9.7-2.2-14.1-2.2-39.6.7a5171.4 5171.4 0 0 1-107.5 10c-3.6.2-8.3.7-10.5 1a525 525 0 0 1-20.5 2c-9.2.7-13.7 1-21.5 1.9-9.7 1-14.5 1.4-22.5 2l-18.8 1.4c-6.2.5-12 1.5-12.7 2.1-1.3 1-1.5 7.7-1.5 45.2v44l-10.8-.6c-16.2-.9-58.9-2-75-2.1h-14.3l-7 7.2c-4 4-7.6 7-8.1 6.7-.6-.4-7.3-.6-15-.6h-14l.5-11.3A59 59 0 0 1 540 493c1-1.8.8-2.5-1-4.4-1.3-1.5-1.8-3-1.4-4.2 1-2.6 6.5-8.4 8-8.4 4.6 0 0-5.6-8-9.6l-5.3-2.7-.5-8.6c-.8-13.3-5.8-21-10.7-16.4-2 2-5.1 11.7-5.1 16.4 0 5.5-1.2 8.9-3.2 8.9a2.6 2.6 0 0 1-2-4.3c1.3-1.6.2-4.1-2.8-6.5a333.5 333.5 0 0 0-53-18.2l-.5-21.3c-.4-17.8-.3-20.9 1-21.3 2.1-.8 1.9-4.1-.4-5.3-1.7-1-1.8-2.4-1.9-15.8 0-13.7-.2-14.8-2.1-16.4-1.3-1-2.5-3.8-3.1-7-1.5-8-6.3-14.4-13.2-18-4.7-2.4-6-4.8-5.6-10.7.3-4 .6-4.7 2.6-5 3-.4 2.8-3-.3-3.8-1.5-.4-2.5-1.3-2.5-2.4 0-2.3-2.6-4.4-4.6-3.6-1.1.4-1.5 1.4-1.1 3.2.4 2.1 0 2.6-2.5 3-3.4.8-3.2 2.8.4 3.2 2.4.3 2.6.6 2.6 6.8v6.5l-4.2 2a36.1 36.1 0 0 0-7.8 6c-5.8 6-7.1 9.3-7.7 19.1 0 1-.7 1.8-1.5 1.8-2 0-3.5 5.6-3.2 11.8l.3 5.2h-31.5l-.8-6.7c-.4-4.2-.3-7.3.4-8.4 1.5-2.3-.3-8.6-2.9-10.2-1.9-1.2-2-2.5-1.9-39V271l3-3c1.6-1.6 3.6-4.6 4.6-6.5l1.7-3.6-3.7-3.8c-3.5-3.6-3.6-3.9-3.6-11.3 0-6.3-.3-8-1.8-9-1.2-.9-2.4-4.1-3.5-9.8-4.4-21.9-16.8-36.2-39-44.9-2.4-1-2.7-1.6-2.7-5.4 0-3.1-.6-5-2-6.2-2.4-2.1-2.6-4.8-.5-6.5 2.3-2 1.8-6.5-1.1-10-2.3-2.7-2.7-4.2-3-11l-.2-8h3.8c4 0 5.3-1.4 3.8-4.3-.6-1.1-2-1.7-4.3-1.7-3.3 0-3.4-.1-2.9-3 .4-1.8.1-3.6-.6-4.5-1.5-1.8-2.2-1.9-3.8-.3Zm617.3 14.7c-9.9 3-15.2 5.8-20 10.3-5.1 4.6-7.7 9-9.4 15.8-2 7.5-1.8 7.3-4.6 5.4-1.5-1-4.7-1.6-8.2-1.7-11.1-.2-22.7 8.5-25 18.6-.6 3-1.3 3.3-3 1.6-.5-.5-3.5-1.3-6.5-1.6-6.8-.7-13 1.8-17.9 7.2-3.5 3.8-6.8 9.9-6.9 12.6 0 1.4 1.9 2.9 3.6 2.9a35 35 0 0 0 3.4-6c4-8 9.2-11.5 16.6-11.4 4 0 6 .6 8.6 2.6 4.5 3.4 6.8 2.3 6.8-3.3 0-8.4 8.6-16.6 18.4-17.6 4.3-.4 6.2 0 11 2.2 7 3.3 8.8 2.5 8-4-.8-5.4 2.8-13.4 8.5-19.2a42 42 0 0 1 25.6-10.6c7.5 0 15.7 2.4 21 6 7.5 5.4 12.6 17.5 9.6 23.2-1.5 2.6-.5 6.1 1.6 6.1.8 0 3.1-1.4 5.1-3.1 8.5-7.5 17.5-8.7 25-3.3 3.5 2.4 4.3 3.7 5.1 7.9.6 2.8 1 6.3 1 7.9-.1 2.5 1.3 4.5 3.2 4.6.3 0 1.6-.9 2.9-2 3.3-2.9 8.6-4.3 14.3-3.7 4.4.4 5.6 1 9.4 5 5 5.3 5.7 9.8 2.3 15.2-1.7 2.8-1.8 3.4-.5 4.5 3.4 2.8 9.4-8.3 7.9-14.7-1.7-7-11-14.8-19-15.8-3.4-.5-6.3-.2-9.4.9-5.8 2-6 2-6-.7 0-1.3-1.1-4.6-2.5-7.3-3.3-6.6-8.3-9.5-17.6-10.2-6-.4-7.3-.1-11.4 2.2a73.4 73.4 0 0 1-5 2.6c-.1 0-.5-2.1-.8-4.8-2.1-17.8-25.4-30.3-45.2-24.3ZM311.2 156c-.3 2.7-1.9 4-3.9 3.3-1.7-.6-1.7-5 0-5.6 2.5-1.1 4.2-.1 4 2.3Zm161.3 2.7c-9.3 2.9-16.2 9.2-18 16.6-.4 1.5-.9 2.7-1 2.7l-5.4-1c-8.6-2-17.5 2-21.8 9.5-2.6 4.6-3 10.7-.8 12.5 1.7 1.4 1.7 1.3 3.4-5.5 1-4.1 4.6-8.2 9-10.5 1.5-.8 5.6-1 11.4-.8l9.1.3.6-3.5c1.7-9.9 10.5-16.2 22.5-16 12.3 0 18.6 5.8 20 18.2.4 2.9 1 5.7 1.5 6.2s2.8 0 5.3-1.3c9-4.3 19.5 1 18.5 9.3-.2 2 .4 3.3 2.2 4.7 2.5 1.9 2.6 1.9 7.7 0 5.2-2 8.1-1.9 13.2.9 2.8 1.4 6 6.8 6.1 9.8 0 3.2 3.8 3 4.6-.3 1-3.8-3-10.8-7.9-14.1-3.6-2.5-5.1-2.9-10.3-2.8-3.3 0-7 .6-8.1 1.2-1.8 1-2.1.8-2.6-2.3-.8-4.6-4.4-9.3-9.1-11.7-3.2-1.6-5-1.9-9.7-1.4l-5.7.7-.7-3.3c-3.3-15.4-17.7-23-34-18Zm-161 14.8c0 1.4-.8 2-2.6 2.3-2.4.3-2.6 0-2.1-2.3.3-2 1-2.5 2.6-2.3 1.3.2 2.1 1 2.1 2.3Zm-205.5 10c-6.3 3.7-11 8.3-13 13.2-1.8 4-2 4.2-4.5 3.3-7.2-2.7-19 .9-23.7 7.1-4.6 6.1-5 7.6-5.7 17.7 0 .7-1.4 1.2-3.2 1.2a24 24 0 0 0-13.3 4.4c-2.4 1.9-2.5 2.3-1.3 4 1.3 1.8 1.5 1.8 6-.9 3.8-2.2 5.7-2.6 10-2.4 2.8.2 5.8 0 6.5-.4.7-.5 1.2-3.2 1.2-7.3 0-7.1 1.3-10.5 5.7-14.6 5.2-5 11.2-6 17.8-3.2 5.2 2.2 6.4 1.6 8.4-4.2 3.4-10.2 10.8-15.8 20.5-15.5 6.4.1 11.3 2 16.1 6.2 4.3 3.9 6.4 8.4 6.9 15.4.5 8 1.6 8.9 7.6 5.9 4.8-2.5 11-2.9 15.3-1 4.4 1.8 6.7 6.3 6.9 13.3v4.5l3.7-.7c13.1-2.3 16.6-1.3 20.2 5.7 2 4 2.2 4 3.5 2.3 2.2-3 1.7-4.9-2.5-9.3-4.6-4.8-7.2-5.7-14.7-4.9l-5.4.6v-3.2c0-8.3-7.8-14.7-18-14.7-3 0-6.7.6-8.2 1.4-3.3 1.8-3.8 1.3-3.8-3.8 0-12.7-12.3-22.6-27.8-22.6a19 19 0 0 0-11.2 2.6Zm212.9.7a62.4 62.4 0 0 1 30 25.8c3 5.5 7 19.5 5.9 20.6-.3.2-4.5-.3-9.4-1.1-4.9-1-10-1.8-11.4-2a233.7 233.7 0 0 0-61 1c-4 .8-7.5 1.3-7.8 1-.9-.8-.3-7.6.9-11.4 5.3-16.5 20-31 35.4-35.2 3.5-1 12.5-.3 17.4 1.3ZM886.8 203c-41 .5-43.8.8-40.9 4.4.8 1 2.5 1.3 5 1 2-.1 41-.6 86.6-.9 46-.3 83.4-1 83.9-1.5s.6-1.5.3-2.3c-.4-1.2-7.8-1.4-47.9-1.3-26 0-65.2.3-87 .6Zm-438.1 5.6c-1.4 1.4-.7 4.4 1 4.6 4.7.4 83 .5 84.6.1 2.2-.6 2.2-3-.2-4.2a1092 1092 0 0 0-85.4-.5ZM336 233.3c23.6 4.1 23 3.8 23 12.3 0 3.6-.4 6.3-.8 6-.5-.3-5.1-1.4-10.3-2.5-24.6-5.3-62.8-5.6-82.4-.7-7.9 2-7.5 2-7.5-1.8 0-8.9 0-9 11.8-11.5 5.9-1.2 13.8-2.6 17.7-3 10.3-1.2 38.7-.5 48.5 1.2Zm872 8.3c2.5 3.3 3.6 8.4 2 9.4-.7.4-2.6.6-4.4.5a160 160 0 0 0-7.8-.4c-4.1 0-4.8-.4-5.4-2.5-.7-2.8.6-5.5 5.2-11.3 1.9-2.3 3.4-4.7 3.4-5.5 0-.7 1.1.6 2.5 3 1.3 2.4 3.3 5.4 4.4 6.8Zm94.7-7.6c-12 3-21 12.9-21.1 23-.1 4.4-.2 4.5-3.6 4.8-2 .1-4.5.8-5.8 1.4-4.6 2.3-8.7 13.2-6.2 16.3 1.9 2.3 4 1.8 4-.9 0-3 2.4-8.9 4.4-10.5.8-.7 3.6-1.1 6.5-1 6.5.3 7.7-.8 6-5.3-2.7-7.6 4.5-18.9 13.8-21.6a33.3 33.3 0 0 1 19.3-.7c8.6 3 13.4 10 12.8 19-.3 4.2 0 5 1.5 5.3 1 .2 3-.7 4.5-2 6-5.7 13-7.2 19.7-4.4 4.3 1.8 6.5 6 6.5 12.6 0 6 1.5 7.1 5.9 4 3.9-3 11.7-3.8 15.7-1.7 4.4 2.3 6.5 5.1 7.1 9.7.5 3.5.9 4 2.7 3.8 1.8-.3 2-1 2-5 0-5.8-2.4-9.3-8.2-12.6-4.6-2.6-8.3-3-15.5-1.8-4.4.8-4.7.7-4.7-1.4 0-3.8-4-9.8-8-11.6a25.3 25.3 0 0 0-18-1c-3 1-5.3 1.6-5.4 1.4-.1-.2-.8-2.2-1.4-4.5a22 22 0 0 0-10.8-13c-3.5-2-6-2.6-12.2-2.9-4.2-.2-9.4.1-11.5.6ZM90.4 241.8c-16.8.2-21.4.5-22.4 1.6-2.7 3.4 1.9 3.6 57 3.4 43.7-.2 54.3-.5 55.2-1.5.7-1 .8-1.7.1-2.4-1-1-51.2-1.6-90-1.1Zm626.4-.3A55.2 55.2 0 0 0 699 249c-.3.4-2 1.7-3.8 3a43.2 43.2 0 0 0-12.8 16.8c-2.2 6-2 5.8-3.6 4.6-1.5-1-7.7-3-12.4-3.7-10-1.6-22.2 6.5-26.1 17.5l-1.7 4.6-4-.8c-7.2-1.4-11-1-17.1 2-6.3 3-12.5 8.9-12.5 12 0 2.3 3.1 5.2 3.7 3.4 1.2-3.5 6.6-9 10.7-11.2 4-2 5.7-2.2 10.3-1.7 3 .4 6.3 1 7.3 1.6 2.9 1.5 5.8 1.2 6.4-.8l1.2-5.2c.3-2 2-5.4 3.6-7.8 6.7-9.7 19.6-11.2 31-3.6 6 4 7.2 3.5 7.4-3 .2-6.2 3-11.3 10.4-18.6a36 36 0 0 1 25-11.7c8-.6 16 2 21 7 4.5 4.4 5.3 7 4.5 15-.5 5.6-.4 6.8 1 7.3 1 .4 2.5-.2 3.8-1.4 2.8-2.6 8.8-5.2 12.2-5.2 1.5 0 4.8 1 7.4 2 7.9 3.4 9.4 8.4 6.6 21.6-.4 1.8-.3 3.4.2 3.7.5.3 3.6-.7 6.8-2.4 8-4 15-3.3 21.3 2.5 5 4.4 6 9.6 3.5 16.3-1 2.6 4 1 5.4-1.7 1.7-3.3 1.6-9.5-.1-12.9-2.3-4.4-9.1-9.9-13.8-11.2-2.5-.6-7-.9-10.5-.6l-6.3.6v-5.8c0-5.5-.3-6.2-4.3-10.6-6.4-7-15.6-8.9-25-5-1.3.6-1.8 0-2.3-3.4-1.4-9-9.9-17.6-19.6-20-4.8-1.1-16-1.5-17-.6ZM336 252.3l12 2.1c6.2 1.1 16.4 4.2 16.7 5.2.1.5-.1 1.5-.6 2.3-.8 1.2-2.7 1-12.8-1.2-16.3-3.6-27-4.7-47-4.7-15.4 0-40.6 2.4-47.6 4.6-1.3.4-1.7 0-1.7-2 0-2.2.7-2.5 9.7-4.6 5.4-1.2 12.9-2.6 16.8-3 10.3-1.2 44.6-.4 54.5 1.3Zm870.3 4.5c3.4 3 2.1 4.2-4.3 4.2-6.5 0-7.7-1.4-4.4-5.2 1.9-2 5.7-1.6 8.7 1Zm-863.8 6.1c13.6 3.1 16.5 4 16.5 5.5 0 1.6-5.2 2.8-6.1 1.4-.4-.5-4.4-1.4-9-2a54 54 0 0 1-10-1.7c-.7-.5-2.5-.4-3.8 0a38 38 0 0 1-12.5-.6 90.9 90.9 0 0 0-15.6-1l-13 1-13.5.9c-3.3.1-7 .8-8.3 1.5-2.7 1.4-7.4 1.1-8-.5-.5-1.8 4.8-3.5 17-5.5a259 259 0 0 1 66.3 1Zm870.2 15c2.3 6.2 4.8 12 5.4 12.7 1.2 1.4.4 3.4-1.3 3.4-.6 0-2.6-1.1-4.4-2.5-4-3.1-7.7-3.2-10-.2-3.2 4-4.3 4-7.4.7-2.6-2.8-3.2-3-5.2-2-1.3.7-3 2.2-4 3.4-1.3 1.6-2 1.8-2.9.9-1-1-.4-2 2.3-5.1a45.8 45.8 0 0 0 8.4-18c1-4.2 3.2-5.4 9.3-5l5.5.3 4.3 11.4Zm-894.5-8.2c1.7.4 1.8 3 1.8 35.1v34.7h-10.4c-5.7 0-10.7-.3-11-.6a966 966 0 0 1 0-67.3c.3-.8 1.5-1.7 2.7-2 3-.5 14.8-.5 17 0Zm-25 6c.1 3.2.3 18.8.3 34.8v29l-3.3.1c-1.8 0-3.2-.1-3.2-.5V270h3c2.7 0 2.8.1 3.2 5.8ZM283 339.9l-6 .7c-3.3.4-6.4.5-6.8.2-.4-.3-.8-15.7-.8-34.3v-33.8l2.5-.7c1.4-.4 4.3-.7 6.6-.8l4-.1.5 68.8Zm47.8.2H328c-2.7 0-2.8-.2-3.2-5.1-.3-4.8-.3-36 0-55.6l.2-8.3h5.6l.3 69Zm11.8-67.5 5.1 1.5.4 6.3c.2 3.4.5 18.6.7 33.7.1 15 .5 27.8.8 28.3.5.8-5 .4-11.8-.9l-2.5-.5-.3-35c-.1-28.9 0-34.9 1.2-34.9.7 0 3.6.7 6.4 1.5ZM265 341.8l-2.2.5c-1.2.4-2.3.5-2.5.4-.2-.2-.5-58-.4-66.4 0-2.8.5-3.3 2.4-3.3h2.3l.4 68.8Zm42-68c-.8.2-2.5 1.4-3.8 2.5-2 1.8-2.2 3-2.2 10.4v8.3h6c4.8 0 6.1-.4 7-2a33.8 33.8 0 0 0-.3-17.2c-1.4-1.9-4.6-2.8-6.7-2Zm51.1 5.4c.1 6.3.2 39.5 0 53.4l-.1 12-5.5-.8.2-16.1c.2-9 .3-24.4.3-34.4V275h2.5c2.3 0 2.5.4 2.6 4.3Zm702.6.2a23.8 23.8 0 0 0-13.4 12.5c-2.2 4.8-3 5.1-6.9 3.5a20.6 20.6 0 0 0-15.1.2 22.3 22.3 0 0 0-14.8 14.2c-1 3-1.7 3.5-5.1 3.8-4 .3-11.4 3.2-11.4 4.3 0 .3.4 1.2 1 2 .7 1.3 1.4 1.3 4.8.2a19 19 0 0 1 7.4-.8c4.2.6 6.8-.7 6.8-3.5a22 22 0 0 1 7-12.8c4.3-3 12.5-4.3 18.3-2.8 2.6.6 4.7 1.5 4.7 2 0 1.3 3.7 1 4.8-.4a14 14 0 0 0 1.7-4.6c1.6-7.5 10.8-14.2 19.5-14.2 6 0 13.1 4 17 9.6 2 3 2.2 4.2 1.7 9.4-.6 5.5-.5 6 1.3 6 1.4 0 2.3-1.1 3.1-4 1.9-6.2-.2-14-4.8-18a28 28 0 0 0-27.6-6.6Zm-722 2.4c-1.5 1.8-3.1 13.8-1.9 14.6.4.2 2.4.7 4.5 1.1l3.7.7v-6.7c0-3.6-.4-7.4-1-8.4-1.4-2.7-3.6-3.2-5.3-1.3Zm-64.3.5c-.3.8-.6 3.9-.7 6.8l-.2 5.4 7.6.6-.3-6.8c-.3-6.6-.4-6.8-3-7.1-1.8-.2-3 .2-3.4 1.1Zm1012.7 6.6c-1.2.8-1.3 1.2-.1 2.5 1.1 1.4 6.3 1.6 47.4 1.4 40.2-.3 46.1-.5 46.1-1.8 0-.8-.4-1.8-1-2.2-1.5-1.1-90.7-1-92.4.1Zm-93.7 7.6c1.4 1.4 3.5 2.5 4.6 2.5a12 12 0 0 0 5.4-2.5c4.2-3.2 4.6-3.1 8.1.5 3.5 3.7 5.7 3.8 8.4.3 2.4-3 2.2-3 4.6 1.6 2 4.1 1 5.6-3 4-3.8-1.4-31.6-1.4-37.5 0-2.5.6-5 1-5.8 1-1.8.1-1.5-3.4.7-5.3 1.6-1.5 2-1.5 3-.1 2 2.3 4.4 1.8 6.6-1.5 1.1-1.6 2-3 2.2-3a26 26 0 0 1 2.7 2.5Zm-890.4 8c-.6 1.5-1 8.4-1 15.5v12.8l4.8.4c8.1.8 8 .8 7.8-15.3-.2-15.6-.4-15.9-6.9-15.9-3.1 0-4 .4-4.7 2.6Zm-27.3-.8c-1 .3-1.7.8-1.8 1.1-.4 2.6-.8 28-.5 28.8.2.6 2 .8 4 .6l3.6-.4v-14.4c-.1-12.5-.3-14.5-1.8-15.2a6 6 0 0 0-3.4-.5Zm63.2 6c0 2.7-.2 6.1-.3 7.8-.2 3.5 1 15.2 1.9 16.5.3.5 1.2.7 2 .3 1.2-.4 1.5-3 1.5-13.3 0-14.2-.3-16-3.1-16-1.6 0-2 .8-2 4.8Zm877.4-2.7c5.8 1 7 1.7 9.1 4.3 2.2 3 6.2 11 10.6 21.2 1 2.2 2.9 5.1 4.3 6.5 2 2 2.3 2.7 1.4 4.2-.7 1-1.5 1.8-1.9 1.8-.4 0-3.3-2.2-6.5-4.8-3.2-2.7-6.5-5.1-7.3-5.4-1.3-.5-6.2 2.7-11.4 7.4-1.1 1-2.3 1.8-2.7 1.8-.4 0-3-2-5.7-4.5a22.3 22.3 0 0 0-6.3-4.5c-.7 0-4.5 2.5-8.6 5.6l-7.4 5.5-5-4.5c-6-5.5-8.7-5.8-12.3-1.5-1.7 2-3.2 2.9-4.2 2.5-1.5-.6-1.5-.8 0-2.9a230 230 0 0 0 8-14.7c9.4-18 8.6-17.4 19.8-18l14.3-.8c2.8-.2 8 .2 11.8.8Zm-523.8 6c-63.2.5-64 .5-64 2.5s.7 2 85.8 2c75 0 85.9-.2 86.7-1.5 2.4-3.9 2-3.9-108.5-3Zm497.4.8v1.4c0 .4-.6 2.4-1.3 4.6-2 5.6-3.3 23.1-1.6 21.5a38 38 0 0 0 2.6-11l2-13.6c.4-2.5.3-3.7-.5-3.7-.6 0-1.1.3-1.2.8Zm24.5 10.9c.7 11.8 1 13.7 2.6 12.8a79.7 79.7 0 0 0-1-23.8c0-.4-.5-.7-1.1-.7-.9 0-1 3.2-.5 11.7Zm-1004.6 7.7c3.5 1.8 12.2 11 12.2 13l.6 4.5.7 3.1H190v-3c0-6.6 5.2-13.7 12.5-17.1 4.8-2.2 4-2.2 7.3-.5Zm223.8 3.9c5.5 4.2 8.1 8.2 9 13.4l.7 4.3h-33l.4-4.2c.4-4.8 2.4-8.3 7.4-12.6 4.2-3.6 7.8-5.3 9.9-4.6.8.3 3.3 2 5.6 3.7Zm771.5 9.5 5 4.9.2 38.3h4.6l-.7-39 4.2-4c5.5-5.4 7-5.7 11.7-2.5 7.2 4.7 7.7 6.4 7.2 24.3-.4 14.6-1.6 28.8-2.6 29.8-.4.4-16 .5-52.8.4-15.6 0-15.7 0-15.7-2.3 0-1.2-.5-6.3-1-11.2-.7-5-1.2-14.9-1.2-22v-13l3.5-3.3c2-1.7 4.1-3.2 4.8-3.2.7 0 3.4 2.2 6 4.8l4.8 4.9-.2 19.1a162 162 0 0 0 .4 19.8c.3.4 1.3.4 2.2 0 1.3-.5 1.5-3.4 1.5-20.5v-19.9l5.6-5.1c3-2.8 6-5.1 6.5-5.1.6 0 3.3 2.2 6 4.8Zm-868 .1 10.9 1.6c8 1 12 2.5 13.1 4.7 1.1 2 1 2.1-5.7 1.5l-9.4-1.2c-10-1.8-25.6-2.5-46.8-2-24.2.5-36.7 1.6-40.2 3.5-1.9 1-5 .4-5-1 0-4 9.7-7 27-7.9 16.4-.9 48-.5 56 .8Zm822-.6.6 10c.3 6.7.1 9.7-.6 9.7-.6 0-1.1-1.5-1.1-3.3 0-1.7-.3-6.2-.7-10-.4-4.7-.3-6.7.6-6.7.6 0 1.1.1 1.2.3Zm36.8 2.9c-1.5 2.7-2.7 42.8-1.3 42.9.5 0 2 .2 3.3.5 4.8.9 5.1-.4 5-21 0-19.7-.6-23.7-4.1-24.4-1-.2-2.2.7-3 2Zm48.7 7.6a331.8 331.8 0 0 1-2.6 25.6c0 1-.3 1.6-.6 1.3-.4-.4-.6-7.7-.5-16.4.2-12 .6-16.3 1.7-18 .8-1.3 1.7-2.3 2-2.3.4 0 .4 4.4 0 9.8Zm-74.6-6.9c-1.3 2.5-1.1 39.9.2 42.4.6 1.2 1.8 1.7 3.6 1.5 2.6-.3 2.7-.5 2.5-5.8l-.3-21c-.1-8.5-.6-16.3-1.1-17.2-1.3-2.4-3.6-2.3-4.9.1ZM40.5 349c-6 .9-17.5 6.4-17.5 8.5 0 2.2 3.7 1.9 11-1 13.8-5.5 26.3-2.5 33.8 8.2 1.8 2.6 2.2 4.5 2.2 10.7 0 9 1.3 10.2 6 6.2 2.1-1.7 4.3-2.6 6.8-2.6 3 0 4.4.8 8.4 5 4.8 5 4.8 5 4.8 12 0 3.8.4 7.1 1 7.5.5.3 3.5-.8 6.6-2.5 6.7-3.6 8.4-3.7 14-1 3.4 1.7 4.5 3 5.7 6.3 1.6 4.8 3.7 5.4 5.1 1.5 1.2-3.5-1.3-8.5-5.9-11.7a23.5 23.5 0 0 0-16.8-2.3c-3.5 1-3.7.9-3.7-1.1 0-6-9.1-17.2-15-18.4-5.2-1-5.2-1-8.7.3L75 376v-4.5c0-14.4-16.2-25-34.5-22.4Zm1180.7.2c-.9.9-1.2 7.1-1.2 21.9v20.7l4.3.4c2.3.3 4.6.1 5.2-.4 1.3-1.2 1.7-39.6.4-42-1.1-2-6.8-2.5-8.7-.6Zm6.2 7.2c-.4 1-1.4 1.6-2.3 1.4-2-.4-2.7-3.8-1-4.9 1.9-1.1 4.2 1.3 3.3 3.5Zm-885.1 0c19.6 2.2 18.3 1.6 19.6 9l1.1 7c0 .3-24.3.6-54 .6h-54.2l.7-4.3c1.5-9.8 1.1-9.3 7.8-11.3 11.2-3.2 53.4-3.7 79-1ZM229 370.9c.3 6.1.4 11.2.2 11.2l-12.2-4-11.9-4.2-6.3 2.2a59 59 0 0 0-11.3 5c-.3 0-.5-5-.5-11v-11l41.5.5.5 11.3Zm219 1c.4 10.6.3 12.1-1 11.6-4.7-2-17.7-6.4-19-6.4-1 0-6.6 2-12.4 4.4l-10.6 4.4V373c0-11.3.2-12.9 1.7-13.2 1-.2 10.5-.2 21.2-.2l19.6.1.5 12.2Zm779.7 1.4c-.3.8-.6.5-.6-.6 0-1 .2-1.7.5-1.3.3.3.4 1.2 0 1.9Zm-697.6 6c-5.7 1.7-10.2 5.1-15 11.2-.6.9-1.6 1.4-2.1 1-1.7-1-8.8 1.6-12 4.2-3.9 3.3-6.3 8-5.5 10.4 1 3 2 2.5 5.2-2.2 3.6-5.4 6.6-7 12-6.2 4 .6 4.2.5 6.7-3.4 5.5-8.8 11.7-11.8 22.6-11 6.8.5 10.7 2.7 12.9 7.4 3 6.3 3.8 6.6 8.8 3.2 4.8-3.3 8.6-3.8 12.5-1.7 4 2 5.7 4 6.4 7.5.3 1.8 1.5 4 2.5 5 1.9 1.7 2.1 1.7 4.8 0 6-3.4 12.8-1.6 16.6 4.4 1.4 2.3 3.1 4 3.8 3.7 2.3-.7 1.9-4.8-.8-8.3-4.4-5.8-10.7-8-18-6.4-3.4.8-3.6.6-5-2.5-.7-1.9-3.3-4.7-6-6.5-5.6-3.8-10.4-4.2-16.2-1.4l-3.9 2-1.5-3c-2-4.1-10.8-8.6-17.7-9-3-.1-7.6.5-11.1 1.6Zm757.9 2.9c0 2.8-2.8 4.7-5 3.4-1.5-1-1.2-4.6.7-6.7 2-2.3 4.3-.7 4.3 3.3Zm-1024.8-3.2c1.4 0 1.8 1 1.8 3.7v3.7l-14.6-.5c-15.5-.5-16.4-.8-16.4-5.6v-2.3l13.8.5 15.4.5Zm136.4 3.5.2 3.6H382v-3.4c0-3.4.1-3.5 4.3-3.8 2.3-.2 6.2-.2 8.7-.2 4.5.1 4.5.2 4.6 3.8Zm-95.2-1.1c1.3 4.8 1.6 4.7-17.4 4.7h-18v-7h17.4c17.2 0 17.4 0 18 2.3ZM343 386h-16.8c-9.3 0-17-.2-17.4-.5-.2-.3-.3-1.8 0-3.5l.4-3H343v7Zm35 0h-31v-7h31v7Zm742.8-6.1c.8.5 1.2 2 1 3.7-.2 2.3-.8 2.9-2.8 2.9-1.8 0-2.6-.6-2.8-2.3-.3-2.2 1.3-5.2 2.7-5.2.3 0 1.2.4 2 .9ZM218 383.6c5.8 2 11 4 11.5 4.5 1.3 1.2-40.5 1.2-42.4 0-1.5-1 .3-2 11.5-6.4 5.9-2.2 7.8-2 19.4 1.9Zm219 1.3c9.4 3.3 7.7 4.1-9 4.1-8.4 0-14.9-.3-14.5-.7a49.2 49.2 0 0 1 16.1-5.8 84 84 0 0 1 7.5 2.4Zm808.1 5.6c0 1.4.9 4.8 2 7.6 1 2.9 1.7 5.5 1.5 5.9-.4.6-8.5.3-9.2-.4-.3-.2 0-2.4.7-4.7l2.1-8.2c1-4 2.9-4.1 2.9-.2Zm-846.3-.2c.6.4 1 8.6 1.2 20.8l.1 20.2-2.8-.6c-1.5-.3-8.2-2.8-14.8-5.5-6.5-2.8-15-6.2-18.9-7.7-3.9-1.5-10.6-4.4-15-6.3a47 47 0 0 0-12-3.8c-4-.2-4-.2-4.5-4.5-.3-2.4-.9-5-1.3-5.6-1.3-2.1-7.5-2.7-11.7-1-2.4.9-4.2 1.1-4.8.5-1-1-6.2 0-6.2 1.3 0 .5 1.4.9 3 .9 3 0 3.1.1 2.5 3.3-1 4.2-1.3 4.7-3.3 4.7-1.8 0-7.2 2-18.2 6.6l-12.5 5c-3.3 1.2-14.5 5.6-24.8 9.8a315.4 315.4 0 0 1-20 7.6c-1 0-.5-43.8.6-45.6.6-1 161.8-1.1 163.4 0Zm762.3 2.3c0 2.4-.4 3.4-1.3 3.1-2.3-.7-2.1-6.7.3-6.7.5 0 1 1.6 1 3.6Zm-712.5 3c0 3 3.4 2.7-29.8 2.5L405 398v-5.5l43.5.4v2.7Zm675.8 4.2c2.5 7.3 3.4 8.5 12.2 17.2a47.5 47.5 0 0 1 9.5 11.1c0 1-.3 1.9-.6 1.9a182 182 0 0 1-20.4-18.1c-4-4-7.7-6.9-8.9-6.9-1.1 0-3.3 1.6-4.8 3.5-3.5 4.3-5.3 4.6-2.2.4 1.2-1.7 3.7-6.2 5.6-10 4.5-9.3 6-9.1 9.6 1Zm-895.3-2-42 .3V393h42v4.8Zm1059.3-1.7c2.4 4.3 2.2 4.9-1.8 4.9-4.2 0-5.4-2-3.5-5.6 1.8-3.2 3.1-3 5.3.7Zm-1049.4.2c1.3 1.3 10.6 1.7 39.4 1.8 24 0 28-.2 26.5-1.6-.3-.3-15.4-.7-33.7-.8-19-.2-32.7 0-32.2.6Zm97.3.5c-1.7.2-3.2.7-3.2 1.3 0 1.2 61 1.2 63-.1 1.2-.7.8-1-1.5-1-9-.4-55.5-.5-58.3-.2Zm-9.7 5.5c.3 1.2.5 5.6.3 9.7l-.3 7.4-6.5 1.3v-8c0-10.7.6-12.7 3.6-12.7 1.6 0 2.5.7 3 2.3Zm-97.7 18c-.3 18.7-.4 19.2-2.5 20.2-1.6.7-2.3 2-2.5 4.5-.2 2.7-.8 3.6-2.4 3.8-2 .3-2.1-.3-2.7-8a291 291 0 0 1-.7-18.4c0-9.6-.1-10.1-2.8-12.6-4-3.9-7.2-4.3-12-1.9-7 3.5-7.2 4.5-7 23.6l.3 16.9H194l-4.8-.3-2.2-.1v-47h42l-.2 19.3Zm220.3 29.4-10.1.2v-16.3c0-9-.5-17.6-1-19.2-1.6-4.2-5.5-6.7-10.7-6.7-3.6 0-5 .5-7.4 3-3 3-3 3.2-3.6 15.4l-.7 12.5c0 .1-2.5-.9-5.4-2.2l-5.2-2.3v-32l18.8-.3a393 393 0 0 1 21.9 0l3.1.4.3 47.5ZM924 406c0 4.6-.2 5-2.4 5-1.4 0-2.7.4-3 .8-.3.5-2.9 1-5.8 1l-8.3.7-20 2a8611.4 8611.4 0 0 0-44.5 4 5869.6 5869.6 0 0 0-66.5 6 1115.4 1115.4 0 0 1-44.5 4c-7.9.8-26.2 2.5-34.3 3.1l-7.7.7v-5.7c0-5 .2-5.6 2-5.6a169866.6 169866.6 0 0 1 63-5.5l22-2a1797.3 1797.3 0 0 1 34-3c2-.3 9.1-1 16-1.5a986.2 986.2 0 0 0 37-3.6c3.5-.5 14.2-1.4 39.5-3.4a231.6 231.6 0 0 0 19.8-2h3.7v5Zm13-3.6c7.2 1.7 25.5 5.5 57 11.7 20 3.9 43 8.8 43.8 9.3 1.3.8 1.4 9.6.2 9.6a2020 2020 0 0 0-69-13l-38.7-7c-.2 0-.3-2.7-.3-6s.4-6 .8-6 3.2.6 6.2 1.4Zm225.5 2.4c.3 1.5 2.1 5 4 7.9 4 6 3.8 6.3-6.7 6.3-6.8 0-7 0-6.4-2.3l2.3-8.4c1.3-5.4 2-6.3 3.8-6.3 1.7 0 2.5.8 3 2.8Zm71.5-2c0 .3-.7 1.3-1.6 2.3-1.2 1.3-1.3 2.2-.5 3.8 1.8 3.3 1.3 7.9-.9 9.1-2.4 1.3-2.6.2-.4-2.8 2-2.9 1-4.1-1.4-1.9-1 1-2.2 1.7-2.5 1.7a63 63 0 0 1-7.9-5.8l-7.1-5.7 9.2-.5 11.2-.7c1 0 1.9.1 1.9.4Zm156 0c-1.4.1-4 1-5.7 1.8-1.7.8-3.4 1.4-3.7 1.4-.8 0-8.3 4.8-10.9 7a26.8 26.8 0 0 0-7.1 12.8c-1.2 4.5-1.4 4.7-5.3 5.3-5 .6-9.4 3.4-8.7 5.4.8 1.9 3.3 1.9 5.8 0 2.4-1.8 5-2 7.5-.3 3.2 2 5 .4 5-4.5-.2-8.3 5.6-15.9 16.3-21.3a24 24 0 0 1 30.1 7.2c3.2 4.5 5.3 5.5 6.3 3 1.6-4.2-8.5-14.4-16.3-16.4-5.8-1.5-10-2-13.3-1.5Zm-175 8.2a70 70 0 0 0 10.3 8.6c1 .3 1.7 1 1.5 1.6a78 78 0 0 1-19.4 1.2c-10.4.1-19.5.6-20.2 1-2.1 1.3-7-2.3-12.5-9.2-3-3.7-6-7.7-6.6-9l-1.2-2.2h39.6l8.5 8Zm65-4.4a86 86 0 0 1-9.6 19 141.4 141.4 0 0 1-12.4 19c-1.3 1.8-2.4 2.4-3 1.8-.5-.5-1.2-9.2-1.5-19.2-.6-17.8-.5-18.2 1.4-18.2 1.4 0 1.9.5 1.5 1.5-.8 1.9 1.5 2 4.1.1 1.1-.7 3.6-1.7 5.5-2 2-.5 4.6-1.5 6-2.2 2.2-1.2 6.7-1 8 .2Zm13.9 10.8c3 5.9 7.9 13.6 11.2 17.6l6 7.1v10c0 6.8-.4 10.6-1.3 11.7-1 1.2-1 1.6 0 2 .6.2 1.2 1.7 1.2 3.3 0 3.2-1.2 3.5-9.5 2l-4-.6v-15.1c0-17.2-.5-18.4-7.7-20.6-4.8-1.4-8-.1-10.8 4.4-1.7 2.9-2 5-2 16.6V469h-4.9c-5.6 0-7.6-2-8.5-8.6-1.5-10.6-1.1-12.7 3-19a250 250 0 0 0 17.5-30.6c2.1-6.1 4-4.9 9.8 6.6Zm-206-4.3c1.2 2.8 2.5 6.4 2.8 8l.5 2.9h-7.6c-8.1 0-8.3-.2-4.6-4.5 1-1.1 2.5-4.1 3.5-6.8 1-2.6 2-4.7 2.5-4.7.3 0 1.6 2.3 2.9 5.1ZM1248 447h-9.8l.3-12.3.3-19V409h8.6l.6 38ZM211.2 412.2c1.4 1 1.7 4.4 2.2 19.1l.6 17.8-12.5-.6-.3-16c-.3-16.4.4-20 3.7-20.8 3-.9 4.7-.7 6.3.6Zm921 13.4 14.3 14V451c0 8.9-.4 11.4-1.5 12-.8.5-7.3 1.1-14.5 1.5a571 571 0 0 0-28.5 2l-2.5.1-1-38 8.5-8.8c4.7-4.8 9-8.6 9.7-8.5.6.2 7.6 6.6 15.5 14.4Zm-817.8-12c.3.8.3 3.4 0 5.9-.6 4-1 4.5-4.3 5.5-2 .6-4.5 1.5-5.6 2a851.5 851.5 0 0 0-37 15.4c-5.4 2.7-35 14.8-37.3 15.3-1.5.4-2.2 0-2.2-1 0-.8-.3-2.2-.6-3-.4-1.1.3-2 2-2.8 1.9-.9 2.6-2 2.6-4 0-3.3 1-4.2 8-6.9l8.5-3.4c1.7-.8 11.8-4.8 22.5-9l25-10c12.3-5.4 17.4-6.5 18.4-4Zm43.1 6.6c29.4 12.3 36.7 15.3 47.2 19.4 9.9 3.8 10.1 4 9.6 6.7-.5 2.3-.2 3 1.6 3.4 1.7.4 2 1 1.5 2.7-1 3.3-3 5.1-4.6 3.9-.7-.6-3.1-1.6-5.3-2.3-2.2-.7-5.1-1.8-6.5-2.6a17266.9 17266.9 0 0 1-67.9-28.5c-1.8-.8-2.1-1.3-1.3-2.1.7-.7 1.2-2.4 1.2-3.8 0-3.5 2-5.2 5-4.5 1.4.3 10.1 3.8 19.5 7.7Zm74.7-6.9c1.4 1.1 1.7 3.6 1.8 16.3.3 23 1 20.5-5.7 20.2-5.7-.3-5.7-.3-6.5-3.8-1.3-6.1-.5-30.5 1-32.3 1.7-2 7-2.2 9.4-.4Zm889.2 3.4c.3 2.1 1.2 5 2 6.6l1.5 2.7h-5c-2.7 0-4.9-.2-4.9-.4l2-4.7c1-2.4 2-5.4 2-6.7 0-3.5 1.7-1.8 2.4 2.5ZM924.3 422c-.2 2.4-.4 4.5-.6 4.7a1696.7 1696.7 0 0 1-60.2 5.9c-1.6.2-7.9.7-13.9 1l-13.5 1c-1.4.3-10.7 1.1-20.6 2a53293 53293 0 0 0-122.3 10.1l-6.2.6v-3.6c0-2-.1-4-.3-4.3-.2-.6 16.1-2.6 40.3-4.8a73911.5 73911.5 0 0 1 186.7-16.9l5.5-.1h5.3l-.2 4.4Zm14.3-2.4 11.4 2 18.5 3.5 34 6.4c28.8 5.3 34.8 6.5 35 6.9.7.8 1.2 8.7.5 8.7l-20.1-3.5a12436.3 12436.3 0 0 0-40.4-7.5c-2.2-.5-11-2.1-19.5-3.5a9317.4 9317.4 0 0 1-27.3-4.5c-.4 0-.7-2.3-.7-5 0-2.8.2-5 .4-5l8.2 1.5Zm174.6 2.5c-4.2 2.6-7.3 7.7-7 11.5.4 4 2 3.5 3.3-.8 1.4-4.8 5.2-8.7 8.6-8.7 3.3 0 10.6 7.7 11.2 11.8.3 2.3.5 2.4 1.1 1 1.4-3-.3-6.7-5-11.9-5.2-5.4-7.2-6-12.2-2.9Zm171 .8c-6.8 7-14.2 18.4-14.2 21.7 0 1.7.4 1.6 2.6-1 1.4-1.6 3.2-4.5 4-6.3 1.7-3.4 10-13.2 11.3-13.2 2.2 0 12.9 13.5 14.6 18.4 1.2 3.6 3.5 4.6 3.5 1.6 0-3-9.4-16.9-13.8-20.3-4.1-3.2-5.6-3.3-8-.9Zm-94.1 11.4 11.7 9.9 3.1 2.4-31.9-.6v-11c0-10.2.1-10.9 2-10.9 1.1 0 2-.6 2-1.3 0-.6 1 0 2.3 1.4 1.2 1.5 6 6 10.8 10Zm42.9-.2c0 6 .1 11.3.3 11.8 0 .4-3.5.8-8 1-4.6.1-8.3 0-8.3-.3 0-1.1 10.2-20 11.8-21.8 3.4-4 4.2-2.2 4.2 9.3Zm-66 1.3.3 19.7.2 8.5-15.5.6v-17.3c-.1-9.5-.3-18.5-.5-20l-.4-2.8h15.9v11.3ZM343 432a2366.7 2366.7 0 0 1 47 20.1 827.7 827.7 0 0 1 25 10.7l9 4c2.5 1.3 2.2 3-.7 3.3-1.9.2-3.7 1.6-5.8 4.5l-3 4.2-184.3.1-2.2-3.5c-2.5-4-3.5-4.3-5-1.5-.8 1.4-.8 2.6 0 4 .7 1.2 1 2.4.7 2.6a483 483 0 0 1-40.9.6c-2.5-.6-3-3.2-1.2-5.3 1.6-1.7 3.5-1.9 20.6-1.9 18.5 0 19 0 18.3-2-.4-1.1-.2-2 .4-2 .6 0 1.1.3 1.1.8 0 1.2 191.8.4 194-.8 2.7-1.4 1.8-2.6-2.4-3.4-2-.4-44.7-.7-95-.7-50.4 0-91.7-.3-92-.7-.2-.4 2.6-1.8 6.2-3.1a501.9 501.9 0 0 0 40.3-16 543 543 0 0 1 17.9-7.6l14.5-6c10.5-4.8 18.3-7.4 20.5-7 1.4.3 9 3.3 17 6.6Zm862.5-4.9c.2.7.6 4.5.9 8.5l.5 7.2-4.4-4.3c-2.3-2.4-6-5.6-7.9-7-2-1.6-3.6-3.2-3.6-3.6 0-2 13.9-2.7 14.5-.8Zm16.5 0c0 .5-2 4.3-4.5 8.2a37 37 0 0 0-4.5 9c0 1-.8 1.6-2 1.6-2.1 0-2.7-1.5-1-2.5.6-.4.7-1.1.4-1.7a57 57 0 0 1-1.7-15c.7-1.3 13.3-1 13.3.3Zm-128.6 40.6c-.1.2-3.7.6-7.8.8l-7.6.4.5-37.5 14-1 .6 18.5c.3 10.2.4 18.6.3 18.8Zm64.3-37c-1.6.3-1.7 1.6-1.5 14l.3 13.7h5l.3-13.6c.3-14.3 0-15-4-14.1Zm-1125 1.4c-4.3 1.1-12.7 8.5-12.7 11 0 3.2 3.9 2.8 6.8-.8 3.4-4 8.7-6.4 14.7-6.4 5.2 0 9 2 11 6.1 2 3.9 1.9 5.3-1 8.7-4.6 5.5-3.8 5.9 8 3.6 2.3-.4 4 .2 7.5 2.5 4.6 3.2 7.4 3.8 8.5 2.1 1.6-2.6-8.2-9.7-14-10.2-2.2-.2-2.5-.7-2.5-3.8 0-4.3-4.3-10-9.4-12.4-3.8-1.8-11-2-17-.4Zm1293.5 7c.1 4.6.2 11.3 0 15l-.3 6.8h-8.9v-6.3c-.2-9.1-.8-17.6-1.5-18.7-.3-.6-1.5-1-2.5-1s-2.4-.9-3-2c-1-2-.8-2 7.4-2h8.4l.4 8.3Zm-1022.7-.6a669.4 669.4 0 0 0-31 13c-11 4.6-15.7 7.4-12.2 7.4.9 0 3.1-.6 5-1.4a3075.4 3075.4 0 0 0 37.3-14.5c6.5-2.6 14.4-5.5 17.4-6.5l5.5-1.9 11 4.8a1147.7 1147.7 0 0 0 35 14.5c3.5 1.6 12.9 5.1 15.3 5.6 3.8.8 2.4-1.5-2.6-4A409 409 0 0 0 364 447a1879 1879 0 0 1-25.8-10.6c-7-3-11.6-4.4-14.5-4.3-2.7 0-10 2.4-20.2 6.5Zm620.6-4.9v32.8l-.1 51.2v20.2l-87.9.1-4-4.2a126.9 126.9 0 0 1-12.8-15l-2.5-3.7.5-32c.2-17.5.1-32.4-.3-33.1-.4-.7-1.6-1-2.6-.8-1.8.3-2 1.9-2.1 31.3l-.3 31-14.9.6.4-28.8c.3-23.2 0-29.2-1-30.7-.8-1-2-1.6-3-1.3-1.3.6-1.5 4.4-1.5 30.2V511h-12.9v-28.7c-.2-28.7-.4-31-3.6-30-.6.2-1.1 11.1-1.3 29.3l-.2 28.9-14-.7V482c0-28-.3-30.6-3.5-28-1.3 1-1.5 5.8-1.5 28 0 14.6-.2 26.9-.4 27-.2.3-3.2.3-6.5.2l-6.1-.4v-25.3c0-21.5-.2-25.4-1.5-26.5-1-.9-2-1-2.6-.3-.6.6-1 11.1-1.2 26.4l-.2 25.3-12.5.7v-24.8a216 216 0 0 0-1-26.2 2.1 2.1 0 0 0-2.4-.8c-1.5.6-1.6 3.3-1.4 25.7l.3 25-13.7-.5.3-23.4c.3-21 .2-23.5-1.3-24.5-3.3-2-3.5-.9-3.7 28.6l-.1 19.7-6.8-.6c-3.7-.3-6.8-.7-7-.8-.4-.4-.3-53.7.1-54.1.2-.2 10.7-1.3 23.3-2.4a13781 13781 0 0 0 47.9-4 761 761 0 0 0 18-1.5c2.2-.2 10-1 17.5-1.5a1015.8 1015.8 0 0 0 30-2.5c8.2-.6 17.2-1.4 23-2l17-1.5 23-2c5.8-.6 15-1.3 20.5-1.6a86.4 86.4 0 0 0 13.7-1.4c2 0 2.8.5 3 1.8Zm20.9 1.9a9460.9 9460.9 0 0 0 60.5 10.8 4673.4 4673.4 0 0 0 30 5.5l3 .7-.2 26.3-.5 26.6-31.3.9c-45.9 1-57.6 1.8-59.6 4.2-.7 1-1.4 6.1-1.6 13.7-.2 6.7-.6 12.7-.7 13.2-.2.6-3.2.8-7.7.5l-7.4-.5.2-46.5.2-52.4.1-5.9 3.3.7 11.7 2.2Zm170 1a72.7 72.7 0 0 0 .2 25.2c1.8 1.8 6.5 1.5 7.2-.4 1.2-3.2.9-24.4-.4-26a4.1 4.1 0 0 0-7 1.2Zm-1003 6.6c.5 3 1.1 8.1 1.3 11.6l.3 6.2h-6.2l.3-8.3c.6-15.4 2.3-19.1 4.2-9.4Zm69.4 6.2c0 5.9-.3 11-.8 11.3-.4.3-10 .5-21 .5l-30-.2c-8.7 0-9.7-.2-9.4-1.8.2-1 1.9-2.5 3.8-3.4 5.5-2.7 54.6-17.9 56.4-17.4.4 0 .9 5 1 11Zm901.3-10.6c-.4.6-.3 19.4.2 24.4 0 1.2 1 1.8 2.6 1.8h2.5v-12.9c0-10.8-.3-13-1.6-13.5-2-.8-3.2-.8-3.7.1Zm207.7 1.8 1.7 1.7c.1.1.5 6.4.8 14 .7 15.3 1 14.6-7.2 13.8l-3.7-.3-.1-6.2c0-3.3-.3-7.9-.5-10.1-.7-10.3 4.4-17.6 9-13Zm-827.9 1.8c7.2 2 37.5 12.6 40.6 14.2 2.1 1 2.5 1.8 2.1 4.4l-.4 3H483c-11.9 0-23 0-24.9.3-2.3.2-3.2 0-3.3-1.2v-21.9c.2-.5 2.9-.1 7.6 1.2Zm446.4 1.3c-.5 12.3-.7 80.3-.3 82.1.3 1.7 1 2.2 2.7 2l2.2-.3v-86l-2.3-.3c-1.8-.3-2.2.2-2.3 2.5Zm-382.5 14 .5 6.4-2.7-.3c-2.5-.3-2.7-.6-2.7-4.8.1-7.1.8-12.3 1.9-14.5.9-1.7 1.1-1.4 1.8 2.4.4 2.4 1 7.3 1.2 10.8Zm364.4-14c-1.7.4-1.8 3.3-1.8 42.3 0 43 .1 44.4 3.8 42.1 1.4-.8 2-82.8.6-84-.5-.4-1.7-.6-2.6-.4Zm-18.6 1.5c-.9.9-1.2 11.6-1.2 41.9 0 34.3.2 40.8 1.4 41.2 3.1 1.2 3.6-2 3.7-24.4.2-61.4.2-62.8-3.9-58.7Zm413 0a49.3 49.3 0 0 0-.3 19.7c.5.8 1.6 1.1 2.5.8 1.3-.5 1.6-2.4 1.6-10.6 0-7.5-.3-10-1.4-10.4-.7-.3-1.9 0-2.5.6Zm-432 1.1c-1 1-1.2 11.9-1 40.8l.3 39.4h4.7l.1-40.5c.2-36.3 0-40.5-1.4-40.8-.9-.1-2.1.3-2.8 1.1Zm-20.5 1.4c-.2.5-.4 19-.5 41L832 529h2.4c2.2 0 2.4-.4 2.8-5.8.7-10 .9-72.3.3-74.3-.6-1.8-4-2.7-4.8-1.1Zm118.5.2c-1 .6-1.3 5.6-1.3 20.6 0 19.9.6 23 3.7 21.8 1.1-.4 1.4-4.2 1.4-20.8 0-20.6-.5-23.6-3.8-21.6Zm266.5 3.4c7.8.1 14.4.4 14.6.7.7.7 1 3 .8 7.7l-.1 4.2h-60v-13.6l15.3.4 29.4.6Zm-246.1.6c-.4.5-.5 8.1-.5 16.9.1 8.7-.1 16.4-.5 17.1-.4.7 0 2.3.9 3.7 1.2 1.8 2 2.2 3.2 1.5 1.4-.7 1.7-3.4 1.8-18.2a139 139 0 0 0-.6-19.6c-.9-2.3-3.3-3-4.3-1.4Zm283.8 1.3c2.2.5 3.3 3 3.2 7.3l-.1 3-19.5.6v-12l7.3.3c4 .2 8 .5 9.1.8Zm-1041.7.4c5.9.4 8.3 1 8.3 2 0 .7 1 2 2.1 2.8 2 1.4 2 1.5-1.8 3.5-2.2 1-5 3.1-6.4 4.5-2.3 2.5-2.8 2.6-15.7 2.6H187v-7.4c0-7 .2-7.5 2.3-7.8 4.8-.8 16.6-.9 24.4-.2Zm235 2 .6 8.6.4 7.8H431l.6-2.6c.7-3-2-6.5-6.5-8.4-2.2-.9-2.7-1.6-2.3-3.5.3-2 1.1-2.5 4-2.7 7.4-.6 21.6-.1 21.8.8ZM993 492h2.4c1.3 0 2.6-.4 2.8-1 .1-.5 0-8.7-.2-18.2-.5-17-.5-17.3-2.8-17.6l-2.2-.3V492Zm400.3-35c-4.1 1.8-6.4 4.8-7.7 10.2-.4 1.7-1.9 3.3-4.3 4.5-4.1 2-7.4 7.4-7.6 12.6-.2 2.6.2 3.2 1.8 3.2 1.5 0 2.1-1 2.8-4.2.8-4.4 4.5-8.3 7.7-8.3 1 0 2.2-1.3 3-3.3 3.3-9 4.8-10.5 12.2-12.1 3-.7 9.8 1.7 9.8 3.3 0 1.4 3.7 1.4 4.5 0 .4-.5-.1-2-1.2-3.1-4.3-5-13.7-6.2-21-2.9Zm-380 .8c-1.2.9-1.6 32.2-.4 34.1.5.8 1.6 1.1 2.5.8 1.4-.6 1.6-3 1.6-17.6 0-13.2-.3-17-1.3-17.4-.8-.3-1.8-.2-2.4.1ZM181 468.2c0 1-.9 2-2 2.3-1.1.3-2 1-2 1.6 0 .6-14.7.9-40 .7-29.6-.2-40-.6-40-1.5 0-.6 1.2-2 2.8-3.1 2.6-2 4-2 42-1.9 36 .2 39.2.3 39.2 1.9Zm1145 26.3c0 15.7-.3 28.5-.8 28.5-.4 0-2.5-.7-4.7-1.4l-4-1.4V466h9.5v28.5Zm-252.8-25.3c-.7.7-1.2.8-1.2.2 0-1.4 1.2-2.6 1.8-1.9.3.3 0 1-.6 1.7Zm-542.7.3c1.6.3 4 1.4 5.4 2.4l2.4 1.8-4 .5c-2 .3-19.1.5-37.8.3-34.7-.2-40.1-.8-38.9-4 .4-1 2.6-1.5 8.7-1.7 12.2-.4 60.7.1 64.2.7Zm615.7 15.8c0 9.2-.1 17-.3 17.1-.2.2-8.5.7-18.5 1l-18 .6.4-11.8c.4-10 .2-12-1.2-13-.8-.8-2.2-1.2-3-.9-1.2.5-1.6 3.2-1.8 13-.3 11.8-.4 12.2-2.5 12.5l-2.3.3v-16c0-14.3.2-16 1.8-16.5 2.4-.7 9.7-1.4 22.7-2.2 6-.3 11-.7 11.2-.8l5.8-.1h5.7v16.8Zm21-13 .3 17.4.2 13.3H1152v-7a2264.1 2264.1 0 0 1 0-25v-3h15l.2 4.3Zm41.3 34.2-4.5-.3c-2.5-.2-7-.8-10-1.4a65 65 0 0 0-15.3-1.6l-5.7-.2v-35h36l-.5 38.5Zm25.5-9c0 17.4.5 30.5 1 32.1.9 2.3.6 3.7-1.7 8.3-2 4-2.8 7.6-3.1 12.4-.4 6.2-.7 7-3 7.8-1.3.5-2.7.7-3 .5-.2-.3-.6-10.7-.8-23.1-.2-12.7-.9-23.5-1.4-24.6-1-1.6-4.5-3.2-7.5-3.4-1 0-1.8-35.4-1-38.3.3-.8 3.3-1.2 10.4-1.2h10v29.5Zm21.7-27.8c1.2.2 2.4 1 2.6 1.8.3.7.7 12.6.8 26.4l.3 25.3-6 .1c-5 .2-6.7.7-9.7 3a17 17 0 0 1-3.8 2.5l-.5-30.7-.5-30.4 7.3.7c4 .4 8.3 1 9.5 1.3Zm81.3.4c2.3 1.2 4 2.3 3.8 2.4-.2.1-2.4.5-5 .7-4.7.5-4.8.5-4.8-2.3 0-3.5.7-3.5 6-.8ZM1094 488v16h-5.8l-.3-12c-.4-12.1-1.3-14.8-4.3-13.7-1.3.5-1.6 2.7-1.6 13.2V504h-5.2l.7-30 3-.5a109.9 109.9 0 0 1 12.3-1.3c1-.2 1.2 3.6 1.2 15.8Zm-503.5-13.3a20 20 0 0 0-4.6 3.5c-1 1-3.3 2-5.3 2.3-2 .3-5 1.2-6.6 2-6.3 3.3-11.3 14-6.5 14 1.4 0 2.3-1 3.1-3.5 1.6-5 5.5-7.5 11-7.3 4 .1 4.7-.2 7-3.2 3.3-4.4 8-6 13.3-4.5 5 1.3 8.1 4.5 8.1 8.1 0 3.2 1.5 4.5 4.8 4 1.2-.1 3.9.7 5.8 1.8 4.2 2.5 5.8 2 8.2-3 3.5-7 16.2-9.6 23.3-4.9 2 1.3 4.5 3.7 5.5 5.2 2 3 3.7 3.2 4.2.4.5-2.6-2.1-6-7.4-9.5-4-2.6-5.7-3.1-10.8-3-7.4 0-13 2.3-17.2 7.2-1.8 2-3.6 3.1-4 2.7-.5-.5-2.2-1-3.8-1.2-2.3-.2-3.1-1-3.7-3.1-2.1-7.9-16.1-12.5-24.4-8Zm696-.6c20.8 2.4 23.7 2.8 24.2 3.2.3.3.5 10 .5 21.4l.1 20.8-3 .6c-1.6.3-5.5 2.4-8.5 4.7l-5.6 4.2-1.7-4.9c-1.7-5.3-2.9-6.5-9-10-5-2.9-12.2-3.2-16-.7-1.5 1-2.8 1.6-3 1.4-.2-.2-.5-9.4-.7-20.5-.3-17.3 0-20.3 1.2-20.7 3-.8 12.5-.6 21.4.4Zm-214.6 2.1c.4 1.3.6 4.8.5 7.8l-.3 13.3-.1 7.8-6.5-.7-.3-14.4c-.3-15 0-16 4-16 1 0 2.2 1 2.7 2.3Zm270.6 29c0 22.2-.2 27.8-1.2 27.8-.8 0-3.3-2.1-5.8-4.7l-4.5-4.7.2-18.5c.1-10.2.4-15.2.5-11 .3 6.5.7 7.8 2.3 8.2 2.5.6 3-1 3-9.3 0-5-.4-7-1.7-8.1-1.3-1.1-1.7-1.1-2-.1-.3.6-.9 1.2-1.4 1.2-.9 0-1.3-8.3-.5-9.1.3-.3 2.9-.2 5.8 0l5.3.6v27.8ZM175.7 480.9c1.2 1.5 2.2 3 2.3 3.4 0 .5-16.9.8-37.6.8H103l-1.5-3.5-1.4-3.7c0-.2 16.5-.2 36.8 0l36.7.4 2.2 2.6ZM457 478c1 .7 1 1.4-.8 3.7l-2.1 2.9-16.7-.5c-15-.4-16.8-.7-17.1-2.3-.2-1 .1-1.7.7-1.7s1.1-.7 1.1-1.5c0-1.3 2.5-1.5 16.8-1.5 9.2 0 17.3.4 18 .9Zm676.4-.1c-1 .7-1.7 9-1.4 19 0 2.9.4 3.3 2.3 3 2.2-.3 2.3-.7 2.3-11.2 0-10.7-.5-12.5-3.2-10.8Zm87.2.4c-1 3-1.4 8.6-.8 12 .5 3.2 1 3.8 3 3.8 2.5 0 2.5.1 2.5-8.9 0-4.3-.4-6.6-1.3-7.2-2-1.2-2.9-1.1-3.4.4Zm-102.8.6c-.2.4-.4 5.6-.3 11.7.1 10.6.2 11 2.3 11.3 3 .4 3.6-2.2 3-14a320 320 0 0 0-.6-9.6c-.2-.6-4-.1-4.4.6Zm67.7.6c-1.6 1.2-1.9 2.6-1.8 9.1 0 8.3.9 9.7 5.4 9.3 2.4-.3 2.5-.6 2.8-8 .4-10.7-1.6-13.9-6.4-10.4Zm64.3.7c-1.4.8-1.7 2.5-1.7 10.3 0 9.8 1 12.3 4.4 11 1.3-.5 1.6-2.3 1.6-10.4 0-10.4-1-12.7-4.3-10.9Zm-717.1 1.1-1.1 2.8c-.5 1.2-2.8 1.5-13.8 1.3-7.3-.2-23.3-.3-35.6-.3h-22.4l4.6-5h34.5c27.1 0 34.2.3 33.8 1.3Zm741.4-1c-.7 3.7-.2 22.8.5 22.8 3.2 0 4-2 4.1-10.7.1-9.2-.7-12.3-3.1-12.3-.8 0-1.5.1-1.5.3Zm12.2 12c.3 10.5.4 11.3 2.3 11.3s2-.7 2-11c0-10.7 0-11-2.3-11.3-2.3-.3-2.3-.3-2 11Zm13.2-9.9c-.2.7-.3 6.3-.2 12.3.3 10.1.4 10.9 2.3 10.9 1.8 0 2-.8 2.3-10 .2-5.5 0-11-.3-12.3-.6-2.4-3.3-3-4-.9Zm-883.4 1c0 .4-.7 1-1.6 1.4-1 .4-1.3 1.3-1 3.2l.7 2.7-22.3-.3c-12.3-.2-54.4-.3-93.6-.3-62.6 0-71.2-.2-71.2-1.5 0-.8.7-1.5 1.6-1.5 1.2 0 1.5-.6 1-2.3l-.5-2.2h93.4c51.4 0 93.5.3 93.5.8Zm-193.6 6c-.3 1 0 2.4.6 3.2 1 1.3-1.3 1.5-17.9 1.5H186v-3c0-1.6-.1-3.3-.3-3.8-.3-1.1 35.7-1.9 36.5-.7.4.6.5 1.8.2 2.8Zm-43.8.5c.6.4 1.4 2 1.8 3.5l.7 2.9-13.8-.6c-7.6-.3-25.6-.5-40-.6-25.3 0-26.3 0-27.3-2-.6-1.1-.8-2.5-.5-3a924 924 0 0 1 79.1-.2Zm273.8 2c-1.5 7.2-1.5 7.2-14.8 7.4-6.7 0-13.5.2-15.1.3-4.1.3-4.8-.3-3-2.8 2-2.8 2-5.7 0-5.7-.8 0-1.5-.4-1.5-1s6.5-1 17.5-1H453l-.6 2.8Zm81.3-1.5c.6.4.9 1.6.6 2.7-.5 2-1.4 2-38.4 2H458v-2.3c0-1.3.3-2.7.8-3.1.9-1 73.3-.3 74.9.7ZM240.2 494c.6 0 .5.6-.2 1.6-1.6 1.8-9.1 1.6-9.7-.3-.4-1.2 4.8-2.3 7.5-1.6l2.4.3Zm34.5 1.8c-1.5 1.6-1.6 5.8-1.2 41.5l.4 39.7h-2.2l-4.4.4-2.3.3V521.4c0-21 0-22.2-2-24.7l-2.1-2.7h7.7c7.4 0 7.6 0 6 1.8Zm33.4-.4c-.9 1-1.2 11-1 35.8 0 18.8.2 37.3.5 41l.4 6.8-9.4-.5v-40.1c-.1-38-.2-40.3-2-42.3l-2-2.1h7.4c6.1 0 7 .2 6 1.4Zm40.4.6c-1.7 1.9-1.8 4.3-1.1 42.5l.7 40.5h-2.8c-1.5 0-3.3-.4-3.9-.8-.8-.5-1.2-12.8-1.3-40.2-.2-38-.3-39.6-2.1-41.2-2.6-2-1.3-2.6 6.4-2.7 5.8-.1 5.9 0 4.1 1.9Zm15-1c-.3.6-1.5 1-2.6 1-1 0-1.9-.4-1.9-1s1.2-1 2.6-1c1.4 0 2.3.4 1.9 1Zm18 83h-8l-.3-39.7c-.3-31.4-.7-40-1.7-41.7-1.4-2-1.3-2.1 4-2.1h5.6l.4 83.5Zm32.6-.2-3 .4c-1.7.2-3.6 0-4.3-.3-1-.6-1.4-9.7-1.6-40.1-.3-32.4-.6-39.6-1.8-40.9-2.2-2.5-1.8-2.8 4.4-2.6l5.7.2.6 83.3ZM331 496.3c0 .4-3 .7-6.8.6-4.8 0-6-.3-4.2-.9 3-1 11-.8 11 .3Zm-40.8.4c-.6.2-1.8.2-2.4 0-.7-.3-.2-.5 1.2-.5s2 .2 1.3.5Zm-65.7 2.3c.7.5 1 14.6 1 39.7-.2 40.3-.7 46.7-4.3 47.5-1 .2-7.5.3-14.7.2l-23.2-.3-10.2-.1-.7-4.5c-.8-5.4-3.2-7.5-8.5-7.5-3 0-4.3.7-6.4 3.2a24 24 0 0 0-3.7 6l-1 2.8H129v-86.9h23V532c0 29 .2 32.9 1.6 33.4.9.3 2 .4 2.5 0 .5-.3.9-14.7.9-33.3v-32.8l4.3.2c2.3.2 7.6.3 11.9.4l7.6.1-.3 36.5-10 .2a59 59 0 0 0-10.3.8c-1.6 1.5 2.4 2.6 10.9 2.8l9.4.2.1 17.4c.2 17.4.7 20 3.8 18.8 1.4-.6 1.6-5.2 1.6-40v-39.2l18.7.3c10.4.2 19.3.7 19.8 1.2Zm-100 7.3c-.2 4-.3 23.5-.4 43.5l-.1 36.3-10.5-.6-.2-41.5c-.1-22.8-.4-42.3-.7-43.2-.4-1.6.4-1.8 5.8-1.8h6.2l-.2 7.3ZM294 501c0 .5-3.6.8-8 .8-7.1 0-9-.5-7.6-1.9.8-.8 15.6.3 15.6 1.1Zm72-1c0 .4-3.2 1-7 1.2-5.1.2-7 0-7-1 0-.8 2-1.2 7-1.2 3.9 0 7 .4 7 1Zm-127 78h-3.9c-3.8 0-3.8 0-4.3-4.3-.4-3.6-.4-54.4 0-69l.2-4.7h8v78Zm94.8-76.2c.2.8-1 1.2-4.5 1.3l-11 .2c-5.5.2-6.3 0-6.3-1.6 0-1.7 1-1.8 10.7-1.5 7.4.2 10.8.7 11 1.6Zm-73.2.1a43 43 0 0 1-17.6 0c0-.5 4-.9 9-.9 5.3 0 8.9.4 8.6 1Zm175.6.4H450V522l.4 33.4c.3 10.7 0 13.7-1 13.7-3.1 0-10.1 9.6-11.4 15.5-.3 1.6-.9 2.9-1.3 2.8-.4-.2-3.6-.3-7.2-.3-5.8 0-6.5-.2-6.5-2 0-1-1.1-3.1-2.5-4.6l-2.5-2.7V501l2.2.7c1.2.3 8.4.7 16 .7Zm-231.6 3.3c-.3.9-.6 4.7-.6 8.6 0 6.6.1 7 2.3 6.6 2-.3 2.2-1 2.5-7.1.2-4.2-.2-7.4-.9-8.3-1.5-1.8-2.5-1.8-3.3.2Zm88.9 13.9-15.5.6v-14l3.8-.3c2-.2 5.5 0 7.7.2l4 .5v13Zm74.5.3-4.3.3c-2.3.2-5.9.3-8 0l-3.7-.2V505h16v14.8Zm31.8-10.3a34 34 0 0 1-.3 7.3l-.6 3.2h-6.3c-7.3 0-7.6-.4-7.6-9.8V505l14.5.6.3 4ZM260 519.9l-17.1.6v-13.4l3.3-.4c1.7-.2 5.4-.4 8.2-.3l5 .1.6 13.4Zm74.7-6.7c.3 6.5.3 6.6-2.5 7.2a79 79 0 0 1-11.6.4l-8.7-.2v-14.7l22.5.6.3 6.7Zm128.5-6.2c-2.6 1-4.3 6.4-4.3 13.8v5.2h13l.1-4.3c0-2.3.3-5.8.4-7.9.5-5.3-4.2-8.8-9.2-6.8Zm-296.7 3.3c-.7 1.7-1.2 5.9-1.2 9.1l.1 6 3.4.4c1.9.2 4.4 0 5.7-.2 2.2-.6 2.4-1.1 2.4-7.7 0-9-1-10.9-5.6-10.9-3 0-3.7.4-4.8 3.3Zm1023.9-1c2.5.6 8.6 1.5 15 2.2 11.6 1.2 12.1 1.6 12.4 11 0 3.3.4 6.8.7 7.9.6 1.8 0 1.8-11.6 1.1a737 737 0 0 1-25.3-2c-10-1-25.4-1.2-62.2-.9a4463.8 4463.8 0 0 0-128.5 2.9c-35.8 1.7-41 1.7-41.1-.2-.3-3.5.2-13.8.7-15.5.8-2.7 12.4-3.5 65.4-4.3 17.9-.3 36.8-.7 42-1 5.2-.3 23-.8 39.5-1 16.5-.4 30.2-.9 30.4-1.1.6-.6 60.3.2 62.6.8Zm-759.9 1.3c-.3.9-.6 5.6-.6 10.4 0 7.5.3 9 1.8 9.8 3.6 1.9 4.2.4 4.2-9.7 0-9.5-.8-12.1-3.6-12.1-.6 0-1.5.7-1.8 1.6Zm202.4-.1 27.5 1 30 1 24.5 1c2.5.2 14.4.6 26.5 1l25 1c1.6.2 11.3.7 21.5 1 10.2.3 19.5.8 20.7 1 1.2.3 4.7 3.6 7.6 7.3a223.6 223.6 0 0 0 10.7 12.6c0 .4-44.2-1-55.5-1.9a1545 1545 0 0 0-51.5-2 9238.5 9238.5 0 0 1-71-2.1l-31-.9c-3-.1-15.5-.3-27.8-.3l-22.3-.2.3-2.3c.2-1.2 4-5.8 9-10.5l8.7-8.2 14.8.5 32.3 1Zm-373 39.8c0 24.5-.1 26.4-2 29.2-1 1.6-2 3.7-2 4.6 0 1.2-1 1.8-3.4 2-4.6.6-5.6.1-5.6-2.5 0-1.3-.9-3-2-4-1.8-1.7-1.9-3.3-2-28.7V524h17v26.3Zm33.6 1.5c0 21.6-.2 27.5-1.3 28.3-.7.6-1.3 2.2-1.3 3.5 0 2.1-.5 2.4-4 2.4-3.1 0-4-.4-4.6-2.3-.3-1.2-1.4-3-2.3-4-1.4-1.6-1.6-5.7-1.8-28.8l-.3-27 15.5.6v27.3ZM335 528v4h-23v-7l10.8-.3c5.9-.1 11-.4 11.4-.5.5-.1.8 1.6.8 3.8Zm33.1 13.3c.2 32.1 0 36-2.2 37.5-1.1.8-1.9 2.5-1.9 4.3 0 2.8-.2 2.9-4.5 2.9-3.1 0-4.5-.4-4.4-1.3.1-.6-.2-2.3-.8-3.7-.6-1.4-1.3-14.8-1.7-29.8l-.7-27.2H368l.1 17.3Zm32.1 10c.3 25.3.2 27.3-1.5 29-1 1-1.7 2.7-1.4 3.8.4 1.6 0 1.9-3.4 1.9-3 0-4.1-.5-4.5-1.8-.3-1-1.2-3-2-4.5-1.1-2.3-1.4-8.2-1.4-29.3V524h14l.2 27.3Zm752-16c.2 1.2.2 14.2 0 29l-.3 26.7H1139l.2-23.3c.1-12.7.4-25.8.6-29l.4-5.7h5.8c5.3 0 5.9.2 6.2 2.3Zm-605.5-.7c-1.1 1.2-.8 18.2.3 19 .6.3 1.8 0 2.6-.7 2.2-1.8 1.6-18.2-.6-18.7-.9-.1-2 0-2.3.4Zm535.6 23.9-.2 28.3-.1 4.2h-10v-55.9l2.3-.4c1.2-.3 3.5-.4 5.2-.3l3 .1-.2 24ZM1100 591h-12l-.1-3.3v-50l.1-3.7h12v57Zm16-54.5.1 10v26l-.1 18.5h-11v-57h5.5c5.2 0 5.5.1 5.5 2.5Zm18 54.5h-13v-25.3c.1-13.8.4-26.7.7-28.5.5-3.2.5-3.2 6.4-3.2h5.9v57Zm33.5.4h-2.3l-5.2-.3-3-.1.1-57h11l-.6 57.4Zm-119-.4H1036v-54.9l2.8-.4c1.5-.2 4.3-.4 6.2-.3l3.5.1V591Zm18.5 0h-13.5l.2-19.7.3-28V535h13v56Zm113.5.5h-7.7v-8.3l.2-28.2v-20h8l-.5 56.5Zm14.1-43.3-.5 28.6-.1 15.2-7.9-.5V535h9l-.5 13.3ZM458 537.5c0 1.8 1.3 2.2 8 2.5 6 .2 11.5-1.3 10.5-2.9-.3-.5-4.6-1-9.6-1-7 0-8.9.3-8.9 1.4Zm555.5.8c.4 1.7 0 45.2-.4 51.4-.1 1.3-7.5 2.6-9.7 1.7-1.1-.4-1.4-5.5-1.4-27.7v-27.1l5.5-.3c5-.3 5.5-.1 6 2ZM1031 591h-12.8v-26.7c0-14.7.1-27 .4-27.5.3-.4 3.2-.8 6.5-.8h5.9v55Zm187-41.6c0 6.6.3 19 .5 27.4l.5 15.2h-3.5c-3 0-3.5-.4-3.6-2.3-.3-6.3.2-52 .6-52.7.3-.4 1.6-.5 3-.2l2.5.4v12.2Zm-883 8.9c0 19.5-.2 21.4-2 23.7l-2 2.5-.2-3-.3-22v-19l-3.5.1c-2 0-6 .3-9.3.5-5.4.4-5.7.3-5.7-1.8 0-2.3.2-2.3 11.5-2.3H335v21.3Zm662 33.2-12 .4.1-54.9H997v54.5Zm209.9.5h-7.9v-55h8l-.1 55Zm-1003-46.3c-.2 13.8.7 17.7 3.8 15.1.9-.7 1.3-4 1.3-10.4 0-9.4 0-9.4-2.5-9.4-2.3 0-2.5.4-2.6 4.8Zm260.7 3.5a50 50 0 0 0-.3 7.8c.2 3.8.5 4.5 2.2 4.5 1.8 0 2-.7 2-7.5 0-6.2-.3-7.5-1.7-7.8-1.2-.2-1.8.6-2.2 3Zm175-2.5c-.3.3-.6 1.7-.6 3v2.3l18.8.1a844.8 844.8 0 0 1 49.7 1.3 7926.5 7926.5 0 0 1 104 4 12861.4 12861.4 0 0 0 48 2.1c17.2.9 55 2 68.4 2 9.3 0 13.5-.4 13.8-1.2.7-2.1-2.9-2.5-41.2-3.8a4910.1 4910.1 0 0 1-73.5-3l-70-3-29-1c-13-.4-24.5-.8-25.8-1-1.2-.2-14.2-.6-29-1a684 684 0 0 1-29.8-1c-1.7-.3-3.3-.2-3.7.2Zm-469.4 1c-2 .8-1.7 17.2.3 18 .9.3 1.8.4 2 .1.2-.2.5-4.3.7-9.2.3-8.7-.2-10-3-9Zm147.4 7c-1 1-1.9-.5-1-1.8.6-1 .8-1 1.2 0 .2.7.1 1.5-.2 1.8Zm.4 2.3c0 .5-.2 1-.4 1-.3 0-.8-.5-1.1-1-.3-.5-.1-1 .4-1 .6 0 1.1.5 1.1 1Zm324.5 3.2c-.3 1.3-.5 5.7-.3 9.8.3 7.3.4 7.5 2.8 7.5 2.5 0 2.5 0 2.5-9.5 0-9-.1-9.5-2.2-9.8-1.6-.2-2.4.3-2.8 2Zm27 1c-.3.8-.5 5-.3 9.4.3 7.3.5 8 2.5 8.2 2.8.4 3.3-1.6 3-11.3-.2-6.4-.4-7-2.5-7.3-1.2-.2-2.4.3-2.7 1ZM314 562c0 .5-.2 1-.4 1-.3 0-.8-.5-1.1-1-.3-.5-.1-1 .4-1 .6 0 1.1.5 1.1 1Zm425 .5c-1.7 2-1 15.3 1 16.5 3 1.9 4 0 4-8 0-9-1.9-12.2-5-8.5Zm-43.8.7c-1.3 1.3-1.6 8.7-.6 12.5.7 2.5 4.9 3.3 5.6 1 .7-2 .2-12.2-.6-13.5-1-1.5-2.9-1.5-4.4 0Zm22.9.2c-.7.9-1 4.2-.9 8.8.3 7.1.4 7.3 3 7.6l2.8.3v-8.4c0-6.8-.3-8.6-1.6-9-2-.9-2-1-3.3.7Zm40.8 2.9c-.3 11.9.6 14.6 4.3 12.6 1.4-.8 1.8-2.2 1.8-7.4 0-8-.6-9.5-3.6-9.5-2.1 0-2.4.5-2.5 4.3Zm21.6-2.1a47.9 47.9 0 0 0-.5 14.8c.4.7 1.6 1 2.6.8 1.7-.3 1.9-1.3 1.9-8.3 0-6.8-.3-8-1.8-8.3-1-.2-2 .2-2.2 1Zm-466.8 7.5c-.2 1.6-.4.3-.4-2.7s.2-4.3.4-2.8c.2 1.6.2 4 0 5.5Zm486.3.3c0 6.4.3 8.2 1.6 8.7 2.7 1 3.7-1.3 3.8-8.9.1-7.3 0-7.3-2.6-7.6l-2.8-.3v8Zm22.9-5.8-.5 7c-.3 5.5 0 7 1.1 7.4 2.8 1.1 4-1.2 4-7.8 0-5.8-.2-6.3-2.3-6.6-1.2-.2-2.2-.2-2.3 0Zm20.8.5c-1.1 1.9-.5 12 .9 13.7 2.3 3.2 3.5.6 3.2-7-.2-5.5-.6-7-2-7.2-.9-.2-1.8 0-2.1.5Zm20.3 7.2c0 7.5.2 8.1 2 8.1 2 0 2-.5 1.8-7.7-.3-6.5-.6-7.8-2-8.1-1.6-.3-1.8.6-1.8 7.7Zm22-6.2c-.8 6.9-.5 12.5.7 13.5 2.4 2 3.4-.5 3.1-7.3-.2-5.1-.6-6.4-2-6.7-1-.2-1.8 0-1.9.5Zm18 8.3c0 6.3.3 8.2 1.5 8.7.9.3 1.8.4 2 .2.1-.2.6-4.1 1-8.6l.5-8.3h-2.5c-2.5 0-2.5.1-2.5 8Zm19.2-3.3c-.5 1-.6 6-.3 11.3.5 8 .9 9.5 2.4 9.8 1.6.3 1.8-.5 1.5-10.9-.3-11.1-1.5-14.5-3.6-10.2Zm-756.5 7.8c1.8 1.3 2 2 1.3 4a496 496 0 0 0-.5 41.7l.6 60.3.2 21-11.4-.2c-15.7-.2-41-1.2-49.7-1.9-6.7-.5-8.6-1.4-6.2-2.9 1.8-1.1 8.7-13.7 25-46 26-51.3 29.6-58.6 32.4-66 5-13.1 4.6-12.6 8.3-10Zm74 2c1.3.3 2.3 1.1 2.3 1.9 0 1.4-4.9 2.6-10.8 2.6-2.9 0-3.2-.3-3.2-2.9 0-2.8 0-2.8 4.8-2.4 2.6.2 5.7.6 7 .9Zm34.8-.3c1.5.7 2.4 1.8 2.3 2.7-.3 1.3-1.8 1.6-8.3 1.6-6.8 0-8-.3-8.3-1.8-.6-3.2 9-5 14.3-2.5Zm33.7 2.3c-.5 2.7-.4 2.6-4.8 2.7-7.4.1-8.4-.1-8.4-2.1 0-2.1 1.7-2.6 9-2.6 4 0 4.5.3 4.2 2Zm40.6-1c2.3.8 1.3 3.5-1.3 3.6-8.8.4-10.6 0-10.3-1.9.2-1 1-2 1.8-2.4a22 22 0 0 1 9.8.7Zm33.6 0c1.6 4.3 1 4.8-6.4 4.2-8.1-.6-9-1-8.3-3.7.5-1.8 1.4-2 7.3-2 5.3 0 7 .4 7.4 1.6Zm34 1c1.3 3.4.6 3.7-7.4 3.3-7.5-.3-8-.4-8-2.5 0-2.2.4-2.3 7.4-2.3 5.8 0 7.5.3 8 1.6Zm225.5 5.8c-.5 5.1 1.4 7.9 3.7 5.5 2.2-2.2 1.1-6.8-1.6-6.8-1.1 0-2 .6-2.1 1.3ZM306 592.4l124.3.6h6.7v6.7l-123.1.1c-122.9.2-129.5.3-124.7 3.3.7.5 57 .9 125.2.9 68 0 124.2.3 124.7.6 1.4.8 1 3-.6 4.8-1.4 1.4-15.4 1.5-128.5 1.5-84 0-127-.3-127-1 0-.6-.9-2.9-1.9-5.2-2.9-6.4-5.1-11.9-5.1-12.6 0-.4 2.8-.6 6.3-.5 3.4.2 59 .5 123.7.8Zm432.2 5.3c.3 6.5.4 6.8 2.8 6.8 2 0 2.6-.5 2.8-3.1.5-5.3-1.1-9.9-3.7-10.2-2.1-.3-2.2-.1-1.9 6.5Zm20.9-4.4c-1.4 3.7-.2 11.7 1.8 11.7 2.8 0 4.1-2.2 4.1-7 0-6.6-4-9.8-6-4.7Zm-86-.2c-3.6.8-7.1 4-7.1 6.5 0 1-1.2 1.4-3.4 1.4-4.2 0-6.7 2.8-9.1 10.1-1.8 5.4-1.4 9.2 1.2 12.1 3.4 3.8 6.1 1 3.7-3.7-1.8-3.5-1.8-4.9.2-8.8 2.1-4.2 1.8-4 6.1-4.6 3-.5 4.1-1.3 5.5-4 2.2-4.4 3.5-5 12-5 9-.1 13.7 2.2 17.4 8.4 3.2 5.5 4 11 2.4 16-.7 2-1 3.9-.7 4.2.3.3 2.5 0 4.9-.4 9.1-2 15 2.2 15 10.7 0 3 .5 5.3 1.2 5.5l3.9 1a20 20 0 0 1 6.7 4.1c4.2 3.8 7 4 7 .5 0-2-4.2-5.6-9.8-8.5-2.3-1.2-3.2-2.3-3.2-4.1 0-7.6-6-13.7-14.9-15.1-4-.6-4.1-.8-4.1-4.3a24.3 24.3 0 0 0-12.3-20.2c-4.4-2.3-16-3.2-22.7-1.8Zm44.3.2c-.3.8-.4 3.6-.2 6.3.3 4.5.5 4.9 2.8 4.9 2.4 0 2.5-.3 2.5-6 0-5.5-.2-6-2.3-6.3-1.2-.2-2.4.3-2.8 1.1Zm63.1-.1c-.2.7-.5 3.9-.7 7-.3 5 0 6 1.6 6.4 3 1 3.7-.9 3.4-7.7-.2-5.1-.6-6.4-2-6.7-1-.2-2 .2-2.3 1Zm42.1.5c-.8.8-.8 10.6 0 12.7.4 1.1 1 1.3 2.3.6 1.3-.6 1.8-2.4 2-6.4.2-4.5-.1-5.7-1.7-6.5-1-.6-2.2-.7-2.6-.4Zm-22.4 6c.3 5 .6 5.8 2.4 6.1 2 .3 2.2-.2 2.5-4.8.5-6.4.3-7-2.7-7-2.4 0-2.5.2-2.2 5.8Zm43 2c.3 6 .5 6.8 2.3 6.8 1.8 0 2-.7 2-6.5 0-6-.2-6.5-2.3-6.8-2.2-.3-2.3-.1-2 6.5Zm20.8.7c0 4.2-.4 7.6-.8 7.6-1.5 0-5.1 7.6-5.4 11-.3 3 0 3.5 1.9 3.8 1.8.3 2.4-.4 3.4-4 2.4-8.5 8-12.2 17.3-11.6 6.7.4 9.4 1.9 14 7.7 2.4 3.1 2.7 4.3 2.4 9-.4 7 1 7.5 6.2 2.2 6.2-6.2 9.2-7.5 16.9-6.7 5 .4 7 1.1 9 3 3.3 3.2 5.8 3.3 6.6.4 2.1-8 3.4-10.7 6.6-14 6.5-6.4 16.7-5.3 23.8 2.8 2.1 2.4 4.6 4.4 5.4 4.4 1 0 3.3-1.9 5.4-4.1 6-6.6 13.1-8.6 19.2-5.4 3.9 2 7 8.8 6.3 14.2-.3 3.5 0 4.4 1.4 5 1 .4 2 .2 2.2-.5.6-2 6.7-1.4 8.7.8 2.3 2.5 5.9 2.2 6.3-.5 1.6-10 15.1-16.4 21.4-10.3 1.3 1.3 3.5 3 5 3.7 2.5 1.3 2.8 1.2 6.6-2.8 3.3-3.5 4.5-4.1 7.9-4.1 5.8 0 12.5 2.6 16.6 6.5 4.5 4.3 6.5 4.4 8 .6 1.8-5 11.3-8.1 18.5-6.2a25 25 0 0 1 7.9 4.6c6 5 7.7 9.5 8.2 20.8.1 2.7 3.7 2 6-1.2 3.1-4.4 8.5-6.1 15-5 3 .6 6.6 2 8 3 3.8 3 5.8 2.4 8.2-2.4 6.7-13.3 20.2-18.6 29.7-11.7a22 22 0 0 1 5.7 6c1.8 3.5 4.4 3.9 7 1 2.3-2.6 7.8-3.5 11.4-2 3.5 1.4 10.1 7.8 10.1 9.7 0 1.4 1.8 1.7 4.4.7 2.6-1 2-2.6-3.7-8.7-4.3-5-6-6.1-10.4-7.2-4.6-1.2-5.9-1.2-9.9.2-4.5 1.5-4.6 1.5-7.2-1-6.4-5.8-9.4-7.2-15.7-7.2-3.8 0-7.3.7-9.6 1.8a35.6 35.6 0 0 0-14 12.7l-1.8 3.8-3.6-1.8c-2-1-6.2-2.1-9.5-2.5-5-.6-6.7-.4-10 1.4a25 25 0 0 1-4.8 2.1c-.4 0-1.4-2.1-2.1-4.8-3.5-12-16-20.3-27.5-18.1-4.7.9-10 3.1-12.6 5.4-1.3 1.1-2.7.8-9-2.3-9.7-4.7-15.7-5-21.6-1l-4 2.9-4.8-2c-10.4-4.5-22.2-1.5-25.8 6.6-1.6 3.7-2.2 4.2-3.8 3.3-1-.5-3-1-4.2-1-2 0-2.7-.9-4.2-6-2.2-7.3-5-10.5-10.7-12-6.9-1.9-12.2-.8-19 4l-6 4-2.4-2.4c-5.7-6.1-18.4-8.8-25.2-5.3a24.8 24.8 0 0 0-10.3 12.1c-.6 2-1.3 3.6-1.5 3.6a25 25 0 0 1-3.1-1.5c-1.8-1-5.7-1.5-10-1.5-5.7 0-8 .5-11.8 2.5a51.7 51.7 0 0 1-5 2.5c-.3 0-.7-1.3-1-3-1-3.7-4-7.6-7.6-9.5-2.6-1.3-3-2.1-3.2-6.7-.2-4-.7-5.4-2-5.6-1.3-.3-1.7.6-2 3.8l-.3 4.2-17.4.3-.3-4.5c-.2-3.3-.7-4.6-2-4.8-1.6-.3-1.8.6-1.8 7.2Zm41-1.4c0 5.3.2 6.1 1.8 5.8 1.4-.3 1.7-1.4 1.7-5.8s-.3-5.5-1.8-5.8c-1.5-.3-1.7.5-1.7 5.8Zm-724.1 17.5a3470.3 3470.3 0 0 0 26 67c.6 1.1 1.9 4.6 3 7.8 1.2 3.2 3 7.5 4 9.5s2.2 4.7 2.5 6c.7 2 .5 2.1-4.6 1.7l-18.8-1c-7.4-.3-14.8-.8-16.5-1.1l-3-.5-.3-54.2c-.3-61.3-1-58 7.7-35.2Zm1178.6-12.4a24.2 24.2 0 0 0-11.7 11.6l-1.8 4.2-3.6-2.4c-9.5-6.4-21.8-2.7-27 8.2l-1.5 3.4-2-2.5c-1.9-2.4-9.4-5.6-13.3-5.6-1.9 0-6.2-5.4-5.8-7.2.3-1.2-7.8-8.9-10.4-9.8-3.5-1.4-9.5-1.2-12 .3-5.6 3.3-12 10.7-10.6 12.2.4.5-.2.5-1.3 0-9.4-3.5-15.5-.2-21.2 11.5-2 3.8-2 4.7-.9 5.9 1.9 1.8 3 1 5.6-4.4 3.8-7.9 10.4-10.7 15.8-6.9 2.1 1.5 2.5 1.5 4.2 0 1-1 2-3 2.3-4.6.4-1.6 2-4.3 3.5-6.1 2.5-2.8 3.6-3.3 7.9-3.3 4 0 5.7.5 8.6 2.7 4.4 3.3 5.6 5.4 6.5 11l.8 4.2 12.3-.6 5 5c5.5 5.6 6.8 5.4 9.5-.9 2-5 7.2-9.8 11.1-10.6 5.4-1 9.2.4 13 4.9 3 3.4 3.9 4 5.3 3 1-.5 2.2-2.5 2.7-4.4 2.8-9.5 9.1-15 17.9-15.7 9.5-.8 18.6 6 19.6 14.6.6 5.4 2.8 6.6 5.7 3.3 2-2.4 6-2.7 8.6-.9 1.4 1.1 4.8 7.7 4.7 9.3 0 3 .3 3.5 1.9 3.5 2.6 0 3.5-5.2 1.5-9.8-2.9-7-6.5-9.4-14.2-9.4-3.3 0-4.2-.3-4.2-1.7 0-2.8-6-8.7-11.6-11.5-6.5-3.3-15-3.5-20.9-.5ZM142 614.2c0 .5-.4.8-.8.8s-1.3 1.4-1.9 3l-1.1 3H116v-7.6h13c7.1 0 13 .4 13 .9Zm258.7.8h30.2l-3.4 8H188l-.9-2.2-1.5-4.3c-.6-2-.2-2 92.2-1.7l122.9.2Zm409.2 3.1c-3 1-7.5 3.6-9.8 5.5l-4.2 3.6-6.3-3c-7.6-3.8-12.7-4-19.7-1-4.6 2-5 2-8.3.4-7-3.3-14-.8-17.4 6.2-3.3 7 .6 9.5 4.2 2.8 1.7-3.2 5.2-5.6 8.1-5.6.8 0 3 1.4 4.8 3 4.3 3.8 5.4 3.8 8.7-.2 2.4-2.9 3.1-3.2 8.7-3.2 5 0 6.9.6 11.2 3.2 2.8 1.8 5.7 3.2 6.4 3.2.7 0 3.2-1.8 5.6-4 2.3-2.2 4.9-4 5.6-4 .7 0 1.8-.6 2.4-1.4.6-.8 3.2-1.7 5.7-2 6.3-1 10.6 2 11.7 8 1.2 6 2.7 6.6 7.7 3 1.8-1.5 4.8-2.8 6.6-3.2 4.4-.8 9.9 2 11.4 5.7 1.8 4.1 4 3.8 4-.7 0-8.9-11.3-12.8-23.2-8-1.2.6-2-.1-3.3-2.8-3.2-6.8-10.9-8.8-20.6-5.5Zm-339.5 7c-.4.7-.7 5.2-.6 10 0 5-.1 8.9-.4 8.9-.2 0-2.3-1.4-4.6-3-4-2.9-9.8-4-9.8-2 0 .5 2.4 2.7 5.3 4.8 9.2 7 9.8 8 10.4 17.6.6 8.2.7 8.6 3 8.6 1.7 0 2.4-.7 2.8-2.8 1.2-5.5 5.8-15.9 10.2-23 4-6.6 5-10.2 2.5-10.2-1.6 0-8.2 8.7-11.3 14.8l-2.9 5.7v-13.7c0-7.5-.3-14.3-.6-15.2-.7-1.9-3-2.1-4-.4Zm109.2.5c-.3.9-.6 4.7-.6 8.5 0 6.6-.9 8.4-2.7 5.6-.5-.6-3.8-4-7.4-7.5-4.6-4.5-7-6-8.2-5.6-3.4 1.3-1.5 4.4 7.8 13 8.7 8.2 9.5 9.2 9.5 12.6v3.8h-20.4c-17.1 0-20.6.2-21.6 1.5-.9 1-1 2-.3 2.6 1.2 1.2 385.2 1.4 386.5.1.4-.4.2-1.6-.4-2.5-1.2-1.6-12.5-1.7-163.6-1.7-89.3 0-162.9-.3-163.7-.6-1.6-.7 1.3-6.6 5.7-11.4 3.4-3.7 6-8.5 5-9.4-.9-1-5.2-.7-5.2.3 0 .5-2 3.3-4.3 6.3-2.4 2.9-5.3 7.3-6.4 9.8-1.4 3.3-2.6 4.6-4.2 4.7-2.2.2-2.2 0-1.5-5 .9-5.4.7-24.4-.2-25.9-.9-1.4-3.1-.9-3.8.8Zm-155 2.2c.5.1.8 2.1.6 4.5l-.4 4.2H193.7l-1.1-3.2c-.6-1.7-1.4-3.5-1.8-3.9-.5-.4-.8-1-.8-1.3 0-.5 231.7-.8 234.5-.3Zm255.4 8.6c0 1.8-.6 5.2-1.4 7.4-1.5 4-1.3 5.2 1 5.2 3.6 0 6.7-9.7 4.4-14-1.7-3.3-4-2.5-4 1.4Zm-252.6 7c3.9 6 12.3 5.6-113.4 5.6H199l-1.5-3.6-1.5-4c0-.2 51.7-.4 114.9-.4h114.9l1.6 2.5Zm618.1.8-.7 4.3c-.3 2.5-.8 3-3.3 3.5-4.2.7-4.3 4.4-.1 4.8l2.9.4-.6 6.6c-.7 8.1-6.5 53.3-6.9 53.7-.3.3-26.8.8-31.5.6-2 0-2.3-.6-2.3-5.4 0-12.4-3.5-16.6-13.3-16.6-6.2 0-25-1.1-25.5-1.5-.1-.2-.2-10.2-.2-22.3 0-17.7-.4-22.3-1.5-23.3-.8-.6-5.6-1.2-11.4-1.3-8.3-.2-10.2 0-10.6 1.3-.5 1.8-2.2 21.9-3 35.4-.3 5.5-.8 10.2-1 10.4-.3.3-6.9.5-14.7.4-7.9 0-16.7.4-19.5 1-6.2 1.1-6 .8-6.7 15.3l-.5 10.1-3.9-.6c-2-.5-6.2-1.1-9.2-1.5a2598.5 2598.5 0 0 1-26.5-3 35 35 0 0 1-8.5-2.1c-4-1.7-8.6-.7-9.6 2-.3.9 1 4.8 2.8 8.8 1.9 4 5 11.1 6.8 15.8a686.5 686.5 0 0 0 9 22.5c0 .3-2 .5-4.3.5s-6.2 1-8.7 2c-6.5 3-13 3.6-18 1.6-8.1-3.2-9.7-.8-2.4 3.6 5.8 3.6 11.4 3.6 21.4.2a33.6 33.6 0 0 1 24-.6 37.7 37.7 0 0 0 25.5-.4c9-2.8 9.7-2.8 24.2 1.7 14.4 4.4 23.3 4 41.6-2.2 4.3-1.5 6.2-1.7 7.7-.9 1.1.6 6.2 2.1 11.4 3.5a41.2 41.2 0 0 0 31.6-2.5c3.5-1.8 3.7-1.7 11 .6 11 3.5 21.3 3.4 36.9-.3 5.8-1.4 7-1.4 13.2.2a48.9 48.9 0 0 0 27-.6c5.7-2 6-2 12.6-.4 11.3 2.9 21.1 3.1 26.6.7 4.5-2 6.7-4.5 5.3-6-.3-.3-2.8.2-5.4 1.1-2.6 1-6.6 1.7-9 1.7-3.8 0-19.2-2.7-20-3.5-.2-.1 2.6-6 6.2-12.9l6.5-12.6-2.9-1.5c-2.2-1.2-6.7-1.5-19.5-1.5H1082v-3.8c-.1-5.5-2.2-10.5-5-12a45 45 0 0 0-14.5-1.2h-19.8l.8-5.8.8-7c0-1.4-.5-1.4 12-1.2 8 0 9.8-.2 10.3-1.5 1.2-3-1.3-4.2-8.4-4.3-12.8 0-12.2 0-12.2-3 0-1.5.7-7.4 1.5-13.2l2.2-17.5.8-7 4.5-.5c3.7-.4 4.5-.9 4.5-2.5s-.8-2.1-4-2.5c-3.8-.5-4-.7-4.5-4.5-.4-3.2-1-4-2.8-4.3-1.2-.2-2.4.3-2.7 1Zm-47 6c-7.7.3-15.7.9-17.7 1.3-4.2.8-6.7 3-5.2 4.5 1.2 1.2 3.8 1.3 14.4.1 4.7-.5 14.4-.7 21.6-.5 11.6.3 13.3.2 13.8-1.3 1.7-4.4-3.4-5.2-26.9-4.2ZM957.9 674v21l-2.2.1-7.6.3-5.4.2.7-12.6c.7-13.4 1.3-20.6 2.2-25.7.5-3.1.6-3.2 6.2-3.6l5.8-.5c.1-.1.2 9.3.3 20.8Zm344.6-18.2-120 .5-112 .2v5l70.5-.3 172.8-.2c102 0 102.2 0 102.2-2 0-1.1-.6-2.3-1.3-2.5-1.3-.6-99-1.2-112.2-.7Zm-298.5 14c-16.1.2-19 .6-19 2.6s5.4 2.7 20.7 2.5c13.8-.1 17.3-.8 17.3-3.3 0-1.9-2.5-2.1-19-1.9Zm-133.3 6.8c-.7.5-192 1.5-402.7 2-137.2.4-249.9 1-250.4 1.5-.5.4-.6 1.5-.2 2.5.6 1.6 17.8 1.7 309.9 1 170-.4 316-.9 324.2-1l25.8-.5c8.8 0 10.9-.4 11.4-1.7 1-2.7-1.2-3.5-9.7-3.7h-8.3Zm304 0-60.3.7c-46 .3-60.6.7-62.4 1.7l-2.4 1.3 2.4 1.9c1.5 1.2 3.2 1.7 4.4 1.3 1.2-.3 81.3-.8 178.1-1.1 96.8-.3 176.6-.7 177.3-1 .6-.2 1.2-1.3 1.2-2.4 0-2-.6-2-18.3-2-39.2-.3-219.9-.5-220-.4Zm79.3 23.9c-3.1 1.8-18.7 2-26 .3-5.4-1.2-7-.7-5.4 2 1.8 2.8 8.2 4.3 18.4 4.4 7 .1 10.6-.3 13.8-1.6 4.2-1.8 4.2-1.8 11 .9a30.2 30.2 0 0 0 23.7.5l5.4-2.2 5.4 2c9 3.4 24 1.9 25.4-2.5.3-.8-.6-.9-3.2-.3-5.8 1.3-16.1.1-23-2.6l-6.4-2.6-3.3 2.4c-2.8 2-4.5 2.3-11.8 2.3-6.8 0-9.3-.5-12.7-2.3-4.8-2.5-7.8-2.7-11.3-.7Zm-258.6 2.4c1.3 1.1 1.6 3.7 1.6 15.8V733l-10.3-.6c-5.6-.4-12.5-1-15.2-1.6-2.8-.5-7.8-1.1-11.1-1.4-3.4-.2-10.1-1-15-1.5l-15.4-1.6c-3.6-.3-8.5-1-11-1.4-2.5-.5-6.8-1.2-9.5-1.5-10-1-9 0-8.6-11.1.2-5.8.8-10.2 1.5-10.7.6-.4 21.4-.7 46.2-.5 36 .3 45.5.6 46.8 1.7ZM637 704a32.8 32.8 0 0 1-20.3.5c-7.5-2-8.7-1.9-8.7.4 0 4.8 19.6 7 32 3.5 5.6-1.5 6.3-1.6 9.8 0 10.8 4.6 25 5 33.5.7 5.6-2.7 4.8-4.2-1.6-3-10.4 2-29.9 0-33.3-3.4-1.2-1.2-6.7-.6-11.4 1.3Zm506.6 1.4c-3.7 1.8-4.5 1.8-13.3.6-7-1-9.7-1-10.5-.2-1.8 1.8 6.7 5 14.8 5.8 5.1.5 7.8.2 10.6-1 3.4-1.3 4-1.3 9 .6 9.3 3.6 27.3 2.1 30.3-2.6 1.5-2.4 0-3-5.2-1.7a39.4 39.4 0 0 1-26.8-2c-4.3-1.7-4.6-1.7-9 .5Zm-1085 .5a37.7 37.7 0 0 1-15 1.5c-5.5-.1-11.2-.4-12.6-.6-3.4-.4-3.8 2.5-.6 4 6.6 3 22.7 2.3 33-1.4 4-1.4 5.4-1.5 8-.6 2.5 1 3.3 1 4.6-.4 4-4.1-8-5.9-17.3-2.5Zm257.4.7c-6.8 1.7-17 1.9-23.4.4-5.4-1.2-7.9-.2-5.7 2.3 2.9 3.5 19.5 4.7 30 2 5.8-1.4 6.6-1.4 9 0 8 4.7 27.3 4 34.2-1.4 2-1.6 2.2-2 .9-2.9-.8-.5-2.2-.7-3-.3a94 94 0 0 1-10.4 2.1l-9 1.6-8-2.7a75.4 75.4 0 0 0-8.6-2.6l-6 1.5Zm128.4-.8a50.5 50.5 0 0 1-28.7 2.5 27 27 0 0 0-8.2-1c-4.5 1.8 2 5.6 11.4 6.8 7.1.9 18.6-.3 25-2.6 3.6-1.2 4.2-1.2 6.3.5 6.3 4.9 17.3 4.9 33.5-.1 2.4-.7 4-.6 6.9.6a36 36 0 0 0 19.9 1.5c10.7-2.2 12-2.2 19 0 8 2.4 15.2 2.6 22.6.4 6.7-2 8.6-3.5 6.5-5.3-1.2-1-2.6-1-7 .3a37 37 0 0 1-22.4-.5c-5.7-2-6.8-2-12.5-.8a48.6 48.6 0 0 1-23.7.4c-6.2-2.2-7-2.3-10.5-1.3-1.6.5-6.3 1.5-10.3 2.4-8.4 1.7-16.2.7-20.5-2.7-2.6-2-5.6-2.5-7.3-1Zm319.1 4.3a54.3 54.3 0 0 1-25 1c-2.2-.6-4.4-.6-4.8-.2-1.5 1.5.6 4.1 4.2 5 10.4 2.7 21 2.2 28.6-1.4 3-1.5 3.7-1.5 8.2 0 5.8 2.2 19 2.5 25 .7 3.3-1 4.3-1.8 4.3-3.4 0-1.9-.3-2-4.8-1.2-6.7 1.2-17.5.7-23.5-1-6.3-2-7.2-2-12.2.5Zm145.5 1c-1.9 3.4-.8 7.2 2.3 8.7 2 1 3.2 1 3.9.4 1.6-1.6 2.1-8.1.8-9.7-1.8-2.2-5.7-1.8-7 .5Zm19.3-1c-2.4 3-2 9.5.7 11 2.8 1.4 5.5.4 6.8-2.7 2.3-5 1.2-7.6-3.9-8.9-1.6-.4-3-.1-3.6.7Zm21.8 1.5c-4.4 5.6-1 14.3 4.9 12.9 4.4-1.1 6.2-3.5 5.7-7.7-.9-7.4-6.7-10.2-10.6-5.2Zm22.1-1.4c-1.8 1.8-1.6 14.2.3 15.8 1.7 1.4 7.8 1.7 11.3.6 2-.7 2.2-1.4 2.2-7.2 0-9.2-.9-10.4-7.3-10.4-3 0-5.8.5-6.5 1.2Zm-744.7 5c-1 2.5-.3 3.9 1.4 2.9 1-.6 1-1.3.3-2.7-1-1.8-1.1-1.8-1.7-.2Zm637 7.6c7.7 1.1 17.4 2.3 21.5 2.7 4.1.3 9.8 1 12.5 1.6 6.1 1.1 17.2 2.6 28.5 3.9 4.7.5 14.4 1.5 21.5 2.4 19.6 2.3 28 3 57.6 5 3.7.3 27.8.8 53.6 1 44.3.7 53.3 1 53.3 2.2 0 .8-5.2 9.9-6 10.4-.3.3-1.9 2.8-3.4 5.6-3 5.6-4.8 6.8-11.6 8.4-7 1.5-12.8 1.2-21-1l-7.5-2.1-7 2.2a66.7 66.7 0 0 1-35.5.1c-7-2.8-7.5-2.8-14.6.5-5.2 2.4-7 2.7-15.9 2.7-8.6 0-11.1-.5-18-3l-8-3-5 1.8a92.7 92.7 0 0 1-14.8 4.4c-6 1.5-8 1.5-15.4.5-4.7-.7-12-2.3-16-3.7-9.5-3-12.2-3-21.4.2a29.2 29.2 0 0 1-14.4 2 43 43 0 0 1-11.5-2.4c-4.4-1.9-4.6-2.2-8.8-12.8-2.3-6-4.2-11.3-4.2-11.7 0-.9 3.7-.6 27.5 1.9 21 2.2 64.6 5.3 66.2 4.7 2.3-.9 1-3.6-1.7-3.8a2817.3 2817.3 0 0 1-39-3 267.2 267.2 0 0 1-21-2c-26.5-2.2-33.9-3-34.6-3.8-.2-.2-1.7-3.6-3.4-7.6l-3-7.3 3.3.5 17.2 2.5Zm210.2 1.7c.6.2 1.3 2.6 1.5 5.4.3 4.9.2 5.1-2.2 5.1-16.2.3-49-.5-63.6-1.6l-8-.6.1-8.8 31.5-.2c29.5-.3 37.9-.1 40.7.7Zm274.8 1.2c-4.8 2-7.5 2.6-13.4 2.5-4 0-8.9-.6-10.7-1.2-4-1.4-5.8-.6-4.4 2 2.3 4.4 20 5.4 29.1 1.6 5-2 6-2.1 8-1a26 26 0 0 0 6.9 2l6 1c1.7.2 12.3-1.9 15-3 1-.4 3.2 0 5.2.8 9.6 4 23.8 2.6 23.8-2.5 0-2-.3-2-3.3-1.3-5.7 1.5-16 1-18.7-.9-3-2.1-5.5-2.1-11-.2a32.8 32.8 0 0 1-21.5-.4c-2.6-1.2-4.8-2-4.9-2l-6.1 2.6ZM231 736a35.1 35.1 0 0 1-6.6 7.5c-2.3.9-8.3.7-13.3-.5-3.7-.8-5-.7-8.8 1.2-5.3 2.6-6.4 2.6-17 .4-7.8-1.6-8.6-1.6-13.4 0a49.8 49.8 0 0 1-23.9-.5 31.4 31.4 0 0 0-16.3.2c-2 1-17.6 1.4-23.7.4-1.4-.2-4.6-.4-7.2-.5-3.9 0-5.3-.7-8.7-4-2.3-2-4.1-4.2-4.1-4.8 0-1.5 25.3-3.2 58-3.8 52.8-1 87-2.2 87.9-3 .2-.3.8-.2 1.2 0 .5.4-1.4 3.7-4.1 7.4Zm123.6.6c-2.7 2-15.1 4.7-22 4.6-3.2 0-8.3-.8-11.2-1.7-8.4-2.6-11.6 0-4.4 3.6 8.9 4.5 20.7 4.5 35.8-.2l6.4-2 6.2 2.4c8 3 24.6 3.3 31.6.5 4.5-1.8 4.6-1.8 10.1.7 11.5 5 24.4 5.7 34.9 1.7 3.2-1.2 4.5-2.2 4.5-3.6 0-2.2.4-2.2-11.5-.4-10 1.5-18 .5-25.7-3.1-7.2-3.4-8-3.5-12-1.5a52 52 0 0 1-33.7-.6c-4.7-2.2-6.4-2.3-9-.4Zm230.6 2.8c.8 5.8 17.1 8.8 29.3 5.2 5.4-1.5 6-1.5 9.4.1 2.4 1.2 6.1 1.8 11.1 1.8 9.4.1 14-.9 17-3.5 3.4-3.3 1.2-4.3-5.4-2.4a33 33 0 0 1-22-1.5l-4.6-2-4.7 2a39 39 0 0 1-25.2 0c-5.4-2.5-5.3-2.5-5 .3Zm630.4-.6c-2 2-11 4.5-18.1 5-5.8.4-9.5.1-13.4-1-5.4-1.7-7.1-1.5-7.1.6s4.3 4 11.7 5.2c8.6 1.4 17.2.5 24.4-2.6l5-2.2 8.5 2.8c7.2 2.4 9.4 2.7 15.8 2.2 4.1-.3 10.2-1.5 13.6-2.8l6.1-2.2 6.2 2.1c7.7 2.7 19 2.9 26.2.4 6-2 7-4.9 1.5-4.4l-13 .4c-8 .1-10.3-.2-14.9-2.2-4.7-2-5.7-2.2-8.5-1-9.7 4-11.5 4.3-19.1 4.3-9.6 0-12.5-.5-16.9-3.2-3.4-2.1-6.7-2.7-8-1.4Zm-495 4.3c-4.5 2.9-12.2 3.5-19.5 1.6-9.2-2.4-11-.4-3.8 3.9 3.3 1.9 5.8 2.5 10.1 2.5 6.8 0 14.4-1.7 16.8-3.7 1.5-1.3 2-1.3 4.5.4 8.7 5.9 17.8 6.4 33.1 1.8 2.5-.8 4.9-1 5.2-.6 1 1.6 4.7 3 9.6 3.6 5.7.8 14.9-2 14.9-4.5 0-1.6-.8-1.6-11-.5-4.8.6-7 .3-11-1.3-4.2-1.6-6-1.9-9.9-1.1-2.6.5-5 1-5.5 1.3-.4.3-2.8.8-5.4 1.1-5 .7-17.7-2.6-19.8-5.1-1.6-1.9-4.8-1.6-8.3.6ZM55 752.4c-.7.8-4.2 2.1-8 3-6.4 1.3-13.8 1-21.2-.9-3.4-.9-4.7 1-2.4 3.5 3.8 4.2 22 4.8 30.6 1l4.4-1.9 7 2.4c9.7 3.4 21.7 3 29.2-.9 5.2-2.8 7.1-5.2 5.4-6.9-.5-.5-1.8-.6-2.8-.2l-2.3 1c-.3 0-2.3.9-4.5 2-6 2.9-16.1 2.5-24.9-.8-7.9-3.1-9-3.2-10.5-1.3Zm469.4 2.7c-7.4 2.3-19 2.5-28 .3-4.8-1-7.1-1.2-7.9-.4-2.3 2.3 5.9 5.9 17.2 7.5 4.7.7 17.2-1 23-2.9 3.1-1 4.3-1 10.1 1.2 5.5 2 7.8 2.3 14.1 2 8.6-.6 14.3-2.7 16-5.7 1.7-3.2-1.1-3.7-6.8-1.3-6 2.6-15.4 2.3-23.2-.7-6.5-2.5-6.7-2.5-14.5 0Zm-261 12.5a50.8 50.8 0 0 1-25 1.2c-7.4-1.3-8.1-1.3-8.2.3-.2 1.6 1.3 2.6 7.5 5 4.1 1.5 18.5.7 26-1.6 4.9-1.5 5.4-1.5 9 .4 5.3 2.7 15 5.1 20.8 5.1 2.7 0 8-1 12-2.1l7-2.1 4.4 2.2c9.3 4.8 32.8 3 33.8-2.4.3-1.6 0-1.8-2-1.1-1.2.4-7 .9-12.8 1-9 .3-11.6 0-17.8-2.1-6.9-2.3-7.6-2.3-11.6-1a47 47 0 0 1-26.2.2c-1.2-.2-4-1.4-6.2-2.5-5-2.5-6.8-2.6-10.7-.5Zm389.3 12a50.8 50.8 0 0 1-36.1 3c-3.5-1.4-5-1.6-5.9-.8-1.7 1.7.6 3.8 6.5 5.9a43 43 0 0 0 15.2 1.7c8.8-.1 11-.5 18.3-3.4l8.3-3.2 8.3 3c10.2 3.5 21 4.2 29 1.7 5-1.6 5.4-1.6 10.6.6 11.9 4.7 36.5 3 36.5-2.6 0-2.3-1.4-2.3-8.5-.5-7.3 1.9-20.5.8-27.5-2.4l-6-2.7-4.5 2c-6.3 2.8-18 2.2-28-1.4-10.1-3.7-10.8-3.7-16.2-1Zm612.7.2c-5.3 1.8-9 2.4-15 2.4-7.5 0-9-.2-14-1.7-1.3-.4-2.6 0-3.4.9-1 1.3-.7 1.7 2.6 3.1 6.9 3 17.8 3.5 26.8 1.2 4.4-1 8.6-2.3 9.4-2.7.8-.4 4 .3 7.5 1.8a50.9 50.9 0 0 0 32.9 0l6.7-2.6 6.3 2.6a48.3 48.3 0 0 0 31 .3c3.2-1.3 5.7-2.9 5.7-3.7 0-1.8-1.8-1.8-9.4.2-7.8 2-16 1.4-26.1-2.1l-7.7-2.7-4.6 2a46.4 46.4 0 0 1-35.1.4c-5.3-2.6-4.7-2.6-13.6.6Zm-1133.3-.2c-1.3.9-5.5 2.5-9.5 3.6-8 2.3-17.6 2-22.8-.7-3.7-2-4.9-1.9-4.9.3 0 1 1.7 2.8 3.8 4.2 3.3 2.2 4.7 2.5 13.2 2.5 7.4 0 10.8-.6 15.5-2.4 7.3-2.8 7.3-2.8 16-.1 9.5 3 19 3 28.1.2l7.2-2.2 4.3 2c2.4 1 6.6 2 9.2 2 5 0 11.7-2.2 11.7-4 0-1.2-.8-1.3-8.3-1-5.7.2-9-.6-15.2-3.7-2.8-1.4-3.5-1.3-9.3 1.1a40 40 0 0 1-33-1.8c-3.8-2-3.3-2-6 0Zm-56.5 2c-1.4 1.4-.6 2.4 1.9 2.4 1.6 0 2.4-.5 2.2-1.3-.5-1.4-3-2.1-4.1-1Zm370.3 4.1a39.9 39.9 0 0 1-28.6 2.6c-4.7-1.3-6.7-1.4-7.5-.6-3.5 3.5 5 6.7 18.1 6.7 8.8 0 11.6-.5 17.3-2.6l6.8-2.6 7.2 2.9c8.8 3.5 18 3.8 28.5 1 8-2 10.2-3.4 10.2-6.2 0-2.4.1-2.4-9 .7a31.4 31.4 0 0 1-16.2 2c-6.6-.3-10-1.1-13.9-3-5.7-3-8-3-12.9-.9Zm703.4 8.7a46 46 0 0 1-22.2 5.6c-7 0-10-.4-17-2.5-1.8-.6-2.2-.3-2.2 1.2 0 3 9.4 6.3 17.8 6.3 8.7 0 20-2.5 23.5-5l2.8-2.1 4.2 2c12.5 5.9 27.4 6.7 37.2 2 8.8-4.3 6.2-6.5-4-3.3a48 48 0 0 1-33.2-4.1c-2.8-1.9-4.3-1.9-6.9 0ZM781 802c-6 3.4-7 3.6-14.5 3.5-4.4-.1-9.1-.3-10.5-.5-1.7-.3-2.5.1-2.8 1.3-.6 2.9 5.4 5.2 13.3 5.2 5.8 0 8.3-.6 14.3-3.4l7.3-3.3 5.7 2.4a43 43 0 0 0 32.8-.7c2.7-1.2 3.8-1 10.5 1.3 6.5 2.3 8.4 2.5 16.6 2 10-.6 18.3-3.4 18.3-6.1 0-2-2.3-2-7.5-.1a52.3 52.3 0 0 1-28-1l-7-2.3-5 2a51.6 51.6 0 0 1-13.1 2.5c-7.3.5-9 .3-15.5-2.3a52 52 0 0 1-7.9-3.5c-.3-.3-3.4 1-7 3Zm194.8.7c-9.1 4.8-23 6-34 3.1-3.1-.8-6-1.2-6.2-1-1.7 1.7 0 3.3 5.6 5.2 10 3.4 25.2 2.5 34.4-2l4.2-2 5.2 2.1a49.8 49.8 0 0 0 35 0c3.8-1.3 6.7-1.7 7.3-1.2a47 47 0 0 0 28.6 4.2c5-1.3 11.9-7 8.6-7-1.1 0-4.2.7-7 1.5a41.2 41.2 0 0 1-28.5-3c-3-1.6-3.5-1.6-11.6 1a50.2 50.2 0 0 1-34.4-.9c-3.9-1.2-5-1.2-7.2 0Zm-395 2.5c-1 .5-1.8.7-1.8.4a39.2 39.2 0 0 1-22.5 1c-4.7-1-7.2-1.2-7.9-.5-2.7 2.7 5.4 5.9 16.9 6.7 6.5.4 9.1.1 14-1.5 4-1.3 6.5-1.7 7.6-1.1 12 6.4 33.2 5.7 39.5-1.2 1.9-2 1.8-2-1.6-1.5-17.3 3-22.5 2.8-33.1-1-7.4-2.7-8.6-2.8-11.1-1.3Z" clip-rule="evenodd"/></svg>