<svg xmlns="http://www.w3.org/2000/svg" width="1406" height="770" fill="none"><path fill="#000" fill-rule="evenodd" d="M120.4.7a38.7 38.7 0 0 0-31 21.7c-1.9 3.8-3.5 7.8-3.5 8.8 0 1.5-.4 1.6-3.2.8-5-1.4-15-1-20.7.8a35 35 0 0 0-17.1 14.4A28.4 28.4 0 0 0 42 59.8c0 2-.5 2.2-5.9 2.2-10.1-.2-16.7 4.6-17.9 13-.6 5 1.8 6.3 4.5 2.4 1-1.5 3.2-4.1 5-6 3-3 4-3.3 8.8-3.3 3 0 6.4.6 7.4 1.2 3 2 4 0 4.4-8.3.4-8.6 2-12.1 7.5-17.2 8.5-7.6 24.3-8.7 31-2 3 3 4.7.7 5.4-6.8C94 17.5 109.4 6 131.4 6c13 0 26.6 8.3 32.5 19.9 1.7 3.4 2.7 6.5 4.5 15.4.7 3.4 2.4 3.4 7.1.2 6.3-4.2 17.2-3 23.2 2.7 3.7 3.5 5.4 7.8 6 15.7l.6 7.3 3.5-.8c2-.4 6.2-.8 9.3-.8 7-.1 10.3 2.5 12 9.1.9 3.6 1.5 4.3 3.5 4.3s2.3-.4 2.3-4c0-10-9.3-17.4-20.7-16.3-4.2.4-4.3.4-4.3-2.9 0-4.4-5-15-8.4-17.6-5-3.9-12-5.5-21.2-4.9-7.8.6-8.4.5-8.4-1.3 0-3.6-5.3-13.2-10.4-18.8C153 2.8 137.7-1.8 120.4.7ZM1236.8 20a45.8 45.8 0 0 0-32.3 27.6c-1.9 4.6-2.8 5.8-4.2 5.5l-7.9-.8a29 29 0 0 0-29.6 21.7c-1 4.4-1.5 5-3.3 4.3-6.7-2.1-16.4.3-21.8 5.4-5.8 5.4-8.8 16.4-5.3 19.3 2.2 1.8 4.5-.4 4.5-4.2 0-11.1 13.9-18.4 24.4-12.7 4.8 2.5 6.6 1.3 6.7-4.5 0-3.9 3.3-12.2 6.1-15.6 6.7-8 21.9-10.3 27.4-4.3 3 3.2 5.8 2.7 6.2-1.2 1-9.3 6-18.3 14.3-25.8 6.7-6.1 14.3-9 23.8-8.9 9 0 15.8 2.3 22 7.2 7.4 5.8 10.8 12 15.4 28 1.6 5.7 4.2 6 7.5 1 4.7-7 15-9.7 25.6-6.6 10.4 3 16 10.4 17.4 23.1.9 8-.4 7.4 12.8 6 5-.6 6.8-.4 10 1.3 7 3.6 11.5 9.8 11.5 15.8 0 2 .4 2.5 2.1 2.2 5.3-.7 3.4-12.3-3.1-18.7a28.2 28.2 0 0 0-21.2-7l-5.7.4-.7-4.5a29.6 29.6 0 0 0-17-23.2 33.8 33.8 0 0 0-30.8 1.5c-2.4 1.6-3 1.7-3.7.6a6 6 0 0 1-1-2.6c0-3.8-5.5-13-10.9-18.4a42.3 42.3 0 0 0-39.2-11.9Zm-1086 60.5c-.4.3-71.7 1.5-91.1 1.5H45.9v2.5c0 1.8.7 2.6 2.7 3.1 1.5.4 24.8.4 51.8 0a13365.7 13365.7 0 0 1 109.8-1.4c1.1-.1 1.7-1 1.7-2.7 0-1.4-.3-2.5-.7-2.6-1.7-.3-60.2-.6-60.5-.4Zm284.4 19a37.8 37.8 0 0 0-25.8 22c-2.2 5-3.3 6.4-4.4 5.8-.9-.4-4-.9-6.9-1-14-1.2-27 11.2-26 24.4.3 3.3.7 3.8 2.8 3.8 2.3 0 2.6-.5 3.2-5.3 1-8.2 6.2-14.6 12.8-15.9 7-1.3 12.6-.4 17.3 3 2.4 1.6 4-.2 4.4-5 .4-5.3 5.1-14 9.8-18a32.2 32.2 0 0 1 23-8.7c16 0 25.6 7.6 29 22.7.7 3 2.5 3.4 6 1.1a18 18 0 0 1 14.8-2c7.6 2 11.7 8.5 11.7 18.2 0 2.9.5 5.6 1 5.9.5.3 2.3-.1 4-1a23 23 0 0 1 15.9-.1c3 1.5 7.4 8.6 7 11.3-.4 4.6.2 6.3 2.2 6.3 4.7 0 5-10.4.4-17.2-3.5-5.3-9.1-8-17.6-8.1-5.5-.2-6.9-.5-6.9-1.8 0-3-3-10.4-5.4-13.1a27 27 0 0 0-6.6-5c-3.5-1.8-5.2-2-12.8-1.6l-8.7.5-1.8-4.3a34.3 34.3 0 0 0-16.5-15.2c-7-3.2-18-4-25.9-1.7Zm739 7.1c-.3.9.1 2.2 1 3 1.3 1.4 12.6 1.6 87.5 1.9 90.3.4 90.5.3 89-3.9-.6-1.4-4.5-1.6-40.5-1.6l-88-.4c-42.6-.4-48.4-.3-49 1Zm-254 7.4a37.8 37.8 0 0 0-23.6 24.6c-1 3.3-1.9 4.8-2.8 4.4-.7-.2-4-.4-7.4-.4-12 0-22.5 9-24 20.6-.4 3-.2 5 .8 6.2 2 2.8 4.7 1.4 4.7-2.4 0-3.6 2.4-9.6 4.8-12.4 2.7-3 9.3-5.6 14.4-5.6 3.6 0 5.4.6 7.8 2.6 4 3.3 6 2.6 6-2.2 0-11.4 7-22.3 17.7-27.6 6.2-3 7.6-3.3 15.3-3.2 10 0 15.5 2.2 21.3 8.2a30.8 30.8 0 0 1 7.7 18.2c0 5.1 2.8 6.2 7 2.7 6.7-5.6 18-6.2 24.5-1.3 4.5 3.4 6.5 7.3 6.7 13 0 2.6.7 5.4 1.4 6.4 1.1 1.4 1.7 1.5 4.7.4 1.8-.6 5.5-1.2 8-1.2a12 12 0 0 1 12 9.2c1.3 4.5 3.2 5.8 5.4 3.6 1.2-1.2 1.3-2.3.3-6-2.4-9.7-10.9-14.2-23.4-12.6-1.6.3-2.1-.5-2.7-3.9a21.6 21.6 0 0 0-14.6-17.2 37 37 0 0 0-22.8 1.9c-.2 0-.9-1.7-1.5-3.7a30.7 30.7 0 0 0-18-20.7 29.3 29.3 0 0 0-15.5-3.3c-6.5-.1-10.4.3-14.2 1.7Zm-219.8 21.7c-52.4 3.1-93.3 28.8-117 73.5a137 137 0 0 0-7.3 104.8c12.5 37.9 52.5 110 112.1 202l9.4 14.5h11.8l8-12.2a1039.7 1039.7 0 0 0 23.2-36.3c4.4-6.9 10.2-16.1 12.8-20.5l17.3-28.4A833.7 833.7 0 0 0 811 360c18-36.3 23.2-50.2 26.3-71.3 3.7-25 1.3-45-8.4-69a133.6 133.6 0 0 0-111.7-83.3c-11-.9-12.3-1-16.8-.7Zm23.5 14a123.6 123.6 0 0 1 94.5 76.5c12 29.3 10.2 65.4-5.1 100.7a940.2 940.2 0 0 1-48.8 92c-3 5-5.6 9.4-5.6 9.7 0 .2-1.5 2.8-3.3 5.7a1464 1464 0 0 0-13.2 21.2 888.5 888.5 0 0 1-38.6 59c-.8.6-15-20.7-26.6-39.3a6826 6826 0 0 1-31-50.7c-36.9-61.4-58.5-106.3-62.2-129.5l-2.1-12c-1.2-6.4-.4-27 1.5-36.8 2.1-10.7 5.6-20.4 11.3-31.5a127.2 127.2 0 0 1 62-57.2 148.3 148.3 0 0 1 38.2-9.2c1-.9 19.9 0 29 1.3Zm458.3 12c-.5 1-1 5.6-1 10.3-.2 4.7-1 13.5-1.7 19.5-.8 6-1.8 13.3-2 16a340 340 0 0 1-3.2 17.5 901.5 901.5 0 0 0-3.8 19c-.3 1.4-.8 6.1-1.1 10.5-.5 6.5-1.4 9.6-4.5 16.1-4.7 10-5.5 13-4 14.9.9 1 1 4.5.6 12.2l-.5 10.8-7.5 11c-8 11.5-9 14.6-5.5 16.1 2 1 2.1 1.4 1.9 29.4-.2 15.7-.2 34.3 0 41.4v12.8l-10.7-.6-16.3-1c-4-.4-34.6-1.7-41-1.8-3.8-.1-4.8.7-8.3 6.7-2 3.6-4.3 6.5-5 6.5-.8 0-4.5-4.2-8.3-9.2a11095.8 11095.8 0 0 0-36.8-50.3c-1-1.4-2.3-1.8-5.5-1.7l-4.1.3.6-12.6-5 .1c-12.9.3-15.6.8-16.2 3a43 43 0 0 0-1.3 7.4c0 .9-.8 1.6-1.8 1.6-16 .5-47.2 1.6-51.8 1.9-3.3.2-18.1.7-33 1a3018.3 3018.3 0 0 0-43 1.4l-5.1.1-17.4 24.5a2858 2858 0 0 1-22.8 31.8c-7.6 10.2-8.1 11.5-5.3 13.8 2.2 1.8 2.3 2.1 2.2 23.5 0 12-.3 22-.6 22.3-.3.3-.9 0-1.3-.5-3-4.7-18-6-26.2-2.3a36.2 36.2 0 0 0-8.3 5.7c-4.1 4-8.6 12.2-8.6 16 0 1.8-.6 2.2-3.5 2.2-4 0-11.4 3-13.8 5.7-3.2 3.6-6 11.5-6.1 17.4l-.2 5.8-3.9.7c-8.2 1.4-13.9 6.7-18 17l-2.4 5.8-58.7.2-1.1-6.9c-2-11.6-8-17-19.5-17.6-1.3 0-2-1.4-2.4-4.8-1.4-8.8-5.1-14.5-11.9-18-2.7-1.4-12.6-2-16.5-1.2-1 .3-1.6-.5-1.8-2.1a19 19 0 0 0-9.5-14.6c-1.4-.8-5.4-1.4-8.7-1.4h-6v-53.7l2.4-1.1c3.7-1.7 3.1-4-2.7-11l-19.8-23.6-14.5-17.3-111.6.7-8.2 10.3a2277 2277 0 0 0-13.6 17.2c-3 3.9-6.4 8-7.6 9.2l-2.1 2.3v-75.5c.1-53.7-.2-75.7-1-76.5-1.2-1.2-118-1.9-120-.7-.8.5-1.2 12.2-1.2 38l-.1 38.2c0 .7-18 .9-52.5.7-50.8-.3-52.5-.3-54.3 1.6-1.8 1.8-2 3.3-1.8 20.3.1 10.1 0 20-.2 21.9l-.4 3.5-13.7-.2-22.7-.3H105l-7.8 6.9c-4.3 3.8-14 12.9-21.5 20.2-10.5 10.1-14 13-14.3 11.7-1-3-7.8-8.7-12.3-10.3a31 31 0 0 0-17.9-.3 31.3 31.3 0 0 0-16.4 19c-.5 1.8-1 7.7-1 13 .2 9.6.1 9.8-2.6 11.2a23.5 23.5 0 0 0-9.9 10.2 33.5 33.5 0 0 0 .3 19.6C6 511.5 13.4 517.1 31 522.6c4.7 1.5 9.1 3.2 9.9 3.8 1 .9 1.2 4.5.8 17.1l-.6 16.3c0 .2-8 .4-17.8.5-16.4.3-17.8.4-18 2.2-.3 1 0 2.2.4 2.7.8.8 34.8 1 109.6 1l23.7-.1v-2.5c0-1.4-.3-2.6-.7-2.6-2.3-.5-16.7-.8-39.5-.8L73 560V444.3l103.7-.2.1 39.8c.2 52.2.3 55.8 2.3 57.7 1.4 1.5 1.6 1.5 2.8 0 1.1-1.3 1.3-18 1.1-92.7l-.2-91 50.6.5c27.9.3 50.8.7 51 .9.3.2.5 28.8.6 63.5 0 34.7.3 64 .6 65.2.6 2.3 3.8 2.8 5 .9.9-1.4 1.2-38.6 1.3-144V281h109.2l-.3 106.3c-.2 58.4-.2 109.6.1 113.7.5 7.2.6 7.5 3 7.5h2.5l.5-34.5c.5-32.5.7-34.7 2.5-37.2 3-4 27.3-34.8 30.6-38.6l2.8-3.2 5.9 7.2 10.7 13.3c8.8 11 12 14.9 15.3 18.6l3.4 3.8-.5 52c-.2 28.7-.2 53.2 0 54.5.3 1.4 1.3 2.7 2.2 3 4 1.6 4-.6 4.1-54.2 0-28.3.3-51.9.7-52.4.6-1 91.8-.7 93.5.3 1.2.7.6 118.5-.6 119.6-.3.4-13.9.7-30.2.9-17.5.1-30 .6-30.6 1.2-.5.6-.8 1.8-.6 2.8.4 1.8 4.9 1.9 144.8 1.9 135.5 0 144.4-.1 145.4-1.7 2.3-3.7.2-4-39.8-4l-38.7-.1.6-2.6c1-4 5.9-10.3 9.7-12.6 1.8-1.1 5.8-2.2 8.8-2.5l5.5-.5-.3-7.7c-.4-8.7 1.2-13.2 6-17.3 3.9-3.2 7.5-4 11.2-2.7 3.5 1.4 5.7.1 5-2.8-.3-1 .2-4.5 1.1-7.7a22.6 22.6 0 0 1 22.7-16.4c6.5 0 7 .2 12.3 4.9l3.7 3.2.6 106-139.6.2c-135.1.3-139.6.4-140 2.2-.2 1 0 2.2.5 2.7.5.4 103.6.9 229.3 1 212.6.3 228.5.2 229.4-1.4 1.8-2.8-.6-3.9-9.5-4.4-4.6-.3-8.5-.6-8.7-.8l-.5-82.7-.2-82.4 2.5-3 10.5-14.3c4.4-6.1 10.7-14.7 14-19l11.6-15.5c3-4.2 5.8-7.6 6.1-7.6.4 0 5.8 6.9 12 15.2l22 29.6c6 7.9 11 15.3 11.3 16.5.3 1.2.7 36.9 1 79.2l.5 77.1c.3.7 3.3 1.2 4.5.8 1.3-.5 1.5-6.7 1.5-47v-46.4h68.8l-.1 37.8c-.1 20.7 0 43.2.4 50l.5 12.2H1125l-32 .3c-14.5.2-14.6.2-14.9 2.6-.2 1.3.2 2.7.9 3.1 2.1 1.3 316 .2 317.5-1 1-1 1.1-1.7.3-3.2-1-2-2.6-2-109.2-1.7h-122l-14-.1 5.7-4a74.5 74.5 0 0 1 23.3-11c2.6-.6 9.7-1.1 15.8-1.1a70 70 0 0 1 30.6 6.1c4.9 2.5 5 2.5 12.4-.4 11.7-4.7 16.8-4.9 92.8-4.1 65.4.6 70.8.6 71.4-1 1.3-3.5-1.2-4-21-4.3-10.5-.1-19.6-.4-20.2-.6-.7-.3-1-5.7-1-15.2v-14.9l11.5-.6c16-.9 22.1-3.5 27.7-12 4-6.1 3.7-15.7-.8-22-1-1.3-.8-2.2.8-4.5a29 29 0 0 0 4.6-17.4c0-11-5.3-17.8-15.9-20.5l-4.5-1.1-.2-9.5c-.2-11.5-2.3-16.7-9.4-22.9-6-5.3-10.1-7-17.1-7-4.4 0-6.8.7-10.8 3-10.5 6-15.6 16-16.3 31.6 0 .5-2 2.4-4.5 4.1a30.3 30.3 0 0 0-7.2 8c-2.6 4.3-2.8 5.7-2.8 13.8 0 6.7.4 10 1.8 13 1.5 3 2 6.5 2 14.5.1 9.7.4 10.9 3 15.3 5.4 9 13.7 13.6 24.9 13.6l6.8.1v30.5l-43-.6.2-56.2c.2-52.2.4-56.3 2-57.5 1-.7 1.8-2.2 1.8-3.3 0-1.2-6.3-9.8-13.8-19.2a947.2 947.2 0 0 1-17.5-22.3 51 51 0 0 0-5.3-6.4c-1.1-1-8.6-1.2-31.5-1l-30 .1v-40c0-39.6 0-40.1 2-40.1 5.2 0 3.3-5.5-6.9-20l-5.9-8.5-.3-10.1c-.2-7 0-10.6.9-11.6 1.5-1.8.6-5.1-3.7-13.6-3-6-3.2-7-3.5-19.5-.4-12.8-1.7-21.2-7-46.2a212.5 212.5 0 0 1-5.1-36c-.5-8.6-1.2-10.4-4.2-10.5-.6 0-1.6.8-2 1.8Zm-787.9 4.8c-.3.8-.3 2.2 0 3 .5 1.3 4.7 1.5 29.4 1.5l59.7.3c18.1.2 31.6 0 32.3-.6 2.3-1.7 1.4-4.5-1.5-5-1.5-.3-29-.5-61-.6-51.3-.1-58.4 0-58.9 1.4Zm493.1 12.2c-1.2 1.2-1.3 1.8-.4 3 1 1 11 1.3 60.3 1.3 32.5 0 59.8-.4 60.5-.9.7-.5 1.2-1.7 1-2.7-.4-1.8-2.5-2-60.1-2.1-52.9-.2-59.9 0-61.3 1.4Zm301.9 39a484 484 0 0 1 3.7 20c0 .7-2.6 1.1-7.2 1.2l-7 .1.4-3.3 2.9-20c1.3-9.2 2.6-16.7 2.9-16.7.3 0 2.2 8.4 4.3 18.8Zm-495.8-15.5A66 66 0 0 0 638 257a69.5 69.5 0 0 0 19 59.1 61.6 61.6 0 0 0 33.1 17.3 66.6 66.6 0 0 0 63.4-20.7c29.6-31.6 20.7-81.2-18.4-103a65 65 0 0 0-41.7-7.5Zm-589.6 7.2a32.3 32.3 0 0 0-22.2 19.7l-1.7 5.4-5-.3a20.4 20.4 0 0 0-16.7 6c-5.5 5.1-8.7 14.4-5.8 16.9 2.2 1.8 4.3.3 5-3.7 1-5.4 7.8-11.9 13.4-12.8 3.3-.5 5-.2 7.7 1.3 4.3 2.6 6.3 1.8 6.3-2.4 0-1.8 1-5.4 2.1-8 5-11 14.5-17 27.4-17 12.7 0 21 6.4 23.7 18 1.5 7.2 2.6 8 7.2 5.5 6.6-3.6 16.7-2 20.2 3.4 1 1.4 2 5.7 2.3 9.8l.6 7.3 3.5-.4c2-.3 5.7-.5 8.4-.5 4.1 0 5.2.3 6.8 2.5 1.1 1.4 1.7 3.2 1.3 4.2-.6 1.6-4.9 1.7-56.8 1.7-34 0-56.7.4-57.7 1-1.1.7-1.2 1.3-.3 2.7 1 1.7 4.7 1.8 58.6 2l57.6.3 2.6-3.1c2-2.5 2.6-4 2.2-6.6-1-7.6-6-11.6-14.7-11.6-5.8 0-6 0-6-2.6 0-4.2-4.4-12.6-8-15.2-3-2-4.6-2.4-11-2.4-4 0-8.2.4-9.2.9-1.2.6-1.8.4-1.8-.5 0-.8-1.2-4.1-2.8-7.5-6-12.5-21.4-18.4-37.2-14Zm616 7.6a55 55 0 0 1 31.9 27.3A51.7 51.7 0 0 1 742 306a53.6 53.6 0 0 1-91.7-33.3 54 54 0 0 1 41.3-57.3c8-1.8 20.3-1.1 28.2 1.6Zm473.6 29.5c.2 1.1.5 5.8.7 10.5l.3 8.5-20.5.4.4-3.2 1-9.2c1-9 1.2-9 10-9 6.8 0 7.7.2 8 2ZM1326 254a30.2 30.2 0 0 0-15.2 14.1c-1.7 3.8-2.6 4.9-3.8 4.4-9-3.8-18.9-1.8-25.6 5-6 6.2-8.8 14.2-6 16.6 2 1.6 4 0 5-3.8a18.3 18.3 0 0 1 16.9-13.2c5.4 0 8 1 11.2 4.8 1.9 2.3 2.4 2.4 3.8 1.3 1-.7 1.7-2.8 1.7-4.5 0-6.5 6.3-15.1 13.6-18.6 5.2-2.4 9.6-2.5 15.5-.5a20 20 0 0 1 13.9 18.5c0 4.8 1.5 5.8 5.8 3.6 1.7-.9 5.4-1.6 8.2-1.6 4.7 0 5.6.4 9 3.9 2.9 2.8 4 4.8 4.1 7.2.3 6 .3 6.2 1.6 6.7 2.3.7 4.3-2 4.3-6 0-5-2-9.6-5.7-13-5.1-4.8-10.2-6-18.4-4.4-2.3.4-2.7 0-4.3-4.6-2.1-6-8.6-13.3-13.6-15.4a35.6 35.6 0 0 0-22-.5Zm-127.1 21.5c1.1 1.8 2 3.6 2 4 0 .5-12 .4-31.7-.3l-2.3-.1 4.5-7h25.4l2 3.4Zm.8 11c.6.6.6 21.1 0 21.4-.4 0-7.8.2-16.5.2h-15.8l.4-9.7c.2-5.4.7-10.5 1.2-11.3.7-1.3 3-1.5 15.6-1.2 8.2.2 15 .5 15 .6Zm-867.1 11.9c-2.5 1.8-2 17.4.5 19 1.2.8 2.1.7 3.3-.2 2.3-2 2.3-18.6 0-19.5-2-.8-1.8-.8-3.8.7Zm-22.4 9.4c.2 9.7.3 9.8 2.7 9.8 2.5 0 2.5 0 2.5-9.5v-9.5l-5.5-.6.3 9.8Zm44.4-9c-1 1-.8 16.6.2 18.1.5.8 2 1.2 3.3 1 2.2-.3 2.4-.7 2.6-9.2.2-6.5 0-9.2-1-9.7-1.5-1-4.2-1.1-5-.2Zm22.8.6c-.3.7-.4 5.2-.2 9.8l.2 8.4h6v-19l-2.7-.3c-1.7-.2-3 .2-3.3 1Zm918 2.2c-.4.8-.1 2.2.6 3 1.8 2.3 70 2.2 72 0 1-1.2 1-1.8 0-3s-7-1.4-36.7-1.5c-31 0-35.5.2-36 1.5Zm-91.6 14c1.3.7 9.2 12.3 9.1 13.4 0 .3-13.3.7-29.6.9-24 .2-29.4 0-28.8-1 1.3-2.2 9.9-13.2 11-14 1.2-1.1 36.6-.4 38.3.6Zm6.9 20.9c1 1 1.5 161.6.5 161.6-.9 0-6.3-6-12.8-14-1-1.3-4.7-5.4-8.1-9l-6.2-6.5-14.3-.6-14.5-.8.2-6.8.4-63c.2-30.8.5-57.3.8-58.7l.5-2.6 19.6-.2c21.5-.3 33.2-.1 33.9.6Zm-901 .3c-1 .8-1 15.6-.1 17.7.7 1.9 3.5 2.1 5.1.4 1.3-1.2 1.7-14.3.6-17.2-.6-1.6-4.4-2.2-5.7-1Zm22 0c-1.3 1.2-.8 16.8.4 18.1 1.7 1.6 4.6 1.5 5.5-.2.5-.8.7-5.3.5-10l-.3-8.6H335c-1.5 0-3 .3-3.4.7Zm23 0c-.5.3-.8 4.6-.8 9.5 0 8.3.2 9 2.3 9.7 3.8 1.4 4.7-.4 4.7-9 0-4.2-.2-8.4-.6-9.3-.6-1.6-4.4-2.2-5.7-1Zm22.7.6c-.3.7-.4 5.2-.2 9.8.2 8.3.3 8.4 3 8.7 3.4.4 4-1.5 3.5-11.8-.2-7.4-.3-7.5-3-7.8-1.7-.2-3 .2-3.3 1Zm799.9 12.1c-2.8 2.4-2.9 2.7-3.1 14.3-.2 6.5.1 12.4.6 13.2.5.8 3.2 1.6 6 1.9 8.2.7 8.7-.2 8.6-15-.1-11.9-.2-12.2-2.9-14.5-3.4-3-5.7-3-9.3.1Zm-169.1 13.2c.3.3.3 1.4 0 2.5-.4 1.5-1.4 1.9-5.4 1.9s-4.9-.3-4.9-1.8c0-1 .3-2.2.7-2.5.8-.8 8.8-1 9.6-.1Zm5.5 11.3c.1 0-1.8 3-4.2 6.4l-6.3 8.7-6.3 8.5-14 19a327.7 327.7 0 0 1-11.8 15.7l-2.4 2.7-26.6.2a4257.2 4257.2 0 0 0-86 1.3l-37.4.8 6.2-8.3c3.4-4.6 12.7-17.8 20.8-29.2 8-11.5 15-21 15.6-21.2 1-.3 8-.6 52.6-2l25.4-1c4.9-.2 20.8-.7 35.5-1 14.7-.5 26.7-.8 26.9-1 .2 0 11.5.2 12 .4Zm-703.3 2.3c-.4.6-.7 5.1-.7 10 0 9.5 1 11.6 4.4 9.7 1.6-.8 1.8-2.3 1.8-9.7 0-8.7-.8-11.2-3.6-11.2-.7 0-1.6.5-2 1.2Zm21.3-.6a36 36 0 0 0-.8 9.4c0 9.7 1.2 12.3 4.8 11.4 2.2-.6 2.3-1 2-10.8-.3-10-.3-10.1-2.8-10.4-1.4-.2-2.9 0-3.2.4Zm22.7.7c-.3.7-.4 5.4-.2 10.3l.2 8.9h6v-20l-2.7-.3c-1.7-.2-3 .2-3.3 1Zm23 1c-.3 1.2-.4 5.8-.3 10.2l.3 8h6l.3-8c.4-10.4-.1-12.5-3.3-12.5-1.7 0-2.6.7-3 2.3Zm-173 .2c-1.4 3.5.2 4.5 7.6 4.5h7l-.2-2.7c-.3-2.7-.6-2.8-7.1-3-5.4-.3-7 0-7.4 1.2Zm26.5 4.5h7c5.4 0 7.2-.4 7.7-1.5 1.1-3-1.6-4.5-8.3-4.5H231v6Zm27.5-3.9c-1 3.2.7 4 7.1 3.7 5.2-.3 6-.6 6.2-2.4.4-2.5-1.9-3.4-8.4-3.4-3.4 0-4.3.4-4.9 2.1Zm284.3 16.5c5.2.5 5.2.6 13 10.2l8.2 10.2c1.6 1.4 16 18.8 16 19.3 0 .3-2.5.4-5.7.1-3.2-.2-25-.4-48.5-.5l-42.8-.1-7.5-9.1a40140.7 40140.7 0 0 1-17.8-21.4l-6.8-8.3 34.3-.2 43.3-.5c5-.2 11.4 0 14.3.3Zm-338.1 6.1c-1 1-.8 4 .2 4.7.4.3 3.8.8 7.4 1.1 6 .5 6.6.4 7.2-1.5 1.2-3.5-1-4.8-7.9-4.9a23 23 0 0 0-7 .6Zm26.8.7c-1.5 3.8-.1 5.1 5.6 5.2 7.2.1 9-.4 9-2.5 0-2.8-2-3.7-8.3-4-4.4-.2-5.9.1-6.3 1.3Zm27.7-.5c-.7.4-1.2 1.9-1 3.2.3 2.2.8 2.4 5.8 2.5 7.5 0 9.8-1.7 6.5-5-1.7-1.7-9-2.2-11.3-.7Zm701.6.9c-8.8.3-9 .6-10.3 8.7-2.1 14-1.4 15.5 6.8 15.5 3.4 0 8-.3 10-.6 3.5-.6 3.7-.9 4.4-5.3.4-2.5.7-7.5.8-11 0-7.6-.2-7.7-11.7-7.3Zm-90.5 3c-10.2.4-10.7 1-10 12.5.3 6.3.8 8.3 2.3 9.4 2.5 1.8 15.8 1.8 17.3 0 .7-.8 1.5-5.8 2-11.1.6-8.7.5-9.9-1-10.7-1-.5-1.9-.8-2-.7-.2.1-4 .4-8.6.5Zm37.4 1.4a39 39 0 0 0-2.6 19c.9 1.5 2.3 1.8 9.8 1.8 7.3 0 9.1-.3 10.5-1.8 2.3-2.6 4-18.1 2.2-20-.4-.4-4.7-.9-9.6-1-8.3-.4-8.9-.3-10.3 2Zm270.7-1.2c-4 1.6-4.7 4.7-5 21-.4 16.3.3 19.8 3.8 18.5 1.4-.6 1.7-3 2-16.5a62 62 0 0 1 1.5-17c2-2 2.4.5 2.6 16.6 0 11.6.5 16 1.5 17 1.6 1.6 3.9.9 4.5-1.4.8-3.6-.1-32.1-1.2-34-2.6-5-5.2-6-9.7-4.2Zm-1003 .8c1.6.4 1.7 1.8 1.4 16.3l-.3 15.9h-51.2c-28.2 0-51.3-.2-51.3-.5s4-4.3 8.8-8.8a9127 9127 0 0 0 17-16l8.3-7.9 32.7.3c18 .2 33.5.5 34.5.7Zm791.3 6c-.4 2-.6 4.7-.6 6 0 2-.5 2.2-5 2.2h-5v-5c0-5.7 1.3-7 7.3-7h4l-.7 3.8Zm-45.2 8.7-10.7.6.6-4.6c.3-2.6.9-5 1.2-5.6.3-.5 2.7-.9 5.3-.9h4.7l-1 10.5Zm-45.6-3.9c-.2 3-.7 5.8-1.1 6-.5.3-2.6.3-4.8-.1l-4-.7v-10.8h10.2l-.3 5.6Zm-565.4.4a54 54 0 0 0 .3 19.5c1 1.6 1.5 1.8 3 .9 1.5-1 1.7-2.6 1.7-11 0-9.4 0-10-2.1-10.2-1.2-.2-2.5.2-2.9.8Zm22 0c-1 1.6-1.3 14.8-.5 18 .5 1.8 1.4 2.5 3.1 2.5 2.4 0 2.4 0 2.4-10.5 0-10 0-10.5-2.1-10.8-1.2-.2-2.5.2-2.9.9Zm22.2-.2c-.4.5-.6 5-.5 10 .1 9.8 1 11.9 4.8 10.7 2-.6 2.1-1.3 1.8-10.8l-.3-10.2-2.6-.3c-1.5-.2-3 .1-3.2.6Zm23.5.4a51 51 0 0 0-.5 19.2c.7 1.9 3.5 2.1 5.1.4 1.7-1.6 1.7-18 0-19.6-.6-.7-1.6-1.2-2.3-1.2-.6 0-1.6.5-2.3 1.2Zm634.9 4.2c-1.2 3-.5 13.4 1 15.2 1.3 1.6 12.6 2 14.8.5 2-1.2 2.8-16 1-17.2a30 30 0 0 0-8.6-.9c-6.8 0-7.4.2-8.2 2.4Zm105.5 2.2 18.7.9c6 .2 11.1.6 11.5.9.7.4.7 5.7.4 32.6l-.1 8.6-8.3 1.1c-4.5.6-9 1.4-9.9 1.8-1.2.5-2.8-1-6-5l-4.4-5.7-23.2-.2c-12.7 0-23.4-.4-23.8-.8-.9-1-.7-19.4.2-22.2a65 65 0 0 1 4-7.8l3.5-6 14.7.6 22.7 1.2Zm165 9.1c4.3 6 9.7 12.8 11.8 15.3 9.2 10.8 13.8 17.4 10.8 15.6-.5-.3-20.4-.6-44.4-.7l-43.5-.2-.2-19.4c0-10.7.2-19.9.5-20.4s12.4-.9 28.8-.9h28.2l8 10.7Zm-1078-7.5c-.8.5-1.6 1.5-1.6 2.3 0 2.3 3.7 3.6 9.3 3.3 4.9-.3 5.3-.5 5.6-3 .3-2.6 0-2.8-3.5-3-2.1 0-4.8-.2-6-.3-1.2-.1-2.8.2-3.7.7Zm25 1.4c-1.1 3 1.4 4.4 8 4.4 6.8 0 7.7-.5 6.8-3.8-.5-2-1.2-2.2-7.4-2.2-5.3 0-6.9.3-7.4 1.6Zm27.8-.1c-1.3 3.4.4 4.5 6.6 4.5 6.4 0 7.7-.8 6-4-.8-1.6-2-2-6.5-2-4 0-5.7.4-6 1.5Zm766.5 1.8c-.3 2.6-.8 3.3-3 3.5-2.2.3-2.7-.1-3-2.7-.6-3.8-.3-4.1 3.4-4.1 2.6 0 2.8.3 2.6 3.3ZM45 433.5c4 .9 8.6 5.2 11.4 10.7 2.7 5.3 5.6 6.4 7.4 2.9.6-1.1 1.4-2 1.8-2 .4 0 .9 14.4 1 32l.2 31.9-4 4c-4.7 4.8-9.2 7.3-12.3 7-2-.4-2.2-1-2.4-9.1-.3-7.6-.6-8.8-2-8.8-3.3 0-4.3 2.2-4.3 9.8 0 7.1 0 7.3-2.2 6.7a73.2 73.2 0 0 1-22-8.9c-14.3-10.8-14.3-32.2 0-34.5 4.2-.7 4.1 0 3-15.4-.5-6.5-.3-8.9 1.4-13.3a21.9 21.9 0 0 1 13.7-13.1c3.6-1 4.3-1 9.3.1Zm924 48.3L969 601c0 2.5-.1 2.5-8.8 2.3l-27-.2-18.3-.1v-17.7c0-20.5-1.3-28.4-5.4-33.8-7.7-10.1-23.5-8-29.9 4-2 3.6-2.2 5.9-2.7 25.5l-.5 21.5-55.5.4v-39.2l-.3-79.5c-.2-39.6-.1-40.3 1.8-40.7a7418 7418 0 0 0 88.2-2l29.3-.3 29-.4.1 40.9Zm400.3-37c7.6 5.4 11.3 17.9 8.7 29.3-1.5 6.3-.4 7.5 6.2 7.6 6.8 0 12 3.3 13.8 8.3 1.7 5.2.5 15-2.4 19.7a29.2 29.2 0 0 1-4.1 5.3c-2.5 2-2 5 .9 6.1 3.2 1.3 5.8 7.1 4.9 11.2a20 20 0 0 1-4.9 7.3c-5 5-10 6.5-22.3 6.5h-8.8v-9.5c0-10.1-1.3-13.3-4.8-12-1.3.6-1.7 1.9-1.6 5.9V546h-7c-6.1 0-7.3-.3-11.7-3.3a23.9 23.9 0 0 1-10.3-19c0-4 .3-5 2-5.4 2.4-.7 2.6-4.5.3-6.4-1-.8-2.7-3.6-4-6.4-5.6-12-.5-25.2 11-29l3.2-1-.4-8.1c-.3-7 0-8.7 2.1-13 2.9-5.6 4.5-7.2 10.8-10.9 5.7-3.4 12.5-3 18.4 1.2Zm-1135.6 4.3c-1.7.4-2.4 1.3-2.4 3 0 2.4.3 2.5 6.5 2.5 6.3 0 6.6 0 6.9-2.6.2-2.5 0-2.7-4.2-3-2.5-.2-5.6-.2-6.8.1Zm-29.2.7c-1.3 1.3-.6 5.2 1 5.5.9.2 4.2.1 7.5 0 5.7-.4 5.8-.4 5.8-3.3v-2.9h-6.8c-3.7 0-7.1.3-7.5.7Zm53.8 1.4c-1 3.2.6 4 7.1 3.7 5.6-.3 6-.4 6-2.8s-.4-2.5-6.2-2.8c-5.6-.3-6.3 0-6.9 1.9Zm189.8 13.5c.6 12 1.1 13.4 5 13.4.9 0 2.8-.4 4.2-1l2.6-1-.6-22.5-11.7-.6.5 11.7Zm-21.5-9.5c-1.5.8-1.8 2.5-1.8 10.8 0 11 .5 12 6 11.7 5.9-.3 6-.6 5.8-12.4l-.3-10.7-4-.2c-2.2-.2-4.7.2-5.7.8Zm76.4.8c-1 .7-1.4 3.2-1.2 10 0 5.1.4 9.9.7 10.7.6 1.6 7.9 2 8.8.4.7-1.1 2-21 1.4-21-4.6-.8-8.6-.8-9.7-.1Zm27.2.1a5.1 5.1 0 0 0-2.7 2.7c-.9 2.8.2 17.6 1.4 18.7 1.2 1.3 8.2.8 9-.6.4-.6.8-5.3.9-10.4 0-8.3-.1-9.4-1.9-10.3-2.3-1.3-3.8-1.3-6.7-.1Zm24.9.2c-.8.8-1.3 4.5-1.3 11v9.7l4.6.7c2.6.4 5 .2 5.6-.3.5-.5.8-5.6.6-11.4l-.3-10.4-4-.3c-2.2-.2-4.5.3-5.2 1Zm352.5.9c-1.5.9-1.8 2.6-1.8 13 0 8.8.4 12 1.3 12 4.3.4 14.4-.5 15.5-1.3.9-.7 1.2-4.5 1.2-12.4 0-8.4-.3-11.4-1.2-11.5l-7.3-.4c-3.3-.3-6.7 0-7.7.6Zm121.4.1a72.8 72.8 0 0 0-.2 24.7c1.1 1.8 15.3 2.2 17 .5a71.5 71.5 0 0 0 0-25c-1.4-1.6-15.2-1.8-16.8-.2Zm-190.7 1.1c-.3.7-.4 6.7-.2 13.3l.2 11.9 7.8.2c4.6 0 8-.3 8.4-1a80.4 80.4 0 0 0 0-24.9c-2.1-1.4-15.7-1-16.2.5Zm34-.7c-1 .4-1 20.4 0 23.2.7 1.7 14 1.7 15.4-.1 1.5-1.9 2.2-21.4.7-22.6a50 50 0 0 0-16-.5Zm67 23.9 7.1.3c5 .2 7.5-.1 8.2-1 .9-1 1.8-16.7 1.3-22.5 0-1-2.5-1.3-8.6-1.3H939l.5 24.5Zm53.8-23.3a69 69 0 0 0-.2 23.9c1 1.7 2 2 8 1.8 8.8-.2 10-1.2 10-8.7l.3-11.7.2-6-8.6-.3c-6.1-.2-9 .1-9.7 1Zm-683.9 2.4c-.3 1.4-.4 6-.1 10 .5 7.7 1.5 9.7 4.7 9.1 1.2-.2 1.6-2.4 1.8-11l.3-10.7h-3c-2.4 0-3.1.5-3.7 2.6Zm22.4-.8c-.2 1-.4 3.2-.3 5l.4 8.7c.1 5.4.2 5.5 3.1 5.5h3v-21h-2.8c-2 0-3 .6-3.4 1.8Zm22.8-1a60 60 0 0 0-.5 10.5c0 10 .6 11.1 4.8 10 2-.5 2.1-1.2 2.1-9.7 0-5.8-.4-9.6-1.2-10.4-1.3-1.4-4.4-1.6-5.2-.3Zm23.1-.1c-.4.3-.7 5-.7 10.4 0 9.1.2 9.7 2.2 10.2 4 1 4.8-.9 4.8-10.2 0-5.4-.4-9.1-1.2-9.9-1.3-1.3-4-1.6-5-.5Zm-289.4 3c-.9.3-1.3 3.2-1.3 9.3 0 8 .3 9 2 10 1.2.6 2.5.8 3 .5.6-.3 1-4.8 1-10 0-7.5-.3-9.4-1.5-9.9-1-.3-1.7-.6-1.8-.5l-1.4.6Zm22 .1c-.6.4-1.3 4.3-1.4 9-.3 7 0 8.6 1.3 9.5a4 4 0 0 0 3.2.4c2.5-1 2.4-17.2-.2-18.6-1-.5-2.3-.6-2.9-.3Zm43.2.5c-.3.7-.4 5.2-.2 9.8.2 8.3.3 8.4 3 8.7 2.5.3 2.6.2 3-6 .4-9.7-.3-13.2-3-13.6-1.3-.2-2.5.3-2.8 1Zm-22.5 18.8 5.5-.6v-18l-5.5-.6v19.2Zm787-11.5c0 6.5-.2 7.5-1.5 7-1-.3-2.4-.6-3.3-.6-1.4 0-1.6-1-1.5-6.2 0-3.5.2-6.5.2-6.8.1-.3 1.5-.7 3.1-.8l3-.2v7.6Zm32-5.3c.3.9.4 4 .2 6.9-.3 4.8-.5 5.3-2.7 5.4-2.4.2-2.5 0-2.5-7.2 0-7 .2-7.4 2.2-7 1.2.1 2.5 1 2.8 1.9Zm91.4 0a47 47 0 0 1 .2 13.8c-.3.3-2 .3-4 .1l-3.5-.4V462h3.3c2.7 0 3.5.5 4 2.3ZM850 478.8h-6V463h6v15.7Zm33.8-8.4.3 6.7h-7v-6.3c0-7.2.3-8 4-7.5 2.3.3 2.5.7 2.7 7Zm121.8 7.2-7.6.6v-15.1h8.1l-.5 14.5Zm123 2.3c6 8 11 15.3 11.3 16 .2.9-7.2 1.1-33.5 1l-33.8-.3-.2-11.5c0-6.3.2-13.4.4-15.7l.5-4.3h44.3l11 14.8Zm177.2-10.4c.3.4.5 33.5.3 81.6v30.6h-24.8c-14.9 0-27.2.6-30.8 1.3-7.9 1.6-16.3 4-17 5-.2.5-3.6-.4-7.6-2-3.9-1.6-7.7-2.9-8.4-2.9-.7 0-1.7-.5-2-1.2-.5-.6-1-15.7-1.2-33.5-.3-32-.3-32.3 1.7-32.3 1.3 0 2.5-1 3.2-2.5 1-2.2.8-2.9-1.2-5.1-1.7-1.8-2-2.8-1.2-3.1 1-.4 1.3-5 1.3-18.4v-17.8l14.2-.3c16.5-.3 73 .2 73.5.6ZM233.2 473c-1.8.3-2.3 1-2.3 3.3v2.9h6.4c4.6 0 6.8-.4 7.7-1.6 3-3.6-2.8-5.9-11.8-4.6Zm-29 1.8c-1.2 3.4 1.1 4.9 7.9 4.9h6.3l.7-6.5H212c-5.7 0-7.2.3-7.7 1.6Zm54.1-.2c-1.4 3.7 0 5.1 5.2 5.2 7.3 0 9.5-1.5 7.2-5.2-1.1-1.8-11.7-1.7-12.4 0Zm905.8-.4c15.7.2 17.2.7 23.7 7.8 8.4 9 22.1 26 22.2 27.4 0 .1-14 .2-31 0-29.5-.2-31-.4-31-2.1 0-1 1-2.5 2.2-3.4 2.7-1.8 3-1.3-8-16.8-4.8-6.8-7-10.6-6.3-11.3 1.2-1.1 8.4-2.3 12-2l16.2.4Zm80.2 9c-3.6 1.5-4.3 4.3-4.3 16.9 0 11.3 0 12 2.2 13.5 3 2.2 12 2.1 14.3 0 1.3-1.4 1.5-3.6 1.3-14-.3-10.9-.6-12.6-2.4-14.4a12 12 0 0 0-11.1-2Zm34.4.6c-1.5.8-3.2 2.4-3.8 3.5a82.7 82.7 0 0 0-1.5 24.4l.7 3.6 7.2-.2c4 0 7.7-.6 8.4-1.2.9-.6 1.2-4.4 1.2-12 0-9.2-.3-11.7-1.9-14.3-2.5-4.1-6.7-5.6-10.3-3.8Zm-27.1 5.9c.3.8.6 5.4.7 10.2l.1 8.8-6.5.6V501c0-4.6.3-9.3.7-10.5.7-2.6 4-3.1 5-.8Zm33.4 10v9.5h-6.3l.5-9.4c.5-10.7 1-12 3.8-10.6 1.7 1 2 2.2 2 10.5ZM87.5 497.8a51 51 0 0 0-.7 11c0 8.8.3 10.4 1.8 11.2 3.5 1.8 4.3-.1 4.7-10.8.3-9 0-10.3-1.5-11.1-2.1-1.2-3.4-1.3-4.3-.3Zm22 .2c-.6.8-1.1 16.1-.8 20.4.1 1.4.8 1.8 2.9 1.5l2.7-.3.4-10.4c.2-7.8 0-10.6-1-11.2-1.8-1.1-3.6-1.1-4.3 0Zm21.7-.2c-.8.6-1.1 14.5-.4 21.6 0 .4 1.2.7 2.5.7 3.2 0 3.6-1.7 3.3-13.5-.2-8.2-.4-9-2.3-9.3-1 0-2.5.1-3 .5Zm22.1.6c-.3.7-.4 5.8-.2 11.3.2 9.8.3 9.9 2.7 9.9h2.5v-11c0-10.7 0-11-2.2-11.3-1.3-.2-2.5.3-2.8 1Zm96-.3c-13.9.9-21.6 3-24 6.7a193365.8 193365.8 0 0 1-25.1 34.3l-7 9.5-10.4 3.3c-5.8 1.9-12.8 4.7-15.6 6.3a33 33 0 0 0-14.7 16.5c-1.7 5.2-4.7 30.1-4.7 39 0 9 4.6 15.6 11.7 16.8 1.6.2 8.5.5 15.5.5l12.6.1 1.6 5.8c.9 3.1 2.5 7.1 3.5 8.8l2 3.1-90-.4c-69-.4-90.3-.2-91.4.7-2.1 1.8-1.8 3.9.8 4.4 1.2.3 44.2.7 95.5 1 56.1.2 93.8.8 94.5 1.3a46.7 46.7 0 0 0 18.7 6c6.7.5 16.2-1.5 20.7-4.2 2.6-1.7-5.9-1.6 96.3-1 67.3.6 85.8 1 87.5 2a38.1 38.1 0 0 0 33.5 1l6.5-3 64.7-.1c35.5 0 65.1-.4 65.7-.8 1.5-1 1.4-4.6-.1-4.8-3.1-.4-18-.5-68.5-.6l-54.3-.2 2.4-3.7c1.3-2.1 3.1-6.2 4-9l1.8-5.3h10.4c16 0 22.7-3 26.7-11.8 1.6-3.6 1.9-6.5 1.8-17.4 0-11.6-.4-13.8-2.4-18.3-5.1-11.1-12.7-16.5-30.2-21.5-14-4-17-4.8-24.7-6a988.5 988.5 0 0 1-30.7-5l-7.4-1.4-14.6-14.1a323.8 323.8 0 0 0-27.6-25c-13.7-11-15.5-11.8-32.2-13.5a1512 1512 0 0 0-102.8 0Zm-45 2.4c-1.2 4.7-.5 5 13.9 3.7.4 0 .6-1.3.5-2.8-.3-2.7-.6-2.8-7-3-6.5-.4-6.8-.3-7.4 2.1Zm349-1c-.3.6-.4 5.7-.2 11.2l.2 9.9 4.4.3c2.4.2 4.8 0 5.2-.5 1-1 1.5-19.5.6-21.1-1-1.7-9.6-1.6-10.2.1Zm-52 1.6c-.8 2.6-.3 16.9.7 19.8.6 1.8 1.6 2.2 4.8 2.2 2.1 0 4.3-.6 4.7-1.2 1.1-1.8 1.3-19 .2-21-1.4-2.7-9.5-2.5-10.4.2Zm26.2-1.2c-1.2 1.8-.6 20 .6 21 .7.4 3 .8 5.2.8l4-.1v-22l-4.6-.3c-2.6-.2-5 .1-5.2.6Zm-102.2 1.3c-1 1.7-.5 19.1.7 20.6 1.4 1.6 8 1.7 9.6.1a43 43 0 0 0 .3-19.2c-.9-2.3-1.6-2.6-5.5-2.6-2.4 0-4.7.5-5.1 1Zm23.3-.5c-.4.4-.8 5.1-.8 10.5 0 11 .8 12.2 6.8 11.5 5-.5 5.2-1 5-11.9l-.3-10.2-5-.3c-2.8-.2-5.4 0-5.7.4Zm148.2 1.8c4 1.8 6 5.7 6.7 12.3.5 5 1 6.4 2.5 6.9 1 .3 2.6 0 3.3-.6 2.5-2 7.7-3 11.8-2 7.3 1.6 11.9 7.9 11.9 16.3s.3 9 5.3 8.3c9.2-1.4 17.5 5.4 17.5 14.3v4l-71-.2v-60.6l2.8-.4c3.1-.4 5.7 0 9.2 1.7Zm404.3-.6c-9.2.3-10.3 1.1-9.7 7.2.2 2 .3 7 .4 11.1 0 8.9 0 8.8 10.2 9.5 5.9.4 6.9.2 7.8-1.4 1.3-2.6 1.8-24.9.5-26a32 32 0 0 0-9.2-.4ZM839 503.6c-.5.5-1 6.2-1 12.6 0 8.8.4 12 1.5 12.8.8.7 4 1 8.2.9l6.8-.3.5-12.4c.3-6.7.2-12.8-.2-13.5-.8-1.3-14.4-1.5-15.8-.1Zm32.8.5c-1 3.4-.5 22.5.5 23.8 1.6 2 15.6 1.6 16.4-.4.3-.8.7-6.8.7-13.2l.1-11.7-8.6-.2c-7.6-.1-8.7.1-9.1 1.7Zm34.2 11c0 15-.5 14.3 11 13.8l6.5-.3v-26L906 502v13Zm33.8-12.4c-.4.4-.8 6.2-.8 13 0 14.6.3 15 9.2 14.1 3.3-.3 6.5-1 7-1.4.5-.5.8-6.5.6-13.4l-.3-12.4-7.5-.3c-4.1-.1-7.9 0-8.3.4Zm89.5.2c-1.8 1.1-1.6 23.6.2 25.1 1.7 1.5 15.4 1.6 16.9.2a93 93 0 0 0 .1-25.2 44.2 44.2 0 0 0-17.2-.1Zm-695.8 1.6c24.6.5 28.9 1 34 4 7.3 4.3 24.7 19 39.7 33.4 15.3 14.7 16.4 15.4 27.8 17.2l9 1.5 13 2.4c28 5.1 40.7 9.1 48 15l2.5 2h-9c-9.7.1-13 1.3-12.3 4.7.3 1.8 1.4 2 13.2 2 7 .1 13.3.6 13.8 1.1 1.4 1.5 2.4 9.9 2.4 19.8 0 7.4-.4 9.5-2 11.7-3.2 4.2-8 5.8-17.6 5.9-13.8.1-12.6.6-13.4-5.2a40 40 0 0 0-22.5-29 39.2 39.2 0 0 0-36.6 4 36.2 36.2 0 0 0-15 26.4l-.6 4.9-57.2-.7c-31.4-.4-62.6-.8-69.2-1l-14.5-.4c-2.2 0-2.6-.7-3.6-5.8-4-21-21.4-33.6-42.9-31.1-8.3 1-14.6 4-20.9 9.8a38.4 38.4 0 0 0-11.4 22.3l-.4 4.7h-12.4c-18.9 0-21.2-2-20-17.8 1.4-18.8 3.3-29.4 6-33.4 3.4-5 9.5-9.1 18.2-12.2 19.7-7 19.4-6.7 26-16.1 2.1-3.2 7.5-10.6 12-16.6l10.8-14.9c1.5-2.2 3.8-4.7 5-5.5 3.2-2 23-3.4 49-3.5a556.6 556.6 0 0 0 27.3-.3c2.1.1 12.8.5 23.8.7Zm672 19.1-3.7.3c-3 .3-3.8 0-3.8-1.5a349 349 0 0 1 0-14.6c0-.5 1.7-.7 3.7-.5l3.7.3.2 16Zm36.6.4-8-.1v-7.7c0-4.3.3-8 .6-8.4.4-.4 2.2-.7 4-.7h3.4V524Zm-158-.9h-7V508l6.4.6.6 14.5Zm34 0H912l-.3-7c-.2-4-.2-7.4 0-7.6.3-.2 1.8-.4 3.3-.4h2.8v15Zm32.7-6.7.3 7.7h-3c-3.4 0-3.8-1.2-3.2-10.3.3-5.6.4-5.8 3-5.5 2.6.3 2.7.5 3 8ZM850 524h-6.7l.3-6.2.4-7.5c0-.8 1.4-1.3 3-1.3h3v15ZM261 516.7c-8.1.9-12.1 1.8-14 3.2a54 54 0 0 0-7.8 10.3c-15.6 25-17.2 28.3-15.3 31.7.9 1.7 5.7 1.8 90.8 2 106 .3 97.4 1.5 87-11.4A181.8 181.8 0 0 0 372 523c-9.6-6.5-14.6-7.2-60.5-7.5-27-.2-42.5.2-50.4 1Zm945.2-.7c1.6.1 1.8 2.3 1.8 32.4v32.2l-9.5-.3c-17-.6-33 4.1-45.6 13.3l-4.8 3.5-.2-82 28.3.5 30 .4ZM66.9 539.6v20.6l-19.2-.6.2-16c0-8.7.4-16.2.7-16.7.2-.4 1.7-.8 3.2-.8 3 0 12.5-4.2 13.6-5.9.4-.6.9-1.1 1.1-1.1.2 0 .4 9.2.4 20.5Zm218.5 17.5h-54.7l1.8-2.7c1-1.4 5-8.1 9-14.8 4.1-6.7 8.1-12.8 9-13.5a137 137 0 0 1 30-3.9l5.2-.1-.3 35Zm41.5 0h-2.7c-3.2.2-9.1.2-22.5 0h-9.8v-35h35v35Zm28.8-33c7.2 1.3 15.1 7 28 19.8a170 170 0 0 1 12.2 13c0 .4-14 .7-31.2.7h-31.3l-.5-35.7 9.3.7c5 .4 11.2 1 13.5 1.5Zm732.3.8c-2 1.5-2.1 2.5-1.8 10.2l.3 8.5 4.3.3c2.4.2 4.8-.1 5.5-.7a48 48 0 0 0 .2-19c-1-1.7-6-1.3-8.5.7Zm21.6-1.1a71 71 0 0 0 0 18.7c.4 1.2 2 1.6 5.9 1.6 6.3 0 6.5-.3 6.5-10.5s-.3-10.5-6.5-10.5c-2.9 0-5.5.3-5.9.7Zm51 7a65 65 0 0 0-.6 10c0 9.2 0 9.3 2.5 10 1.4.3 3 0 3.6-.5 1.1-1 1.4-17.5.4-19.2-.8-1.2-5.2-1.4-5.9-.2Zm24.2 0c-1.3.3-1.8 2-2.3 7.1-.9 9.4.2 12.6 4.3 13l3.2.3V542c0-8.5-1-12.1-3-11.7l-2.2.6Zm60.6 1.4c-4.2 2-5.5 6-5.5 17.3 0 9.3.3 10.6 2 11.5 2 1.2 13.1 1.3 14.8.2.7-.4 1.2-4.4 1.3-9.6.2-14.4.2-14.4-3-17.6-3-3-6-3.5-9.6-1.8Zm30.5 1.8c-3 3-3 3-3 14.5 0 10 .3 11.7 1.8 12.4 2.5 1.4 13.3 1.4 14.9 0 2-1.6 1.9-20.9-.2-24.8-3-5.8-9-6.7-13.5-2ZM902 553.2c1 .5 2.6 2.9 3.8 5.4 2 4 2.2 6.5 2.7 24.5l.4 20-26-.1.2-20.7c.2-19.9.3-20.8 2.6-24.6 3.8-6 10.1-7.7 16.3-4.5Zm39.2 5c-2 .7-2.2 1.5-2.2 8.5.1 10 .5 11.4 3.4 11.4 3 0 3.4-1.6 3.3-11.2-.1-8.3-1-10-4.5-8.7Zm-95.6.5c-.4.4-.8 4.7-.8 9.4 0 6.6.4 9 1.5 10 1.2 1 1.9 1 3 0 1.3-1 1.6-3.2 1.3-10.4-.2-8.3-.4-9.1-2.3-9.4-1.1-.2-2.4 0-2.7.4Zm264.5 2c-.9.4-1.3 3.3-1.3 9.5 0 10 0 10 7.2 10.2l4.4.2.2-8.5c.3-7.7.1-8.7-1.8-10.2-2-1.7-6-2.2-8.7-1.1Zm-22.2 2.1c-2 1.6-2.1 2.6-1.8 9.8l.3 8 4 .3a12 12 0 0 0 5.3-.7c1.8-1.1 1.7-15 0-16.7-2.5-2.2-5.5-2.5-7.8-.7Zm-74 .3c-1 .6-1.4 2.6-1.2 7.2.5 14.7-5 33.5-15.6 54.1a322.3 322.3 0 0 1-30 46.4c-2 2.6-2 3.2-.8 5 1.3 1.7 3.2 1.8 24 2.1l22.6.3v12.2l-42.8-.4c-39.3-.4-42.7-.3-43 1.3-.4 2 9 16.8 14.3 22.8 2.1 2.3 6 5.3 8.8 6.7 4.6 2.3 5.7 2.5 12.6 1.9 4.1-.4 9.4-1.5 11.6-2.5 3.9-1.7 4.1-1.7 10.9.6 12.5 4.2 24 3.9 34.3-1 4-1.8 4.6-1.9 8.5-.4a47.7 47.7 0 0 0 34.5 1.2l7.3-2.6 9.7 3.2a53.9 53.9 0 0 0 19.3 3.3c14 .2 25.9-3.9 22.1-7.6-.8-.8-3.4-.6-9.3.7-7.8 1.7-21.2 1.6-24 0-.5-.4 1-2.8 3.5-5.5 5.2-5.9 11.9-18.2 11.5-21.3-.3-1.8-1-2.2-3.8-2.1l-41.6.9-38 .8-.5-12.2 30.3-.1c30.2 0 38-.4 39.9-1.6 1.5-1 0-11.6-2.9-20.4-8-24.4-31.5-61.5-50.6-80.2-4-3.8-18-13.8-19.5-13.8-.4 0-1.3.4-2.1 1Zm10.4 12c7.4 5 22.2 22.7 33.1 39.5a261.5 261.5 0 0 1 20.8 40c4.5 11.7 5.3 15.5 3.5 16.6-.7.5-15.2.9-32.1.9h-30.8v-50c0-27.5.3-50 .6-50s2.5 1.3 4.9 3Zm-784.2 22.4c6.3 3 10.2 7 14.1 15a26.6 26.6 0 0 1-4.6 32.1 31 31 0 0 1-24 10.4c-6.5.2-8-.2-14.3-3.3-8.1-4-10.6-6.4-13.5-13-4-8.9-3.5-22.6 1-29.6a35 35 0 0 1 16-13.7 41.1 41.1 0 0 1 25.3 2.1Zm219.2 1.1a32.4 32.4 0 0 1 14.7 15.4 38 38 0 0 1 .6 24.3c-2.6 6-9.1 12.3-15.9 15.3-5.4 2.4-7 2.7-14.2 2.3-21.4-1.1-32.2-16-28.1-38.8 1.6-9 11-18.8 20-20.9 7.5-1.7 16.7-.7 23 2.4Zm-452.1 5a7 7 0 0 0-.2 3.2c.4 1.7 3.4 1.8 59.4 2 32.4.2 60.4 0 62.2-.2 2.3-.4 3.2-1.1 3.2-2.5 0-1-.4-2.1-.9-2.5-.5-.3-28.4-.7-62-1-51.2-.3-61.3-.1-61.7 1Zm1005 33.3c0 16.3-.2 31-.3 32.5v2.7h-18.6a169 169 0 0 1-18.5-.5c0-.3 2.6-4 5.7-8.1 9.2-12.5 18.7-28.1 24.7-40.6 3.1-6.4 5.7-12.3 5.7-13 0-1.2.8-2.8 1.4-2.8v29.8Zm-792-25.7c-6.2 1.8-9.4 8-8.9 17.3.5 8 5.7 12.6 14.5 12.8 8.9.2 14.6-5 15.6-14.2 1.2-12.2-8.7-19.6-21.1-16Zm218.1 1.3c-4.4 1.9-6.5 5.7-7 12.9-.5 4.8-.2 7 1.2 9.6 3.6 6.8 14.1 9.3 21.1 5 9.9-6.2 9-23.2-1.4-27.5-4.1-1.7-10-1.7-13.9 0ZM232 620c3.5 3.5 3.8 7.7 1 11.4-2.7 3.4-5.3 4.1-9.6 2.7-4-1.3-5.5-3.5-5.5-8 0-8.4 8.3-12 14.1-6ZM451 620c1.4 1 2.4 3.3 2.7 6 .5 3.6.2 4.7-1.7 6.7-2.8 3-8.7 3.4-11.9.8-3.7-3.1-3.2-10.9.9-14 2.3-1.8 7.5-1.6 10 .5Zm-112.5 11.8c38 .3 69.3 1 69.6 1.3.3.3 1 2.8 1.8 5.4.6 2.6 2.3 6.6 3.7 8.8l2.5 4-64.8-.3a7396 7396 0 0 1-80.4-.6L255 650l3-4.7c1.6-2.6 3.4-6.5 4-8.7a128 128 0 0 1 1.3-5.1c.2-.6 1.7-1 3.2-.8 1.6.2 33.9.6 71.8 1Zm443 16.4a42 42 0 0 1-16.5 5.4c-5.8.6-16.8-1.6-22-4.5l-3.9-2.2-5.8 3a31 31 0 0 1-18.7 4.4c-5.8 0-8-.5-13-3-6.7-3.6-8-3.8-9-1.4-1 2.6 3.6 6 11.3 8.3 10 3.1 19.3 2.4 30.5-2.4 3.6-1.6 4-1.6 9.2.4 12.1 4.5 24 4.3 35.6-.6 6-2.5 6.3-2.5 9.8-1a62.2 62.2 0 0 0 19 4.6c5.6 0 15-2 19.3-4l3.8-1.9 6.7 3.2c6 2.8 7.7 3.2 15.2 3.1 6.8 0 9.4-.5 12.8-2.2 7.7-4 4.8-7.5-3.9-4.7a30.4 30.4 0 0 1-25.7-3.7c-3.2-2.4-4.5-2.3-11 1-10.1 4.9-27.4 3.9-36.7-2.2-3-2-3.3-2-7 .4Zm402.7 0c-3.3 2.8-14.4 6-20.8 6a32 32 0 0 1-11.5-2.5c-6.5-2.6-7.8-2.5-7.8.5 0 2.4 8.7 6.6 15.6 7.5 6.5.8 14.9-.7 22.5-4.1 5.9-2.7 6-2.7 9.7-1 10.4 5.1 21.8 5.9 32.6 2.2 6.8-2.4 7-2.4 10.5-.6a42.1 42.1 0 0 0 31.1.7l6.6-2.5 7 2.4c8.8 3 14.4 3 24.3-.1l8-2.6 4 2c2 1.1 6.3 2.4 9.2 2.9 9.6 1.4 22.9-1.6 22.9-5.3 0-2.4-2-2.7-7.8-1-9 2.7-18.4 1-26.4-4.7-1.2-.9-2.8-.5-7.5 1.8-5 2.5-7 2.9-14.4 2.9-7 0-9.6-.5-13.7-2.4l-5-2.3-6.9 2.7c-9.6 3.9-20.3 4-28.7.2a36.9 36.9 0 0 0-7.2-2.7c-.7 0-3.7 1.1-6.8 2.5a35 35 0 0 1-31.8-2.7c-3.3-2.3-4.8-2.2-7.7.2Zm-1083.6 45c-12.9 7.3-37 8-47 1.5-2.5-1.7-4.9-.5-4.4 2 .5 2.6 8.2 6.2 16.3 7.6 12.4 2 26.8 0 37.5-5.6 3.2-1.6 3.3-1.6 10.4 2 11.8 5.9 25.5 6 37 .3l3.9-2 6.1 2.8c9.1 4.1 20.6 4.5 30.1 1 6-2.1 7.3-2.3 9-1.2 6.3 4 14 6 24.5 6 9.8 0 11-.1 17.3-3.1 5.1-2.4 6.7-3.7 6.7-5.2 0-2.7-2.4-2.7-8.6 0a45 45 0 0 1-27.9 1 36.2 36.2 0 0 1-10-4.5c-3.6-3-4-3.1-7.5-.6-1.6 1.2-6 2.7-9.7 3.5-8.9 1.9-16.8.7-23.5-3.5-2.7-1.6-5.2-3-5.6-3-.5 0-3.4 1.4-6.5 3.1-10.8 5.8-26 5-36.7-2.1-2.4-1.6-5-3-5.5-2.9-.5 0-3.2 1.4-6 3Zm442.4 2.5c-4.6 3.3-17 6.4-24 6-3-.2-7.6-1.4-10.3-2.5-5.2-2.3-7.3-1.7-6.2 1.8.8 2.5 9.3 6.1 16 6.8 6.2.7 16.7-1.6 23.6-5.1l5-2.6 5.3 2.4c12.3 5.9 22.9 5.9 37 0 5.1-2.1 5.9-2.2 8-.9 4.5 3 11.3 4.7 19.3 4.8 6.8.1 9.2-.3 14.6-2.6l6.6-2.8 6.3 2.2c12.8 4.4 28.4 3.3 32.3-2.3 2.5-3.5.4-4.1-6.8-2.2a37 37 0 0 1-26-2c-5.6-2.8-5.8-2.8-8.7-1.2a45 45 0 0 1-16.3 5.3c-5.7.6-16.8-2.4-21-5.7l-2.8-2.1-5.7 3c-13 6.9-28.6 6.5-38-1-3.1-2.4-4-2.3-8.2.7Zm-205-.1c-.8.7-4 2.3-7.2 3.5-8.3 3-17.6 2.8-24.6-.4-6.8-3.2-9.4-3.3-9-.3.6 4.2 12.6 8.8 23.1 8.8a49 49 0 0 0 18.4-5.1c.7-.6 3 0 6.4 1.8 4.7 2.5 6.5 2.8 14.4 2.8 7.2 0 10.2-.5 14.5-2.3l5.5-2.3 6 2.5a36.6 36.6 0 0 0 27.8-.6c6-2.8 7.9-5 5.9-7-.9-1-2.4-.6-6 1.1a38.7 38.7 0 0 1-22.5 2.2c-2-.7-5.2-2.3-7.1-3.7l-3.6-2.4-5.7 3.3c-5.3 3-6.5 3.2-14.3 3.2-8 0-9-.2-13.9-3.2-6-3.8-6.1-3.8-8-2Zm753.1 5.8c-2 3.2-5.3 7.6-7.4 9.7-3.4 3.7-4 4-6.4 2.9-1.5-.7-3.2-1.5-3.7-2-1.6-1.3-4-1-9.8 1.7a40 40 0 0 1-34-.2l-4.8-2.6-5.4 2.6a37.2 37.2 0 0 1-34.1.7c-6-2.9-6.5-3-8.7-1.6a39 39 0 0 1-16.1 4.6c-2.1 0-5.4-.7-7.2-1.6-3.6-1.7-10-8.6-14.4-15.7l-2.7-4.2h158.4l-3.7 5.7Zm153 1c-6 3.9-13 5.8-21.2 5.8-7 0-20.7-2.4-22.2-4-1.4-1.3-4.6.1-4.6 2 0 6 27 9.8 40.8 6 2-.5 5.6-2 7.9-3.4l4.3-2.5 5.5 2.6c12 5.5 24.5 5.7 37 .7l6.2-2.5 3.4 2a49.5 49.5 0 0 0 39.8.1c1.6-.8 2.8-.7 5.3.7a54.2 54.2 0 0 0 28.5 0c3-1.6 4.2-4.4 2.7-6-.3-.2-2.6.2-5.2 1a43.3 43.3 0 0 1-25.2-1.1l-5.4-2.3-6.4 3c-6 2.7-7 3-15.7 2.5-8.1-.3-10.2-.8-15.8-3.7l-6.6-3.3-6.8 3.3c-6.3 3.1-7.5 3.4-16.4 3.4-9.2 0-10-.2-17-3.8a70 70 0 0 0-8-3.6c-.2 0-2.5 1.4-5 3Zm-412.5-.3c-2.4 2.7-12 6-19.7 6.7a40 40 0 0 1-21-3.5c-4.4-2.2-6.9-1.8-6.9.9 0 2.5 1.7 3.6 10 6.3 12.7 4.1 23.1 3.4 35.6-2.4l6.1-2.9 4.2 2c9.3 4.6 22 4.8 33 .8 4.6-1.7 5.5-1.8 7.4-.5 1.3.7 3.6 1.8 5.2 2.2l4.5 1.3a47 47 0 0 0 19.3-1c7.1-3.2 5.7-7.8-1.5-5.2a30.2 30.2 0 0 1-25.2-3.1c-4.2-2.9-6-3.1-8.2-1-2.7 2.7-12.2 4.8-19.8 4.3a30 30 0 0 1-13.4-3.6c-7.3-3.7-7.3-3.8-9.6-1.3ZM437 735.9c0 1.6-10.8 4.5-18.6 5-5.9.3-9.4 0-12.7-1.1-4.4-1.5-4.7-1.5-5.7.3-3.3 6.3 19.2 9 33.6 4l5.3-1.8 7.8 3.1c7.2 2.9 8.8 3.1 18.8 3.1 9.7 0 11.8-.4 17.5-2.7l6.5-2.7 4.3 2c6.6 3.1 16 5 22.8 4.5 6.9-.5 17-3.8 17.8-6 1-2.5-1.6-3.4-5.9-1.9a42.7 42.7 0 0 1-33.5-2.9l-5.5-3-7 3.4c-6.5 3.2-7.5 3.4-17 3.4a39.8 39.8 0 0 1-23-5.6c-3.3-2-5.5-2.4-5.5-1.1Zm277 3a41 41 0 0 1-20.6 5.9c-7.4.4-9.8.2-14.8-1.6-5.4-1.9-6.1-2-7.5-.6-1.4 1.4-1.3 1.8.9 3.4 8.3 6.3 27.9 6.3 40.2 0l4-2 5.7 2.4c6.7 3 14.5 4.6 20.4 4 4.4-.3 13.5-3 15.3-4.4.6-.5 3.8.3 7.5 1.9 5.5 2.3 7.9 2.7 16 2.7s10.3-.4 15.2-2.7c4.3-2 5.7-3.2 5.7-4.7 0-2.7-2.3-2.7-9 0a34.6 34.6 0 0 1-28.3-2.2c-4.1-2.5-5.5-2.4-11.8.8-3 1.5-7.7 2.9-10.5 3.1-6 .5-15.2-1.9-20.6-5.4-4.4-2.8-4.5-2.9-7.8-.5Zm-495.3 2.9a49 49 0 0 1-13.2 3.5c-8 1.1-8.7 1-17-1.7-6.7-2.2-8.8-2.5-9.8-1.6-2.7 2.8 7.7 8.1 18.8 9.6 4.4.6 17.2-1.6 23-4 3.2-1.4 3.8-1.3 8.2.7 7 3.1 22.5 3.1 30.5 0l5.6-2.2 5.3 2.6a40 40 0 0 0 32.6.2c4.8-2.3 6.7-5 4-6-.7-.4-4.3.4-8 1.7a30 30 0 0 1-12.5 2c-7.5-.6-15.4-3-17.6-5.5-2-2.1-4.5-2.6-6.1-1.1-.5.5-3.6 1.8-6.7 3-9.5 3.4-22.5 2.4-27.6-2.3-2.3-2-3.5-1.9-9.5 1Zm759.7 17c-10.4 6-23 6.7-32.6 1.9-5.6-2.8-5.8-2.9-9.5-1.3a38.8 38.8 0 0 1-34-.4c-2.5-1.4-5.3-.6-5.3 1.5 0 2.3 6.3 5.6 13.9 7.1a44.3 44.3 0 0 0 24-1.5c5.2-1.9 5.3-1.9 9 0 9 4.7 21.4 4.6 32.8-.1 6.9-2.9 8-3 10.8-2 14 5.7 26.3 5.7 36.8-.2 6.4-3.5 3.2-7.6-3.3-4.3a35.2 35.2 0 0 1-31.1-.9c-6-3-6.2-3-11.5.1Z" clip-rule="evenodd"/></svg>