<svg xmlns="http://www.w3.org/2000/svg" width="1371" height="683" fill="none"><path fill="#000" fill-rule="evenodd" d="M354.3.7c-1 .3-1.3 3.2-1.3 9.4V19h-2.9c-3.3 0-5.4 2-4.5 4.4.4 1 1.8 1.6 4.1 1.6h3.6l-.7 4.3A59238.2 59238.2 0 0 0 329 134.4c-5 22-9.7 41-10.5 42.1-.7 1.2-2.9 2.8-4.8 3.7-3.8 1.9-7.1 6.1-6.3 8.2.2.7 1.5 1.5 2.8 1.7l2.3.3.3 33.2c.2 32.4.2 33.2-1.8 34.3-2 1-2 2-2 21.8v20.7L277.2 332c-31.5 31.1-37.6 38-37 42.3.2 1.8 1 2.3 4.6 2.5l4.2.3V496l-3.8 1.2c-3.8 1.2-13.2 7.5-13.2 8.8 0 1.2-6.7 8.1-7.9 8.1-.8 0-1-12.2-.9-45.3l.3-45.2 2.2-.3a6.4 6.4 0 0 0 3.7-2.4c2-3 1-4.6-11.5-18a855 855 0 0 1-15.8-17.3l-5.2-6-7.2-.5c-4-.3-16.2-.5-27.2-.5l-51.4.3-31.4.2-3.2 3.5c-3 3.1-8 9.2-20.3 24.5l-6.8 8.4c-3.6 4.5-2.9 7.8 2 8.7 1.8.4 1.9 2.6 2 70.6l.1 70.3H27.9c-18.5 0-25.8.3-26.7 1.2-1.9 1.9-1.4 4.6.9 5.3 3.2 1 996.1 1.3 998.1.3s2.3-3.9.6-5.6c-1-1-20-1.2-79.6-1.2h-78.4l.7-2.8c1.4-5.9 10-15.9 16.5-19.2 4-2 12.6-4 17.6-4 3.6 0 8.5 2 11.7 4.8 1.6 1.4 2 1.3 4-.5 9.8-9 24.7-8.3 32.8 1.7 1.9 2.3 4.1 4.9 5 5.7 1.4 1.3 8.6 1.5 51 1.3 27.1 0 49.8-.5 50.2-1 .5-.4.7-1.8.5-3.1-.3-2.3-.8-2.4-8-2.7l-7.8-.3v-54.2c-.1-56.6-.3-60.5-2.5-67.4l-1.4-4.3h56.9v33c0 31 .1 33 1.8 34 4 2 4.2 0 4.2-34.2 0-28.1.2-32.8 1.5-32.8.8 0 1.9-.9 2.5-2 .8-1.5.4-2.9-1.9-6.7l-10-16.8a72.4 72.4 0 0 0-35-34c-2-.6-2.1-.7-2.1-26.8v-26.2l2.3-1c1.3-.6 2.3-2 2.5-3.8.3-2.3 0-2.8-2.7-3.3-3-.6-3.1-.9-3.1-5.5 0-20-13-40.2-31.6-49l-5.1-2.4-.6-11c-.6-14.5-1.8-18-7.8-23.6l-4.9-4.7v-9.6c0-7.9-.3-9.8-1.6-10.3-3-1.2-4.3 1.8-4.5 11.4-.2 7.5-.6 9.4-1.9 9.8-2.8.9-8.7 7.9-10.5 12.5-1 2.8-2 8.5-2.2 15l-.6 10.6-5.6 2.6a52.3 52.3 0 0 0-20.1 18c-5.8 8.3-9 17.3-9.9 27.7-.6 7.5-.6 7.6-3.6 8.1-2.5.4-3 1-3.3 3.7-.3 2.8 0 3.3 2.2 3.9l2.6.6v53.5l-4.8 1.8c-3.5 1.4-7.6 4.7-16.3 13.4a103.4 103.4 0 0 0-22.5 29.8 76 76 0 0 1-5.2 8.5c-1.8 2.1-.9 4.8 1.8 5.5 1.9.5 2 1.4 2 16.7l.6 56.3.6 40.1-4.5.7c-2.5.4-5 .4-5.6 0-.7-.4-.9-6.4-.5-17.8l.5-17.2-3.4-8c-7.4-17.2-8.3-19-9-20.3-.6-1-9.7-1.2-39.8-1.2H776v-39.7h3.2c2.8-.2 5.8-2.3 5.8-4.3 0-1.6-50.9-49.9-56.7-53.8-2-1.4-5.5-3-7.7-3.7l-4.1-1.2-.5-9c-.4-6.6-1-9.6-2.5-11.9-1.6-2.3-2.1-5.1-2.5-13.4l-.5-10.5-3.8-.3c-6-.5-6.7.7-6.7 11.5 0 8.1-.3 9.8-2.2 12.4-2 2.6-2.2 4-2 11.8l.2 8.9-4.5.6c-2.7.4-6.7 2.2-9.9 4.4a785.8 785.8 0 0 0-56.6 53.6c0 2.1 2.3 4.4 5 5l3 .6v30h-25.3c-37.3.2-42.2.8-41.5 5.3.3 1.9.9 2.2 4.3 2 9.3-.6 51.5-1 56.8-.6l5.7.5V565h-18.2l4-4.6c8.4-9.5 10.3-22.4 4.8-31.9-2.3-3.9-9-9.5-11.3-9.5-.5 0-1.3-2.2-1.6-5-1.5-12.5-10.1-20.4-22.2-20.3-9.6.1-17 4-20 10.8a60 60 0 0 0-2.8 8.4c-1.2 5-1.6 5.6-4.6 6.3-4.5 1.2-11.4 8.4-12.9 13.4-2.8 9.4-.4 17.2 8.4 27.1l4.6 5.3h-52l-.1-43h3.4c9 0 24.3-6.1 31.4-12.6 9.9-8.8 12.4-27 5.7-40.4l-2.6-5.3 2.5-4.3a33.8 33.8 0 0 0 2.9-29.5 30.5 30.5 0 0 0-17.5-14.7c-5.5-1.6-5.8-1.9-7.9-6.9-3-7.1-8.9-13.7-13.8-15.1-5-1.5-13.5-1.5-18.7 0-8.1 2.2-15.3 14-17 28-.5 4.2-1 5-4 6.4a37.9 37.9 0 0 0-12.8 13.6c-1.7 4-2.3 3.5-2-2l.2-33.4.1-28.7 3.8-.3c3.1-.3 3.7-.7 4-2.8.2-2.1-5-7.9-32.8-35.7l-33-33.2v-23c0-19.6-.2-23.1-1.5-23.9-1.3-.7-1.6-5.3-1.6-34.3 0-31.3.2-33.4 1.8-33.5l3-.3c2.4-.2 2.3-3.5-.3-7.3-2-2.8-3.4-3.8-5.4-3.8-1.5 0-3.3-.6-4-1.4-.6-.8-3-10-5.5-20.3a4908.5 4908.5 0 0 1-25-111.2c-1.9-8.5-3.5-16.7-3.5-18.2 0-2.5.4-2.8 3.8-3 3.2-.4 3.7-.7 3.7-2.9 0-2-.5-2.6-3.3-2.8-1.7-.2-3.2-.6-3.3-1l-.4-8.6c-.4-8.6-1.5-10.5-5.3-9ZM119.4 9.9a38.5 38.5 0 0 0-27 29.4c-.7 4.7-.9 4.9-3.4 4.2-1.4-.4-6-1-10.3-1.2-6.7-.4-8.5-.1-13.1 2a34.6 34.6 0 0 0-15.4 14.4c-2.3 4-2.7 5.9-2.7 11.9 0 13.5 8.3 24.1 20.6 26.4 3.5.7 32.6 1 79.4.8l73.9-.3 3.7-2.3c12-7.4 3.8-27.3-11.7-28.5-4.8-.3-5-.4-5.7-4-.4-2.1-1.4-5-2.3-6.6a35 35 0 0 0-16-13c-3.9-1.2-14.4-1.2-18.4 0-1 .3-1.5-.7-1.8-3a37.5 37.5 0 0 0-20.8-27.7c-5.3-2.6-7.2-3-16-3-5.5-.2-11.3 0-13 .5Zm24.5 8.3c8 3 15 10.5 17.3 18.4 1 3.3 1.7 7.5 1.7 9.3 0 3.8 1.5 7.1 3.3 7 .7 0 3.8-1 6.9-2.2C187 45 199.8 53 201.6 68.4c.8 6.5 2 7.5 6.5 5.6 6-2.5 14.2 2 15.5 8.7.5 2.6.1 3.7-2 5.8L219 91l-75.2-.2c-73.2-.3-75.4-.4-78.7-2.3a29.4 29.4 0 0 1-6.4-5.8c-2.6-3.1-3.2-4.9-3.5-10-.6-9.9 3.7-17.6 12-21.4 8.7-4 15.4-3.7 22.7 1.3 5.8 4 8.1 2.8 8.7-4.2 1-13 3.2-18.4 9.9-24.2 10-8.9 22-10.9 35.5-6ZM1219.2 41a39.1 39.1 0 0 0-30.7 31c-.4 2.5-.8 4.6-1 4.8 0 .1-1.7-.4-3.6-1.2a36 36 0 0 0-29.1 2.7 44 44 0 0 0-15 16.2 32.4 32.4 0 0 0 0 21.7 27 27 0 0 0 12.7 12.9c3.8 1.8 8.2 1.9 85 1.9 77.2 0 81.2-.1 85.2-2 4.7-2 9.3-8.8 9.3-13.6 0-8.1-8.5-18.3-16.5-19.8-2.8-.6-3.5-1.2-3.5-3 0-1.2-1.4-5-3-8.4a27.4 27.4 0 0 0-14.8-13.8 41.4 41.4 0 0 0-20.5 0c-2.8 1-4 1.1-4.3.3-.2-.7-1-3.2-2-5.7-.8-2.5-2.6-6.2-4-8.2a50.3 50.3 0 0 0-18.9-13.5c-5.8-2.4-19-3.6-25.3-2.3Zm14.8 7c6.5 1.2 15 5 19.3 8.6 4.8 4 7 8 8.7 16.2 1.8 8.2 3.7 10.6 6.8 8.4 13.7-9.9 31.9-4.4 35 10.7a43 43 0 0 1 1 5.9c-.5 3.5.3 4.2 5 4.2 8.3 0 14.2 5.6 14.2 13.3 0 2.3-.8 4.1-2.6 5.8l-2.6 2.4-161.1.5-3.5-2.2a20.6 20.6 0 0 1-9.2-16c0-9 6-17.5 15.5-22a24.8 24.8 0 0 1 26.2 1.8c3.7 2.8 6.8 3 7.7.8.3-.9.6-3.6.6-6a31.8 31.8 0 0 1 26.5-32.5c6-1 6.8-1 12.5.1Zm-877 2.6c0 2.2 10.4 49.3 20.2 91.9l5.5 24a72 72 0 0 0 4.3 14.2l2 3.3h-33.5c-18.4 0-33.5-.3-33.5-.7 0-.4.9-1.6 2-2.8 1.4-1.5 3.6-9.6 8-29a7142.2 7142.2 0 0 1 14-62l7.7-34.2c1-4 2-7 2.5-6.7.4.3.8 1.2.8 2Zm167 89a37 37 0 0 0-13.8 8.8 29 29 0 0 0-8.3 14.6c-1.4 4.4-2.1 5.4-3.6 5.1a23 23 0 0 0-22.5 7.7c-6.6 7.3-7.6 16.9-2.4 23.7 5.2 6.8 3.2 6.6 60 6.7l51.3.2 4.6-2.8a21.1 21.1 0 0 0 8.7-27.4c-4.2-9.8-12-14.5-23.3-14.1l-7 .2-2-5.3c-2.7-7.2-9.6-14-17-16.9-7-2.5-18-2.8-24.7-.4Zm23.6 7.8c2.8 1.3 6.5 4 8.2 6.2 3 3.6 3.8 5.6 5.6 13.7.8 3.2 4.4 5 6.5 3.3.8-.6 4.4-1 8-1.1 5.8 0 7.2.4 10.4 2.8a15 15 0 0 1 6.7 12.8c0 4.8-2.7 9.8-6.8 12.5-2.5 1.8-5.8 2-51.7 2-48.5.2-49 .2-52.2-2-7.7-5-6.8-13.3 2.2-20.2a14 14 0 0 1 15.3-.8c4.1 2.4 5.4 1.1 7.7-7.3 2.5-9.3 4.7-13.5 9.6-17.7a26.8 26.8 0 0 1 18.9-6.5c4.8 0 7.8.5 11.6 2.3ZM390.5 257.5h-71l-.3-32.5c-.1-17.9 0-33 .2-33.7.4-1 8.8-1.1 35.8-.8l35.3.4v66.6Zm-41.4-50a19 19 0 0 0-3.6 5.8c-.3 1.2-.4 9.2-.3 17.7l.3 15.5 7.4.5c10.8.7 10.5 1.2 9.8-17.3-.6-16.2-1.1-18.2-5.5-23-3.3-3.5-4.4-3.4-8 .8Zm633.3 6.6c4.2 5 3.6 5.5-5.9 5.4-6.9 0-8.5-.3-8.5-1.5 0-2 2.4-5 5.7-7.1 3.1-2 4.8-1.5 8.7 3.2Zm3.8 13.2.2 6.8.1 5.6-20.5-.2V226h10c7.3 0 10 .3 10.2 1.3Zm5.8 21.2a48 48 0 0 1 31 42.7v6.8l-45.4-.1c-24.9 0-45.9-.5-46.6-.9-2-1.3-.8-14.4 2-21a53.8 53.8 0 0 1 22.7-25.8 56.1 56.1 0 0 1 36.3-1.7Zm-598 62.8v231.2l-22.8.6-.4-21.3c-.5-25.2-1.3-28.2-8.8-35.2-2.7-2.5-5.8-4.6-6.9-4.6-3.4 0-10.4 6.2-13.1 11.5-2.4 4.8-2.5 5.8-2.8 27.3l-.3 22.2h-24l.3-97.3c.1-53.4.4-116.2.6-139.4l.3-42.3H394v47.3ZM348.4 289c-2.9 3-2.9 3.2-3.2 15.8-.3 10 0 13 1 13.3.7.3 4.9.2 9.3-.1l8-.6.3-10c.4-12.5-.2-15.6-3.5-18.9-3.6-3.7-8-3.5-11.9.5Zm8.1 13.4c0 9 0 9-2.5 9s-2.5-.1-2.4-7.7c.1-9 .8-11 3.1-10.6 1.6.3 1.8 1.5 1.8 9.3ZM1025 359l-32.3.3c-17.7.2-39.5.2-48.5 0L928 359V305h97v54Zm-716.5 10.8c-.3 1-7 1.3-29.5 1.3-16 0-29-.3-29-.7 0-1.6 9.6-12 25-26.7l25-24.6 8.5-8.6.3 29c.1 16 0 29.6-.3 30.3Zm940.4-55c-1.2.3-1.8 2.1-2.3 7.6-.5 6.6-.9 7.4-3.8 9.7l-7.2 6-3.9 3.6.4 28.4h-2.6c-3.5 0-4.5 3.1-4.5 14.4 0 8 .3 9.6 1.9 10.7 1.8 1.4 1.8 2.1-1 27.4a5501.4 5501.4 0 0 0-8.9 86c-4 40.3-3.4 37.5-7.1 37.5a26.6 26.6 0 0 0-24 16.8c-2.3 5-2.7 6.8-1.8 7.8 1 1.2 16.5 1.4 93.4 1.4 83.2 0 92.3-.2 92.9-1.6 1-2.7-.5-6.2-3.2-7.2-4-1.5-19.5-4.9-29-6.2l-8.3-1.2-4-6c-7-10.2-15-14.4-26-13.6a19 19 0 0 0-9.8 3.1l-4 2.7-.5-2.2a2372.1 2372.1 0 0 0-3.5-35.8 2651.2 2651.2 0 0 1-3.6-36l-1-9.5-3-32.2c-3-30.8-3-31.3-1-31.3 2.2 0 2.7-3.5 2-12.8-.8-11.2-1.1-12.2-4-12.2-2.4 0-2.5-.3-2.5-6.8 0-10.9-1.1-20.5-2.5-22.8-.8-1.2-4-4.1-7.4-6.5l-6-4.4v-6.6c-.1-6.8-1.1-8.9-4.2-8.2Zm-794 54.7c-.8.7-4.2.8-29.1.7L401 370v-55.5l27.2 27.2c15 15 27 27.5 26.7 27.7Zm490.3-49.2a63.7 63.7 0 0 0 0 25.4c.7.5 2.6.9 4.3.9h3l.3-12.5c.2-10.9 0-12.6-1.5-13.7-2.1-1.6-4.5-1.7-6.1-.1Zm28.5.6c-1.4 1.5-1.7 4-1.7 12.3 0 5.7.4 11 .9 11.7.5.8 2.3 1.2 4.7 1l3.9-.3.6-24.5-2.6-1c-3.5-1.3-4-1.3-5.8.8Zm28-1c-.3.4-.7 6.4-.9 13.2l-.3 12.5 3.7.3c2.7.2 4-.1 4.6-1.5 1.1-2.1 1-22.2-.1-24-.9-1.4-6.3-1.8-7-.5Zm253.3 19.4c2.7 1.8 5 3.6 5 4 0 .4-4.5.7-10 .5-5.5 0-10-.5-10-.9 0-.8 8-6.8 9.2-6.8.5 0 3 1.5 5.8 3.3ZM708.7 349c1.7 3.3 1.7 15 0 15.1-6.5.6-6.2.9-6.5-6.2-.3-7.7 1-12.2 3.5-11.7 1 .2 2.3 1.4 3 2.8Zm553.6 7.8c.4 3.7.7 8 .7 9.8v3l-24.5-.1-.6-19.5h23.8l.6 6.8Zm-911.7-2.5c-4 4.3-8.2 13-10.9 22.7-1.8 6.7-2 11-2.5 41.9a375 375 0 0 0 .5 35.2c1 1 31.6 1.5 33.2.5 1.8-1.2 1.5-62.2-.4-73-2.5-14.2-8.5-26.4-14.6-29.7-1.7-.9-2.6-.5-5.3 2.4Zm6.8 9.5c1.3 2.1 3.4 7 4.7 10.8 2.1 6.5 2.3 9 2.7 40.1.3 30 .2 33.3-1.2 33.4a167.7 167.7 0 0 1-14.6 0l-5-.1v-29.3c.1-29.7.7-35.8 4-45.9a40.3 40.3 0 0 1 6.6-12.8c.2 0 1.5 1.7 2.8 3.8Zm678.5 4.8c7 3.2 19.2 15.5 24.9 25.1 4 6.8 9.2 16.7 9.2 17.5 0 .2-13.7.2-30.5.1l-30.4-.2-3.7-4a41 41 0 0 0-57 .1l-5.2 4.8h-62l2.5-4.8c3.8-7.1 6.3-11.1 11-17.5 5.4-7 17.8-18.4 23.4-21.4l4.2-2.3h108.2l5.4 2.6Zm-319.5 4c8.7 2.2 10.4 3.6 42.2 34.6l14.1 13.8H705c-37.4 0-67.9-.2-67.9-.3 0-.9 32.8-32.4 43.8-42.2 2.4-2.1 6.7-4.7 9.5-5.6a53.4 53.4 0 0 1 26.1-.4ZM309 543h-11.6l-.6-5.4c-.3-3-1.4-7.1-2.5-9.3-2.7-5.2-9.1-10.9-14-12.4-3-.9-4.2-1.8-4.7-3.7-1.6-6.5-9-13.5-16-15.3l-4.1-1V377H309v166Zm143.3-122.8c.2 23.8.2 61.2 0 83L452 543h-51V377h51l.2 43.3Zm817-36.6a16 16 0 0 1 0 5c-.3.2-9 .4-19.4.4H1231v-10l8.3-.2c4.5-.2 13-.2 18.9 0l10.6.3.4 4.5Zm-1063 16.5c7.6 8.3 13.8 15.4 13.8 15.8 0 .8-160.8.6-161.6-.2-.4-.3 4.7-7.1 11.2-15.1l11.7-14.5 10.1-.3c5.6-.2 30.6-.4 55.6-.6l45.5-.3 13.8 15.2Zm1059.2-2.4c.3 1.6.8 5.5 1 8.8l1.6 19a1075.9 1075.9 0 0 0 3.5 38l3.5 35.5c1.6 15.7 3.2 32.7 3.6 37.8l.7 9.2h-59.5l.6-7.3a1069.2 1069.2 0 0 1 3.1-30.2l2-18.5 2-18a5511.2 5511.2 0 0 1 4-38c.9-8.3 3.5-36.3 3.5-37.7 0-1 3.1-1.3 15-1.3h14.8l.6 2.8ZM513 401c4 2.9 7.9 9.2 8.6 14.4.4 2.6 1 5 1.5 5.3.5.3 3 .7 5.6.8 6.8.5 11.7 3.2 15.5 8.5 3 4.2 3.3 5.2 3.3 11.6 0 7.2-2.3 13-7.6 19.6l-2 2.5 3.5 5.2c4.7 7 6 11.4 5.3 18.3-1.3 14.8-11.5 24.3-29.2 27.4a71 71 0 0 1-7.2 1c-.2 0-.5-4.5-.8-9.8l-.6-9.7 6-6.2c3.4-3.5 6.1-6.9 6.1-7.6 0-2.3-3.6-1.2-7 2.3-1.9 2-3.7 3.5-4 3.5-.3 0-.7-4.1-.8-9.1-.1-5-.5-9.6-.8-10-.8-1.3-4.2-1-5 .2-.4.6-.7 11.6-.8 24.3l-.2 23.1-4.2-.2a23.7 23.7 0 0 1-22-18.4c-1-3.7-1-4.9.3-13.1.6-3.9.4-4.8-.8-4.8-2.7 0-6.6-4-9.2-9.8a29 29 0 0 1-.6-23.5c3-6.1 10-13.4 13.6-14.2l4.2-1c.8-.3 1.2-2.9 1.1-8 0-6.6.3-8.3 3.3-14.1 1.8-3.6 4.4-7.3 5.7-8.2 5-3.3 14.6-3.4 19.2-.3Zm472.5 2.6a35.3 35.3 0 0 1 15 8.7c5.1 5.5 5.6 6.4 7.6 14 1.7 6.7 1.8 11.9 1.9 63.3v56l-3.2-.2a343 343 0 0 0-10.5-.2l-7.3-.1v-18.8c-.2-20.4-1-25.4-5-28.4-6-4.5-15.3-2.8-18.7 3.4-1.5 2.8-1.8 6.1-2 23.3l-.2 20-21.1.6v-51.8c0-28.5.5-55.2 1-59.3 2.1-16 11-26.5 26-30.3 5.6-1.5 11-1.5 16.5-.2Zm-47 18.3c-2.2 7.9-2.4 15.1-2.5 67 0 36.8-.3 56.2-1 56.2-.5 0-1-.4-1-.9 0-1.6-8.3-9.2-12.4-11.4-6.3-3.4-18.4-3.1-25.4.5-5 2.6-5.4 2.6-8.7 1.2L884 533v-9.3l-.5-22.7c-.3-7.4-.6-29-.9-47.8l-.5-34.2h57.1l-.7 2.8Zm310 2.1c-.3.5-.6 4.4-.6 8.6-.1 8.7 1 10.9 4.8 9.4 2.1-.8 2.3-1.5 2.3-8.7 0-4.7-.5-8.3-1.2-9-1.4-1.4-4.5-1.6-5.3-.3ZM216.7 565H60V424l156.5.5.2 140.5Zm59.5-135.6-3.7 3.4-.3 18.2c-.2 10.7 0 18.6.6 19.2a46 46 0 0 0 17 .4c1.9-1.1 1.6-32.8-.2-37.1-1.3-3-6.6-7.5-8.9-7.5-.4 0-2.4 1.5-4.5 3.4Zm146.7-1.1c-1.8 1.2-4 3.4-4.6 4.7-1.7 3.4-1.8 36-.1 37.8.7.7 4.4 1.2 9.5 1.2 7.3 0 8.4-.2 9.3-2 .8-1.5 1-8 .8-19.5l-.3-17.4-3.4-3.5c-4-4.2-6.5-4.5-11.2-1.3Zm342.9.6 4.2.1v136h-53v-10.8c0-7-.4-11.2-1.2-12-.8-.8-5-1.2-12-1.2-13 0-12.8-.3-12.8 14v10h-52v-67.9c0-37.3.2-68 .4-68.2.3-.3 100.6-.3 126.4 0Zm203.4 3.1a12 12 0 0 0-4.3 4.8c-.6 1.5-1.2 9.8-1.3 18.7l-.1 16 10.5.5c5.8.3 11.6.3 12.9.2l2.4-.4-.5-16.6c-.5-18.2-1-20.1-6.1-23.3a13 13 0 0 0-13.5.1ZM284 450.1V465h-5v-14.8c0-15.2.8-18.5 3.7-16 1 .8 1.3 4.8 1.3 16Zm145.8-15.9c1.3 1.3 1.8 30.3.4 31.1-.4.3-2 .3-3.5 0l-2.7-.5V450c0-14.5.5-17.1 3.5-17.1.6 0 1.6.5 2.3 1.2Zm472.3 5.4-3.1 2.6V456c0 7.6.3 14 .8 14l8.5.3 7.7.1v-13.3c0-7.3-.5-14.2-1-15.3-1.1-2-6-4.9-8.4-4.9-.8 0-2.8 1.2-4.5 2.6Zm138.6.8c-3.5 3.3-4.2 6.3-4.2 19.1v11l8.4.3c5 .2 8.7-.1 9-.7 1-1.6 1.3-15.5.5-21.8-1.2-9.5-7.8-13.4-13.7-7.9Zm-892.2 1.9c-.3.7-.4 6.3-.3 12.3l.3 10.9h13v-24l-6.3-.3c-4.5-.2-6.4 0-6.7 1Zm35-.5c-.2.3-.5 5.7-.5 12V465l13.5-.6.3-9.7c.4-12.7-.2-13.7-7.3-13.7-3 0-5.6.4-6 .7Zm928.1 1.4a9.2 9.2 0 0 0-1.6 4.3c0 1.1-5.8 12-12.9 24-15.9 27.2-50.8 86-62.6 105.5-17.8 29.4-24.5 41.1-24.5 43 0 1.2.9 2.2 2.3 2.5 3.2.7 23 1.3 62.2 2 18.7.4 34.6.8 35.3 1 .8.3 1.2 2.5 1.2 6.6v6.2l-44.3-.7a8560 8560 0 0 1-58.4-1c-17.5-.6-18.3-.1-13 7.7a81.9 81.9 0 0 0 34.3 30.3c1.8 1.4 1.3 1.5-5.7 1.1-6.1-.3-8.9-1-13.5-3.4a42.8 42.8 0 0 0-8-3.4c-1-.2-5 1.2-8.9 3.1-6.6 3.3-7.5 3.5-17.5 3.5-8.2 0-11.4-.4-14.4-1.9-3.4-1.6-4-1.6-5.4-.3-5.5 5.6 13.6 11.3 28.8 8.5 3-.5 8-2.3 11-3.9 4.7-2.5 5.6-2.7 7.4-1.6a47 47 0 0 0 44.9.5l3.8-1.9 8.8 3.6a48.9 48.9 0 0 0 39.8-1.7l5.3-2.6 4.3 2c12.5 6.1 29 6.3 40.6.3l4.5-2.2 7 3.3c12.1 5.7 25.8 5.5 35.7-.5 3-1.9 3-1.9 9 1.2 5.6 2.9 6.9 3.1 16.2 3.2 9 0 11-.3 16.8-2.8l6.6-2.8 5.4 2.8a45 45 0 0 0 26.5 2.3c6.6-2.2 11.4-5.7 11.4-8.5 0-3.7-1.5-3.8-7.5-.4-9.8 5.5-23.8 4.7-31.5-1.7l-3-2.6-6.3 3c-12.3 6-22.8 6.4-32.4 1.1-6.3-3.5-9.4-3.6-14-.7-3.4 2-14.3 5.2-14.3 4 0-.2 2.8-3.2 6.3-6.6 3.7-3.7 8.5-10 12-16 8.5-14.3 9.8-13.6-23-13.7a1121.8 1121.8 0 0 1-45-.7l-14.3-.2v-12.5l36.8.3c41.4.3 41.3.4 37.4-6-1-1.8-17.7-34.3-36.8-72.3l-34.9-69-1-37-2.7-.3c-1.8-.2-3 .4-4.2 2ZM79.8 446.8c-.2 2.6-.2 8 0 12l.4 7.2H93v-24H80.1l-.3 4.8Zm33.6-2.4a51 51 0 0 0 0 10.3l.5 9.6c0 1.6 1 1.8 6.8 1.5l6.8-.3v-23l-6.7-.3c-6.4-.3-6.8-.2-7.4 2.2ZM660 450a67.7 67.7 0 0 0 .4 25c.7.5 3.4 1 6.2.9 8.8 0 8.4.5 8.4-12.9 0-6.5-.3-12.5-.6-13.4-.5-1.2-2.1-1.6-7-1.6-5.3 0-6.5.3-7.4 2Zm36.4-.8c-1 1.7-1.3 23-.3 24.8.5 1.2 2.5 1.6 8 1.5h7.4l.3-12.4c.1-8.1-.2-12.8-1-13.7-1.4-1.8-13.4-2-14.4-.2Zm37 .1c-.2.7-.3 7-.2 13.8l.3 12.4 6.7.2c5.5.2 7-.1 7.7-1.5 1-2 .9-23.2-.2-25-1.1-1.7-13.6-1.7-14.3.1Zm378 91.5.7 78.3-5.8-.5c-5.4-.5-47.3-1.5-75.1-1.8-8.4 0-12.2-.4-12-1.2.2-.6 14.3-24.5 31.4-53.1 31.1-52 45.8-76.7 54.8-92.3 2.7-4.6 5-8.2 5.1-8 .1.2.6 35.5 1 78.6ZM465.5 482c2.6 3.7 3.5 5.8 3.4 8.6a31.2 31.2 0 0 0 6.8 21.9c5.6 6.2 13.4 10 22.3 10.7l4.5.4v18.8l-43.5.5v-36.2c0-33 .2-36 1.6-32.9.8 1.9 3 5.6 5 8.2Zm394.5 15v38.6l-4 1.8c-2.3 1-7 4.9-10.3 8.6l-6.2 6.6-4-3.4a31.9 31.9 0 0 0-10.8-5.5c-15.7-4.7-28.3.7-34.2 14.7l-2.8 6.5H776v-89.5l74.3.2 9.7 21.5Zm-711-13.7c-.6.6-1 5.9-1 11.8V506h14l-.5-22.5-5.8-.5c-3.2-.3-6.2-.1-6.7.4Zm36.8-.6-2.8.3V506h6.4c5 0 6.5-.4 7-1.6.9-2.3.6-18.9-.4-20.4-.8-1.3-5.7-1.9-10.3-1.2ZM80 494.5c0 8.5.3 11.5 1.3 11.6 2.2.2 11 0 11.3-.3.5-.6.6-3.7.5-13L93 483H80v11.5Zm33.7-10.8a90 90 0 0 0-.2 11.3l.1 10.5h13.9l.3-9c.4-13.5.4-13.5-7.3-13.5-3.5 0-6.6.3-6.8.8Zm244.6 8.8c5 5.2 5.7 8.8 5.7 30.9V543h-19.2l.5-20.3c.2-11.6.9-21.8 1.6-24 1.2-3.7 5.6-9.7 7.1-9.7.5 0 2.4 1.6 4.3 3.5ZM1182 618c0 .5-12.8.9-30.5.9H1121v-15.8c0-8.6-.3-36.9-.7-62.7l-.6-47 31.1 61.8c17.2 34 31.2 62.3 31.2 62.8ZM661 497.2c-1.8.7-2 1.8-2 12.6 0 9 .3 12.2 1.4 13.1.9.7 4 1 7.8.9l6.3-.3.3-12.4c.1-6.8-.1-12.8-.6-13.3-1.1-1.1-10.7-1.5-13.3-.6Zm36.1-.3c-1 .6-1.4 3.8-1.6 11.4-.4 16.3-.7 15.7 8.1 15.7h7.4v-27h-5c-2.6 0-5.4-.2-6.2-.5-.7-.3-2 0-2.7.4Zm41.6-.1-5.7.3V524h15v-13.4c0-15.2.6-14.3-9.3-13.8Zm508.5 3.4c-1.7 1.8-2.2 4-2.5 10.5-.6 9.3-.2 10 5.8 9.9l4-.1.3-9.5c.3-8.7.1-9.6-1.9-11.3-2.7-2.2-3.1-2.2-5.7.6Zm-651.2 2c5.3 3.7 7 6.7 7.7 14.1.6 7.3 2 9.7 5.6 9.7 3.4 0 6.7 2.8 8.8 7.4 4 8.7 1.6 16.6-7.8 26l-5.6 5.6h-33.2l-4-3.8a75.3 75.3 0 0 1-12.3-15c-1.9-3.4-1.5-10 1-14.2 2-3.6 8-7.6 9.8-6.5.5.3 2 .1 3.3-.4 2.2-.9 2.5-1.7 3-8 .3-5.7 1-7.8 3.2-10.7 5-6.5 14.3-8.4 20.5-4.1Zm205-.2c-.6 1.2-1 6.3-.8 12.3l.3 10.2h10l.3-10.6c.2-8.7 0-11-1.3-12.3-2.3-2.3-7.2-2-8.5.4Zm29.6-.1c-1.4 1.5-1.6 3.6-1.4 12.2l.3 10.4 3.9.3c2.4.2 4.2-.2 4.7-1 .5-.7.9-5.7.9-11 0-7.5-.4-10-1.6-11.2-2-2.1-4.7-2-6.8.3Zm-571.8 1.7c6.7 2.8 12.5 10.6 10.9 14.9-.8 2 1.1 3.1 6 3.8 11.6 1.4 18 15.6 12.2 27l-2.1 4 2.1 1.8c2.7 2.2 4.7 1.5 6.7-2.2l1.5-2.9h206.7l-.1 7.5c0 6.7-.3 7.4-2.1 7.7-1.2.2-64.1.2-139.9 0L223 565l.5-44.5 4.2-.3c4-.3 4.4-.6 6.2-4.5a24.8 24.8 0 0 1 12.7-12.2c5.1-1.8 7.7-1.8 12.2 0ZM79.9 527.4c-.2.2-.2 5.3.1 11.3l.5 10.8h12l.6-22.5h-6.4c-3.5 0-6.6.2-6.8.4Zm33.5 1c-.2.6-.3 5.7-.2 11.2l.3 9.9h13l.6-22.5h-6.6c-4.5 0-6.7.4-7 1.3Zm35-.1c-.2.7-.3 5.8-.2 11.3l.3 9.9h13v-22l-6.3-.3c-4.6-.2-6.4 0-6.8 1Zm35.3-.6c-.4.3-.7 5.5-.7 11.5V550h6.4c4.9 0 6.5-.4 7-1.6 1-2.5.7-16-.4-18.8-.9-2.3-1.5-2.6-6.3-2.6-3 0-5.7.3-6 .7ZM1312 545a45 45 0 0 1 12.5 15.4c.7 1.2 3 1.8 8 2.3 19.6 1.7 3.2 2.2-64.8 2.3-83.5 0-78.4.5-71-7 5.6-5.6 8.5-5.9 50.3-5.4l36.5.5 2.5-2.3c5.7-5.2 7-6 10.6-7.3 4.5-1.5 10.6-1 15.4 1.5Zm-484.8 7.3c6.2 3 10 7.4 9.1 10.6-.5 2-1 2.1-21 2.1a194 194 0 0 1-20.3-.5c0-.3.9-2.2 2-4.3 5.8-11.5 17-14.4 30.2-8ZM12.8 600.8c-7.8.2-11 .6-11.8 1.7-1 1.2-1 1.8 0 3 1.1 1.3 58 1.5 497.6 1.5 273 0 497-.3 497.9-.6 2-.8 2-5-.2-5.9-1.7-.6-959.9-.3-983.5.3Zm1199 .4c-1.3.5-1.8 1.5-1.6 3l.3 2.3 77.7.3c74.1.2 77.8.1 78.7-1.6 2.4-4.6 4-4.5-76.9-4.6-41.8 0-77 .2-78.1.6ZM1072 644.6c14 .3 47.3.7 74 1 26.6.2 48.5.6 48.8.8.2.2-1.7 3.5-4.2 7.3-5.2 8-17.2 20.3-19.7 20.3-1 0-4.8-1.6-8.5-3.6l-6.7-3.5-6 3c-13 6.2-24.1 6.4-36.4.4l-7.3-3.5-6 3.1a45.4 45.4 0 0 1-24.5 5.8 56.2 56.2 0 0 1-20-6.7c-1.5-1.6-4.7-1.1-9.3 1.5l-4.4 2.5-10.7-5.5c-5.9-3-12.6-7.1-15-9.2a56 56 0 0 1-12.1-14.5c0-.6 7.5-.8 21.3-.4l46.7 1.2Zm-795 4a35.6 35.6 0 0 1-33.8-.3c-4.5-2.3-5.7-2.5-8-1.6l-9.1 3.8a26.2 26.2 0 0 1-15.2 2.3c-7.4-.3-9.7-.9-15.3-3.7l-6.6-3.4-4 2.7a34.1 34.1 0 0 1-35.4.5 26 26 0 0 0-5.5-2.9c-.5 0-4.4 1.6-8.6 3.7a26 26 0 0 1-15.3 3.5c-8 0-14-1.7-19.9-5.3l-3.3-2-4.3 2.1c-9.4 5-22.7 6.4-32.3 3.5-4.5-1.3-5-1.3-6.1.2-1 1.2-1 2-.1 3 5 6.2 26.9 6.4 38.5.4 3.6-1.8 3.7-1.8 8.2.4 12.3 6 26.7 5.8 39.2-.5 3.5-1.8 3.6-1.8 8.6.6 11 5.5 25.5 5.5 36.4.1 4-2 5.2-2.2 6.6-1.2 2.6 1.7 12 4.4 17.8 5 6.8.7 15.2-.8 21.8-4l5.4-2.5 8.4 3.1a32 32 0 0 0 17.4 2.6 43 43 0 0 0 15.1-3l6.1-2.4 7.4 3.5a37 37 0 0 0 30.7 1.7c4.2-1.5 8.2-3.1 8.8-3.6.6-.5 3.6.2 7.4 1.7a47.5 47.5 0 0 0 28 2c3.5-1 7.2-2.4 8.2-3.3 1.6-1.4 2-1.4 4.1 0 10.8 7 38.4 5.6 39.5-2 .5-3.4-1.8-3.7-9-1.2-8.7 3-18.4 2.2-26.3-2-3.6-2-6.2-2.7-7.3-2.2l-6.7 3a28 28 0 0 1-13.5 2.4c-7.3 0-9.5-.4-15.6-3l-7.1-3-8.4 3.5c-11 4.5-17.9 5-26.6 1.7a55.6 55.6 0 0 1-12.8-6.7c-.6-.2-3.9 1-7.4 2.8Zm182.6.3c-1.5 1.7-1.5 2 .4 4.4 5.3 6.7 24.5 9.1 36.6 4.6 7.6-2.8 10.3-2.7 19.3.5a39 39 0 0 0 26.4.5c3.4-1.1 7.2-2.7 8.5-3.5 2-1.4 2.6-1.3 5.5.5 10 6.1 26 6.7 37 1.2l6.3-3 5 2.3c10.5 5 23 5.9 33.3 2.3 7.4-2.5 9.5-4.8 6.9-7.3-1.6-1.6-2-1.6-7 .6a37.5 37.5 0 0 1-33-2.5 18 18 0 0 0-4.7-2.5c-.5 0-4.4 1.7-8.7 3.7a27.4 27.4 0 0 1-15.4 3.8c-6.7 0-8.3-.4-15.2-3.8l-7.7-3.9-7.4 3.7a34 34 0 0 1-34.8-1 18.2 18.2 0 0 0-5-2.5c-.5 0-3.8 1.5-7.2 3.2-5.8 3-6.9 3.3-16.2 3.3-9.4 0-10.3-.2-15.6-3.2-5.4-3-5.8-3.1-7.3-1.4Zm352 1.8c-5.8 3-8 3.6-15.6 4-10 .6-17.3-.8-22.6-4.3-4.5-3-5.3-3-11.7.6a40.6 40.6 0 0 1-34.3 1.5c-5-2.5-5.7-2.6-7.1-1.2-1.5 1.4-1.5 1.8 0 4 3.5 5.4 21.8 8.3 33.5 5.3 3.4-.8 8-2.5 10.3-3.5 4.1-2 4.1-2 8 0a45.6 45.6 0 0 0 23.4 4.6c7.2-.6 16-2.9 20.7-5.3 2.4-1.2 3.2-1.1 7.5 1a43.5 43.5 0 0 0 35 1l6.5-2.6 5.6 2.5c6.6 2.9 15 4.8 18.2 4.2l6.1-.7c5.4-.3 12.3-3.8 12.7-6.4.4-3.1-1.7-3.4-8.4-1.2-8.9 3-18 2.2-27-2.4l-6.9-3.6-6.5 3c-5 2.3-8.5 3.2-14.5 3.5-9.4.6-14.5-.6-20.6-4.7-2.4-1.6-4.6-3-4.9-2.9-.3 0-3.6 1.7-7.3 3.6Z" clip-rule="evenodd"/></svg>