<svg xmlns="http://www.w3.org/2000/svg" width="1536" height="1024" fill="none"><path fill="#000" fill-rule="evenodd" d="m334 85-1 12v10h-4c-7 0-9 1-9 3s2 3 8 3h5v10a465 465 0 0 1-4 51c-4 14-9 24-14 29-3 3-2 5 2 8l3 1v14l-1 14-3 5-7 11-6 10-3 5c-1 3-1 4 3 7 3 3 3 4 3 9a1344 1344 0 0 0 0 45l-7 9c-8 13-16 29-17 41-1 6-2 6-2 1 0-4-3-10-5-10-1 1-2 5-2 15-1 17-1 18-11 25-6 4-8 5-8 7s0 3 2 4l2 1 1 25v24h-6c-9 1-19 7-19 12 0 4 4 4 8-1 4-3 5-3 10-4h6v56l-5 8c-6 10-12 17-17 23l-4 4v-5l-2-6c-3-2-3 0-4 12 0 7-1 11-2 12-1 2-1 6 2 6l1 21a560 560 0 0 0 0 29v3l-5-2c-11-5-28 3-33 16-1 5-2 6-5 6l-4 2-2-2c-3-5-8-7-14-7-5 0-5 0-5-3 0-6-3-12-7-17-4-3-4-3-11-3h-7v-8c-1-8-4-16-9-21-3-2-12-5-16-5-7 0-18 10-20 18 0 3-1 4-4 4-8 0-17 9-20 19-2 7 0 13 4 11l2-7c2-11 9-18 17-15 5 1 7 0 7-6 2-18 22-23 30-7 3 6 3 16 1 21l-2 5c1 2 5 3 5 1l6-4c3-2 4-2 7-1 6 2 11 9 11 17l-2 4c-2 2-4 7-3 9 2 2 3 1 6-2 3-2 9-4 13-3 4 0 7 5 8 10 0 5 1 7 4 7 1 0 2-2 2-5s3-5 8-6 6-2 6-7c0-8 11-16 21-16 6 0 13 5 11 10l2 3c1 1 2 1 5-1 4-2 5-2 9-2 5 1 11 8 12 13 0 5 2 7 4 5 1 0 2-2 2-5s-1-5-4-10c-5-7-9-9-17-9h-6v-11a4648 4648 0 0 0 0-47c1-2 2-2 12-2h12v33l1 36h4c1-2 2-18 2-157l2-77 14-1 32-2h92a1714 1714 0 0 1-1 85c-3 8-19 41-27 54-6 10-8 16-7 20l1 37a11674 11674 0 0 0 3 47l3-1 1-40v-39h23l31-1h27v60h-8l-10 1a483 483 0 0 1-30 4l-1 15-1 15-8 1-9 2a1413 1413 0 0 1-56 7l-49 8a6524 6524 0 0 1-34 5 387 387 0 0 1-67-4l-12-1a448 448 0 0 0-55-3c-3 1-6 6-8 13l-3 4c-4-1-5 0-5 3l3 3 2 1v42l-1 42a481 481 0 0 1-39 2l-1 2a690 690 0 0 0 38 2h3l-1 14v19H86c-17 0-20 0-21 2s2 3 10 4h32a25542 25542 0 0 0 534 3 9376 9376 0 0 1 315 4l13 6a3815 3815 0 0 0 58 24l5 3H851c-63 1-64 1-80-2a147 147 0 0 1-26-9 15369 15369 0 0 1-266-4 22707 22707 0 0 1-355-5H64v2l1 3a3180 3180 0 0 0 177 3 15069 15069 0 0 0 174 3c317 2 319 2 328 6a280 280 0 0 0 31 10 2326 2326 0 0 0 214-1l56-1 1-3c-1-2-9-8-15-11l-4-2a12476 12476 0 0 1 266 2 178839 178839 0 0 1 183 1c4-1 4-5 1-5l-106-1a7470 7470 0 0 1-290-4c-54 0-58 1-59 2-1 2-2 2-10-1-18-6-42-16-42-17h30a38189 38189 0 0 1 365 3h117v-2l1-3-26-1h-25v-2l2-6c0-2 1-4 3-5 3-2 10-12 10-14s-2-3-4-3l-4 6-5 5-1-8c1-11-1-16-4-14l-2 4-1 12v9l-6-6c-7-6-10-7-10-3s10 15 14 15c2 0 2 1 2 3l1 5c0 2-2 2-23 2l-97-1h-73v-61l1-62 51-1 51-1v3l1 42v39l-4 1-6 3c-2 1-4 2-6 1-5-1-12 4-15 11-3 8-3 16 2 16 2 0 2-1 2-6s2-9 6-12 5-3 9-2c3 2 5 1 7-2 1-1 2-2 5-2 4 0 9 4 10 10 0 3 1 4 4 4l5 3c2 1 2 1 0 4-3 6 2 8 6 3 5-5 3-10-4-14-2-1-5-3-6-6l-5-6-4-4v-42l1-43h55c1 1 2 2 2 18v18l-4 5c-5 5-8 13-8 17 0 2 0 3-2 4-5 2-7 4-10 10s-3 12 0 17l3 4v16c3 1 6-2 6-6 0-2 1-4 3-5l2-3-4-5c-4-4-4-4-4-10 0-5 0-6 3-9l6-3c5 0 6-2 5-7-1-7 3-16 9-20l11-1c3 0 3 0 4-4 2-8 6-13 14-15 12-3 23 10 18 22-3 6-1 7 5 6 6 0 10 1 14 6 5 6 0 26-9 31-3 2-4 3-2 6 1 2 2 2 6 1 5 0 6 0 8 2 4 3 4 6 0 13-4 6-4 6-1 7s8-5 10-10v-8c-2-5-6-10-9-10h-2l2-3c9-15 8-31-3-38-2-2-6-3-8-3l-4-1v-7c0-5-1-7-4-11-4-6-11-10-17-10-9 0-19 7-22 15-2 4-2 4-6 4h-4v-16l1-17 3-3c0-2 1-2-34-37-23-24-17-22-55-23l-26-1c-3-2-5-1-25 16l-14 11-13-12-12-12h-31v-4l-1-7c-1-3-2-3-8-3l-7 1-1 6-1 6h-75v-5l-2-7c-1-2-2-2-7-1l-6 1-1 6v6h-18c-16 0-21-1-17-2v-15c2-7 2-8 7-14 6-5 11-9 14-7 4 1 6 0 6-5 0-4 1-5 4-8 2-2 5-5 7-5 4-3 11-3 15-2 6 2 8 5 10 14 2 10 4 11 9 5 6-8 15-11 21-8l6 4c3 3 5 4 8 3l2-3c0-3 5-9 9-12l7-1c3 0 4 1 6 3s3 3 6 3h2l1-59c0-163 1-272 2-273l48 13 5 2v124l1 103-6 5a749 749 0 0 0-45 42l2 1c5 0 5-1 5 46l1 45h4l1-45 1-44 8-1a47770 47770 0 0 1 196-1c1 0 2 15 2 55v55l-5 2c-5 3-14 11-15 15-1 5 3 7 6 3 8-12 21-16 32-11 8 5 12 12 10 22l1 5c2 1 5-2 5-4 0-1 4-3 9-4 6-2 14 4 15 12 0 3 1 4 3 4 4 0 4-8-1-15s-14-10-21-7c-3 1-3 1-5-4-2-8-8-13-16-16l-9-2-2-1V571h4l34 3h5v58l1 59c5 3 5 2 6-64v-60l-5-7a500 500 0 0 0-32-39l-6-8h-15l1-6c0-4 0-5-2-7-1-2-2-2-7-2l-6 1c-2 0-4 7-4 11v4h-14l-39 1h-25v-4c0-7-2-9-9-9l-7 1-1 7-1 5-24 1-23 1v-6l-1-62v-55l17-17a484 484 0 0 0 75-92l27-38 14-20 8-1h9l-2 4a750 750 0 0 0-36 63l-7 11a1112 1112 0 0 1-71 103l-5 4c-8 2-14 6-18 13-3 6-3 11 2 11 2 0 2-1 2-5 0-2 6-9 10-11h6c3 1 5 0 6-3 3-7 11-10 22-9 4 0 5 1 10 6 8 8 9 8 11 3 1-2 3-5 6-6 9-6 19-4 25 3 2 3 3 3 6 2 2 0 3-1 3-3l4-16c3-8 13-14 18-11l5 3c4 2 6 0 6-4-1-6 5-15 11-17l9-1c6 0 11 3 14 8 2 3 2 3 5 3l7-2c5 0 5 0 8 3l5 5c0 2 1 2 2 1 5-2-2-13-9-15l-9-1c-3 1-4 0-6-3-4-4-9-6-17-6-12 0-20 5-24 15-2 4-2 4-6 3-7-1-13 1-18 6-5 6-8 12-8 16 0 2 0 3-1 2l-13-64-2-12 11-18a1554 1554 0 0 0 46-84v-2h-18c-21 0-42 2-44 3l-6 7a1399 1399 0 0 1-39 52l-19 25c-4 7-15 18-23 24-9 7-9 7-9-2l-2-39-28-8-22-7c-9-3-10-3-20-2l-37 3-27 3c-2 1-2 10-2 70v57l-5 1-6 1a196 196 0 0 0-62 27 1616 1616 0 0 1-2-125l-39-10-37-9-11 1a649 649 0 0 0-45 7 3629 3629 0 0 1-3 135l-5-1-5-2-3-1-13-3c-23-3-38 0-56 12-11 6-13 7-15 5-1-1-12-5-19-6-7-2-19-2-29 0-11 2-23 8-31 15-1 2-3 2-10 2-13 0-20 2-30 8-1 1-3 1-8-1s-8-2-18-2h-11l-2-5c-3-6-10-14-17-17-5-2-7-2-16-2s-11-1-11-2l-3-7c-4-7-11-11-19-12l-10 1c-3 1-3 1-7-5-8-9-20-13-36-13-8 0-9 0-17 4-7 3-10 5-13 9l-3 5h-8c-13 1-26 9-30 18-2 4-2 4-8 4-4 1-7 2-12 6l-10 8-4 4-3-1-11-2h-7v-12c0-15 0-15 3-18l3-4-8-7-10-9v-17c0-15 0-17-3-17-2 0-4 5-5 12l-1 8-4-17c-1-10-3-19-7-27l-4-8-1-1-5-7c-5-5-5-6-5-10a340 340 0 0 0 2-39c1-1 2-3 4-3l3-3c1-1 0-4-1-4s-7-10-9-17c-2-5-3-7-6-9l-4-3v-16c0-13 0-15 2-15 2 1 5-3 4-5l-2-5c-7-10-15-29-16-37-2-9-3-49-1-50h6c4 0 7-2 7-5 0-1-2-2-7-2h-6l-1-10c-1-11-2-14-6-12Zm883 2c-10 3-22 12-27 21-2 5-5 15-5 20 0 3 0 3-2 2l-17-3c-13 0-30 14-33 25v4h-9c-7 0-10 0-14 2-9 5-14 15-10 21h3l2-4c0-4 3-8 7-10 5-3 11-4 19-1 6 1 8 0 8-5 0-8 9-19 18-22 8-3 16-3 23 1l9 3 3 1v-11c1-9 1-13 3-17 9-19 32-25 52-15 8 4 13 13 14 24 0 7 1 8 3 8l6-3c6-6 19-9 26-6 4 2 10 7 12 12l2 13c0 9 1 10 3 10l5-3c4-4 12-7 17-7 7 0 16 7 18 13 0 2-1 10-3 12-2 1 0 5 2 5 3 0 6-4 7-8 2-5 0-14-4-19-1-3-5-5-8-7-5-3-7-3-13-3-8 0-15 2-15 4l-1 1-1-2-2-10c-5-16-22-23-39-17-8 3-9 3-9-2-2-6-6-14-10-18-10-8-26-12-40-9ZM171 128l-13 5c-14 7-21 16-23 29l-1 7h-10c-9 0-10 0-16 3-9 4-16 12-18 19-1 7-1 8 1 11 3 4 5 2 5-5 0-5 0-6 3-10 8-11 22-15 36-10 7 2 9 2 10-1 1-1 0-2-1-3-3-2-3-3-3-7 1-8 4-14 11-20 7-7 15-10 25-11 14-1 25 5 31 16 3 6 3 7 3 14s0 7 3 8c1 0 3 0 5-2 3-3 15-6 19-6 6 2 14 5 17 8 4 5 6 13 4 18v4c1 2 6 2 8-1 2-2 8-2 11 0 5 3 8 6 8 9 0 2 1 3 4 3 6-2 3-12-4-16-4-3-12-5-15-5-3 1-3 0-4-4-3-11-9-18-20-21a41 41 0 0 0-29 1v-3c0-4-5-15-9-18a41 41 0 0 0-38-12Zm168 54a207 207 0 0 0 9 20h-20c-2 0-1-1 1-6l5-11c2-10 2-10 3-9l2 6Zm874-4c-72 0-80 0-81 2l1 3 97 2 101-1c7 0 9-2 6-5-2-2 5-2-124-1ZM175 209a1331 1331 0 0 1-70 2v4l67 1c61-1 68-1 69-3s0-4-3-5l-63 1Zm171 2 1 15v15h-21v-15l1-15 9-1 10 1Zm-12 5c-3 4-3 20 0 22 3 3 4 0 5-10v-11c-2-4-3-4-5-1Zm1050 12-5 7-29 41a539 539 0 0 1-89 107l-1-11v-11l5-2c15-7 38-30 60-59a14330 14330 0 0 1 45-64c0-2-3-3-4-2a3770 3770 0 0 1-37 49c-23 31-39 49-54 61-6 5-13 10-15 10v-4c0-4 0-4 9-10 13-9 21-17 39-41l46-62 6-8h9a239 239 0 0 0 15-1ZM346 259v11h-10l-10-1v-21h20v11Zm9-7 8 17-5 1h-4l-1-10 1-9 1 1Zm-37 10c0 8 0 8-3 8l-3-2 6-13v7Zm151 2c-10 3-18 11-20 21-1 4-1 4-4 3h-9c-5 0-8 0-13 3-9 4-12 9-12 16 0 5 0 6 3 6 2 0 3-1 3-4l2-7c2-3 9-7 15-8 4 0 6 0 9 2 8 5 10 4 11-6l2-8c4-7 14-12 24-12 13 0 23 10 23 24l1 8h6c0-2 8-6 13-7 6-1 12 2 16 6s4 4 4 9l-1 5 9-1c8 0 9 0 11 2l1 4c0 3 3 3 5 0s1-6-2-9c-2-3-4-3-8-3l-6 1-2-3c-1-5-6-11-11-15-6-3-18-4-24-1l-4 2-2-6c-2-10-9-18-17-22-5-2-18-2-23 0Zm-111 15c1 2 2 3 2 8l-1 19v14h-45v-13a433 433 0 0 0 1-30h21c17 0 20 0 22 2Zm-33 2c-4 1-5 5-5 19 0 15 1 17 6 17 4 0 4-3 4-25 0-8 0-10-2-11h-3Zm868 8a6660 6660 0 0 0-2 212l-20-6a3046 3046 0 0 0-40-11l-2-1V286h10a468 468 0 0 0 40-4l13-1 1 8Zm-853-5v32c2 2 6 1 8-1s2-4 2-15l-1-16c-1-3-7-3-9 0Zm369 9-9 4c-4 3-9 10-10 16-1 4-1 4-4 3-4-1-14-1-19 1-6 3-12 9-14 16l-2 5-7-1c-9 0-15 1-21 6-5 5-6 10-3 13 2 2 4 1 4-1 0-3 3-8 7-10l14-1 10 1 1-3c4-11 8-16 15-18s10-2 16 2c5 2 5 2 6 1l2-7c2-9 4-14 10-17 14-10 31-6 38 7 3 4 3 7 3 11l-1 9c-2 6 3 9 8 5 4-3 9-5 16-5 9 0 14 6 14 15-1 7 1 8 10 5 10-3 15-2 20 2 3 2 3 3 3 9l-1 6h3c3 0 5-3 5-8 0-12-11-20-26-17l-6 1-1-4c-1-5-6-12-11-14-8-4-13-4-25 1l-1-6c1-11-7-21-18-27-7-3-18-3-26 0Zm-534 7c-7 2-10 4-16 11-4 4-4 4-7 3-3-2-8-1-12 1-5 2-10 7-11 11-1 1-2 2-7 2-6 1-10 4-10 8 0 2 2 3 6 0l8-2c4 0 6-1 6-2 4-7 6-10 10-11 5-2 8-2 11 0s6 1 8-2c2-6 9-11 15-12 11-3 19-2 27 4 3 2 8 10 8 13l1 3 1 1h2c2-3 2-4-2-13-6-14-21-20-38-15Zm793 85v85h-49v-82l1-82 42-6h6v85Zm12-83 8 1a752 752 0 0 0 49 13l5 1v62a2889 2889 0 0 0 0 90h-35l-33 1v-85c0-84 0-85 2-84l4 1Zm193-1-1 5c0 3 0 4 2 5 3 2 4 0 4-6 0-3 0-4-2-4h-3Zm-16 1-1 6c0 4 1 5 3 5l3-1v-6c0-4 0-5-2-5l-3 1Zm-16 4c-1 5 0 8 2 8 3 0 4-3 4-7s-1-5-3-5-3 0-3 4Zm68-3-1 4c0 3 1 4 2 5 3 2 4 0 4-5 0-4-1-5-3-5l-2 1Zm15 5c-2 4 0 10 3 8 2 0 2-1 2-5s-1-5-3-5l-2 2Zm14 2c-2 2-2 10 0 10 4 0 5-5 4-9-1-2-2-2-4-1Zm-287 9-1 6c0 4 1 5 3 5s3-1 3-6-1-7-2-7l-3 2Zm-17 0-1 6c0 4 1 5 2 5 3 0 4-5 3-9 0-3-2-4-4-2Zm52 1v5c0 2 1 3 3 3 1 0 2-1 2-4s-1-5-2-5l-3 1Zm-516 1-28 1 1 5c2 1 85 0 88-1 3 0 2-4 0-5h-61Zm531 2c-2 2-1 8 1 9s5-1 4-5c0-5-2-6-5-4Zm-637 12c9 12 13 22 16 41 2 12 4 21 8 26 4 6 12 14 13 14l1 1h-6a669 669 0 0 0-125 1c-2 0-2-1 3-6l8-11 9-28a120 120 0 0 1 21-38l5-8h41l6 8Zm651-5c0 4 0 6 3 6s3-2 2-6-4-4-5 0Zm-692 2c-3 5-9 28-12 49-3 16-4 21-2 24 2 1 2 1 4-1s3-5 4-9a307 307 0 0 1 5-32 314 314 0 0 1 5-31c0-2-3-3-4 0Zm707-1c-2 2-1 8 1 9s4-3 4-6c-1-4-3-5-5-3Zm124 1c-8 3-15 14-15 22 0 5 3 14 6 17 5 6 16 9 22 6 4-2 10-10 13-15 3-6 3-11-1-19-6-11-15-16-25-11Zm-814 1 2 12a265 265 0 0 1 8 45l2 15c0 4 5 6 7 2l-2-19c-3-28-6-38-10-47s-6-11-7-8Zm829 8 5 4v8c0 9-2 12-8 16-4 3-10 2-14-1-6-4-8-16-3-23 4-6 7-8 12-8 3 0 5 1 8 4Zm193 27a1448 1448 0 0 0 5 34l-6-2-5-1a1074 1074 0 0 1-1-62l7 31Zm-204-25-1 10c0 9 1 11 4 9 2-1 2-3 2-11s-1-10-2-10l-3 2Zm190 18 1 26v13l-3 1-7 5-3 3-3-3c-4-3-10-6-17-7h-6l2-3a724 724 0 0 0 35-48l1 13Zm-140 2v17c0 2 5 2 6 0v-11c0-4-2-7-4-7l-2 1Zm-840 2c-3 2-4 25-1 29h4c2-1 2-4 1-26-1-3-2-5-4-3Zm856 2-1 9c0 8 1 10 4 8 1 0 2-2 2-8 0-8-1-11-4-11l-1 2Zm-925 0c-1 1-4 10-5 17-1 9 4 14 7 9 2-3 2-4 2-15 0-9-1-13-4-11Zm365 0c-13 0-14 1-14 3l2 3c3 1 150 1 152-1 1 0 2-1 1-3-1-1-2-2-5-2H664Zm276 2-1 22c0 18 0 20 2 21l3-1 1-19c0-20 0-26-2-26l-3 3Zm-607-1-3 21c0 4 2 5 4 4 3-1 4-5 4-14 0-10-2-14-5-11Zm904 3-1 8c0 9 1 11 5 9 2-1 2-2 2-9l-1-9c-2-1-5-1-5 1Zm-253 12-1 12c0 13 1 14 5 12l1-13-1-11h-4Zm-850 3c-10 2-19 7-26 16l-2 3-4-2c-7-4-16-3-24 1-7 3-11 7-10 10 1 2 3 1 11-2 11-6 22-5 26 4l3 3c2 0 3-2 5-9 1-4 5-10 10-13 7-5 21-5 28-1 4 2 9 9 11 12 2 6 0 20-4 27-3 5 2 7 9 4 10-4 20-1 25 7l2 5-2 2c-3 4-2 6 1 7l5-1c2-2 9-3 13-2 5 1 12 7 13 12 1 4 2 5 4 5h3v-5c-1-6-5-11-11-15-3-3-5-4-12-4h-7l-2-5c-1-2-3-6-5-7-6-7-16-9-22-7l-4 1 1-5 1-12c0-5-1-7-3-12-5-8-14-15-23-17h-10Zm864 0-1 11c0 8 0 10 2 11 4 4 5 1 5-12 0-10-1-11-3-11l-3 1Zm15 1v23l2 2c3 0 4-2 4-14v-11l-3-1-3 1Zm161 0-1 9v8h3c2 0 3-1 3-2v-15h-5Zm-148 3v12c-1 10 0 13 4 11 1-1 2-2 2-13v-12l-3-1c-3 0-3 0-3 3Zm132-2-1 8c0 7 0 8 2 9 3 1 5-1 5-10 0-7-1-8-3-8l-3 1Zm-205 3v18l2 1c3 1 4-2 4-12 0-8-1-9-3-9s-3 0-3 2Zm188 0v14c1 3 6 2 6 0v-14c-1-3-5-3-6 0Zm-215 1-1 11v10h6v-11c0-10-1-11-3-11l-2 1Zm283 1-1 9c0 9 1 11 4 9 1 0 2-2 2-8 0-10-2-13-5-10Zm14 3c-1 2 0 16 1 17h3c2-1 3-14 1-17h-5Zm14 4-1 9c0 6 0 7 2 8 3 1 4-1 5-9l-1-8c-1-3-4-2-5 0Zm-681 8c6 3 13 8 15 13 2 3 2 3 7 2 9-1 16-1 20 2 5 3 8 9 9 14 1 6 3 7 8 4l11-1c7 1 8 2 14 5 6 4 8 7 11 14l4 6h8c8-1 16 0 26 5 8 3 12 3 11 0-1-1 0-2 2-4 6-4 11-5 23-6l12-1 7-5a71 71 0 0 1 72-4c1 2 4 1 11-3 20-13 25-14 43-14l19 1 22 6 1 14-1 14h-44l-51 2h-6v7a2915 2915 0 0 1-1 107c0 66 0 65-5 65l-3-2c-4-13-12-19-24-19s-21 7-24 18c-1 3-2 4-4 4-5 0-14 4-18 8-1 2-3 4-4 3-3-1-13-2-17-1-7 2-15 12-12 16 2 2 4 1 7-4 3-4 6-6 13-6 5 0 6 1 8 4 1 4 5 4 6 0 0-3 5-9 8-11 4-2 8-2 12-1h6l1-7c0-16 22-23 32-10 3 4 3 5 3 11l1 8 4-2c1-2 3-2 7-3 7 0 12 1 16 4 4 4 5 9 5 19 0 7 0 8 2 9l3-1c8-6 13-7 21-3s10 8 11 17c0 5 1 6 3 6l5-2c7-5 17-5 24 0 5 3 8 3 9-2 2-5 8-11 14-13 4-2 6-2 12-2s7 1 10 4l6 7c2 5 4 6 6 4s1-5-2-10c-12-16-33-16-47 0l-5 6-4-2c-6-3-17-3-21-1-3 2-3 2-4 0-3-9-5-11-12-16-5-4-13-5-19-3l-5 1-1-5c0-4 1-5 2-5 2-1 2-2 2-10 0-11-1-12-6-12-3 0-5 2-5 6 0 3-1 4-3 2l-4-3-4-2v-12h115a10434 10434 0 0 1 123 3c-2 4-2 13-1 17l2 4 1 1-8 1h-8l-1-4c0-10-1-11-4-11s-4 0-4 3l-1 7v4h-12v-5c0-7-1-9-5-9s-5 2-5 7c0 6 0 7-23 29-25 26-33 34-33 37l2 3c2 0 2 1 2 16v16h-5l-5-1c-2-8-9-16-15-18-8-3-21 1-28 8l-3 3-4-6c-6-7-10-9-20-9l-9 1-4 2c-4 0-11 11-11 17 0 2 0 2-2 2-1-1-4 0-6 2-8 3-12 10-13 18-1 10 3 17 7 14v-8c-1-7-1-7 2-12 3-6 9-9 12-7 5 3 8 0 7-7 0-4 0-5 2-8 3-4 8-7 15-8 7 0 10 1 14 8 5 7 6 12 6 19 0 5 0 6-4 10l-6 8v16c1 3 1 4-2 6-5 4-6 11-3 12 2 1 4 0 5-4 2-4 4-5 9-5l2-1-2-5c-2-2-4-7-4-11 0-5 4-11 8-13s5-4 4-7c-2-5-1-11 2-17 4-8 8-11 16-12 11-1 19 7 19 19 0 3 0 5 2 5 2 1 4 0 5-2 0-2 2-3 6-2l3 1v38l1 39h5V727h39a8339 8339 0 0 1 187 2l1 45v33h-4c-5 0-10 2-13 4l-5 2c-5 0-13 5-16 9-4 7-1 19 5 16v-7c-2-5 4-10 12-10l6-2c3-4 11-7 15-4l4 1c2-1 3 0 6 2 5 4 7 8 7 14 0 4 1 6 4 6 2 0 4-3 4-7 0-7-9-20-16-22-2 0-2 0-2-13l1-67h16l15 1 1 60v60h-3l-194-3c-120 0-112 0-119-3a1242 1242 0 0 0-135-51l-46-15c-3-1-4-4-8-31-6-33-7-41-9-43-1-2-3-2-8-3l-21-2-14-1-1-20c0-31 0-31-3-33l-17-2a1126 1126 0 0 1-51-4 344 344 0 0 0-95 2 766 766 0 0 0-40 2v-30l1-29 7-13 7-14a736 736 0 0 0 24-41 243 243 0 0 0 8 18l11 24 11 23v24l1 26c1 2 4 3 5 2a344 344 0 0 0-1-59 2156 2156 0 0 1-31-63c-1-3-2-11 0-11v-5c-2-1-2-7 0-9v-5l-2-6c0-3-1-3-3-3s-3 0-3 2l-2 5v6c2 3 1 12-1 12-1 0-1 2 1 3l1 3v3h-85v-5l-1-22v-18h4c5-1 9 0 15 3l5 3 3-3 2-4c0-2 8-10 12-12l15-3c1 2 4-1 4-4 0-5 8-13 16-16l19-2c1 0 3-1 3-3 3-5 10-10 18-13 5-2 8-2 15-2l13 3Zm845 3c-4 2-6 5-5 9 1 2 2 2 5 0 5-4 7-5 11-2 4 4 5 4 6 0 1-2 1-2-1-5-2-2-8-4-11-4l-5 2Zm42 1c-7 2-10 5-10 9 0 3 2 4 7 0 3-2 4-2 10-2h8c2-1 3-5 0-6-3-2-10-2-15-1Zm-321 33a840 840 0 0 0 1 37l-26-7c-10-4-22-6-34-6h-13l-1-14v-13l14-7a287 287 0 0 1 57-21c2 0 2 2 2 31Zm51-28c-1 1 0 13 1 16h5c1-2 0-15-1-16h-5Zm-31 1-1 8c0 7 0 8 2 9 4 1 5-2 5-9l-1-7c0-2-4-3-5-1Zm16 1-1 7c0 7 1 10 5 9 2-1 2-2 2-9 0-8-1-9-3-9s-3 0-3 2Zm-174 1-1 9c0 9 0 9 2 9 4 0 4-2 4-12 0-6-1-7-3-7l-2 1Zm-31 2-1 9c1 7 2 9 5 8s3-17 0-18c-2-1-3-1-4 1Zm45-1-1 10c0 8 1 9 3 9 3 0 4-3 4-12 0-7-1-8-3-8l-3 1Zm-58 1-1 8c0 7 0 8 2 9 3 1 5-1 5-9l-1-8h-5Zm-15 3v15l3 2c2 0 3-1 3-10v-10h-2c-2 0-3 1-4 3Zm88-2-1 9c-1 6-1 7 1 9 2 3 5 2 5-1v-10c0-7-1-8-3-8l-2 1Zm195 0-1 8c0 8 1 10 5 8 2 0 2-3 2-11 0-5-1-6-3-6l-3 1Zm-181 3c-2 1-2 3-2 8 0 8 1 11 5 10 2-1 2-2 2-10 0-7 0-9-2-9-2-1-2-1-3 1Zm196 0c-2 3-1 14 1 15 4 2 5 0 5-7 0-6-1-9-4-9l-2 1Zm-874 4a6281 6281 0 0 0 0 233h3c2-1 2-12 2-116l-1-117c-1-3-4-3-4 0Zm888-1v14c1 3 4 2 5-1 2-5 1-14-3-14l-2 1Zm-908 3c-1 2-1 3 1 4 1 1 2 2 3 1 2 0 4-4 3-6-2-2-6-1-7 1Zm-54 2c-1 1 1 5 2 5 2 0 5-3 5-5 0-1-7-2-7 0Zm22 2c-4 2-9 7-11 13v10c1 7 4 10 10 13 8 4 19 1 24-7 3-4 3-5 3-10 0-9-4-16-10-20-4-1-12-1-16 1Zm76 5c-2 1-3 18-2 22 1 3 4 4 7 3l3-1v-12l-1-13c-2-2-6-1-7 1Zm-63 0c3 2 6 6 7 10 0 5-1 9-4 13-8 8-21 2-21-10 0-3 1-5 5-9 5-5 8-6 13-4Zm773 3c-4 2-6 5-5 8 0 3 3 3 6 1 4-4 7-4 11-3 2 2 3 2 5 1 2-2 1-3-2-6-2-3-4-3-8-3l-7 2Zm326-1c-8 1-18 10-23 18l-2 3-5-3c-8-7-22-9-34-5l-6 3c-2 2-3 1-6-2-3-6-10-9-17-9-8 0-12 2-17 8-2 3-5 5-6 5-4 0-12 7-16 14-2 3-3 4-2 6 1 5 3 4 8-3 4-7 9-11 12-9 4 2 6 1 7-3 1-6 4-10 9-11 7-2 15 1 19 8 1 3 1 3-1 6-2 4-3 8-1 10 2 1 5-1 5-4 2-8 16-15 28-14 7 0 13 3 19 8 6 7 7 6 10-1l7-11c6-5 7-6 12-7 6-1 6-1 12 2 8 5 8 5 9 9s4 5 11 3c3-2 5-2 8-1 5 1 12 8 13 12 0 3 3 5 6 3 5-4-7-19-17-22-4-1-9-1-13 1l-3-2c-6-10-16-14-26-12Zm-1105 1c-3 7-2 12 1 12 4 0 5-9 1-12h-2Zm679 4v7c0 6 0 7 2 7s3-1 3-7l-1-8c-2-1-3-1-4 1Zm159-1-1 7c0 7 1 10 5 7 1-1 2-10 0-13 0-2-3-3-4-1Zm16 1v13c1 2 5 3 6 1l-1-15c-1-2-5-1-5 1Zm16-1v13c0 2 4 3 5 1v-13c-1-2-3-3-5-1ZM90 450c-7 3-7 3-8 6 0 3 2 5 5 3l5-4c3-2 8-2 12 0 3 3 5 7 5 12v5c1 2 5 1 6-1 3-3 7-4 12-3 7 2 12 6 13 14 1 4 3 5 6 2v-7c-3-9-14-17-24-16l-6 1-3-5c-2-4-4-6-7-8-6-3-10-3-16 1Zm454 1c-2 2-4 4-4 6 0 3 1 3 6 0 7-5 11-5 15 1 2 3 4 4 5 3 5-2 7-2 11 1l6 2c2 0 2-3 1-6-2-4-7-5-12-5-3 1-5 1-9-2-4-4-5-4-10-4-4 0-5 0-9 4Zm409-2-1 9 1 7h6v-8l-1-8h-5Zm255 0c-1 3-2 16-1 17l3 1c3-1 3-2 3-7 1-8 0-11-3-12l-2 1Zm-210 1c-2 4-2 12 0 13 3 4 5 1 5-8 0-5-1-6-3-6l-2 1Zm-59 1v13c0 2 3 3 5 2s2-2 2-7l-1-7c-1-2-4-3-6-1Zm-14 1-1 8c0 5 1 6 3 6 3 0 4-3 4-9 0-5-1-6-3-6l-3 1Zm298 1c-2 3-1 16 1 16 3 2 5-2 5-12 0-5-4-8-6-4Zm-211 1c-2 4-1 12 3 12s3-14-1-14l-2 2Zm14 0-1 5c0 5 2 8 5 6 2-1 3-9 1-11h-5Zm211 2-1 8c1 7 1 8 3 8s3 0 3-3c1-3 0-12-1-13h-4Zm-96 19c-2 5-1 9 1 10 3 0 3 0 3-6l-1-6-3 2Zm17 1c-2 5 1 13 4 11l2-10c-1-3-5-4-6-1Zm15-1v8c0 5 1 6 3 6s3-1 3-7c0-7-1-8-3-8l-3 1Zm-105 74-1 73-3 3-6 5-1 3h-28l-121-1h-93v-46h25a6695 6695 0 0 0 223-6 5405 5405 0 0 0-207-1l-40 1v-50l1-52a902 902 0 0 1 94-1l79-1h78v73Zm13-72a2484 2484 0 0 1 109 31l1 48c0 45 0 47-2 46-7-3-16 0-23 8-5 5-5 5-7 4-3-3-9-5-15-5-5 0-10 2-15 6l-2 2v-3c-1-5-6-10-12-13-12-6-29 0-34 12-2 4-4 6-6 4V476l6 1Zm127 2-2 15c1 2 2 2 4 2h3v-9c0-8-1-9-3-9l-2 1Zm28 4v10c0 6 1 7 3 7l3-2v-15c-1-3-5-2-6 0Zm-14 1-1 7c1 6 2 8 5 7 2-1 2-2 2-8 0-7-1-8-3-8s-3 0-3 2Zm-1045 1c-4 1-14 8-15 11-1 2 0 5 3 5l6-5c5-4 7-5 11-6 6 0 11 1 15 5s7 13 7 17c-1 5 1 7 4 7 8-2 10-2 13-1 4 1 7 4 8 8 1 3 2 4 4 4 4 0 5-2 2-7-2-6-6-10-11-12h-12c-1 1-2 1-2-4-1-6-4-12-9-17-7-7-16-9-24-5Zm108 0-1 12 1 11h2l4-1 1-10c0-8 0-9-2-11s-3-2-5-1Zm30 1-1 12c0 9 1 10 3 10l4-2c2-2 2-3 2-9l-1-9c-2-3-5-4-7-2Zm279 0-2 3c0 4 2 5 6 3 5-2 9 0 13 3 3 3 6 4 7 1 0-3-2-7-7-9s-13-3-17-1Zm-217 10 1 9c3 1 4-2 4-7 0-8-1-11-3-11s-2 1-2 9Zm341-3c-4 1-6 4-4 5h8c4-1 10 0 13 3 4 4 7 4 7 0 0-7-14-12-24-8Zm46-2-4 1c-3 1-3 2-3 4s1 2 6 2c4 0 5 0 8 2 1 2 4 3 5 3 3 0 3 0 2-3-2-6-10-10-14-9Zm-221 3c-4 0-6 2-6 4s2 3 7 2c6 0 12 3 14 7l3 3c4-1 4-4 1-8-3-6-12-9-19-8Zm-410 12c-7 3-12 8-18 16-4 5-5 7-5 10 1 3 3 6 5 6 1 0 4-4 4-7l5-11c4-3 10-7 14-8s5-1 9 1l5 5c2 3 3 4 5 2 3-4 0-10-7-14-7-3-11-3-17 0Zm1283 2c0 4 0 5-2 5-3 1-3 0-3-5 0-4 0-4 3-4 2 0 2 0 2 4Zm-209 3c-2 9-1 14 3 14 3 0 3-2 3-9 0-8 0-9-3-9-2 0-3 1-3 4Zm-530-1-9 4c-3 2-4 3-7 1-15-5-28 0-37 14l-3 4-6-3c-5-3-14-4-20-2-9 2-18 11-21 21-2 5-2 5-6 3-9-3-20 0-25 5-2 2-2 3-1 5 1 4 4 4 5 0 1-1 2-3 4-3 3-1 17-1 19 1 2 1 6 2 7 0l2-7c2-7 9-16 14-18 8-4 19-2 26 5 5 5 7 4 9-3 5-12 12-18 23-17l11 3 4 2 5-4c5-5 9-6 19-6 11 0 19 5 24 17l3 7 2 2c2 2 5 2 5-1 1-2 10-5 16-5 8 0 12 2 15 9 3 8 3 8 5 9h4c2-2 6-3 10-2s6 0 6-3c0-1 1-4 3-5 3-3 6-4 11-2 3 1 3 1 4-1 0-3-2-6-6-7s-5-1-10 2l-7 5c-1 2-2 3-3 2l-5 1-4 2-2-4c-5-11-17-16-29-13l-7 3-3 2-2-5c-4-8-10-13-17-17-6-3-8-3-14-3l-12 2Zm545 0v15c2 2 4 1 5-4 1-7 0-11-3-12l-2 1Zm97 0 1 3c0 2 0 2-2 2-3-1-4-6-1-6l2 1ZM79 512c-5 2-10 7-10 9l1 3c1 1 3 1 5-2 5-4 8-4 13-3 4 1 7 3 8 9 1 3 2 4 4 4 4 0 5-3 3-9-3-5-6-8-11-10s-9-2-13-1Zm1157 0v9c0 5 1 7 2 7l3-1c1-1 2-12 1-14s-5-3-6-1Zm-753 1 10 1a393 393 0 0 1-33 63l-42 2h-42l4-8a1612 1612 0 0 1 26-50c4-9 1-9 36-8h41Zm946 7-8 34-2 11h-15a8363 8363 0 0 0-189 1l17-15 25-21 8-7h17a3507 3507 0 0 1 147-3Zm18 16 24 31-45-4a231 231 0 0 1 9-37c0-2 0-2 2 0l10 10Zm-1159 4-2 5-1 10c0 6 0 7 2 9 3 1 6 1 7-2v-12c-1-11-3-14-6-10Zm30 0c-1 1-2 5-2 12 0 9 0 11 2 11 2 1 5 0 6-1v-20c-1-3-4-4-6-2Zm1037 0c-3 3-6 9-6 11 1 3 4 3 7 0l3-1c0 2 4 1 5-1v-6c-2-4-5-5-9-3Zm-367 1c-3 1-4 3-4 14 0 12 1 14 7 13l4-2 1-12c0-13-2-16-8-13Zm22 1c-2 2-2 5-2 13 0 12 0 12 6 13 5 0 6-2 5-14l-1-12c-1-3-6-3-8 0Zm20 0c-2 1-2 3-2 13l1 12h10v-12l-1-14c-2-1-6-1-8 1Zm19-1c-2 2-2 24-1 26h8c1-1 2-22 0-25 0-2-6-3-7-1Zm227 0c-3 2-7 6-7 8 0 3 4 4 7 3l3-1h2c1-1 2-2 2-5 0-6-3-7-7-5Zm37 3-4 6c0 4 6 5 7 2 0-2 1-2 1-1 1 2 3 1 5-1 4-4 2-10-3-10l-6 4Zm81-3c-4 2-7 8-6 10s5 3 6 1l1-1h4c2-1 2-2 2-4l-2-5c-2-2-3-2-5-1Zm-1236 2c-4 2-6 4-6 7 0 4 1 4 5 1 5-4 8-4 12 0 3 4 4 6 2 9v4c2 1 2 1 6-1 8-4 17-1 20 7l4 4c2 0 2-1 2-4 0-5-3-9-9-13-4-2-6-3-12-3-3 0-4-1-6-4-3-5-9-9-13-9l-5 2Zm763-1c-3 0-4 5-4 16 0 10 0 10 2 11h10v-12c0-10 0-13-2-14-1-2-2-2-6-1Zm20 0-1 13c0 13 0 14 6 14 5 0 5-1 5-14s0-14-5-14l-5 1Zm23 1-1 12c0 13 0 13 6 13 4 0 5-2 5-14l-1-12c-2-2-9-1-9 1Zm-68 1-1 13v12h10v-4c1-6 1-20-1-21-1-2-7-2-8 0Zm-67 0c-2 1-3 25-1 25l4 1c6 0 6 0 6-13l-1-13h-8Zm21 1v24h10v-12c1-12 0-14-6-14l-4 2Zm22 0v24c2 2 6 1 9-1 2-3 2-4 2-13l-1-11c-2-2-9-1-10 1Zm216 0-1 13c0 13 1 14 5 12 2-1 2-2 2-12v-13c-1-3-5-3-6 0Zm15-1-1 14 1 13 3-2c3-2 3-24 0-25h-3Zm14 0-1 27c1 2 5 2 6 1v-28h-5Zm16 3c-2 2-3 12-3 20 0 5 1 6 3 6 4 0 4-1 5-13 0-8 0-10-2-12-1-2-2-2-3-1Zm14 1-1 13-1 12 3 1c4 2 5 0 5-13l-1-13h-5Zm15 1c-2 1-2 4-2 13v13c1 2 6 1 6-1v-24c-1-2-2-2-4-1Zm-719 2c-2 2-6 12-6 14s3 4 5 2l2-3 2-3 1 3c1 3 2 3 4 2 3-1 2-6 0-12-3-5-5-6-8-3Zm732-1-1 13c-1 12 0 15 4 14l3-1v-12l-1-13c-1-2-3-3-5-1Zm-1067 2c-8 2-19 10-23 16-1 4 0 9 3 8l2-1v-1c0-3 7-10 13-13 7-3 12-3 17 0 3 2 6 8 5 12 0 6 3 8 9 4 2-2 4-2 8-2 4 1 5 1 8 5 5 5 7 13 7 21 0 6 0 7 2 7l6-3c5-3 13-4 18-1 5 2 7 4 7 7 0 4 3 6 5 4 2-1 2-7 0-11-5-7-17-11-26-8l-5 2-1-5c-4-18-14-27-27-25l-5 1-1-4c-2-5-7-12-12-13h-10Zm150 16v16h-8l-12 1c-5 0-6-1-2-6a299 299 0 0 0 21-27l1 16Zm152-13-2 3-2 2-1 4c0 3 1 3 4 3h8c5 1 5-2 2-8s-6-8-9-4Zm87 5v8c0 3 1 4 3 4s3-1 3-7c0-7-1-8-3-8-1 0-2 0-3 3Zm157 0-9 6c-3 4-5 5-6 4-3-2-12-3-17-2-11 2-17 7-23 19-3 4-4 6-5 5-10-4-23 2-29 12-3 6-5 14-3 15 2 2 4 0 5-4l4-8c7-9 22-11 25-3 0 2 1 2 3 2s3-1 3-7c1-9 6-18 14-22 5-2 6-2 12-2 6 1 7 1 10 3 4 4 6 3 8-2 6-13 27-15 36-3 3 4 4 5 4 12 0 9 0 10 4 10 2 0 4-3 3-6l3-4c5-5 16-6 22-4 5 2 9 7 9 11l1 4c1 2 5 0 6-2 1-3-3-12-7-15-5-5-9-6-18-6-7 1-9 1-12 4l-5 3-2-5c-2-7-9-13-15-15-6-3-17-2-21 0Zm113 17-9 3c-8 3-12 6-14 10-1 4-1 5 1 11 2 7 2 8 0 8l-13 7c-4 4-7 12-8 20 0 7 1 10 5 8 2-1 2-2 2-5-1-4 1-12 4-16 2-3 8-6 12-7s5-2 6-6 1-5-1-9l-2-6c0-4 4-7 8-7l8-3c4-2 5-2 10-2 9 1 13 4 16 13 1 3 1 4 3 4s3-1 3-4c0-6-8-17-16-19h-15Zm322 4c-2 0-3 4-1 4l27 3 52 5c5 0 7-1 7-3 0-3-1-4-20-5a682 682 0 0 1-60-4h-5Zm311 7c-2 1-1 14 0 16 1 1 6 1 7-1 2-1 1-15-1-16s-5-1-6 1Zm-111 1-1 9 1 8h3l5-1c2-1 1-16 0-17-3-2-7-1-8 1Zm31-1c-2 1-3 14-1 16s7 2 8 0v-8l-1-8h-6Zm28 1v16c1 2 4 3 7 1 2-1 2-2 2-9l-1-9c-2-2-7-1-8 1Zm29 0c-2 2-3 13-1 16h5c2-1 3-1 3-8s-1-10-4-10l-3 2Zm66-1c-1 2-2 14-1 16h6c1-2 0-14-1-16h-4Zm-210 1c-1 2 0 17 1 18l5 1h4v-9l-1-10h-9Zm27 0v9l1 8h8v-8l-1-9h-8Zm199 1v15c1 2 1 2 3 1s2-2 2-8-1-9-4-9l-1 1Zm-1157 2c-4 2-9 9-11 15l-1 33v28h-10c-9 1-13 2-10 4l26 2h98l1-2-1-3h-3l-32-1h-31v-25c0-23 0-26-2-33-3-12-8-18-16-18h-8Zm205 5c-2 2-2 5-2 13 0 9 0 11 2 13s2 2 4 1c2 0 3-2 4-3l-1-24-3-1c-2-1-3-1-4 1Zm-107 1c-1 0-3 1-3 3v29l6 1 5-1 1-15c0-11 0-13-2-15-2-3-3-3-7-2Zm84 0-1 27h8v-26c-1-2-6-3-7-1Zm-170 2c2 2 6 12 7 19v45c0 4 0 4-4 4h-3v-23c1-26 0-27-6-27-5 0-5 2-5 28l1 22h-9v-22c0-25 1-33 4-40 3-6 7-8 10-8l5 2Zm117 0c-2 1-2 4-2 15 0 16 0 17 7 15l5-1v-13c0-15-1-18-6-18l-4 2Zm488 1-1 8c0 6 1 8 6 8 2 0 3 0 4-3 0-3 0-11-2-12-1-2-5-2-7-1Zm-89 1c-2 1-2 1-2 11 0 5 4 7 7 5 2-2 2-3 2-8 0-8-1-10-7-8Zm21 1v14h7c2-2 2-11 1-14l-4-2c-3 0-4 1-4 2Zm23-1-2 14c1 2 5 3 8 2 2-1 2-2 2-8l-1-8h-7Zm23 0-1 13c0 2 1 3 3 3 4 2 6-1 6-8l-1-7c-2-2-5-3-7-1Zm44 1-1 8c0 5 1 6 4 6 5 0 6-1 6-7l-1-7c-1-3-7-3-8 0Zm23-1-1 8c0 7 1 8 3 8l5-1c2-2 2-13 0-15h-7Zm24 0c-2 1-3 2-3 7 0 7 1 9 6 9h4l-1-7c0-6-1-10-3-10l-3 1Zm21 2c-2 3-1 13 0 14h7v-15c-2-2-7-1-7 1Zm38-1c-2 2-1 13 1 15h4c2-1 2-1 2-7-1-9-4-11-7-8Zm-17 1-1 7c0 6 0 6 3 7s5-1 6-6c0-6-1-9-5-9l-3 1Zm-783 1-1 13c0 9 0 11 2 12 3 1 4-1 5-12 0-10-1-14-3-14l-3 1Zm402 4c-5 2-8 6-8 10-1 5 3 5 7 0s8-5 14-2l5 3 4-2c5-2 8-2 11-1 3 2 8 6 8 8 0 1 2 2 5 2 2 0 1-6-1-10-3-3-12-8-16-8l-6 2c-3 1-4 1-7-1-4-2-13-2-16-1Zm751 18-1 9 1 8h8v-8l-1-10c-2-2-6-1-7 1Zm43-1-1 9 1 9c4 3 6-2 5-12 0-6-1-7-3-7l-2 1Zm-208 1c-3 2-3 16-1 18 1 2 6 3 8 1v-18c-3-2-6-2-7-1Zm84 0-1 10c1 8 1 9 3 9 6 0 7-1 7-10l-1-9h-8Zm58 0-1 6c0 9 1 11 3 11 4 0 5-2 5-9 0-8-2-11-7-8Zm-117 3v11c0 4 1 5 3 6h4c2-1 2-2 2-9 0-9-1-11-5-11-2 0-3 1-4 3Zm29-1v16c2 2 7 1 8-1l1-7c0-8-1-10-5-10-3 0-4 1-4 2Zm60-1-1 8c0 8 1 10 5 10 3 0 4-2 4-8 0-8-1-11-5-11l-3 1Zm108 1v9c0 5 1 7 2 7 3 2 4 0 5-8 0-7-1-10-4-10l-3 2Zm-283 11c-4 0-8 4-8 7s3 4 5 1c2-2 3-2 6-1 3 0 4 0 5-2 1-3-3-6-8-5Zm-612 12v10a1472 1472 0 0 1-92 11 3178 3178 0 0 1-45 5l-10 2v-13l1-12a3391 3391 0 0 1 141-12h6l-1 9Zm27-7a6532 6532 0 0 0 69 6h5v18l-7-1a687 687 0 0 1-66-4l-13-2h-9l1-9v-10l20 2Zm285 3c-2 1-2 4-2 10 0 9 0 9 2 10h10v-9c0-7-1-9-2-11-3-2-6-3-8 0Zm24 0c-2 1-2 2-2 11l1 10h3l5-1 1-10c0-7 0-8-2-10s-3-2-6 0Zm-47 0c-2 2-1 20 0 20 2 1 6 0 7-1 2-1 2-12 2-16-1-4-1-4-4-4l-5 1Zm69 0-2 3v14c0 2 5 4 8 3 2-1 2-2 2-8 0-11-2-14-8-12Zm22 0-2 11v10h11v-9l-1-10c-1-2-5-3-8-2Zm21 0-1 19c0 3 9 3 10 0s0-18-2-19h-7Zm24 0c-2 1-3 2-3 11v10h4l6-1v-19c-1-1-5-2-7-1Zm115 19-1 9-1-2v-17l2 10Zm94 1v10h-5v-20h5v10Zm182-6-1 7c0 6 1 8 5 8 1 0 2-2 2-7l-1-8h-5Zm22 0-1 8c0 7 0 7 3 8 2 1 3 1 4-1 2-2 2-7 1-13 0-3-1-3-3-3l-4 1Zm43 1-1 9c0 7 1 8 3 8s3-1 3-8-1-10-3-10l-2 1ZM94 665c-3 2-7 6-8 11-1 2-2 3-5 4-7 2-14 9-14 15 1 3 5 2 7-1 2-5 7-8 12-8 3 0 3 0 4-6 1-5 6-10 11-11 3 0 4 0 7 3 4 4 6 5 8 3 2-4-7-12-14-12l-8 2Zm1166 0c-1 2-2 6-1 7 2 2 7 3 9 2 1-1 1-7-1-9h-7Zm198 0v16c1 2 1 2 3 0 2-1 2-2 2-9s-1-8-3-8l-2 1Zm-878 4a817 817 0 0 0 49 4l29 2 5 1v21l-13-1a2220 2220 0 0 0-81-7l-1-11v-10h3l9 1Zm445 0 40 1h27v5c0 7 1 8 8 7 6 0 8-2 8-7 0-3 0-4 2-4l38-1 36 1v5c0 6 1 7 4 7l7 1c6 0 7-1 7-8v-4h20l-3 5a653 653 0 0 1-25 40l-4 6h-8l-47-1-175-3c0-1 50-51 51-50h14Zm294 0 25 2h10l24 24 23 25h-28l-27-1-6-7-15-15c-21-22-25-27-24-28h18Zm-758 1 1 11-1 9a737 737 0 0 1-78 8 1330 1330 0 0 1-84 10 772 772 0 0 0-61 7l-26 4c-18 1-19 2-19 4l-1 2-21-4a2169 2169 0 0 0-39-8c-6-1-8-1-8 2a2549 2549 0 0 1 200 56 2914 2914 0 0 1 169 51 1531 1531 0 0 0 67 22c1 1-18 1-44 1h-46l-9-3a2044 2044 0 0 0-140-41 3731 3731 0 0 0-145-43 2663 2663 0 0 1-80-22l-65-18c-16-5-15-4-13-13l1-3h9a2616 2616 0 0 1 75 6c41 3 42 3 63-1a811 811 0 0 1 93-13 5307 5307 0 0 1 202-24Zm681 12 11 12-13 11c-7 6-13 13-13 14l-2 3h-13l-13-1 10-17a2664 2664 0 0 0 21-33l12 11Zm60 0 28 30 6 7h-63l-38 1 5-5a1194 1194 0 0 1 51-44l11 11Zm-529 10c-3 1-6 3-7 5-4 4-5 10-3 12 3 2 5 1 6-3 0-5 6-10 13-10 4 0 4 0 7 4 5 7 9 5 5-2-2-5-6-8-12-9-3 0-5 0-9 3Zm244 6c-9 9-10 10-7 11s5 0 12-6c4-3 3-3 7 2 2 3 5 4 7 1 1-3-7-15-10-15-2 0-6 3-9 7Zm50 3-5 7 2 2c3 1 3 1 6-2l3-3 3 3c2 3 4 4 6 1 1-2 0-6-3-9-5-5-6-5-12 1Zm43 1-6 7c1 3 6 2 9-1l4-4 4 4c4 3 7 4 8 0 0-2-9-12-12-12l-7 6Zm-526 3 1 13c2 9 1 9-2 9l-8-1h-4v-5l-2-23h14l1 7Zm-22-4a210 210 0 0 1 3 22v4h-9l-11 1-1-15c-1-15-1-14 8-14 10-1 10-1 10 2Zm37-1 8 1 2 10 2 12v4h-20v-4l-1-9-1-11c-1-4-1-5 1-5l9 2Zm553 3c-6 6-6 9-1 8l4-2c2-2 3-2 6 0 4 3 8 3 9 1 0-1-1-3-5-6-8-7-8-7-13-1Zm-614 6 2 14v6h-8l-10 2c-3 0-4-1-4-17v-12h9l10-1c1-1 1-1 1 8Zm87-8h6v10l2 13v4h-6l-9-1c-2 0-2-1-3-11l-2-14c0-2 0-2 3-2l9 1Zm22 2h5v5l2 12v8h-16l-1-11-2-13c0-2 1-2 4-2l8 1Zm-135 4 2 24-9 1h-8l-1-13v-14l13-2c3 0 3 0 3 4Zm160-3a194 194 0 0 1 2 24h-14c0-1-3-23-2-24h14Zm-182 4a233 233 0 0 1 1 25l-9 1h-8v-27l4-1a55 55 0 0 0 9-1c3 0 3 0 3 3Zm203-1 1 2 2 17v3h-8c-7 0-8 0-8-2l-3-19v-3l8 1 8 1Zm16 2 3 19c0 2-1 2-5 2h-5l-1-7-1-11-1-5h5l5 2Zm-241 18 2 34v16l-3-1a442 442 0 0 1-38-14l-1-27v-23h5l10-2h4v9a588 588 0 0 0 5 50l1-31v-29h5l7-1h3v19Zm-45 11-1 25-5-2-5-1v-13c-1-16-2-18-6-18a1174 1174 0 0 0-67 10 538 538 0 0 0-38-11c-3-1 0-1 18-3a3003 3003 0 0 0 90-10c15-3 13-5 14 23Zm386-19c-6 1-13 5-16 9l-3 6c-1 4-2 5-6 8l-6 3-4-2c-5-3-14-3-20 2-7 5-12 14-9 18 2 2 5 0 7-5 1-4 2-6 6-8 4-3 5-3 9-3l8 4c3 3 7 2 9-1 2-2 3-3 5-3 5 0 6-2 6-6 0-5 4-10 10-14 10-6 23 0 25 12 0 5 2 7 5 5 3-3 1-12-4-18-6-6-13-8-22-7Zm-684 4a290 290 0 0 1 38 12 814 814 0 0 1 3 36c2 2 3-1 3-18v-17a765 765 0 0 1 44 14 1092 1092 0 0 0 1 47l-9-3-9-3v-15a688 688 0 0 1-2-31c-2-2-2-2-3 3a299 299 0 0 0-1 41l-39-14c-1-1-2-3-2-7 0-19-2-25-5-24l-1 15 1 13-3-1-6-2-7-1c-3 0-3 0-3 2 1 2 6 5 54 22a1194 1194 0 0 1 115 45 232 232 0 0 1 16 6l-187-1h-10v-8a4510 4510 0 0 0 4-113l8 2Zm462 10a269 269 0 0 1 2 29l1 4h-7c-8 0-7 2-9-17-3-19-3-17 5-16h8Zm25 4 1 11 1 13 1 6h-3l-10-1h-7l-1-13-2-17v-3h20v4Zm-46-1 3 28c0 1 0 2-10 2l-11 1v-9l-2-16v-8h4l10-1h6v3Zm66-2a1360 1360 0 0 0 8 70l1 7h-17v-4l-3-33c0-2 0-2 5-2 4 0 5 0 5-2s-3-4-7-4-4 0-6-16l-1-12v-5h7l8 1Zm24 8 2 11 5 57-8 1-8-1a418 418 0 0 0-5-48 574 574 0 0 1-3-24v-4h17v8Zm16-7h4l1 15 5 38 3 23h-17v-4l-1-18-4-32c-3-25-3-23 2-23l7 1Zm-266 2v21l-14-4a621 621 0 0 0-39-13 654 654 0 0 0 49-6c3 0 4 0 4 2Zm135 8 2 16v6h-4c-4 0-7 2-6 4l6 1h5v10l2 14c0 5 0 5-6 3l-5-2a803 803 0 0 1-57-17c-2-1-3-3-3-25l-1-15h3l9-1 6-1v5l2 22c0 15 0 17 2 17l2-1v-43h5l8-1c3 0 3 0 3 5a306 306 0 0 0 2 30c0 12 1 14 3 13s2-3 2-17a796 796 0 0 0 0-31l15-2h5v10Zm155-9 2 10a1893 1893 0 0 0 9 64l-8 1-9-1-9-72v-3h7l8 1Zm17 0a1777 1777 0 0 0 11 64l2 11h-13v-5a1484 1484 0 0 0-11-68c0-2 0-2 5-2h6Zm267 6v17h8v-17c-1-3-7-3-8 0Zm94 1c-2 2-2 4-1 9l1 8h8c2-2 1-15-1-17-2-3-6-2-7 0Zm64-1-1 10v9h3c5 0 7-2 7-9l-1-8c-2-2-6-3-8-2Zm172 0-1 10 1 8h8v-18l-4-1-4 1Zm70 0-1 8c0 9 1 10 6 8 2-1 2-1 2-7 0-5 0-7-2-8-2-2-4-2-5-1Zm-370 1v16c1 2 6 3 8 1l1-10v-7l-4-1-5 1Zm32 1c-1 1-2 14 0 16l4 1c4 0 4 0 4-4v-14c-2-1-6-1-8 1Zm65-1-1 9c0 8 0 8 2 9 5 2 6 0 7-8l-1-10h-7Zm59 1c-1 1-2 3-2 8 1 8 2 10 6 8 3-1 3-1 3-8s0-8-2-9c-3-1-3-1-5 1Zm116-1c-2 1-3 11-2 15 1 3 2 3 5 3 5 0 5 0 6-4l-2-14h-7Zm78 0v9c0 7 1 7 3 8h4v-16c-1-2-6-3-7-1Zm-109 1v15c0 1 1 2 4 2s4 0 4-3c2-6 1-12-1-13-1-2-5-2-7-1Zm-42 2-2 8c0 7 1 9 6 8 3-1 3-1 3-7l-1-8c-1-2-5-2-6-1ZM76 751c-7 4-10 10-7 12 1 1 3 0 6-3 6-6 9-7 15-2 5 4 7 4 7 0l-4-5c-5-4-12-5-17-2Zm154 2 9 2 2 53-17-7-4-2v-25l1-24 9 3Zm29 8 10 2v10l1 41c0 6-1 6-6 3l-10-4-7-2v-10a240 240 0 0 0-1-30c-1-13-1-14 1-14l12 4Zm22 6 9 2 5 2v29c0 27 0 28 2 28l2-2a420 420 0 0 0 2-53l20 5 4 1v32l1 31 2 1a716 716 0 0 0-50-21c-2 0-2-2-2-22a485 485 0 0 0-1-35l6 2Zm289 7a145 145 0 0 1 3 15v20l-11-4-11-3v-4l-1-14-1-12 11-1h10v3Zm22 14 2 19v4l-6 1h-7v-3a867 867 0 0 1-5-36c0-2 0-2 7-2l7 1 2 16Zm24-6 2 20v10l-9-1h-9v-3l-4-35 10-1 10 1v9Zm366-3c-2 1-2 3-2 9l1 9h3c4 0 5-2 5-10 0-9-3-13-7-8Zm28 1v17c2 3 7 2 8 0 2-3 1-16-1-17h-7Zm33 0c-1 2-2 3-2 10 0 8 0 8 2 9 3 1 6 0 7-1v-18h-7Zm34 0-3 1v18h3c5 0 6-1 6-9 0-10-1-11-6-10Zm29 1-1 9c0 8 0 8 3 9s7 0 7-2v-15c-1-2-7-3-9-1Zm32 0c-2 1-3 13-1 16 1 3 8 3 8 0 2-3 1-14 0-16h-7Zm71 0v16c0 2 5 3 6 1v-8c0-6 0-8-2-9h-4Zm-859 6 2 1 1 19 2 27v10h-26l1-24 1-32v-7l9 3 10 3Zm816-4-1 7 1 7c0 2 5 3 5 1 1-2 0-15-1-16 0-2-4-1-4 1Zm194 0c-1 1-1 4 1 13 0 4 3 6 6 4 1-1 2-14 0-17 0-3-7-3-7 0Zm-108 0c-1 2-2 15-1 17h9c2-2 1-14-1-16s-5-2-7-1Zm29 0v9l1 8h9v-8l-1-9h-9Zm28 0-1 10 1 8h3c5 0 6-1 6-9l-1-9h-8Zm-571 4 17 6a5538 5538 0 0 1 143 52l-98 1c-131-2-117-1-132-6a1731 1731 0 0 0-57-19l-9-3h129l1-2a485 485 0 0 1-3-31c0-2 2-1 9 2Zm-367 6 14 4c1 0 2 1 2 3v5l1 21 1 18h-14c-15 0-15 0-15-2a846 846 0 0 0-2-53l13 4Zm493-2-1 12c0 8 0 10 2 11 1 2 1 2 3 0v-18c-1-5-2-7-4-5Zm-725 3c-1 1-2 6-2 21v19h2c2 0 3-1 3-4 1-5 0-36-1-37l-2 1Zm783 4c-1 1-2 11-1 35 0 5 1 7 5 5l1-8v-7l4-2c5-4 11-11 11-13-1-3-4-2-9 2l-5 5-1-6c0-10-2-13-5-11Zm-524 2a365 365 0 0 0 29 10l1 18v16h-34v-44h4Zm598 4c-3 0-6 3-8 5l-7 5c-7 3-11 14-7 18 3 4 5 2 5-4 0-4 0-5 3-7 1-1 3-2 4-1 3 0 5-1 5-5 1-3 6-6 10-6 5 0 9 2 10 6 2 5 3 6 6 6 7 0 9 4 5 11-3 4-3 5 1 4 6-1 9-9 6-15-2-4-5-7-8-8-2 0-4-2-6-4-6-7-12-8-19-5Zm-545 12 15 5 1 12 1 11h-35v-17c0-15 0-16 2-16l16 5Zm605-4h-3c-4 1-10 5-12 9-3 7 0 17 4 14l1-5c0-6 2-9 8-11 8-2 15 3 17 12 0 6 1 6 4 5 2 0 2-1 2-4 0-7-3-13-8-16-3-3-12-5-13-4Zm49 2c-9 2-16 11-16 20 0 3 2 5 5 5 1 0 2-2 2-6 1-5 1-6 5-9 5-5 10-6 15-4 7 2 11 8 11 16 0 4 0 5 2 6s4 0 5-5c1-6-2-12-6-17-8-8-14-9-23-6Zm-931 3-1 11c0 6 0 8 2 8h2c1 0 2-17 1-20-1-4-4-4-4 1Zm1080 4c-2 0-2 1-2 9l1 9h3l4-1 2-7c1-9-2-12-8-10Zm29 1c-2 2-3 14-1 16h7c2-1 3-14 1-17-2-1-5-1-7 1Zm-802 2 30 9 34 10c3 1-4 2-36 2l-38-1 1-12v-10l9 2Zm332 68h-1c0-1 1-2 2-1l-1 1Zm328 7c0 1-4 3-9 4-9 3-21 3-28 1-9-2-9 3-1 6 11 4 22 3 35-2l4-2 5 2c9 4 18 5 26 1 6-1 7-1 12 1 6 3 15 4 22 1 6-2 10-6 9-8-1-1-3-1-9 1-6 3-12 2-20-1l-8-2-7 2c-9 3-13 3-22-1-8-5-7-4-9-3Zm-842 1c-2 2-12 5-17 5-4 1-7 0-12-1-8-3-10-3-10 0 0 2 2 3 6 5 5 2 7 2 15 2 9 0 11 0 17-3 2-2 3-2 4-1 3 3 11 5 20 6 6 0 9 0 15-2 8-2 12-6 10-8-1-2-2-2-8 1-9 3-21 3-28 0l-7-4h-5Zm988 2c-5 3-6 3-12 3h-8c-1 3 5 7 11 7 2 0 7-1 10-3l6-2 5 2c5 2 7 3 15 3 9 0 11-1 15-3s5-3 8-1l10 3c6 1 7 1 13-1 9-2 11-3 8-6-2-2-3-2-8 0h-13l-9-3h-6l-8 4c-8 2-15 1-24-3l-7-3-6 3Zm-1092 0c-3 3-10 4-23 5-6 1-14-1-21-4l-5-2-7 3c-4 2-7 2-15 3-8 0-10 1-10 2-1 6 17 6 27 1l4-2 6 2 11 4c4 1 16 0 24-1l10-4c1-1 3-2 4-1 2 3 12 5 19 5 11 0 14-1 15-4 0-2 0-2-10-2-8 0-18-2-21-5-2-3-5-3-8 0Zm242 5c-9 3-18 3-26 0-10-3-11 1-2 6 9 4 23 3 35-3l8 2 10 4 18-3c2-1 3-1 9 1 8 2 10 2 18 1 4 0 5-1 7-3v-4c-2-1-3-1-7 1-5 2-12 1-19-2l-4-2-6 2c-7 3-17 2-24-1-5-3-9-2-17 1Zm195 0c-7 2-10 2-17 0-6-1-8-1-16 2s-20 3-27 0c-7-2-10-2-11-1-1 2 6 8 11 9 9 2 22 1 31-3 5-2 5-2 11-1 7 2 12 2 19 0 6-2 8-4 7-6s-2-2-8 0Zm66 1c-5 2-13 3-17 1-7-2-8 3-2 6 4 2 14 2 20 0 4-1 4-1 9 2 3 2 6 2 14 3 9 0 10 0 14-2 6-4 6-6 1-5-15 1-18 1-24-2l-7-4c0-1-4-1-8 1Zm235 12c-2 3-14 6-21 5l-12-2c-11-3-10 3 1 7 5 2 7 2 15 2l14-3c6-3 7-3 13 1 4 2 6 2 13 2 9 1 20-1 22-4v-3h-4l-11 1c-8 0-10 0-15-2l-8-4c-2-3-4-3-7 0Zm77 6c-1 3 4 7 14 9 8 2 18 2 26-1l5-2 7 3c8 3 19 4 25 1 9-3 9-8 0-6-8 2-20 1-26-2l-6-3-5 2c-11 4-26 4-34-1-3-2-5-2-6 0Zm-634 7c-5 3-13 5-21 5-6 0-8 0-13-2-5-3-5-3-7-2-1 2-1 2 3 5 4 5 8 6 17 6 8 0 13-1 20-5l5-2 6 4c5 3 7 3 15 4 7 0 9 0 14-2 4-2 5-2 8 0 5 2 13 2 15 0 2-3 0-5-5-5l-9-2c-4-2-5-2-8 0l-11 2c-7 0-8 0-13-2l-6-4-6-3-4 3Zm870-2-7 3c-8 3-16 3-23 0-6-2-6-2-8-1v4c2 2 9 4 16 5 5 1 14 0 19-3l5-2 6 3c9 4 19 5 28 3 5-2 6-2 12 0 7 2 20 3 26 1l3-3c0-2-1-2-9-2-9 0-19-2-24-5-2-1-2-1-6 1-9 4-25 3-33-3-3-2-5-2-5-1Zm121 1c0 3 1 5 8 8 6 3 21 3 27 0l5-2 5 3 12 2c10-1 17-5 14-8-1-2-2-2-5-1-6 3-14 2-20 0-5-2-7-2-14 1-6 2-17 1-24-2l-7-3-1 2Zm-594 2c-7 3-18 6-25 5-15-1-14-1-15 1 0 2 1 3 4 4 9 4 24 2 36-3 4-2 4-2 9 0 4 2 7 2 14 2l12-2c3-2 7-2 10 0 6 3 21 4 26 1l4-3c0-2-1-2-4-2-11 1-19 0-24-2-4-2-6-2-7-1l-10 2c-8 1-11 1-22-2-4-2-5-2-8 0Zm-520 6c-8 5-20 7-28 5l-7-2-3-1c-2 0-2 1-2 3s0 3 6 5c5 2 8 2 15 1 8 0 17-2 22-5 1-1 2 0 5 1 4 3 14 5 21 5 8 0 16-2 16-5 0-1-2-2-11-2-11 0-12 0-26-6-3-2-4-2-8 1Zm403-2c-1 2-8 5-13 6-4 1-7 0-13-1l-8-1c-1 2-1 3 2 5 6 4 20 5 29 0 6-2 6-2 9 0 4 3 7 4 15 5h13c7-2 11-5 9-7h-16c-9 0-16-2-19-6-2-2-6-3-8-1Zm-125 5c-7 6-20 6-31 3-7-3-8-3-8 0s6 7 13 8 12 1 23-2l8-2 6 2c7 3 20 4 27 2 5-1 7-3 8-6 0-2-2-2-7-1-10 3-23 1-31-3-5-4-5-4-8-1Zm-356 2c-6 2-8 2-16 2l-15-1c-3-2-4-2-5-1-1 2 1 5 7 7 5 3 19 3 26 1 6-2 13-6 13-9 0-2-4-2-10 1Zm985 1c-6 5-16 6-26 3-10-2-11 2-3 6 6 3 19 3 25 0l5-2 6 3c5 2 7 2 16 2l11-1c1-1 1-1 0 0-2 0-2 0-1-1 2-2 3-4 1-4h-9c-9 0-14-1-18-5l-4-3-3 2Z" clip-rule="evenodd"/></svg>