<svg xmlns="http://www.w3.org/2000/svg" width="1402" height="722" fill="none"><path fill="#000" fill-rule="evenodd" d="M92 1a46 46 0 0 0-32.2 35.2l-.6 5.3L53 41c-11.7-.7-23.2 6-28 16.6-3.2 7.1-3 17.4.5 22.8C27 82.8 30 85.7 32 87l3.8 2.4 84.5.2c46.5 0 86-.1 87.7-.4 3.4-.5 5-3 3.3-4.7-.7-.8-27.4-1.2-87.5-1.6l-86.4-.5-3.7-3.6c-6.1-6.2-5.8-15.6 1-23.5 5.6-6.8 19-9.7 25.7-5.7 2.8 1.7 3 1.7 5.1-.4 1.6-1.6 1.9-2.5 1.1-3.5-1.5-2 0-11.7 2.8-17.2 3-6 10-14 14.3-16.4 13.9-7.4 24.8-7.7 38.1-1 9.6 5 17.9 15.2 19.1 23.7 1.3 8.5 3.6 10.2 7.7 5.5 6.5-7.5 20-10.6 28.8-6.7A25.7 25.7 0 0 1 194 57.4l.3 7.8c0 1.2 3.5.8 7.4-.8 11.4-4.8 24 2.4 25.5 14.6.7 6 2.9 8.2 5.7 5.9 1.3-1.1 1.6-2.5 1.1-6.6-1-10.1-6.2-17-15.4-20.4-6-2.2-9.2-2.5-14-1-3 .8-3.3.7-3.3-1.5 0-4.3-5-15.9-8.3-19.4a36 36 0 0 0-25.6-11c-5 0-8.9 1.1-18.6 5.5-.6.3-2-1.8-3.3-4.5a45 45 0 0 0-42-26C99.3 0 94 .5 92 1Zm1134.8 17.3c-7.9 2-17 7.2-22.6 12.9-5.6 5.6-10.9 15.6-10.9 20.7 0 2.8-.1 3-3.2 2.2-1.8-.4-6.9-.7-11.3-.7-9.1 0-13.5 1.9-19.7 8a35 35 0 0 0-9 17.8l-.3 3.4h-6c-8.2-.1-14.4 3-18.4 9-5.6 8.5-3.4 20.6 4.1 23.2 2.2.8 35 1.1 109.3 1h106l5.3-2.4c8.4-3.9 11.3-11.3 7.8-19.6-3.7-9-10.5-13.3-20.7-13.3h-6.7l-.6-4.1c-1.2-8-8.2-17.7-15.6-21.5-7.1-3.7-22-4.2-27.9-1-1.5.8-2 .2-3.4-4.9a51.8 51.8 0 0 0-13.3-21 50 50 0 0 0-20.9-9.9 58.4 58.4 0 0 0-22 .2Zm22.5 6.8c11 3.4 19.1 9.8 24 19 3.2 6 3.7 8.2 4 19.4 0 2 3.8 2.3 5.5.4 5-5.5 19-7.4 26.7-3.6a27.6 27.6 0 0 1 14.7 24.6c-.4 4.4-.3 4.5 2.6 4.4a27 27 0 0 0 7-1.6c5.5-2.2 10.1-.9 14.8 4.1 3.7 4 4.8 8.2 3.1 12.6-1.8 4.6.5 4.5-113.3 4.5h-107l-1.6-2.5c-3.1-4.6.8-13.5 7.2-16.1a21.2 21.2 0 0 1 14.7 0c1.9.8 3.8 1.1 4.4.7.5-.3 1-3.5 1-7.1a24 24 0 0 1 6.3-17.4c6.1-7 19-9.2 28.2-4.7 6.4 3 7.6 2.4 7.6-3.8-.1-10.3 9.2-24 19.9-29.5a39.7 39.7 0 0 1 30.2-3.4ZM408.8 91.8a37 37 0 0 0-25 24.4c-1.5 4.5-2.2 5.6-3.4 5.1a29.5 29.5 0 0 0-18.2.5c-19 7.2-23.7 32-7.7 40.2 3.6 1.8 7 1.9 76.5 1.9h72.7l3.3-2.2c8-5.5 6.7-16.2-2.7-22.5-2.5-1.7-4.7-2.3-9-2.3h-5.9l-1-4a31.6 31.6 0 0 0-11-14.7 29 29 0 0 0-19.6-3.6l-5.5 1-2.2-4.6a41 41 0 0 0-18.3-17.5 59 59 0 0 0-23-1.7Zm22.9 9.5c7.6 4.4 12 10.5 14.6 20.4 1.3 4.9 2.5 5.2 7.6 1.7 6.6-4.4 17.1-2.8 23.1 3.7 3.2 3.4 6.2 10.6 5.7 13.8-.7 4.2 1.7 5.6 6.5 3.7 5.4-2.2 10-1.3 13.8 2.8 3.3 3.4 3.5 6.3.8 8.5-.9.7-23.7 1-73 1.1-64.8 0-71.9-.1-74.1-1.6-2.9-1.9-5.4-7.1-5.3-11.2 0-4.5 4.2-10.5 9.4-13.8 4.3-2.6 5.7-3 11.7-2.8 4.3.1 7.9.8 9.7 1.9 4.3 2.5 5.8 1.4 6.6-5.3 1.5-11.8 8.1-20.1 20-25 5-2.1 17.7-1 22.9 2ZM984.5 145c-.6.7-1.2 3.4-1.2 6v4.8h-4.9c-4 0-5 .4-5.3 2-.8 2.7 1 4 6 4h4.2v9.6c0 10.3-1 13.5-16 54.9l-8.8 25-4 12v20c0 16-.5 23.6-2.6 38.5-2.9 20.3-3 21-4.6 35.4a961.8 961.8 0 0 0-6.4 53.1c-.3 1.1-.7 4.7-1 8l-1.1 8.3c-.3 1.3-1 6.4-1.5 11.5-.5 5-1 10.1-1.3 11.2-.3 1.1-1.2 8.3-2.2 16a2445.8 2445.8 0 0 1-3 25c-1 7.8-1.3 8.5-8.7 14l-7.3 5.6c-.6.5-.8-7.9-.3-25l.7-26.6c.3-2.3-2-13.8-3.3-16.3-.7-1.5-3.3-4.6-5.7-7a22 22 0 0 1-4.4-5.4 220.4 220.4 0 0 0-6.8-34c-4.2-2.7-5.1-.4-8.3 18.7l-2.8 17-4.1 3.7a22.5 22.5 0 0 0-8 15c-.3 2.4-1 5.3-1.6 6.4-.8 1.6-.7 2.7.4 4.5.8 1.3 1.5 3.9 1.5 5.7l.1 3.2h-80.4l-14 17.3c-18 22-20.7 26-19.9 28 .4 1 1.3 1.7 2 1.7 1.2 0 1.4 5 1.4 30.4v30.3l-102.5-.2.4-8.2c.5-14-4-23.8-13-29.1-3.3-2-3.7-2.5-3-5 1.7-6.4 0-14.1-4.1-18.8-4.3-4.9-7.7-6.4-14.7-6.4h-6v-3.2c-.1-7.5-7.7-17.2-15.6-19.8-5-1.7-15-.8-20 1.8a31.8 31.8 0 0 0-13.6 15.1c-1 3.3-1.6 4.1-3.6 4.1a22.3 22.3 0 0 0-22 23.8c.6 6.6 5 13.2 8.9 13.2 3.6 0 3.6-1.7.3-6.6-1.4-2-2.8-4.8-3.1-6.2-1-3.8 1.2-9.4 5.2-13.2 3.5-3.4 3.7-3.5 11.7-3.5h8.2l.1-4.5c.2-14.7 18.5-24.3 29.9-15.6 4.6 3.6 6.7 7.8 7.4 15.1l.6 6 7.2-.3c8.1-.4 11.9 1 15 5.5 1.7 2.7 2 7.6 1 18.7-.1 2.5.3 3 3 3.8 1.6.4 5 3 7.6 5.7 5.2 5.5 6 8.9 5.5 20.6l-.3 7h-54.5v-16.2c0-9 .1-16.4.2-16.5.6-.9-2.5-4.8-3.7-4.8-3 0-3.7 4-3.5 19.4.2 8.3.2 15.8.1 16.6 0 1.4-3.8 1.6-29.6 1.5h-29.6v-40c0-63.7-.2-57.5 2.1-57.5 4 0 2-4.2-7.2-15.9l-21.7-27.3L492 421l-19.2-.6-.3-2.8c-.2-1.8-1.1-3-2.5-3.6-1.8-.7-15-.8-18-.2-.3 0-.7 1.5-.7 3.3v3.1l-66.9-1.2-2.8 3.3a1656.4 1656.4 0 0 0-30.7 37.1l-7.2 8.7-4 4.7-.2 14.6c-.3 15.2.2 17.5 3.8 17.5 2.7 0 3-1.9 3-16.3v-13.2l6.8-8.1 19.2-23.3c6.9-8.3 13-15 13.7-15 1.3-.1 9.5 9.5 27.2 31.6 6.6 8.3 12.5 15.4 13.1 15.8.7.4 1 12 1.1 32.8.1 35.8.6 42 3.1 42.5 1 .2 2-.5 2.3-1.6.3-1 .7-17 .8-35.6l.2-33.6h90.5v96.8l-3.5-.4c-3-.3-3.5 0-3.5 2 0 1.3.6 2.9 1.4 3.5 1 .8 66 1 244.2.9l243-.3v-2.5c0-1.8-.7-2.6-2.3-2.8-2.6-.4-2.7-.6-1.3-3.2a562 562 0 0 0 1-65.8c-1.1-13.4-4.3-20.8-11.2-26.3-6.8-5.4-7.9-5.5-13.2-1.8a30.2 30.2 0 0 0-11.2 15.5c-1.6 4.3-1.8 9.3-2.2 43.1l-.3 38.2-50.9.1v-59.6l3-1.7c1.7-1 5-3.5 7.4-5.5l8-6.7c3.6-3 3.8-3.3 5-13.5a4281.4 4281.4 0 0 0 7-55.5 1040 1040 0 0 1 4.1-32 14001.4 14001.4 0 0 1 10.2-81.7c.8-6.2 1.9-22.1 2.2-35.3l.7-24 6.2-17.5a1033 1033 0 0 1 17.7-48.8c.8-.8 1-.4 4.8 10.8l12 35 8.4 24.5.7 21c.3 11.6.8 22.6 1 24.5a1723.5 1723.5 0 0 1 6.1 64c.3 2 .7 6.9 1 11 .4 4.1 1 10.9 1.6 15l2.5 24.5 2 20 1.4 16 1.5 15.5c.3 1.4.7 6.6 1 11.5.9 11.6 2.6 15.1 9.3 19.1 4.3 2.6 35.9 17.2 54.5 25.2l4.7 2V578h-6.3c-7.1 0-9.5 1.4-7.4 4.3 1.1 1.6 12.4 1.7 158.2 1.5l157-.3.3-2.1c.5-3-1-3.2-22-3.4-10 0-18.3-.2-18.3-.3-.1-.1 0-3 .3-6.5.5-6.8.2-6.5 8.5-7.7 7-1 18.2-7 23.3-12.7a31.5 31.5 0 0 0 8.3-31.5 32.4 32.4 0 0 0-12-14.9c-1.5-.8-1.6-1.6-.7-6.4 3-16.7-4.5-30.6-19.4-35.6a31.2 31.2 0 0 0-21.6 1.5c-5.5 2.8-12.3 9-14.7 13.4l-1.8 3.4-13.7-17.1a387.4 387.4 0 0 0-15.5-18.6c-1.2-1-4-1.4-8.8-1.3a4775 4775 0 0 0-70.7 2.3h-9.5l-8 10.2c-4.4 5.6-12.1 15-17.2 21-8.6 10-11 14.6-8 15 .7 0 2.5 0 4-.2l2.7-.1v86.1h-18V435.4l-10-19.2c-5.5-10.6-10-19.7-10-20.2 0-1.8-7.8-2.1-63-2.1h-56.7l-.7-8.7a1012.9 1012.9 0 0 0-3.1-35.8c-.3-3.8-1.5-14.9-2.6-24.5s-2.3-27-2.6-38.4l-.6-21-7.2-21-12.5-35.6c-7.6-21-8.6-26-8.1-41.2.1-5.3.3-5.8 2.4-5.8 4.1 0 6.7-1.2 6.7-3 0-1.4-1-2-4.8-2.5l-4.8-.6-.3-5.2c-.2-6-2.2-8.2-4.9-5.5Zm-866 62.8c-7.9 1.9-18.9 12.1-20.7 19.2-.6 2.5-.7 2.5-4.8 1.3a22.7 22.7 0 0 0-29 21c0 6.1 4.1 12.7 9.6 15.4 4.2 2 5.7 2.1 52 2.1 41.7 0 48.2-.2 51.7-1.6 7.5-3 9.6-12.3 4.7-20.6-3.2-5.5-8.2-8.2-15.2-8.3h-5l-2-6.1a34.5 34.5 0 0 0-21.4-22.2 53 53 0 0 0-19.9-.2Zm23.2 9.6a27.5 27.5 0 0 1 12.8 22.5c-.2 5.1 2 6.8 5.8 4.6 1.6-1 4-1.7 5.5-1.7 9 0 16 10.5 10.4 15.6-2 1.8-4.4 2-49 2-25.8 0-47.2.4-47.4.6-1.2 1.2-8.5-6.9-9-10-1.5-7.2 5.9-15.9 14.1-16.6 4.2-.4 9.7 1.4 12.7 4.1 2.4 2.2 3.8.6 6.1-7a23.3 23.3 0 0 1 13-15.2c4.4-2.2 6.2-2.5 12.8-2.2 6.3.3 8.4.9 12.2 3.3Zm1030 24c-3.6.8-9.9 7-21 20.7a433.9 433.9 0 0 1-43.5 44.9c-12.6 11.7-12.1 11.5-21.2 8-1.5-.7-3.4-1.2-4.2-1.2-2 0-10 6.5-31.4 25.4-14.9 13-19.1 17.4-18.9 19 .8 5 5.7 1.9 26.3-16.9 24.5-22.1 23.2-21.3 30.1-18.6 7.1 2.7 8.3 2.6 12.3-.3 10.8-8 40.4-37.7 54.6-55 15.3-18.4 18.9-21.3 25-20.2 4.6.9 8.7 4.5 18.1 16.2 5.1 6.2 8.6 9.6 10.3 10 11 2.5 12 3.2 35.6 26.3 25.3 24.7 26.7 25.6 38 26.8 2.8.3 6 .9 7 1.3 1.1.4 7.6 5.9 14.5 12.1a2103.9 2103.9 0 0 0 60 52.9c2.5 2.7 8.4 7 9.5 7 .8 0 2-.8 2.5-1.9 1-2-1.5-4.4-35.5-34.1l-28.2-25.3c-18.5-16.9-19.3-17.4-32.6-19.2-2.1-.3-4.8-1-6-1.7-1.2-.6-10-8.9-19.7-18.3a708.8 708.8 0 0 0-23.5-22.4 38.9 38.9 0 0 0-18.4-9.1c-1 0-5.2-4.3-10.6-11-5-6-10.4-12-12.3-13-3.3-2-12.6-3.3-16.8-2.4ZM979.5 255c-5.3 3.4-6.2 6.3-6.2 19.8 0 10.5.3 12.2 1.8 13 1.1.6 2.4.6 3.5 0 1.5-.9 1.7-2.7 1.7-13.3 0-13.7.6-15 6.2-14.8 5 .1 5.7 1.6 6.2 14.6a53 53 0 0 0 1.5 12.8c.5.6 1.8.8 2.8.6 1.6-.3 1.9-1.5 2.1-12 .4-14.3-.8-17.7-6.7-20.7-5-2.6-8.7-2.6-12.9 0Zm-664 14.9c-2.9 1.6-7 4.3-9 6a4490 4490 0 0 1-65.8 52.7c-53.6 42.2-72 57.5-73 60.6-.3 1.1 0 2.6 1 3.5 1.4 1.4 1.7 1.4 3.3 0 6-5 32.8-27 43.3-35.3 31.4-24.9 36-28.5 44.4-35l32-25.4c28.9-23 29-23.1 33.9-23.1 5.6 0 9.1 2.5 17.8 12.7 14.5 17.1 18.8 21.2 24.3 22.8 2.7.8 7 1.5 9.5 1.5h4.5l34.8 34.8a574 574 0 0 0 36.5 34.7c.9 0 2.1-.8 2.7-1.7 1-1.5-2-5-21.6-24.6a728 728 0 0 1-22.8-23.2c0-.3 5.3-4.8 11.7-10l19-15.7c16.5-14 25.7-19.2 33.4-19.3 4.4 0 4.8.2 9 5.6l8.5 10.8 10.2 13.3a104.6 104.6 0 0 0 26.3 26.2c5 3.5 10.1 7 11.2 8 8.8 7 18 15.4 28.7 25.6 26 25.1 27.8 26.7 29.7 26.3 1-.2 2-1.3 2.1-2.5.4-2.3-1.6-4.3-35.3-36.5a255.4 255.4 0 0 0-32.6-26.8c-7.5-4.6-15.6-13.1-29.8-31.5-19-24.6-20.8-26.1-29-25.1-12.6 1.4-17.5 4.6-50.4 32L406 326l-8.5-9c-9.4-10-12.4-11.7-22-12.8-8.1-.9-10.7-2.7-21-14.9-13-15.5-17.9-20.3-22-21.5a20.6 20.6 0 0 0-17 2Zm842.2 8.4c-1.2 3.1 2 12.2 9.3 26.5l7.4 14.5-2 5.5c-1 3.1-3.8 10.6-6.1 16.6-5 13-5.4 15.9-2.3 16.3 2.6.4 3.6-1.3 8.7-14.8 5.4-14.6 7.6-21.7 7.6-24.3 0-2.3-.5-3.5-8-17a116 116 0 0 1-7-16c-2.1-6.6-3.1-8.3-4.8-8.5-1.3-.2-2.4.3-2.8 1.2ZM984 314.2c-1.5 1-1.7 2.6-1.5 9.2.3 7.8.4 8 3 8.3 3 .4 3.8-1.5 3.8-9.9 0-4.1-.4-6-1.8-7.2-1.5-1.4-2.1-1.5-3.5-.4Zm-662 15c-1.3 1.2-6.3 6.6-11.1 11.9-4.8 5.3-9.7 9.9-11 10.2-3.8 1-34.7 15.3-36.8 17-2 1.8-2 3.4.3 4.9 1 .6 4.7-.7 12.5-4.6 6.1-3 15.4-7.1 20.7-9.1l9.6-3.8 11-12.1c6.2-6.7 11.1-12.7 11.1-13.4 0-.7-.8-1.7-2-2.3-1.4-.8-2.3-.5-4.3 1.3Zm896.6 1.3c-.4 1.2 2.4 4.6 10.3 12.3 28.4 27.5 31.3 29.7 32.3 24.8.4-2.4.5-2.3-20-21.8-17.5-16.7-21-19.1-22.6-15.3Zm-746 15.6c-.7.7-1.3 1.6-1.3 2.1s5.6 6.4 12.5 13c9.8 9.6 13 13.4 15 18 3 6.3 4.4 7.5 12.5 10.7 6.8 2.6 18.1 8.3 22.9 11.5 2.6 1.8 3.8 2.2 4.8 1.4 3.8-3.2-1-7.2-18.8-15.8-13.6-6.5-13.8-6.6-16-11.6-2.7-6-23.2-27-25.2-25.9-.6.4-.8.4-.4-.1.9-1-2-4.5-3.7-4.5-.7 0-1.7.5-2.4 1.2Zm511 7c-.8.7-1.3 4.4-1.3 9.5 0 7.4.3 8.4 2.1 9.4 1.6.8 2.4.8 3.3 0 1.5-1.6 1.9-17 .5-18.8-1.4-1.6-3.1-1.7-4.7-.1Zm-.6 44.5c-.4.3-.7 4-.7 8.3 0 8.7 1.4 11.7 4.9 10.6 2-.7 2.1-1.4 2.1-8.6 0-4.3-.2-8.5-.6-9.4-.6-1.6-4.4-2.2-5.7-1Zm-894.5 2.1c-3.6.3-4.4.8-5.3 3-.7 1.8-1 17-1 43.6.1 38.8 0 40.8-1.6 39.3-1-.8-3.8-2.7-6.3-4l-4.5-2.6v-9.3c0-10.3-1.7-14.8-7.3-20.2-3.5-3.2-13-5.7-19.5-5-7.9 1-16.2 6.6-19.8 13.6-1.4 2.9-1.9 5.8-1.9 12.7v9l-5 .6c-4.2.6-5.5 1.3-9 5.2A31 31 0 0 0 0 507.2c0 9 3.8 16.5 11 22.2 4.2 3.3 5.2 4.6 5.3 7.2.2 9.7 7 16 20.3 18.6l6.2 1.3v21.9l-19.5.1-21.2.3c-2.1.1-2.4 3.4-.4 5 1 .8 18.1 1.1 63.8 1 34.3 0 64-.3 66.1-.6 3.4-.5 3.8-.9 3.5-3.2l-.3-2.6-19.5-.2-23.2-.2-3.8-.1v-172h28.3c101 0 117 0 117.5.4.2.3.5 22.1.6 48.6.3 51 .3 51.3 4.8 48.9 1.7-1 1.8-3.9 1.8-52.7v-51.7h-74.2c-40.9 0-76.2.1-78.6.3Zm1047.2 9.2c-5.2 10.3-12 22.7-14 25.8l-1.4 2.2H1076c-34.8 0-44.3-.3-44.4-1.2a352 352 0 0 0-2.7-28.3l-.6-7H1140l-4.4 8.5Zm24.7 27.5c.6.5 1 29 1 71.2V578l-34.6-.5v-138l18-33.2 7.4 14.6c4 8 7.7 15 8.2 15.6Zm-265.1-6.7c0 .6-1.1 1.2-2.6 1.2-2.2 0-2.5-.4-2-2.2l1.2-7.3.8-5 1.3 6c.7 3.3 1.3 6.6 1.3 7.3Zm-429.1-7.3a57 57 0 0 1-.4 9.3l-.6 6.2h-3.8c-3.6 0-3.8-.2-4.4-3.7-.9-5.2-.8-13.8 0-14.7.4-.4 2.6-.6 4.8-.4 3.7.3 4 .6 4.4 3.3Zm-41.6 3.6 25.6.4.6 5 .8 8.5.2 3.5 8 .6c4.4.3 8.8.2 9.7-.3 1.2-.6 1.9-2.7 2.3-7.5 1-9.7.6-9.3 8.5-9.3 7.5 0 8 .3 13.9 8 1.4 2 5.5 7.1 9.1 11.5 5.4 6.5 11.8 14.8 21.3 27.2.7 1-9 1.3-45.4 1.2h-46.4l-11.5-14.6a1465.1 1465.1 0 0 0-28-34.6 1554.1 1554.1 0 0 0 31.3.5Zm-314 .8c-1 .5-1.3 3.1-1 9 .2 6.7.6 8.6 2 9.5 1.3.8 2.2.8 3.5 0 1.4-.9 1.8-2.8 2-8.9.1-4.7-.2-8.3-.9-9.1-1.3-1.6-3.7-1.8-5.7-.5Zm23.4-.3c-1 1.1-.8 15.3.4 17.5 2.4 4.6 5.8 1.4 6.5-6.2.7-7.4-.5-11.3-3.7-11.7-1.3-.2-2.8 0-3.2.4Zm25 0c-.3.4-.7 4.7-.7 9.6 0 8.6 0 8.8 2.6 9.4 1.4.4 3 .2 3.5-.3.6-.5.9-5 .7-9.9-.3-8.7-.3-8.9-2.8-9.2-1.4-.2-2.9 0-3.3.4Zm23.8.7c-.3.8-.4 5-.3 9.3.3 7.5.5 8 2.7 8.2 3.4.5 4-.6 4.6-8.5.4-5.7.2-7.5-1-8.7-2-2-5.4-2-6-.3Zm25-.2c-.4.5-.8 4.2-1 8-.2 6 0 7.4 1.6 9 4 4 5 2.5 5-8.1.1-6-.3-8.5-1.2-9.1-1.9-1.2-3.6-1.1-4.4.2ZM901 439.8c4.4 3.2 6.6 7.3 6.7 12.9l.1 3.7h-29.5v-3.7c0-4 2.8-10.5 5.4-12.7 4.6-3.8 12.2-3.9 17.3-.2Zm82.4-1c-1.6 3-1.3 15.3.4 17.7 1.1 1.5 1.8 1.7 3.2.8 1.6-1 1.8-2.5 1.8-10.5 0-8.9 0-9.4-2.2-9.7a3 3 0 0 0-3.2 1.7Zm132.2 5 4.7.1v134h-15v-4.7c-.5-31.2-1-40.8-2.2-41.9-.7-.7-9.1-4.7-18.8-9a444.9 444.9 0 0 1-43-20.4c-3.4-2.4-3.3-2.1-5.5-26a292.5 292.5 0 0 0-3-30.2c-.5-1.5.5-1.8 9.2-2 8.3-.3 58.2-.2 73.6.1Zm-836.3 2.7a30 30 0 0 0-12.5 12.2c-.8 1.8-1.7 5.6-2 8.3-.6 4-1.3 5.3-3.4 6.4a26 26 0 0 0-9.3 10c-2.4 4.8-2.8 11.9-.7 14.5 2 2.6 5.2 2.1 4.9-.7-.7-6.6.2-10.4 3-13.6 1.7-2 4.5-4 6.3-4.7 6.2-2.3 6.1-2.2 6.2-9.8 0-5.5.5-7.6 2-9.8 3.6-4.7 7.1-6.7 12.8-7.2 6.5-.5 10.4 1.2 14.4 6.5 2.6 3.4 2.8 4.3 2.7 12.2-.1 9 .4 10 4.5 10 2.9.1 9.8 6.7 10.5 10.2l1.1 6.2c.4 2.6 1.1 3.7 2.4 3.7 2.8 0 4.1-2 4.1-6.4 0-7.4-6-16.4-12.7-19.2-3-1.3-3.2-1.6-3-6.6.2-9.4-4.1-17.5-11.4-21.4a33.1 33.1 0 0 0-19.9-.8Zm863.3.7a112 112 0 0 0-.7 27c.4 1 1.8 1.7 3.4 1.7h2.8l.2-13.6c.1-13.5-.5-16.4-3.5-16.4-.7 0-1.7.6-2.3 1.3Zm160.7 10.9 7.6 9.2c4.9 5.2 17.6 22.1 17.5 23.4l-.2 3.2c-.1.8.1 4.3.5 7.8.6 5.5.5 6.2-1 6.2-1 0-3.6 2-5.9 4.4a28.8 28.8 0 0 0 2 40.5c2.4 2.4 2.5 3 2.5 13.8v11.3h-63v-89.7l15.2-19.1a138.8 138.8 0 0 1 16.7-19.2 32 32 0 0 1 8.1 8.2ZM56.8 454c6.3 4.3 7.7 11.9 5 26.5-.6 3-.5 3.2 4.5 4.9A23 23 0 0 1 80 496.6c2.5 4.3 2.6 4.8 2 15.5-.5 7.8-1.3 12-2.6 14.7A59 59 0 0 1 58.8 546c-9.6 4.7-9.5 4.8-9.5-8.9 0-13-1.2-16.7-4.7-14.6-1.6 1-1.7 2.4-1.4 13.8l.4 12.6H41c-4.5 0-12-2.8-15-5.6-2.4-2.4-2.8-3.5-2.8-8.5 0-5.3-.1-5.7-3-6.9-6-2.5-13.4-13-13.8-19.9a37.9 37.9 0 0 1 5-17.3c2.1-3 4-3.8 11.3-4.7l5-.6v-11.5c0-10.5.2-11.8 2.4-14.9 5.6-7.7 18.8-10.3 26.6-5Zm1217.4 9.6-13.8 17.5-3.6 4.7h-68.5l12-14.7c6.5-8.1 12.8-15.6 14-16.7 1.9-1.6 4-2 16.3-2.3l14.4-.5 19.8-.5 19.6-.3-10.2 12.8Zm-217.7-4.4c-1.5 1.8-1.9 29.4-.5 30.8.6.6 2 1 3 .7 1.7-.3 1.8-1.6 2.1-15.5.3-14.1.2-15.3-1.6-16.2-1.4-.8-2.3-.7-3 .2Zm23 1c-1 1.1-1.2 5.7-1 15.8.3 11.8.6 14.4 2 15.2.8.6 2.3.7 3.2.4 1.5-.6 1.6-2.5 1.4-16.4-.3-15.2-.3-15.8-2.4-16a4 4 0 0 0-3.3 1Zm23 .5c-.5 1-1 7.8-1 15.3-.2 11.3 0 13.8 1.3 15 1.4 1 1.9 1 3-.2 1.7-1.8 3-28.7 1.4-30.6-1.5-1.8-3.6-1.6-4.7.5Zm-196.6 2.1 2.1.1-.4 114.5-29.3.6V462.4l12.8.2 14.8.2Zm-794.8.8c-1.5.4-1.8 1.7-1.8 9 0 7.8.2 8.4 2.3 9.2 3.8 1.5 4.7-.4 4.7-9.4 0-6.6-.3-8.4-1.6-8.9l-1.7-.5-2 .6Zm23.4.5c-1.8 1.8-1.6 16.2.3 17.8 2.4 2 5.4.3 6.1-3.5.5-2.9-.1-13.5-.8-14-1.3-1.1-4.6-1.2-5.6-.3Zm24.3.1c-.3.8-.4 5-.3 9.3l.3 7.9h6l.3-7c.4-9.4-.2-11.5-3.3-11.5-1.4 0-2.8.6-3 1.3Zm24.2.2c-1.3 3.4-.7 15.2.8 16.5 4.3 3.5 6.5-1.3 5.5-12-.4-5-.7-5.5-3-5.8-1.8-.2-3 .3-3.3 1.3Zm25.5-.2c-.8 1-1.7 11.7-1.3 16.5 0 .8 1.2 1.2 2.9 1 2.7-.3 2.7-.5 3-7.3.2-3.8 0-8-.2-9.2-.7-2.5-2.7-3-4.4-1Zm674.5 6c-.4 1.2-.6 5.9-.7 10.3 0 6.3.4 8.5 1.6 9.5 2.9 2.4 4-1 3.9-10.8-.2-11.6-.2-11.3-2.4-11.3-1 0-2 1-2.4 2.3Zm14-1.7c-.4.4-.7 5.4-.7 11.1 0 10.3 0 10.4 2.3 10.1 2.1-.3 2.2-.7 2.2-10.8 0-8.7-.2-10.5-1.5-10.8-.9-.1-1.9 0-2.3.4Zm470.7.3c4 1.6 9.9 7.4 11.8 11.9 2.3 5 2.6 13.9.7 20.3-1.7 5.9-1.6 7 .1 7.9 8.4 3.9 9.7 4.8 11.9 8.9 8.4 15.3-3.6 34.6-24.7 39.5-4.7 1-6.4 1.2-6.7.3l-1-10.6c-.3-5.2-.8-9.8-1-10.3-.9-1.3-5.2-1-5.6.5-.3.6-.2 5.8 0 11.5.4 5.6.3 10.2-.2 10.2-3.8 0-15.4-3.7-19-6-8.4-5.7-14.3-16.1-13.3-23.7 1.2-8.5 7.6-16.3 13.5-16.3 3 0 3.6-2.3 1.6-7.2a35 35 0 0 1 .1-21.1 29.6 29.6 0 0 1 13.4-15 33.3 33.3 0 0 1 18.4-.8Zm-495.5 41.6h-51.4c-33.7 0-51.5-.3-51.5-1 0-1 8.7-12.3 19.8-25.6l6.3-7.6 76.4.2.4 34ZM379 478.1c-2.4 1.8-3.4 7-3 15.3.4 8.3 1.5 9.5 8.4 9.5 8 0 8 .1 8-11.4 0-6.8-.5-10.8-1.4-12-1.7-2.4-9.5-3.3-12-1.4Zm609 10c8.3 5.7 9.4 12.2 9.3 55.5v34.2l-25.5-.4.3-35.5c.1-20.5.7-37.8 1.3-41 1.4-6.6 7-14.9 10.4-15 .5 0 2.4 1 4.2 2.2Zm269.3 89.8h-66v-86l65.5.5.5 85.5Zm25-81c-.5 1-1 5.4-1 9.8 0 8.4 1.1 10.7 4.7 10 1.6-.3 1.8-1.5 2-9.8 0-5.2-.3-10-.9-10.7-1.5-1.9-3.5-1.6-4.7.6Zm20.5-1a75.2 75.2 0 0 0-.7 18.1c.5 1.9 3.4 3 5 2 1.5-1 2.6-16.6 1.3-19-1.2-2.2-4.5-2.8-5.6-1Zm-849.2 3.3c-.5.6-1 4.7-1.1 9-.1 7.4 0 7.8 2.4 8.9 1.6.7 2.8.8 3.4.2 1.6-1.5 2.3-16.4 1-18-1.5-1.7-4.4-1.8-5.7-.1Zm25-.1c-.8.7-1.3 4.4-1.3 9.5 0 6.8.3 8.5 1.7 9 3.5 1.3 4.8-1 5.1-9.1.3-7.7-.6-10.6-3.2-10.6-.6 0-1.7.5-2.4 1.2Zm23-.5c-.9.3-1.3 3-1.3 8.6 0 8.6.5 10 3.2 11 2.9 1 3.8-1.4 3.8-10.4 0-7-.3-8.8-1.6-9.3-1.7-.7-2.3-.7-4.1 0Zm-318 1c-1.7.6-1.7 16.4 0 18.1 1.4 1.4 4.4 1.6 5.2.2.3-.5.6-4.3.6-8.5 0-9.2-1.4-11.6-5.8-9.8Zm-73 1.5c-.8.7-1.3 4-1.3 8.4 0 7.6 1.2 9.9 4.7 9.2 1.6-.3 1.8-1.5 1.8-9.3 0-8.3-.1-9-2-9.3-1-.1-2.6.3-3.2 1Zm23.8.2c-.7.9-1 4.2-.9 8.7.3 5.5.7 7.4 2 8.3 3.4 2.1 5-.3 5.4-7.8a26 26 0 0 0-.6-8.7c-1.2-2.2-4.3-2.5-5.9-.5Zm24.6-.7a31 31 0 0 0-.7 8.3c0 8.4 1 10.3 4.8 9.3 2-.5 2.2-1.2 2.2-7.8 0-4-.2-8-.6-9-.6-1.5-4.4-2.1-5.7-.8Zm49.5.2c-1.5 1-2.6 10.1-1.7 13.9.4 1.5 1.3 2.2 3 2.2 2.7 0 3.5-2.1 3.5-9.5 0-6.3-1.7-8.6-4.8-6.6Zm1001.5 5.8c-.4.3-.7 5.5-.7 11.5v10.8h3c1.7 0 3-.6 3.2-1.2.5-4.4.6-16.7.1-19-.4-2-1.1-2.8-2.7-2.8-1.2 0-2.5.3-2.9.7Zm21.3 22.4 5.5-.6v-22l-5.5-.6V529Zm-973.5-14.5c-23 2.6-40 8.5-51.3 17.5a365.5 365.5 0 0 0-30.8 33.2c-2 2.4-4.7 4-8 5-17.5 5.2-19.3 8.7-20.1 40.4-.5 20.5-.5 21.2 1.7 25.8 3.4 6.9 10.6 10.6 24 12.1 6.6.8 7 1 7 3.4 0 1 .9 3.9 2 6.4l2 4.5h-79.6c-43.7 0-80 .3-80.5.7-1.4.9-1 4.1.7 4.8.9.3 37.9.6 82.3.6h80.7l6 4.5c8 6 13.9 8 24.4 8a31 31 0 0 0 21.2-6.7l5-3.3 50.2-.1c27.6 0 66.2-.2 85.8-.4 34.8-.2 35.7-.1 37.7 1.9a37.4 37.4 0 0 0 26.4 10.2c10.6 0 17-2.3 26.2-9.7l4-3.1 57-.6c31.4-.3 57.8-.9 58.8-1.2 1-.4 1.7-1.7 1.7-3.2v-2.4l-56.5.3c-50 .3-56.4.1-55.8-1.2l2.2-6.1 1.5-4.7 12.6-.4c12-.3 12.8-.5 16.8-3.3 4.8-3.4 5.7-5.4 7.3-15 1.4-8.2.7-20-1.7-27.3-3-9.3-14-17.6-29.9-22.5-11-3.4-34.4-8.7-41.5-9.3-10-1-14.3-3.1-24.7-12.8-33-30.9-53.6-42.8-78.4-45.6-15.3-1.8-72.3-2-86.4-.4Zm614 62.9-104.5.3v-60.8l104.5.5v60Zm-546-56.5c21.2 1 26.5 2 39.4 7 13.9 5.6 26.5 14.8 50.9 36.8 12.8 11.6 18.6 15.2 24.4 15.2 10 0 44.5 8.2 56.2 13.4 6.7 3 10 5.4 13.3 9.8 4.3 5.8 3.7 6.2-9.2 5.5-6.3-.3-12.2-.4-13 0-2.4.9-1.8 5.2.8 5.8 2 .5 16 1.4 23.1 1.5h3L514 626a56.4 56.4 0 0 1-2 12.8c-1.7 3.7-6.5 5-18.4 5-10.1.1-10.3 0-10.3-2.2 0-8.2-8.3-22-16.6-27.8-22.6-15.5-55.3-1.2-59.8 26.3l-.6 3.7-10.3.3c-5.6.2-39.3.4-75 .6l-64.7.3v-3.3c0-9.7-6.5-22.2-14.8-28.5a39.7 39.7 0 0 0-37.3-4.4c-11.2 4.2-23.6 19-24.1 29-.3 3.9-.4 4-3.5 4.1-4.7 0-13.4-2-16.5-3.8-5.6-3.3-6-5.8-5.5-27.8.6-22.6 1.6-26.9 7.2-30.4 1.8-1 4-2 5-2 .9 0 3.9-1 6.6-2.1 3.9-1.7 6.7-4.2 13-11.8 16.9-19.9 26.3-28.8 35.4-33.3 7.9-4 30.8-9 46-10.2 9.3-.7 39.4-.5 58 .4Zm705.8 2.3c-.6.6-1.6 3.9-2.2 7.2a1418 1418 0 0 1-15.5 62 231.4 231.4 0 0 1-33.8 66.3c-2.7 3.7-3.8 6.1-3.6 8l.3 2.7 37.5.5v12h-76l-.5 2.4c-.8 3.2 4.3 13.5 10.2 20.3l4.5 5.3h-5c-5.5 0-6.2.4-5.5 3 .7 2.6 5 3.3 10.7 2 4-1.1 5.2-1 9.5.9 11.9 5 26.1 5 37.5-.2l5.4-2.5 5.4 2.7c5 2.4 6.3 2.6 18.4 2.6 12.5 0 13.2-.1 19.2-3l6.2-3.1 6.8 3.3a26 26 0 0 0 14 3.6 21 21 0 0 0 13.3-3.1l6.1-3.3 6.7 2.8c11.2 4.6 32 4.2 32.9-.7.5-3.2-1.3-4.2-5.4-3-7.4 2-18.2 1.1-26.6-2.2l-2.7-1 4.3-5.7c8.1-10.3 11.4-19.7 7.3-20.3l-34.7-.3c-18.4 0-38.3-.2-44.2-.3l-10.8-.2v-11.7l6.8-.5c10.8-1 72.4-.9 76.2 0 5.1 1.1 8 .4 8.6-2.2 1.3-5-16.6-46.5-31.6-73.7-12.4-22.4-45-71.9-47.4-71.9-.7 0-1.8.6-2.3 1.3Zm-246.3 8.4c-1.7 4.3-.8 16.4 1.3 17.7 1.3.8 2 .7 3.2-.5 2-2 2.4-16.1.5-18.4-1.9-2.3-3.9-1.8-5 1.2Zm31.3-1.5c-.8.8-1.3 4.2-1.3 9.5 0 7.1.3 8.4 2 9.3 1.4.8 2.3.6 3.5-.6 1.3-1.3 1.5-3.4 1.3-10.3-.2-7.7-.5-8.6-2.3-8.9-1-.1-2.6.3-3.2 1Zm29 0c-1.7 1.6-1.7 16 0 17.6 1.3 1.3 4.4 1.6 5 .5 1-1.7 1.5-11 .9-14.8-.7-4.3-3.5-5.8-6-3.3Zm-576.3 2.1c-.3.3-3.4.7-7 1-8.6.8-17.2 3.2-23.2 6.4-5 2.8-22.8 20.8-28 28.5-5.1 7.6-3 14.5 5 16.8 5.5 1.5 182.8 1.4 187.2-.1 3-1 3.2-1.4 2.7-4.7-.7-4-6.3-10.3-19.5-22.2l-10-9.1c-3.4-3.3-11.5-9-15-10.4a82.8 82.8 0 0 0-20.7-5c-7.3-.6-70.9-1.7-71.5-1.2ZM82.3 557l-.2 21-3.6.1h-27c-2.1-.1-2.2-.4-2.2-10.8v-10.8l5.8-1.7a54.7 54.7 0 0 0 21.8-14.2c2.2-2.4 4.3-4.5 4.7-4.5.5 0 .8 9.4.7 20.9Zm371.2-19.2c-1 2-1.5 12.7-.6 15.4.4 1.2 1.6 1.8 3.4 1.8 3.3 0 4.2-2.2 4-10-.3-7.2-4.5-11.7-6.8-7.2Zm829-.6a34.6 34.6 0 0 0-.3 16.6c.5.8 2 1.2 3.2 1 2.3-.3 2.4-.7 2.7-8 .2-5.9 0-8-1.3-9.2-2-2-2.7-2-4.3-.4Zm-780.7 1.2c-1.4 1-1.7 2.6-1.6 8.6.2 8.5.4 9 3.6 9 3 0 3.5-1.6 3.5-10 0-5.7-.3-7.1-1.8-8-1.3-.6-2.4-.5-3.7.4Zm545.3 14.4c23.6 35.2 43 70.7 52.7 96.7 2.5 6.5 4.5 12.2 4.5 12.5 0 .3-18.7.5-41.6.5h-41.6l.5-24.5c.7-31 1.6-43.8 3.9-57.5a342.2 342.2 0 0 1 11-42.9c.4.3 5.2 7.1 10.6 15.2Zm256.4-14.5a33 33 0 0 0-1.3 13.5c.1 2.8.5 3.3 2.3 3 2.6-.4 3.6-3 3.7-10.5.1-4.2-.3-5.4-1.8-6.2-1.3-.8-2.2-.7-2.9.2Zm-825.6.6c-.3.5-.6 4-.7 7.6 0 5.4.3 6.9 1.8 8 1.2 1 2.4 1 3.6.4 1.5-.9 1.8-2.1 1.5-8.7-.3-7.5-.3-7.7-3-8-1.4-.2-2.9.1-3.2.7Zm-184.4 2.4c.2 1.2.4 10.3.3 20.1v18l-37.2-.2c-37-.1-41.3-.5-41.3-3.5a210 210 0 0 1 21.8-25.5c9-7.7 21.4-10.7 45.9-11 9.7-.2 10.1-.1 10.5 2Zm37.2-.8c18 .8 24.2 2.3 32.6 7.9 6.9 4.5 29 24.4 31.6 28.3l1.5 2.3H301c-.3 0-.6-9-.6-19.9v-20l7.6.4 22.6 1Zm879.3 4.2a56 56 0 0 0 0 16.7c.8 2.1 4 2 5.1-.1 1.4-2.7 1.5-12.9.3-15.2-1.1-2-4-2.8-5.4-1.4Zm21.2 1c-.3 7.2.2 15.8 1.1 16.7 3.3 3.3 6.2-4.7 5-13.9-.4-3.5-.8-4-3.2-4.3-2.1-.3-2.8.1-2.9 1.5Zm115.8 18.7 5 .5c1 0 1.3 2.1 1.3 6.6v6.5h-9.8c-12 0-11.2 1-10.3-15l.1-3 5 2c2.7 1 6.7 2.1 8.7 2.4Zm-86.7 12.6c0 .6-.2 1-.4 1-.3 0-.7-.4-1-1-.4-.5-.2-1 .4-1 .5 0 1 .5 1 1Zm-947.5 6c.4.6 0 .7-1 .4-1.7-.7-2-1.4-.5-1.4.5 0 1.2.4 1.5 1Zm701.8 54.3c-.3 13.8-.6 25.3-.8 25.5H1000l-13.6-.3 6.4-9.5c7.3-11 13.6-22.2 18.6-33.2l3.6-7.8c.1 0 0 11.4-.4 25.3Zm-783.5-21.3a30.8 30.8 0 0 1 16.2 38.4 28.3 28.3 0 0 1-6.7 10.3c-5.2 5-8.4 6.9-15.5 9-13.5 4-31.6-5.4-36.7-19a32.4 32.4 0 0 1 7-31.2c4.3-4.4 12.2-9 17-9.8 5-.9 13.8.2 18.7 2.3Zm223.3-.3c3.5 1.2 7.1 3.4 11 7 17 15.8 13.3 40-7.6 50.4-6 3-7 3.2-14.3 2.7-11-.8-20-5.8-25.1-14.3-14.7-23.6 9.5-54.4 36-45.8Zm-453 2c-1.2 1-1.3 1.6-.5 3 1 1.7 4.5 1.8 62.7 2 54.4.2 61.7 0 62.8-1.3 1-1.1 1-2 .3-3.2-1-1.5-6.5-1.7-62.4-1.7-45.9 0-61.7.3-62.9 1.2Zm537.6-.2c-3.2 3.1-1 4.5 7.2 4.5l225 .2c203 .2 217.5.1 218.5-1.5 2.8-4.3 10.5-4.2-225.3-4.5-200.8-.2-224 0-225.4 1.3Zm569.7 0c-1.1 2.9.5 4.3 5.3 4.9 6 .7 277.8.6 281.6-.1 2.2-.4 2.7-1 2.7-3.4v-2.9h-144.5c-127.3 0-144.6.2-145.1 1.5ZM212 628.2c-13.3 6.2-14.4 23.2-1.8 30 4 2.3 5.7 2.6 9.2 2.1 5.5-.8 11.3-4.5 13.4-8.5 2.2-4.3 2.3-13 .2-16.2-4.6-7-14.4-10.4-21-7.4Zm224.8 3a16.3 16.3 0 0 0 5.3 30.3c10.3 1.6 20.9-7.8 19.7-17.6l-.4-3.7c-.2-2-6.2-8.2-9.3-9.8a17.6 17.6 0 0 0-15.3.8Zm-213.6 4.2c7.9 4 3.8 17.5-5.3 17.5-4.7 0-9.7-4.1-9.7-8 0-3.6 4-9.2 7-10.1 3.9-1 5-1 8 .6Zm228.4 2.6c5.4 4.2 2.3 14.8-4.6 16.1-3.5.7-8.5-1-10.2-3.4-2.6-3.7-2-7.6 1.8-11.4 4.1-4 8.9-4.6 13-1.3Zm-43.5 18.4 2.6 6.7c.7 1.7-3.9 1.8-79.9 1.8-46.3 0-80.6-.4-80.6-.9s.7-1.4 1.4-2c.8-.7 2-3.2 2.7-5.6l1.4-4.5 22-.2c12.1-.2 46-.3 75.3-.3h53.4l1.7 5Zm789.3-1.9c-9.7 5.5-26.5 7-32.7 3-3.3-2.2-5.7-1.4-5.3 1.6 1 7.5 25.7 9 38.9 2.5 4.6-2.3 4.8-2.3 7-.6a28 28 0 0 0 7.4 3.3c11 3.2 22 2.6 32.3-2l5.7-2.5 4 2c2.2 1 7.1 2.7 10.9 3.7 5.8 1.4 8 1.5 14.7.6 4.4-.7 10-2.2 12.8-3.6l5-2.6 6.8 3.3c6.4 3 7.5 3.2 17.3 3.1a36 36 0 0 0 16.5-2.4c6.3-2.6 8.2-5.4 5.2-7.9-1.2-1-2.4-.7-6 1.3-9.6 5-23.3 4.2-35.2-2.2l-5.1-2.8-5 2.7a35.8 35.8 0 0 1-22.9 5c-6.2-1.2-14-4.3-16.7-6.8-1.6-1.5-2.2-1.5-4-.3a39.1 39.1 0 0 1-23.3 7.1c-6.9 0-12.3-1.7-18.3-5.5a21 21 0 0 0-4.9-2.6 30 30 0 0 0-5.1 2.6Zm-495.7 3.4a47.5 47.5 0 0 1-36.6 3.8c-4.2-1.8-4.4-1.8-5.6-.1-1.2 1.6-1 2 .8 3.6a41.4 41.4 0 0 0 38.3 1.2l6.4-2.6 3.4 2c10.3 6.1 28 6 38.4 0l3.5-2.1 7.2 3.2a48 48 0 0 0 37.8-.1l4.7-2 4.1 2c10 5.1 25.8 4.9 33.6-.5l3.6-2.4 4 2c11.9 6.1 33.5 6 41.3 0 2.5-2 2.6-4.4.2-5.3-.8-.3-3.3.4-5.7 1.6-3.6 1.8-6 2.2-13.9 2.1-8.8 0-10-.3-17.2-3.7-8.8-4.3-9.8-4.4-12.3-1.7-1 1-4.2 2.9-7.1 4a26.2 26.2 0 0 1-25.5-3c-2.4-1.6-5-3-5.6-3-.7 0-3.1 1.3-5.3 3-9.7 7-26.3 6.7-37.4-.6-5.1-3.4-6.5-3.5-10.1-.8a27.2 27.2 0 0 1-19 5.7c-6.4 0-9-.5-13.6-2.6-3-1.4-6.1-3.3-6.8-4.2-1.7-2-2-1.9-5.6.5Zm402.5 32a70 70 0 0 1-13 16.3c-2.3 2-6.5 4.4-9.2 5.3-8.4 2.8-14.8 1.3-25-5.9-1.5-1-2.8-.7-8 2-12.8 6.8-27.4 7.3-37 1.4-2.7-1.7-5.4-3.1-6-3.1-.6 0-3.8 1.4-7.1 3-9 4.4-16.2 5.7-23.6 4.2a35.2 35.2 0 0 1-19.2-9.5 49.5 49.5 0 0 1-9.9-14c0-.4 35.6-.7 79-.6 43.5 0 79 .5 79 1Zm149 13.6a36.1 36.1 0 0 1-29 4.9c-3.5-1-7.5-2.3-9-3-3-1.6-5.3-.6-4.8 2.1.5 2.5 8 6.2 15.8 7.6a54 54 0 0 0 31.4-5.8c1.5-1 2.4-.9 5 .6a50.1 50.1 0 0 0 44.2-.6c2-1.4 2.6-1.3 6.1.4a46 46 0 0 0 40 1.9c4.1-2.2 5-3.5 3-5.4-1.2-1.3-1.8-1.3-4.3 0-4.2 2.1-9 3-16.2 3-7.5-.2-11.5-1.4-20.4-6.1l-6.7-3.6-2.3 2.1a35.4 35.4 0 0 1-19 7c-7.7.6-17.8-2-24-6.2-2-1.4-3.8-2.5-4-2.4l-5.8 3.5Zm-1174 2.3a44.5 44.5 0 0 1-33.5 4.5c-5.8-2.2-7-2.2-7.3.4-.3 1.9.6 2.7 5.5 5a41.8 41.8 0 0 0 31.4-.8l8.4-3 6.6 3c4 1.8 8.7 3.1 12.2 3.4 7.3.5 18.2-1.6 23-4.4 3.3-2 3.9-2 6.4-.7a44 44 0 0 0 38.4 1.2l5.1-2.6 7.2 3a46 46 0 0 0 20.9 4.2c10 0 23.7-5.2 23.7-9 0-3.9-2-4-7.9-.8-5 2.8-6.5 3.2-14.4 3.4a43.9 43.9 0 0 1-25.3-6.7c-3.3-2.5-4.4-2.5-7.7 0-3.7 3-13.2 6-18.7 6-5.9 0-16-3-19.5-5.9-3.2-2.5-5.7-2.7-7.4-.6-.7.8-3.8 2.6-6.8 4a35.1 35.1 0 0 1-32.2-3.4c-3.5-2.6-4.8-2.6-8-.2Zm485.6-.4c-3.6 2.7-13 5.7-19.8 6.2-5.4.4-8.3 0-13.8-1.7-4.9-1.6-7.4-2-8.1-1.2-1.6 1.6.7 5 4 5.8 1.4.4 3.2 1.1 3.8 1.6a47.4 47.4 0 0 0 33-3l3.6-1.9 7.6 3.1c7 2.8 8.6 3 18.6 3 10.8 0 11.7-.2 22.3-4.5 2.7-1.1 3.6-1.1 5.4 0a40 40 0 0 0 37 .7c2.4-1.6 2.8-1.6 6 .3a44.2 44.2 0 0 0 22.3 4.8c6.7-.6 17.5-5 17.5-7 0-3-2-3.5-7.3-1.5-3.2 1.3-7.6 2-11.7 2a31 31 0 0 1-22.1-7.4c-1.4-1-2.4-.7-5.6 1.5-11.3 7.8-24 7.3-36.5-1.6-1.5-1-2.7-.7-7 1.5-12.7 6.6-22.1 7.5-33.3 3.3a56 56 0 0 1-8.7-4c-2.7-1.9-4.7-1.9-7.2 0ZM365.3 710a42.1 42.1 0 0 1-33.2 1.7c-3.5-1.5-3.8-1.5-4.7.2-3.6 6.7 19.3 10.7 34.3 6 3.6-1 6.8-2.4 7.1-2.9.3-.5 2.2-.2 4.3.7a42.5 42.5 0 0 0 34.4.8l6-2.4 4.6 2.2c4 1.8 6.5 2.2 16.7 2.2 10.3 0 12.5-.3 15.5-2 2.4-1.4 3.6-3 3.8-4.8.4-3.3-.9-3.4-6.8-.5a35.6 35.6 0 0 1-30.1-2.4c-3.5-2.3-3.5-2.3-10.9 1.5-5.7 2.9-7.1 3.2-15 3.2-7.7 0-9.2-.3-14.6-3.1l-6-3.1-5.4 2.7Zm449.8 1.8c-8.5 4.4-17 5.3-26.3 2.7-3.6-1-6.8-2.1-7-2.7-.9-1.3-3.5 1-3.5 3.2 0 2.6 9.2 6.2 17.1 6.8 7 .5 17.4-1.6 24-4.8 2.4-1 4.3-1.4 5-.9.8.5 4.4 1.8 8 3 9.2 3 19.6 2.7 29-.7l7.2-2.6 7.3 2.2a45.7 45.7 0 0 0 26 .4c6.3-2 8.6-4.7 6-7.2-1.4-1.5-1.8-1.5-4.3 0-4 2.3-8 3-15.7 2.9-5.5 0-8.3-.7-12.9-3l-5.9-2.8-7.6 3.3a54.5 54.5 0 0 1-12.5 3.7c-6 .6-15.6-1.6-20.7-4.8a14.4 14.4 0 0 0-5.2-2.3c-.7 0-4.3 1.7-8 3.6Z" clip-rule="evenodd"/></svg>