<svg xmlns="http://www.w3.org/2000/svg" width="1401" height="698" fill="none"><path fill="#000" fill-rule="evenodd" d="M125 1.7c-14.3 4-24.7 14.3-27 27l-.6 3.6-4.9-.5A33.6 33.6 0 0 0 70 39.7a24.6 24.6 0 0 0-8.7 20.6c0 6.2.4 8 3.3 13.4 2.3 4.5 4.5 7 7.7 9l4.5 2.9h79.9c72.2 0 80.2-.2 83.4-1.7 4.8-2.3 6.7-5.6 6.7-11.9 0-4.5-.4-5.9-3-9.1-4.3-5.3-8.3-7.4-14.5-7.6L224 55l-.1-5.2c0-4-.8-6.2-3-9.3-8.7-12.6-21-15.7-39.3-10-.7.3-2.2-1.9-3.7-5.5a41.5 41.5 0 0 0-23.5-22.7c-7.6-2.9-20.3-3.2-29.3-.7Zm28.7 7.7A37.4 37.4 0 0 1 174 37c.9 7.3 3.3 8.9 6.5 4.3 4.8-6.7 16.3-8.8 25.4-4.5 8.6 4.1 11.5 8.7 11.4 18.2-.1 8 1.2 9 8.5 7.4 5.3-1.2 5.9-1.1 8.4.7 1.5 1.2 3.5 3.5 4.6 5.2 1.6 2.8 1.7 3.6.6 6.3-.7 1.7-2.1 3.3-3.1 3.7-3.2 1.2-153.5 1.3-156.6 0-11.4-4.2-15.3-21.3-7-31.3 6.5-8 19-10.9 25.4-6 5.3 4 6.9 3 6.5-3.9a27.3 27.3 0 0 1 6.4-19.5c4.4-5 9.2-7.7 18.6-10 8.3-2 17.2-1.4 24 1.7Zm1060.5 14.1a45.6 45.6 0 0 0-30 29.1c-2.1 6.4-2.2 6.5-6.5 4.9a35 35 0 0 0-18.9.6 28.9 28.9 0 0 0-15.4 12.4c-2.6 4-3.2 6.3-3.7 12.3-.9 11.4 2.8 20 11.1 26l4 2.8h90.3c75.8 0 91-.3 93.8-1.5 4.6-1.9 6.8-6.5 6.8-13.8-.1-11.3-8-18.2-20.3-17.9-3.6.1-7.3.5-8.2.7-1.4.5-1.8 0-1.8-2.3 0-10.7-6.2-20.6-16-25.5-5.8-3-7.3-3.2-15-3.2-6.2 0-9.4.5-11.8 1.8-1.9 1-3.4 1.7-3.5 1.5-7.5-15.5-15-22.8-27.7-27.4a54.8 54.8 0 0 0-27.2-.5Zm24.2 7c4 1.2 8.6 3.6 11.5 5.8 5.8 4.5 12 13.8 13 19.3.4 2.2 1.1 4.2 1.6 4.5.5.3 3.7-.8 7-2.5 7.6-3.7 15-4 23.2-1 9.8 3.6 14 10.6 13.6 22-.2 3.8.1 7.3.7 7.9.6.7 3.6.5 9-.7 6.8-1.4 8.8-1.4 12.2-.4 5.4 1.6 8.3 5.6 8.4 11.7.1 8.6 8 7.9-91.3 8.1-95.8.3-90.5.6-96-5.3-3.7-3.8-5-7.8-5-14.5a22.4 22.4 0 0 1 27.6-21.9c3.3.7 6.7 2.2 8.2 3.6 4.7 4.4 6.2 3.3 6.8-5 .7-10 8-21.4 17.5-27.5a36.5 36.5 0 0 1 32-4ZM396 80.7c-1.4.8-1.7 2.5-1.7 9.4 0 7.8-.1 8.5-2 8.5-1 0-2 .3-2 .7 0 .4-3.6 14.3-8 30.8s-10 38.3-12.6 48.5c-3.2 13-5.1 18.9-6.5 20-1.8 1.4-1.9 3.5-2.1 36.4-.3 32.9-.4 34.9-2.1 35.1-4.8.7-4.7.2-4.7 23v21.5h-2.3c-5 0-5.5 1.9-5.9 23.2l-.3 19.8h-3c-6.2 0-6.4.5-6.7 21.6-.2 10.6-.6 19.5-1 19.9-.4.4-2.2.9-4 1-1.7.3-3.6.9-4.1 1.4-.5.5-1 5.8-1.1 11.7l-.4 17.6-.2 6.8h-4c-5.2 0-6 1.6-6 12.9 0 9 0 9-2.5 9-1.3 0-5.6 2.1-9.6 4.7a152 152 0 0 1-82.1 23l-17.8.6-.5-55.7H78l-.5 49.4c-.4 43.3-.7 49-1.9 46.7-.8-1.4-3.6-4-6.2-5.9l-4.9-3.2.6-7.2c1-11.5-2.4-18.8-11.3-24a18 18 0 0 0-11.2-2.8c-14.6 0-24 9.6-24 24v5.4l-4.8 2.4c-6 3-8.6 5.8-11.4 12.2-3 6.6-3 16.2-.2 22.6a37.6 37.6 0 0 0 26.5 20.2l6.3 1.3.3 4.4c.2 2.4 0 5.8-.2 7.4l-.6 3H21.7c-16.5 0-18.8.4-18.8 3.6v2.5l17.4.2c12.9.2 17.7 0 19-1 1-.8 1.2-.8.8 0-1 1.6 988.8 1.2 990.4-.4.6-.6.8-2 .4-3.2-.6-2.1-1-2.1-36-2.1-19.5 0-35.5-.4-35.5-.8 0-.5.5-1.4 1.2-2 1.7-1.8 2.3-17.2.8-21.8a39 39 0 0 0-13-15c-2.6-1.3-2.7-1.7-2-5.7.5-2.3.6-5.4.3-6.8-.4-2.3 0-2.9 3.9-4.5 4-1.8 7.7-2 49.8-2.2 25-.1 46 .1 46.7.5.7.5 1.8 4.4 2.4 8.8 1.8 13 1.6 12.6 4.7 12.3 2.6-.3 2.7-.5 2.4-6.3-.5-11.3-2.2-18.4-5-20.6-1.3-1-3.5-2-4.8-2-2 0-2.4-.5-2.4-2.7l-.5-11.2a20701.4 20701.4 0 0 1-5-95 2119.2 2119.2 0 0 0-2.5-48l-1.6-30.7-.6-15.2 2.6-2.3c2.7-2.3 2.7-2.6 2.8-14.7 0-6.8-.4-12.8-.9-13.2-.4-.5-3.5-1-6.8-1.1l-6-.3-.5-39 2.4-2c2.4-2 2.4-2.3 1.5-8-2.7-16.7-10.8-28.4-23.4-34-5.5-2.4-5.5-2.4-5.5-7 0-4 .2-4.4 3-5 6.2-1.4 6.7-6.5.5-6.5h-3.5v-13c0-9.9-.3-13-1.4-14-1.2-1-1.9-.8-3.5.9-1.9 1.8-2 3.3-2 13.6v11.5h-3c-6.3 0-6.5 5.5-.3 7.4 3 1 3.2 1.3 3.2 5.7v4.7l-6 2.7a41.6 41.6 0 0 0-22 32.2c-1.2 7.8-1 9.3 2 9.3 2 0 2 .7 1.8 20.2l-.3 20.3-12 1-.5 8c-.3 4.4-.3 10.8-.2 14.3.3 5.3.7 6.4 2.6 7.1l2.1.8-2.1 46.9a6976.2 6976.2 0 0 1-3.9 79.4 4753.2 4753.2 0 0 1-4 78.3c0 .5-1.4 1.4-3.2 2.2-3.2 1.3-3.3 1.3-6-2.9a19 19 0 0 0-8-6.6c-3.7-1.8-5.2-3.1-5.2-4.6-.1-3.4-5.4-12.7-8.4-14.9-2.3-1.6-4.4-2-10.7-2-7.2 0-8.1.2-11.5 3-4.5 3.6-8.5 10.8-8.5 15.2 0 6.2 6 5.5 7-.9a14 14 0 0 1 14.5-11.8c4.6 0 10 5.7 9.9 10.7 0 2-.4 4.7-.8 6-.7 1.8-.4 2.3 2 2.7 9 1.9 13.2 4.5 16 9.8 1.7 3.3 2 13.7.5 16.6-1.8 3.4-1.3 5 2.3 6.1a24.7 24.7 0 0 1 15.6 21.1c0 5.3-3 12.4-5.8 13.9-1.3.7-10.1 1-23.7 1h-21.6l.5-4.7c.2-2.6.5-7.5.5-11 .1-6 .2-6.1 3.4-7.2 4.6-1.5 9-6.2 8.5-9.2-.5-3.5-3.4-3.4-6.4 0-3.7 4.5-5.4 4-5.5-1 0-2.4-.6-6.6-1.2-9.3-1-4.4-1.5-5-3.7-5s-2.5.4-2.5 4c0 2.2.3 6.5.7 9.6l.6 5.7-4.4-1.5c-5-1.8-7.4-1.3-7.4 1.5 0 1.4 1.5 2.4 5.3 3.9l5.2 2 .6 22.3-24.6-.5v-64l2.3-.4a5 5 0 0 0 3.3-2.3c.9-1.6.6-2.7-1.5-5.7-4.4-6.3-32.8-42.6-34-43.4-.6-.5-23.5-.5-51-.2l-49.7.6.2-18.6c.2-16 0-18.8-1.4-19.8-.9-.7-1.8-3.6-2.2-6.7-.4-3-2-8.2-3.5-11.5a29.6 29.6 0 0 0-18.2-16.4c-2.8-1.1-2.8-1.1-2.8-11.1 0-9.8 0-10.1-2.5-11.2-4-1.9-5 0-5.5 11.3l-.5 10-5 2c-9.8 3.7-17.2 14.9-18.3 27.4-.4 5-.8 6.4-2.3 6.8-2.7.7-3.4 3.4-1.6 5.5 1.4 1.5 1.6 5 1.7 22.5v20.8l-13.1 14.2c-16 17.3-16.5 18-15 21.2.6 1.3 1.6 2.5 2.3 2.5 1 0 1.3 6 1 28.7l-.2 33.5v4.8h-42v-4.3a27 27 0 0 0-8.4-17.5c-2-1.8-4.1-3.2-4.6-3.2-1.6 0-1.3-38 .3-38.4a52.8 52.8 0 0 0 19.5-8.6c6-4.3 7.5-6 10.3-11.5 3-6 3.1-7 2.7-14.5-.3-6-.1-8 .9-8.5.7-.3 2.5-3 4-6 4.7-10.2 2.1-24.2-6.3-33.6-4-4.4-10.2-7.9-14-8-2 0-2.2-.5-2.3-6a23.7 23.7 0 0 0-14.8-22.2c-5.6-2.6-7.2-3-12.7-2.5a29.4 29.4 0 0 0-28.2 26.7c-.5 4.4-.2 7 1 10.1l1.7 4.3-3.5 3.6a25.3 25.3 0 0 0-6.9 17.6c-.1 4.3.2 6 1.4 6.7 3.2 2 5 .2 5-5.2 0-2.8.6-6.8 1.5-8.8 1.7-4.1 6.1-9.2 8-9.2 2 0 2.5-3.2.8-6.4-.8-1.7-1.8-5.7-2.1-8.9a21.9 21.9 0 0 1 9.3-19.7c4-3 5.7-3.5 11-3.9 8.5-.5 10.7.2 16 5 5.3 5 6.7 8.9 6.3 18.2l-.4 7.2h5c2.8 0 6.4.8 8.2 1.7 3.7 2 9.6 9.8 11.1 14.8 2.5 7.8.5 16.2-4.7 20-3.7 2.8-4.3 4.3-3 7.7a25.5 25.5 0 0 1-.6 16c-2.9 7.1-14.3 15.5-23 17l-3.5.5v-21.6c0-19.2-.2-21.8-1.6-22.3a4 4 0 0 0-3.1.3c-1.3.7-1.5 4.5-1.4 23.2l.2 22.3-3.8-.7c-8.5-1.4-10-1.7-12.9-3.5l-3-1.9-.1-10.6c0-5.9-.5-11-1-11.6-.6-.5-6.8-1.4-14-1.9-29.4-2-50-8.5-63.8-20-5.3-4.5-10.1-7-13.5-7-1.9 0-2-.6-2-11.2 0-7.5-.4-11.8-1.2-12.5-.7-.7-3-1.2-5-1.2h-4l.4-17.4c.4-20 0-21.1-6.4-20.2l-3.8.5.2-20c.2-18.8 0-20.3-1.7-21.6-1-.7-3.2-1.3-4.7-1.3h-3l.2-7.3c.6-32 0-35.7-5.6-35.7h-2.4V293c0-20.2-.1-21.5-2-22.5-1-.6-3-1-4.4-1h-2.6v-35.1c0-33.7 0-35.2-1.9-35.6-1.2-.3-2-1.7-2.3-3.7-.3-1.7-5-21.1-10.6-43.1l-11.4-46c-1-5-1.8-6.3-4-7.3-2.5-1.2-2.8-1.9-3-7l.1-6.6c.3-1.6-1-4.5-2.2-5-.7-.2-2 0-3 .5Zm16 69.9c13.7 55 13 53 14.6 53 1 0 1.4 35 1.6 172.9l.3 173-2.9-.5c-10-1.6-9-.8-9.5-8.2-.2-3.7-.3-23.6-.2-44.2.2-41.5-.3-48.7-3.7-55.6-3.4-6.8-10.5-14.4-13.5-14.4-2.8 0-8.9 5.1-12.8 10.8-5.3 7.7-5.6 10.5-5.6 62.3v47.7l-5.7.4-6 .2c-.2-.1-.3-77.7-.3-172.5 0-134.6.3-172.6 1.2-173.7.7-.8 3.1-9 5.4-18.1 6.1-24.4 19.4-76.4 20-78 .2-.7 1.5-1.1 3.1-1l2.8.4 11.2 45.5Zm-15.5 27.8c-1 .7-1.3 5.8-1.2 23.7 0 23.8.5 26.3 4.1 24.4 1.8-1 2-2.5 2-24.4 0-20.3-.3-23.4-1.7-24-1.9-.7-1.6-.7-3.2.3Zm178.7 12.7c-3 .6-7.5 2-10 3.3a62 62 0 0 0-25 29.2c-.9 3.7-1 3.8-4.2 2.9-5.9-1.7-13.1-1.1-16.8 1.3-5.2 3.6-7.9 8.3-7.9 14 0 4.1.5 5.4 3 7.9l2.9 2.9 60.5-.3c59.3-.2 60.5-.3 63.2-2.3a16 16 0 0 0 7.2-12.3c.9-9.7-4-18.6-12.5-22.8-4.8-2.3-6.2-2.6-12.3-2-3.8.3-7.7 1-8.6 1.5-1.4.7-2.1 0-4.2-4a45 45 0 0 0-15.8-16.7c-6-3-13-4-19.5-2.6Zm13.4 7.4a30 30 0 0 1 17.6 20.8c1.3 4.8 2.1 5 7.6 2.3 2.8-1.5 5.9-2 10.9-2 5.9 0 7.4.3 10.3 2.5 4.4 3.4 6.5 7.8 6.6 13.8 0 4.2-.3 5.3-2.9 7.6l-3 2.6h-57.4c-31.6 0-58-.4-58.7-.9-.7-.4-1.3-2.5-1.3-4.5 0-4.2 2.6-7.8 6.4-8.7 2.7-.7 14.6 1.3 16.2 2.7 2.3 1.8 4.1-.2 4.7-5.2.8-6.6 4.7-13 13.2-21.5 10.6-10.8 19-13.4 29.8-9.5Zm-207 5.2a61.3 61.3 0 0 0-.4 22.7c.5.7 2 1.2 3.7 1l3-.3v-24l-2.6-.3c-1.4-.2-3 .2-3.7 1Zm27.2 0c-1.2 1.7-1 21.8.2 23 .6.5 2.4.9 4 .7l2.8-.3.2-9.5c.2-13.3-.2-15-3.8-15-1.5 0-3 .4-3.4 1Zm596 7.8c7.8 3.6 14.5 13.4 17 24.8l.7 3.3h-50.4l.7-4.3c1.6-10 7.7-19 15.5-23 6.4-3.3 10.6-3.4 16.5-.8Zm-851.7 18c-5.3 1.7-31.1 20.7-30.1 22.3.4.6.1.8-.6.3-.7-.4-4.3 2-8.9 5.7-4.2 3.5-19.2 15-33.2 25.5A2016.6 2016.6 0 0 0 13.5 335c-2.7 2.7-2.3 5.6.8 5.6 2.1 0 10.6-6.1 30.6-22 15.8-12.5 26.6-20.7 60-45.6 6-4.5 12.7-9.7 14.8-11.5a359 359 0 0 1 30.7-23.2c4.6-2.7 6.5-3.2 11.5-3.2 8.7 0 12.6 2.7 37 25 19.7 18 22.7 20.2 51.9 38.7 8.3 5.3 11.2 5.6 20 2.3 8.4-3.3 10.5-2.2 40.5 20.3 15.3 11.5 19.6 14.3 20.9 13.5 4.1-2.6 3.2-3.5-20.3-21.3-19.9-15-25.4-18.5-31.6-20.2-4.2-1-5.3-1-10.6 1a37 37 0 0 1-8 2.2c-2.4 0-22.6-12.4-34.1-20.8-6.5-4.7-22-18-27.7-23.7a385 385 0 0 0-20.3-17.5 36 36 0 0 0-8-4.6 42 42 0 0 0-18.4-.5Zm865.6 29-.2 20.3-.2 8.8h-16v-14.8c0-15.3-.5-17.2-4.2-17.2-1 0-2.7.9-3.8 2-1.8 1.8-2 3.3-2 16v14h-16v-41l42.5.5v11.5Zm-624-8.5c-4.5 2-7.4 6.5-7.4 11.6 0 7.5 4.3 12 11.4 12 8.6 0 13.2-11.5 7.9-19.7-.8-1.2-3-2.9-4.8-3.8-3.9-1.8-3.2-1.8-7.1-.1Zm6.4 6.8c1.6 1.5 1.6 8 0 9.6-2.9 2.9-7.8 0-7.8-4.6 0-4.8 5-8 7.8-5Zm36 40.1c0 10.9.6 20.6 1.2 21.6s2.2 2 3.8 2.2l2.7.4.3 20c.1 11 .4 20.5.7 21.2.3.7 2.2 1.3 4.5 1.3h4v19.7c0 10.9.4 20.3.8 21 .4.6 2.5 1.3 4.7 1.4l4 .4 1 37 4.2.3c3.7.2 4.1.5 4.6 3.4.2 1.7.5 30.3.6 63.4l.2 60.4-4.3-3c-6-4-19.6-10.7-27.5-13.6a65.4 65.4 0 0 1-7-2.8c-.2-.2-.5-62.1-.6-137.5-.2-96 0-137 .8-136.8.6.2 1 7.3 1.3 20ZM362 413.5v136l-3 .7-4 1c-6.1 1.2-21.6 8.4-28.6 13.1l-3.5 2.4-.5-5c-.3-2.8-.5-30.4-.5-61.4v-56.2l10-1 .1-8 .3-18.3.1-10.2h3.8c2.1 0 4.3-.6 5-1.2.9-.9 1.2-7 1.2-21.5v-20.3h3.9c5.3 0 6.3-1.6 6.1-10.2v-31.8h2.4c5.8 0 5.6.5 5.6-22.7 0-11.7.3-21.3.8-21.3.4 0 .7 61.1.8 136Zm34-119a42.4 42.4 0 0 0 0 18.2c4.2 3.4 6.4-2 5.4-13.1-.4-4.7-.8-5.6-2.6-5.9-1.2-.1-2.5.2-2.8.7Zm636.4 16h-68.9l-.3-2.7c-.2-1.5-.1-5.1 0-8l.4-5.2h68.8v16Zm-900-.7A156.6 156.6 0 0 1 103 339c-22.5 14.2-25.6 16.5-25.3 18.7a2.8 2.8 0 0 0 2.5 2.6c2.6.3 8.5-3.7 7.6-5.2-.3-.5-.1-.6.5-.3.7.4 3.8-1 7-3.1 3.1-2.2 8-5.2 10.7-6.8 7-4 17.1-13.9 28.7-27.8 10.1-12.1 11.8-15.8 7.3-16.4-1.5-.2-4 2.2-9.5 9Zm71.7-8.1c-1 .5-1.7 1.5-1.7 2.2 0 3.2 21.9 27.7 34 38 8.5 7.3 24.6 17.8 27.7 18 4.5.3 4.2-3.3-.4-6.3a187 187 0 0 1-36.5-30 293.8 293.8 0 0 1-16-17.5c-3.6-4.9-4.8-5.7-7-4.4ZM1256.8 313c-.7 1.7-1.1 5.8-1.3 12.2 0 3.3-.5 4.3-1.8 4.3-3.3 0-10.1 5-13.1 9.7-3.6 5.6-6.5 15.7-5.3 18.1.5 1 1 6.8 1 13 0 12.7.2 12.2-8 12.5l-5.4.2-.6 24.1 3.6 2c3.6 1.8 3.6 2 3 6.9l-2 23c-.9 9.9-1.7 18.6-2 19.5-.2.8-.9 7.5-1.5 15a719.4 719.4 0 0 1-3.4 34 2878.3 2878.3 0 0 1-6 56.4c-.2 1.2-1.3 2.3-2.7 2.6-3.4.8-6.5 6-8 13.5-1 5.4-1.7 6.8-3.6 7.5-2.2.9-2.6 3-1 5.5 1 1.6 192.2 1.4 193.8-.2.8-.8.8-1.7 0-3.2-1.1-2-2-2.1-16.6-2.1h-15.5v-12.8l6.8-.6c16.3-1.6 25.8-7.1 31.7-18.6a30.3 30.3 0 0 0 0-20.5c-2-4.3-7.4-9.1-12.3-11l-3.7-1.6v-10.8c0-10-.2-11-2.6-14.7a22.7 22.7 0 0 0-29.2-8.2c-9.3 4.3-13.6 12-13.6 24.5 0 5.8-.4 7.3-1.6 7.3-2.8 0-9.2 3.8-11.9 7-6.3 7.6-8.2 20-4.2 28.6 4.4 9.3 15.2 16 28.4 17.7 2.4.3 4.5.6 4.7.8.5.6.8 3.2.6 8.1v4.8h-18.1c-13.6 0-18.2-.4-18.4-1.3l-1.7-7.6c-1.4-7.2-4.8-12.1-8.3-12.1-2.2 0-2.3-.6-4.5-21.3a2348.9 2348.9 0 0 0-6.5-56.7 2123 2123 0 0 1-7.2-69.8c-.6-7.8-.6-8.2 1.3-8.2 4.3 0 5.3-3 5.3-14.7 0-7.2-.4-11.4-1.2-12.1-.7-.7-3.6-1.2-6.6-1.2h-5.3l.5-33.5-3.4-6.4c-3.6-6.7-8.9-11.5-13.9-12.6-2.8-.6-2.8-.7-3-8.8 0-8-.7-9.7-3.9-9.7-.7 0-1.5.6-1.8 1.5Zm-229.8 5.7c.2.2.6 7.5 1 16.4l.7 16-5.4.7-8.9 1.2-21.5 3.5-22.6 3.5-4.7.7.4-7.4.9-13.8c.2-3.6.5-9.8.5-13.8v-7.2l9.3-.3c10.7-.3 49.9 0 50.3.5Zm-631 14.5c-1.2 2-1 17.1.3 18.7 1.6 1.8 2 1.9 4 .6 1.7-1 2.4-15.3.9-18.3-.9-1.8-4.3-2.4-5.2-1Zm872 6.7a23 23 0 0 1 5.6 7.3l1.5 4-15.5.6c-8.5.4-15.7.5-16 .2-1.2-1.3 1.5-7.3 5.2-11.1 4-4.2 4.6-4.4 9.8-4.4 4.8 0 6 .4 9.5 3.4Zm-238.2 25.3c.3 4.3.9 14.6 1.2 23l.6 15-2.9.7-9.3 1.5L983 411c-7.5 1.3-15.2 2.6-17.4 3.2l-2.4.6.7-16.4c.8-19.8 1.7-31 2.5-31l2.3-.4 5.5-1c3.1-.4 33.8-5 47.3-7.2 2-.3 3.7-.7 4-1 .1-.2 1.1-.3 2-.3 1.5 0 1.9 1.3 2.4 7.7Zm246.6 17.3-34-.4v-21.5l2.8-.4 17-.6 14.2-.3v23.2Zm-880.5-10c-.8 1.3-.8 15.7 0 17 1 1.7 5.3 1 5.8-.8.7-2.6.1-14.7-.7-16-.9-1.5-4.3-1.6-5.1-.2Zm892.5 32.2-7.2-.6c-4-.3-17.3-.6-29.4-.6h-22.2l-.3-4.8a43 43 0 0 1 0-7l.3-2.3 58.8.1v15.2ZM720 406.5c7.6 3.4 12.8 11.4 14 21.4l.7 5.5-43.8-.3.3-4a29 29 0 0 1 7.2-18.5c6-6 14-7.6 21.6-4.1Zm312.8 18.6 1.2 25 .5 10.2-7.8 1.2a450.4 450.4 0 0 0-20.3 3.5c-3 .6-7.8 1.2-14.5 2-2.7.4-6.3 1-8 1.5-1.6.5-6.8 1.4-11.5 2-4.7.7-9.3 1.5-10.4 1.8-1.7.4-1.8-.1-1.2-10.9l1.2-25.3c.4-7.7.8-14.3 1-14.5.8-.8 46.4-8.4 63.9-10.7 2.2-.2 4.2-.7 4.4-1 .8-.7.9 0 1.5 15.2Zm248.1-13.4c.4.4.8 3.9 2.5 21.4a1497.9 1497.9 0 0 0 4.6 43 2123 2123 0 0 0 5 43l1 8c.6 4.5 3.7 33.7 3.8 36 .1 2-.6 2-38.5 2.2l-38.7.3.4-3.3 2-19.2a1916.8 1916.8 0 0 0 5-48c1.3-14.3 2.7-28 3-30.5a4073 4073 0 0 0 5.3-52.4c.1-1.8 1-1.9 22.2-1.4 12.1.3 22.2.7 22.4 1Zm-23.3 16.7c-1 .6-1.2 3.4-1 10.2l.3 9.5h6l.3-8.9c.3-10.5-1.2-13.6-5.6-10.8Zm-855.3 9c1.8 2.2 4 6 5.1 8.5 2 4.3 2 6.8 2 51.3v48.4c0 1.3-1 1.6-5.2 1.3l-11.5-.3h-6.3l.3-48.3c.2-43.4.4-48.6 2-52.2 1.9-4.2 8.3-12.5 9.7-12.5.5 0 2.2 1.7 4 3.9Zm-205.8 48.4c0 26 .2 59.5.5 74.5l.5 27.2-39.3.3h-56.8l-17.6-.3.3-72.2.3-74.5v-2.2h112v47.2Zm541 3.9 6.7 7.2c9.2 9.9 15.2 16.7 15.2 17.2 0 .3-21.8.5-48.5.4h-48.6l3.1-4c1.7-2.1 4.1-4.7 5.3-5.7 1.3-1 5.7-5.7 10-10.5l7.7-8.7v-15.3l.1-22.1c0-3.8.1-7.2.3-7.5.2-.4 11.3-.6 24.5-.6h24.1v49.6Zm-34.3-37c-1.5.8-1.8 2.4-1.8 9.9 0 8 .2 9 2 10 4 2 5-.3 5-10.6 0-7.5-.3-9.3-1.6-9.8-1.9-.8-1.5-.8-3.6.4Zm17.4 0a40.6 40.6 0 0 0-.2 19c1.5 2.6 4.9 2.4 6-.4 1.4-4 1-16.6-.6-18.3-1.8-1.8-3.6-1.9-5.2-.2Zm405 2c-2 1.4-4.8 5-6.6 8.4-1.8 3.3-6.6 11.1-10.7 17.5a1062.3 1062.3 0 0 0-53.4 92 485 485 0 0 1-24.4 43.5c-5 7.9-6.3 12.3-3.8 14.2 2 1.7 7.4 2.2 27.2 2.8 10.5.2 22.4.7 26.5 1 4.1.2 18 .7 31 1 13 .4 23.8.9 24.3 1.1.4.3.7 3.8.7 8v7.4l-20.2-.5c-34.5-.9-54.3-1.5-82.2-2.7-28.7-1.2-29.4-1.1-28 3.7 1.5 4.8 23.8 28.4 31.8 33.6 5.7 3.7 5.7 3.8 3 4.4-1.4.4-6 .5-10.2.2-6-.5-9-1.4-14.7-4.2-3.8-2-7.4-3.6-7.8-3.5a46.8 46.8 0 0 1-25.8 8.1c-7.6 0-13.7-1.4-19-4.4-4.1-2.2-6.9-1.8-6.9 1 0 5.2 11.4 9.5 25 9.4 7.8 0 11.2-.5 18.8-3l9.3-3 5.2 2.3a51.2 51.2 0 0 0 42-.6l6.6-3.1 4.8 2a37 37 0 0 0 18.4 3.4c6 0 10-.8 16.3-2.9l8.5-2.8 3.8 2c3.3 1.8 5.6 2 16.3 2a48 48 0 0 0 20.4-2.8l8-2.7 5.4 2.6a54.8 54.8 0 0 0 21.8 5.5c5.3 0 19.8-3.3 21.9-5 .6-.6 1.6-.6 2-.1a48.6 48.6 0 0 0 37.8 2.6l7.6-2.6 3.8 1.9c12 6.1 25.8 6.7 41.2 2l9.4-3 4.7 2c6.2 2.7 17.1 4.4 20.3 3.2 1.4-.5 2.7-.7 3-.4 1.5 1.5 17.5-5.5 18.3-8 1-3-1.1-4.3-4.9-2.7-13.1 5.4-23.5 6.2-32.7 2.6-7.2-2.8-10.6-3-16.8-.8-16 5.7-26.7 5.7-38.3 0-8.3-4.2-9.5-4.4-12.6-2.3-3 2.2-12.9 4.6-18.6 4.6-5.3 0-13.4-2.1-19.3-5-3.7-1.8-3.8-1.7-8.8.4a63.7 63.7 0 0 1-8 3c-2.5.6-2.3.2 2.6-4.7a57 57 0 0 0 10.2-14.6c5.8-11.3 6.9-14.7 5.2-16-.8-.7-14-1.2-36.7-1.4l-35.4-.2.1-5.5c.2-10.2.2-10.1 2.7-9.6 2 .4 49.6 2 54.1 1.7 5.1-.2 4.4-4.6-4.1-24.1l-10.3-23.5-16.8-38.5c-6.6-15.2-14.8-34.5-18.3-43L1144 493l-.6-15.5c-.8-19.8-2.5-23.6-10.7-24.7-2.9-.4-4.6 0-7.2 1.8Zm-1022 3c-1.2 1.3-1.6 11.6-.6 15.5.8 2.8 2.7 3.6 4.9 2 1.9-1.4 2.8-12.5 1.4-16.4-1-2.4-3.8-3-5.7-1Zm23.6.2c-.9.9-1.3 3.6-1.1 8.4.2 8 .6 9.3 3.2 9.3 3.1 0 4.1-2.2 4.1-9.5 0-7-1-9.5-3.6-9.5-.7 0-1.8.6-2.6 1.3Zm23.3 0c-.7 1-1 4.2-.9 8.7.3 7.6 1.7 10 5.2 8.6 2.3-.9 2.4-17.1 0-18-2.3-1-3-.8-4.3.8Zm23.1.6c-.4 1-.5 5-.4 9 .3 5.9.7 7 2.3 7.6 3.6 1.1 5-1.2 5-8.6 0-3.7-.4-7.5-.7-8.4-.9-2.2-5.3-2-6.2.4Zm961.2 2c1.5 1.6 1.6 8.3 1.4 85.1l-.3 83.3-16-.2c-8.8-.1-19.8-.4-24.5-.7l-27.4-1c-16.3-.4-33.7-1.3-34.3-1.8-.1-.1 2.9-5.4 6.6-11.7a600.9 600.9 0 0 0 20.6-38c4.7-9.2 15-28.3 24.3-44.4 6.7-12 24.6-41 33.8-55 2.9-4.4 6-9.7 7-11.7 1.4-3.1 4.2-5.5 6.5-5.8.3 0 1.3.8 2.3 1.8Zm-819.4 58.9V572l-14.5 15.4h-25.5c-14 .1-36 .1-48.7 0h-23.3v-94h12.8a225.8 225.8 0 0 0 24.7-1.4c9.9-.7 26.1-4.4 37-8.3 7.6-2.7 26.1-11.7 28.5-13.8 2.4-2 7.3-4.4 8.2-3.8.4.2.8 24.2.8 53.2Zm720.4-38 1.3 27.4.6 12.8H958l.7-20c.4-11.1 1-20.7 1.2-21.3.3-.8 9.6-2.8 24.7-5.2a3905 3905 0 0 0 49.8-8.4c.3 0 1 6.5 1.3 14.6ZM491.3 474c6.2 5.9 28 16 38.6 18a267 267 0 0 0 32 3.8l6 .4.3 33.2c.2 31.5.1 33.2-1.5 32.5-1-.4-4.8-1-8.4-1.2-12.8-.9-23.6 4.5-28.3 14a25.2 25.2 0 0 0-2.6 9v3.8h-36.2L480.4 576V468.7l3.7 1a21 21 0 0 1 7.2 4.4Zm765.3-.3a46 46 0 0 0-.6 18.2c.8 2.1 5.1 2 6.2-.2a43.7 43.7 0 0 0 0-17.5c-1-2-3.9-2.3-5.6-.5Zm-399.8 23c8 10.3 14.6 19 14.6 19.2 0 .3-22.7.6-50.4.6-48 0-50.5-.1-51.8-1.9-1.7-2.4-14-16.1-20-22.5-4.4-4.5-4.8-5.4-4.8-9.8v-4.8l46.3-.3c25.4-.1 47.4 0 48.9.3 2 .3 6 4.8 17.2 19.2ZM52 494.4c2.2 1.5 4.7 4 5.4 5.7 1.6 3.2 1.9 11.6.7 18-.7 3.7-.6 4 2.5 5.9 9.6 5.6 14.8 13.8 13.5 21.6-1.4 9-5.5 13.8-15.3 18.1-4.4 2-17.2 4.1-17.1 2.9v-10.3c-.2-8.2-.5-9.8-2-10.6-3.8-2.1-4.7 0-4.4 11l.3 10-4.3-.7c-18.6-3.1-30.1-20.6-23-35 2.4-4.8 6.3-8.4 10.1-9 6.5-1.2 6.6-1.4 6.6-11.2 0-8.1.2-9.2 2.7-12.4 6.1-8 16-9.7 24.3-4Zm99.2-1.7c-1.4.8-1.7 2.4-1.7 8.8 0 8.4 1.2 10.8 4.9 9.6 1.5-.5 2-1.7 2.3-5.8.7-10.8-1.2-15-5.5-12.6Zm23.9.2c-1.4 1-1.6 2.7-1.4 9.7.3 7.4.5 8.5 2.2 8.8 3.2.6 4.6-2.6 4.6-10.5 0-6-.3-7.4-1.9-8.3-1.3-.7-2.3-.6-3.5.3Zm-72 1.2a38 38 0 0 0 .4 15.5c1.1 2 4.5 2.6 5.5 1a56 56 0 0 0 .1-16.9c-1-1.7-5.3-1.4-6 .4Zm23.7-.3a36.3 36.3 0 0 0-.2 15.9c1.1 2.1 4 2.4 5.7.7.7-.8 1.2-4.3 1.2-9 0-6-.3-7.8-1.6-8.2-2.4-1-4.2-.8-5 .6Zm1241.3.7c8 4.9 10.8 13.1 8 24.1-.9 3.4-1.6 7-1.6 8 0 1.8 2.6 3 7 3 3.8 0 9.7 4.6 11.4 9 6 14.8-5.4 27.1-27.1 29.5l-5.2.6-.3-10.8c-.3-10.8-.3-10.8-2.8-10.8s-2.5 0-2.8 10.2l-.3 10.3h-3.8a33 33 0 0 1-17.6-6c-8.8-6-11.3-17-6.1-26.5 2.7-5 5.9-7.3 12.1-8.8l5-1.2v-9.5c0-6.5.6-10.7 1.7-13.1 3.6-8.3 15.3-12.4 22.4-8ZM284.5 510.9c-.8 1-1 6.4-.9 18.3l.3 16.9 6.6.6-.3-18.3c-.3-17.7-.4-18.4-2.4-18.6a4 4 0 0 0-3.3 1Zm216.4 0c-.3.6-.6 8.3-.8 17-.3 14-.1 16.1 1.4 18 1.4 1.7 2.1 2 3.6 1 1.6-1 1.8-2.9 2-18 .3-15 .2-17-1.4-18-2.1-1.7-4.2-1.7-4.8 0Zm-271.1 1.9c-.9 1.3-.7 33.5.2 34.9.8 1.3 3 1 4.6-.5 1-1 1.3-5.3 1.3-17.2 0-8.8-.4-16.5-.8-17.2-1-1.6-4.3-1.6-5.3 0Zm27 0c-.2.8-.3 8.7-.2 17.8l.3 16.5 2.8.3c1.7.2 2.8-.2 2.8-1 .5-4 .6-32.5.2-33.6-.7-1.6-5.2-1.6-5.8 0Zm268 0c-.2.8-.3 8.7-.2 17.7.3 14.5.5 16.5 2.1 17.4 3.7 2.3 4.5-1 4.2-18.1-.1-8.7-.3-16.3-.4-17-.1-1.6-5-1.6-5.6 0Zm620.6.9c0 .9 6 15 11.6 27.6a593 593 0 0 1 9 20.8l9.5 22a4741 4741 0 0 0 13.4 31c7.6 17.4 7.5 16.5 2.3 16-2.4-.3-14-.8-26-1.1l-21.8-.7v-58.9c0-37.8.4-58.7 1-58.3.6.3 1 1 1 1.6Zm-596.4-.3c-.3.6-.6 8.5-.7 17.7 0 16.2.3 18.4 3.1 18.4 2.7 0 3-2.2 2.8-19-.3-17-.3-17.5-2.4-17.8-1.2-.1-2.5.2-2.8.7Zm707.4 8.2c-.6 1-1 5.6-.8 10.1.2 6.3.7 8.4 2 9.2 1.3.8 2.2.6 3.7-.7 1.7-1.6 2-3 1.8-9.7-.3-7.7-1.5-11-4.3-11-.7 0-1.8 1-2.4 2Zm-491 66h-101v-67l100.8.2.3 66.8Zm-182-63.1 5.3.9 3.2.2h2.5v35h-5.2c-3 0-7.1.8-9.5 2-2.3 1-4.4 1.5-4.6 1.1-.7-1.2-.8-39.1-.1-40.2.3-.6 1.4-.8 2.3-.4.9.3 3.6 1 6.1 1.4Zm284 15c.3 9.1.5 23.5.5 32v15.6l-96.5.5v-64l15.8-.3 47.7-.2h32l.5 16.5Zm-764-9.8c-1.7 3-.8 15.7 1 16.9 1.8 1.1 2.2 1.1 3.9 0 2-1.3 2.5-15.6.5-17.5-2.1-2.1-4.1-2-5.5.6Zm23.7-1.5a35 35 0 0 0-.7 9c0 6.8.3 8.4 1.7 9.2 1.1.6 2.4.6 3.5 0 1.5-.7 1.8-2.3 1.8-8.7 0-4.7-.5-8.2-1.2-9-1.3-1.3-4-1.5-5.1-.5Zm23 0c-.8.8-1 14.6 0 16.8.2.8 1.6 1.6 2.9 1.6 3 0 3.6-2.3 3.2-11.6-.3-6.6-.4-7-2.8-7.2-1.4-.2-2.9 0-3.3.4Zm24 0c-.8.8-1 14.6 0 16.8.8 2.2 4 2 5.3-.5.6-1 1-5.2.8-9.2-.3-7-.4-7.3-2.8-7.5-1.4-.2-2.9 0-3.3.4Zm624.5 9.2c-1.9 1.9-2.2 3.3-2.2 10.2 0 8.8 1 12 4 12s4-3.1 4-11.9c0-6.2-.4-8.4-1.8-10.2l-1.9-2.3-2.1 2.2Zm-109.1 1.8c-1.8 2.3-2 4-2 12.9 0 11.4 0 11.5 6.8 11.5 5.5 0 6.1-1.2 6.1-12.1 0-8.3-.3-10-2-12.3-1.3-1.5-3.1-2.6-4.5-2.6-1.3 0-3.2 1-4.4 2.6Zm43.8 0c-2.2 2.3-2.4 3.3-2.3 11.7 0 12.4.2 12.7 6.8 12.7 4 0 5.6-.5 6-1.6.3-.9.6-5.9.6-11 0-8.8-.2-9.7-2.4-12-3.2-3.1-5.6-3.1-8.7.1Zm99.3-1.4a51 51 0 0 0-.1 19.5c1 2.8 4.3 3 6.1.3a36.1 36.1 0 0 0 0-18.8c-1.4-2.5-4.4-3-6-1Zm158 14.2a33.7 33.7 0 0 0-7.8 5c-2.4 2.5-2.5 2.9-1 4.3 1.5 1.5 2.1 1.4 8.2-1.7 13.5-7 24-2.2 28.5 12.8 1.4 4.8 3.1 6 5.4 4.1 2.2-1.8 1.9-4.7-1.4-11.5-6.4-13.5-19.3-18.8-31.8-13Zm-567.2 3a154 154 0 0 1 33.5 12.6c10.2 5.7 26.5 18.7 24.4 19.5-.8.2-39.6.4-86.4.2l-85-.2 6.2-6.2c12.6-12.4 29-21 47.8-25 10.1-2.1 12.9-2.3 33.5-2 12.4.3 24 .7 26 1.1Zm-346 17.6c0 7.9-.1 14.4-.3 14.6-.2.2-8.2.4-17.7.5l-17.5.1-.6-14 7.4-1c11-1.7 18.5-5 23.7-10.3 2.5-2.5 4.6-4.5 4.8-4.4.2.2.3 6.7.3 14.5Zm485.6-4c1.5.6 4.2 2.4 6.1 4 1.9 1.6 3.9 3 4.5 3 .6 0 3-1.8 5.4-4 4-3.8 4.8-4 10.2-4 8.1 0 14 3 17 9 1.2 2.4 2.2 5.9 2.2 7.7v3.3h-74v-2.3c0-3.3 3.3-9.9 6.3-12.6 5-4.5 15.9-6.5 22.3-4.1Zm743.8 5.6c1.2 2 3.6 10 3.6 12.1 0 1-10.9 1.3-51 1.3-36.3 0-51-.4-51-1.1 0-1.6 2.9-11.2 3.8-12.6 1-1.6 9-1.9 55.1-1.7 36 .2 38.5.3 39.5 2Zm-346.7 8.5c-.3.8-.6.6-.6-.6 0-1 .2-1.6.5-1.3.3.4.4 1.2 0 2ZM14.9 625.5c-6.6.3-12 1-11.9 1.3l.7 2.7c.4 1.7 15.8 1.8 502.3 1.4 276-.3 502.5-.6 503.2-.9.8-.2 1.2-1.5 1-2.7l-.3-2.2H518.4c-270.3 0-496.9.2-503.5.4Zm1217.5.6c-1 1.3-1 1.8.1 3 1.3 1.2 12.8 1.5 79.9 1.5 46 0 78.8-.4 79.3-1 .5-.4.6-1.8.2-3l-.6-2h-78.8c-70 0-79 .1-80.1 1.5Zm-171.5 30c24 1.2 93.3 2.4 141.4 2.4 6.1 0 6.1 0 .8 9A48.2 48.2 0 0 1 1184 686c-6.4 2.8-6.2 2.8-17.2-2.7l-8-4-6 2.9c-11.5 5.6-28.1 6-36.9 1-5.2-3.1-5.9-3.2-9.3-.8-4 2.8-13 5.5-19.4 5.8-6.4.2-13.1-1.3-20-4.7l-4.6-2.3-9.6 4.6-4.6-2.4c-7.2-3.7-16-11-23.8-19.7-4-4.4-7.2-8.3-7.2-8.7 0-.6 17.4-.2 43.5 1ZM318 669a28 28 0 0 1-6.3 3.7c-13.8 6-25.2 5.5-36.4-1.8-5.6-3.7-8.1 1.5-3 5.9 4.7 3.9 12.5 6 22.1 6 7.6 0 9.5-.4 17.6-3.7l9.2-3.8 3.3 2.1c4.8 3 10.3 4.2 18 4.2 5.5 0 7.8-.5 13-3.1l6.3-3.1 6.5 3.3c6.2 3 7.2 3.3 17.1 3.2 9.4 0 11.2-.3 16.5-2.8l6-2.7 7 3.2c6.4 3 7.8 3.3 16.3 3.2 8 0 9.6-.3 11.4-2 1.8-2 1.8-2.2.3-3.7-1.2-1.2-2.4-1.4-4.3-1a34 34 0 0 1-24.1-4.2c-6-4-7.7-4.2-10.6-1.4-1.2 1-4.8 3-8 4-10.5 3.8-24.1 1.5-29.9-5-2.5-2.7-4.8-2.6-8.5.6-8.7 7.2-24.1 7-33.8-.6-3-2.5-3.7-2.5-5.7-.5Zm-224.8 2.4c-12 7.5-27.7 8-36.5 1-5.6-4.4-9-.3-3.7 4.6 8.4 7.7 26.8 8.4 40.3 1.5 3.8-1.9 3.8-1.9 7 0 5 3 13.8 5 21.3 4.8 6.7-.1 16.4-2.7 20-5.3 1.6-1.1 3-.9 9.1 1.8 6.5 2.8 8.2 3.1 17.2 3.1 8.6 0 11-.4 16.6-2.7a59 59 0 0 1 7.4-2.7c.4 0 3.3 1.1 6.3 2.6 5.8 2.7 15.1 4.1 19.7 3 2-.6 2.6-1.2 2.3-2.9-.3-2-1-2.2-6.7-2.3-5.3-.2-7.7-.9-14-4.1l-7.6-4-7.5 3.6c-7 3.3-8.2 3.6-16.5 3.5a30.1 30.1 0 0 1-20.6-6 5 5 0 0 0-3.4-1.4 5 5 0 0 0-3.4 1.3c-2 2.4-10.7 5.6-16.8 6.3-8.5.9-16.4-1-21.4-5.2a60 60 0 0 0-4.3-3.4l-4.8 2.9Zm430.7-.4c-7 5.8-21.5 7.4-32.4 3.6-7.6-2.7-9.6-2.4-8 1.3 1.9 4 10.6 6.9 21 6.9a36 36 0 0 0 16.5-3.2l8.2-3.2 4.8 2.4a48.7 48.7 0 0 0 19.7 4.6c4.9 0 15.7-3 19.4-5.5 2.2-1.4 2.6-1.4 4.2 0 3.1 2.8 11 5.6 17.4 6.2 7.1.7 15-.8 21.1-3.9l3.9-2 5.6 3c5.1 2.5 6.6 2.8 16.1 2.8 9.2 0 11.1-.4 15.5-2.5 8.4-4.3 5.3-7.9-4-4.7a37 37 0 0 1-31.7-5.5c-1.3-1-2.3-.7-5.5 1.4a29.8 29.8 0 0 1-35.5-.3c-4-3.3-6-3.6-7.7-1.6-2.7 3.4-11.4 6-19.6 6-9.1.1-13.8-1.2-19-5.4-4.5-3.6-6-3.6-10-.4Zm225.6 0a35 35 0 0 1-34.3 2.6c-4.9-2.5-6-2.8-7.5-1.6-1.7 1.2-1.7 1.4.6 3.8 7.5 8 24.2 9.3 40 3l6.3-2.5 6 2.7a37 37 0 0 0 14.8 3.2c9 .5 12.7-.1 21.2-4l4.8-2 5.6 2.7c10.6 5.1 23 5 36-.5l5.2-2.1 4.4 2.5a42.6 42.6 0 0 0 37.2.2c6.6-3.1 8.6-6 6.2-8.4-1.4-1.4-1.9-1.4-3.9-.2-7.8 5-17.2 7.6-24 6.6-6.7-1-13.4-3.5-15.9-6-2.9-3.1-5-3.2-9.1-.2a32.6 32.6 0 0 1-36 .9c-4.9-2.9-6.3-3.3-7.6-2.4-.9.7-4 2.4-7 4-5 2.3-6.7 2.6-15 2.6-9.9 0-17-2.2-20-6-1.8-2-4-1.7-8 1.2Z" clip-rule="evenodd"/></svg>